%TF.GenerationSoftware,KiCad,Pcbnew,9.0.5*%
%TF.CreationDate,2025-11-24T11:18:26-05:00*%
%TF.ProjectId,everframe_board,65766572-6672-4616-9d65-5f626f617264,rev?*%
%TF.SameCoordinates,Original*%
%TF.FileFunction,Soldermask,Top*%
%TF.FilePolarity,Negative*%
%FSLAX46Y46*%
G04 Gerber Fmt 4.6, Leading zero omitted, Abs format (unit mm)*
G04 Created by KiCad (PCBNEW 9.0.5) date 2025-11-24 11:18:26*
%MOMM*%
%LPD*%
G01*
G04 APERTURE LIST*
G04 Aperture macros list*
%AMRoundRect*
0 Rectangle with rounded corners*
0 $1 Rounding radius*
0 $2 $3 $4 $5 $6 $7 $8 $9 X,Y pos of 4 corners*
0 Add a 4 corners polygon primitive as box body*
4,1,4,$2,$3,$4,$5,$6,$7,$8,$9,$2,$3,0*
0 Add four circle primitives for the rounded corners*
1,1,$1+$1,$2,$3*
1,1,$1+$1,$4,$5*
1,1,$1+$1,$6,$7*
1,1,$1+$1,$8,$9*
0 Add four rect primitives between the rounded corners*
20,1,$1+$1,$2,$3,$4,$5,0*
20,1,$1+$1,$4,$5,$6,$7,0*
20,1,$1+$1,$6,$7,$8,$9,0*
20,1,$1+$1,$8,$9,$2,$3,0*%
G04 Aperture macros list end*
%ADD10C,0.010000*%
%ADD11RoundRect,0.150000X0.700000X-0.150000X0.700000X0.150000X-0.700000X0.150000X-0.700000X-0.150000X0*%
%ADD12RoundRect,0.250000X1.100000X-0.250000X1.100000X0.250000X-1.100000X0.250000X-1.100000X-0.250000X0*%
%ADD13RoundRect,0.200000X-0.275000X0.200000X-0.275000X-0.200000X0.275000X-0.200000X0.275000X0.200000X0*%
%ADD14R,0.900000X1.000000*%
%ADD15RoundRect,0.218750X0.218750X0.256250X-0.218750X0.256250X-0.218750X-0.256250X0.218750X-0.256250X0*%
%ADD16RoundRect,0.250000X0.475000X-0.250000X0.475000X0.250000X-0.475000X0.250000X-0.475000X-0.250000X0*%
%ADD17RoundRect,0.200000X0.275000X-0.200000X0.275000X0.200000X-0.275000X0.200000X-0.275000X-0.200000X0*%
%ADD18RoundRect,0.250000X-0.850000X0.375000X-0.850000X-0.375000X0.850000X-0.375000X0.850000X0.375000X0*%
%ADD19RoundRect,0.225000X0.375000X-0.225000X0.375000X0.225000X-0.375000X0.225000X-0.375000X-0.225000X0*%
%ADD20RoundRect,0.150000X-0.150000X0.587500X-0.150000X-0.587500X0.150000X-0.587500X0.150000X0.587500X0*%
%ADD21RoundRect,0.225000X-0.375000X0.225000X-0.375000X-0.225000X0.375000X-0.225000X0.375000X0.225000X0*%
%ADD22C,0.570000*%
%ADD23O,1.354000X1.604000*%
%ADD24RoundRect,0.200000X-0.200000X-0.275000X0.200000X-0.275000X0.200000X0.275000X-0.200000X0.275000X0*%
%ADD25RoundRect,0.225000X-0.225000X-0.250000X0.225000X-0.250000X0.225000X0.250000X-0.225000X0.250000X0*%
%ADD26C,2.000000*%
%ADD27RoundRect,0.125000X-0.125000X-0.225000X0.125000X-0.225000X0.125000X0.225000X-0.125000X0.225000X0*%
%ADD28RoundRect,0.025000X-0.600000X0.150000X-0.600000X-0.150000X0.600000X-0.150000X0.600000X0.150000X0*%
%ADD29RoundRect,0.250000X0.250000X0.475000X-0.250000X0.475000X-0.250000X-0.475000X0.250000X-0.475000X0*%
%ADD30RoundRect,0.250000X-0.475000X0.250000X-0.475000X-0.250000X0.475000X-0.250000X0.475000X0.250000X0*%
%ADD31RoundRect,0.225000X0.225000X0.250000X-0.225000X0.250000X-0.225000X-0.250000X0.225000X-0.250000X0*%
%ADD32RoundRect,0.525400X-0.525400X0.900400X-0.525400X-0.900400X0.525400X-0.900400X0.525400X0.900400X0*%
%ADD33RoundRect,0.400400X0.400400X-0.900400X0.400400X0.900400X-0.400400X0.900400X-0.400400X-0.900400X0*%
%ADD34C,1.700000*%
%ADD35RoundRect,0.225000X0.250000X-0.225000X0.250000X0.225000X-0.250000X0.225000X-0.250000X-0.225000X0*%
%ADD36RoundRect,0.250000X-0.250000X-0.475000X0.250000X-0.475000X0.250000X0.475000X-0.250000X0.475000X0*%
G04 APERTURE END LIST*
D10*
%TO.C,J2*%
X76620000Y-125600000D02*
X75650000Y-125600000D01*
X75650000Y-125200000D01*
X76620000Y-125200000D01*
X76620000Y-125600000D01*
G36*
X76620000Y-125600000D02*
G01*
X75650000Y-125600000D01*
X75650000Y-125200000D01*
X76620000Y-125200000D01*
X76620000Y-125600000D01*
G37*
X76620000Y-127100000D02*
X75650000Y-127100000D01*
X75650000Y-126700000D01*
X76620000Y-126700000D01*
X76620000Y-127100000D01*
G36*
X76620000Y-127100000D02*
G01*
X75650000Y-127100000D01*
X75650000Y-126700000D01*
X76620000Y-126700000D01*
X76620000Y-127100000D01*
G37*
X76620000Y-127600000D02*
X75650000Y-127600000D01*
X75650000Y-127200000D01*
X76620000Y-127200000D01*
X76620000Y-127600000D01*
G36*
X76620000Y-127600000D02*
G01*
X75650000Y-127600000D01*
X75650000Y-127200000D01*
X76620000Y-127200000D01*
X76620000Y-127600000D01*
G37*
X76620000Y-128100000D02*
X75650000Y-128100000D01*
X75650000Y-127700000D01*
X76620000Y-127700000D01*
X76620000Y-128100000D01*
G36*
X76620000Y-128100000D02*
G01*
X75650000Y-128100000D01*
X75650000Y-127700000D01*
X76620000Y-127700000D01*
X76620000Y-128100000D01*
G37*
X76620000Y-128600000D02*
X75650000Y-128600000D01*
X75650000Y-128200000D01*
X76620000Y-128200000D01*
X76620000Y-128600000D01*
G36*
X76620000Y-128600000D02*
G01*
X75650000Y-128600000D01*
X75650000Y-128200000D01*
X76620000Y-128200000D01*
X76620000Y-128600000D01*
G37*
X76620000Y-129100000D02*
X75650000Y-129100000D01*
X75650000Y-128700000D01*
X76620000Y-128700000D01*
X76620000Y-129100000D01*
G36*
X76620000Y-129100000D02*
G01*
X75650000Y-129100000D01*
X75650000Y-128700000D01*
X76620000Y-128700000D01*
X76620000Y-129100000D01*
G37*
X76620000Y-129600000D02*
X75650000Y-129600000D01*
X75650000Y-129200000D01*
X76620000Y-129200000D01*
X76620000Y-129600000D01*
G36*
X76620000Y-129600000D02*
G01*
X75650000Y-129600000D01*
X75650000Y-129200000D01*
X76620000Y-129200000D01*
X76620000Y-129600000D01*
G37*
X76620000Y-131100000D02*
X75650000Y-131100000D01*
X75650000Y-130700000D01*
X76620000Y-130700000D01*
X76620000Y-131100000D01*
G36*
X76620000Y-131100000D02*
G01*
X75650000Y-131100000D01*
X75650000Y-130700000D01*
X76620000Y-130700000D01*
X76620000Y-131100000D01*
G37*
X78350000Y-125600000D02*
X77380000Y-125600000D01*
X77380000Y-125200000D01*
X78350000Y-125200000D01*
X78350000Y-125600000D01*
G36*
X78350000Y-125600000D02*
G01*
X77380000Y-125600000D01*
X77380000Y-125200000D01*
X78350000Y-125200000D01*
X78350000Y-125600000D01*
G37*
X78350000Y-127100000D02*
X77380000Y-127100000D01*
X77380000Y-126700000D01*
X78350000Y-126700000D01*
X78350000Y-127100000D01*
G36*
X78350000Y-127100000D02*
G01*
X77380000Y-127100000D01*
X77380000Y-126700000D01*
X78350000Y-126700000D01*
X78350000Y-127100000D01*
G37*
X78350000Y-127600000D02*
X77380000Y-127600000D01*
X77380000Y-127200000D01*
X78350000Y-127200000D01*
X78350000Y-127600000D01*
G36*
X78350000Y-127600000D02*
G01*
X77380000Y-127600000D01*
X77380000Y-127200000D01*
X78350000Y-127200000D01*
X78350000Y-127600000D01*
G37*
X78350000Y-128100000D02*
X77380000Y-128100000D01*
X77380000Y-127700000D01*
X78350000Y-127700000D01*
X78350000Y-128100000D01*
G36*
X78350000Y-128100000D02*
G01*
X77380000Y-128100000D01*
X77380000Y-127700000D01*
X78350000Y-127700000D01*
X78350000Y-128100000D01*
G37*
X78350000Y-128600000D02*
X77380000Y-128600000D01*
X77380000Y-128200000D01*
X78350000Y-128200000D01*
X78350000Y-128600000D01*
G36*
X78350000Y-128600000D02*
G01*
X77380000Y-128600000D01*
X77380000Y-128200000D01*
X78350000Y-128200000D01*
X78350000Y-128600000D01*
G37*
X78350000Y-129100000D02*
X77380000Y-129100000D01*
X77380000Y-128700000D01*
X78350000Y-128700000D01*
X78350000Y-129100000D01*
G36*
X78350000Y-129100000D02*
G01*
X77380000Y-129100000D01*
X77380000Y-128700000D01*
X78350000Y-128700000D01*
X78350000Y-129100000D01*
G37*
X78350000Y-129600000D02*
X77380000Y-129600000D01*
X77380000Y-129200000D01*
X78350000Y-129200000D01*
X78350000Y-129600000D01*
G36*
X78350000Y-129600000D02*
G01*
X77380000Y-129600000D01*
X77380000Y-129200000D01*
X78350000Y-129200000D01*
X78350000Y-129600000D01*
G37*
X78350000Y-131100000D02*
X77380000Y-131100000D01*
X77380000Y-130700000D01*
X78350000Y-130700000D01*
X78350000Y-131100000D01*
G36*
X78350000Y-131100000D02*
G01*
X77380000Y-131100000D01*
X77380000Y-130700000D01*
X78350000Y-130700000D01*
X78350000Y-131100000D01*
G37*
X77020000Y-131416000D02*
X77040000Y-131417000D01*
X77060000Y-131420000D01*
X77080000Y-131423000D01*
X77100000Y-131428000D01*
X77119000Y-131434000D01*
X77138000Y-131441000D01*
X77157000Y-131448000D01*
X77175000Y-131457000D01*
X77192000Y-131467000D01*
X77210000Y-131477000D01*
X77226000Y-131489000D01*
X77242000Y-131501000D01*
X77258000Y-131514000D01*
X77272000Y-131528000D01*
X77286000Y-131542000D01*
X77299000Y-131558000D01*
X77311000Y-131574000D01*
X77323000Y-131590000D01*
X77333000Y-131608000D01*
X77343000Y-131625000D01*
X77352000Y-131643000D01*
X77359000Y-131662000D01*
X77366000Y-131681000D01*
X77372000Y-131700000D01*
X77377000Y-131720000D01*
X77380000Y-131740000D01*
X77383000Y-131760000D01*
X77384000Y-131780000D01*
X77385000Y-131800000D01*
X77385000Y-132000000D01*
X77384000Y-132020000D01*
X77383000Y-132040000D01*
X77380000Y-132060000D01*
X77377000Y-132080000D01*
X77372000Y-132100000D01*
X77366000Y-132119000D01*
X77359000Y-132138000D01*
X77352000Y-132157000D01*
X77343000Y-132175000D01*
X77333000Y-132193000D01*
X77323000Y-132210000D01*
X77311000Y-132226000D01*
X77299000Y-132242000D01*
X77286000Y-132258000D01*
X77272000Y-132272000D01*
X77258000Y-132286000D01*
X77242000Y-132299000D01*
X77226000Y-132311000D01*
X77210000Y-132323000D01*
X77192000Y-132333000D01*
X77175000Y-132343000D01*
X77157000Y-132352000D01*
X77138000Y-132359000D01*
X77119000Y-132366000D01*
X77100000Y-132372000D01*
X77080000Y-132377000D01*
X77060000Y-132380000D01*
X77040000Y-132383000D01*
X77020000Y-132384000D01*
X77000000Y-132385000D01*
X76980000Y-132384000D01*
X76960000Y-132383000D01*
X76940000Y-132380000D01*
X76920000Y-132377000D01*
X76900000Y-132372000D01*
X76881000Y-132366000D01*
X76862000Y-132359000D01*
X76843000Y-132352000D01*
X76825000Y-132343000D01*
X76808000Y-132333000D01*
X76790000Y-132323000D01*
X76774000Y-132311000D01*
X76758000Y-132299000D01*
X76742000Y-132286000D01*
X76728000Y-132272000D01*
X76714000Y-132258000D01*
X76701000Y-132242000D01*
X76689000Y-132226000D01*
X76677000Y-132210000D01*
X76667000Y-132193000D01*
X76657000Y-132175000D01*
X76648000Y-132157000D01*
X76641000Y-132138000D01*
X76634000Y-132119000D01*
X76628000Y-132100000D01*
X76623000Y-132080000D01*
X76620000Y-132060000D01*
X76617000Y-132040000D01*
X76616000Y-132020000D01*
X76615000Y-132000000D01*
X76615000Y-131800000D01*
X76616000Y-131780000D01*
X76617000Y-131760000D01*
X76620000Y-131740000D01*
X76623000Y-131720000D01*
X76628000Y-131700000D01*
X76634000Y-131681000D01*
X76641000Y-131662000D01*
X76648000Y-131643000D01*
X76657000Y-131625000D01*
X76667000Y-131607000D01*
X76677000Y-131590000D01*
X76689000Y-131574000D01*
X76701000Y-131558000D01*
X76714000Y-131542000D01*
X76728000Y-131528000D01*
X76742000Y-131514000D01*
X76758000Y-131501000D01*
X76774000Y-131489000D01*
X76790000Y-131477000D01*
X76807000Y-131467000D01*
X76825000Y-131457000D01*
X76843000Y-131448000D01*
X76862000Y-131441000D01*
X76881000Y-131434000D01*
X76900000Y-131428000D01*
X76920000Y-131423000D01*
X76940000Y-131420000D01*
X76960000Y-131417000D01*
X76980000Y-131416000D01*
X77000000Y-131415000D01*
X77020000Y-131416000D01*
G36*
X77020000Y-131416000D02*
G01*
X77040000Y-131417000D01*
X77060000Y-131420000D01*
X77080000Y-131423000D01*
X77100000Y-131428000D01*
X77119000Y-131434000D01*
X77138000Y-131441000D01*
X77157000Y-131448000D01*
X77175000Y-131457000D01*
X77192000Y-131467000D01*
X77210000Y-131477000D01*
X77226000Y-131489000D01*
X77242000Y-131501000D01*
X77258000Y-131514000D01*
X77272000Y-131528000D01*
X77286000Y-131542000D01*
X77299000Y-131558000D01*
X77311000Y-131574000D01*
X77323000Y-131590000D01*
X77333000Y-131608000D01*
X77343000Y-131625000D01*
X77352000Y-131643000D01*
X77359000Y-131662000D01*
X77366000Y-131681000D01*
X77372000Y-131700000D01*
X77377000Y-131720000D01*
X77380000Y-131740000D01*
X77383000Y-131760000D01*
X77384000Y-131780000D01*
X77385000Y-131800000D01*
X77385000Y-132000000D01*
X77384000Y-132020000D01*
X77383000Y-132040000D01*
X77380000Y-132060000D01*
X77377000Y-132080000D01*
X77372000Y-132100000D01*
X77366000Y-132119000D01*
X77359000Y-132138000D01*
X77352000Y-132157000D01*
X77343000Y-132175000D01*
X77333000Y-132193000D01*
X77323000Y-132210000D01*
X77311000Y-132226000D01*
X77299000Y-132242000D01*
X77286000Y-132258000D01*
X77272000Y-132272000D01*
X77258000Y-132286000D01*
X77242000Y-132299000D01*
X77226000Y-132311000D01*
X77210000Y-132323000D01*
X77192000Y-132333000D01*
X77175000Y-132343000D01*
X77157000Y-132352000D01*
X77138000Y-132359000D01*
X77119000Y-132366000D01*
X77100000Y-132372000D01*
X77080000Y-132377000D01*
X77060000Y-132380000D01*
X77040000Y-132383000D01*
X77020000Y-132384000D01*
X77000000Y-132385000D01*
X76980000Y-132384000D01*
X76960000Y-132383000D01*
X76940000Y-132380000D01*
X76920000Y-132377000D01*
X76900000Y-132372000D01*
X76881000Y-132366000D01*
X76862000Y-132359000D01*
X76843000Y-132352000D01*
X76825000Y-132343000D01*
X76808000Y-132333000D01*
X76790000Y-132323000D01*
X76774000Y-132311000D01*
X76758000Y-132299000D01*
X76742000Y-132286000D01*
X76728000Y-132272000D01*
X76714000Y-132258000D01*
X76701000Y-132242000D01*
X76689000Y-132226000D01*
X76677000Y-132210000D01*
X76667000Y-132193000D01*
X76657000Y-132175000D01*
X76648000Y-132157000D01*
X76641000Y-132138000D01*
X76634000Y-132119000D01*
X76628000Y-132100000D01*
X76623000Y-132080000D01*
X76620000Y-132060000D01*
X76617000Y-132040000D01*
X76616000Y-132020000D01*
X76615000Y-132000000D01*
X76615000Y-131800000D01*
X76616000Y-131780000D01*
X76617000Y-131760000D01*
X76620000Y-131740000D01*
X76623000Y-131720000D01*
X76628000Y-131700000D01*
X76634000Y-131681000D01*
X76641000Y-131662000D01*
X76648000Y-131643000D01*
X76657000Y-131625000D01*
X76667000Y-131607000D01*
X76677000Y-131590000D01*
X76689000Y-131574000D01*
X76701000Y-131558000D01*
X76714000Y-131542000D01*
X76728000Y-131528000D01*
X76742000Y-131514000D01*
X76758000Y-131501000D01*
X76774000Y-131489000D01*
X76790000Y-131477000D01*
X76807000Y-131467000D01*
X76825000Y-131457000D01*
X76843000Y-131448000D01*
X76862000Y-131441000D01*
X76881000Y-131434000D01*
X76900000Y-131428000D01*
X76920000Y-131423000D01*
X76940000Y-131420000D01*
X76960000Y-131417000D01*
X76980000Y-131416000D01*
X77000000Y-131415000D01*
X77020000Y-131416000D01*
G37*
%TO.C,J1*%
X75082958Y-58156782D02*
X75882958Y-58156782D01*
X75882958Y-59956782D01*
X73282958Y-59956782D01*
X73282958Y-57356782D01*
X75082958Y-57356782D01*
X75082958Y-58156782D01*
G36*
X75082958Y-58156782D02*
G01*
X75882958Y-58156782D01*
X75882958Y-59956782D01*
X73282958Y-59956782D01*
X73282958Y-57356782D01*
X75082958Y-57356782D01*
X75082958Y-58156782D01*
G37*
X75882958Y-87856782D02*
X75082958Y-87856782D01*
X75082958Y-88656782D01*
X73282958Y-88656782D01*
X73282958Y-86056782D01*
X75882958Y-86056782D01*
X75882958Y-87856782D01*
G36*
X75882958Y-87856782D02*
G01*
X75082958Y-87856782D01*
X75082958Y-88656782D01*
X73282958Y-88656782D01*
X73282958Y-86056782D01*
X75882958Y-86056782D01*
X75882958Y-87856782D01*
G37*
%TD*%
D11*
%TO.C,J3*%
X88650000Y-129625000D03*
X88650000Y-128375000D03*
D12*
X91850000Y-131475000D03*
X91850000Y-126525000D03*
%TD*%
D13*
%TO.C,R10*%
X84212500Y-57412500D03*
X84212500Y-59062500D03*
%TD*%
D14*
%TO.C,SW1*%
X74950000Y-115600000D03*
X79050000Y-115600000D03*
X74950000Y-117200000D03*
X79050000Y-117200000D03*
%TD*%
D15*
%TO.C,FB1*%
X85287500Y-127500000D03*
X83712500Y-127500000D03*
%TD*%
D16*
%TO.C,C19*%
X81800000Y-57950000D03*
X81800000Y-56050000D03*
%TD*%
D17*
%TO.C,R3*%
X90800000Y-78225000D03*
X90800000Y-76575000D03*
%TD*%
D18*
%TO.C,L1*%
X90400000Y-57225000D03*
X90400000Y-59375000D03*
%TD*%
D19*
%TO.C,D3*%
X89549998Y-66600000D03*
X89549998Y-63300000D03*
%TD*%
D20*
%TO.C,Q1*%
X88050000Y-59062500D03*
X86150000Y-59062500D03*
X87100000Y-60937500D03*
%TD*%
D21*
%TO.C,D2*%
X92049998Y-63300000D03*
X92049998Y-66600000D03*
%TD*%
D22*
%TO.C,J2*%
X77000000Y-124400000D03*
D23*
X79150000Y-125750000D03*
X79150000Y-130550000D03*
X74850000Y-125750000D03*
X74850000Y-130550000D03*
%TD*%
D24*
%TO.C,R5*%
X80475000Y-59500000D03*
X82125000Y-59500000D03*
%TD*%
D25*
%TO.C,C7*%
X81425000Y-70900000D03*
X82975000Y-70900000D03*
%TD*%
D26*
%TO.C,H2*%
X91000000Y-52000000D03*
%TD*%
D17*
%TO.C,R23*%
X74800000Y-91825000D03*
X74800000Y-90175000D03*
%TD*%
D26*
%TO.C,H4*%
X91000000Y-136000000D03*
%TD*%
D24*
%TO.C,R12*%
X85374998Y-70350000D03*
X87024998Y-70350000D03*
%TD*%
%TO.C,R6*%
X79975000Y-85500000D03*
X81625000Y-85500000D03*
%TD*%
D26*
%TO.C,H1*%
X75000000Y-52000000D03*
%TD*%
D27*
%TO.C,D5*%
X84200000Y-129400000D03*
X85000000Y-129400000D03*
%TD*%
D24*
%TO.C,R11*%
X86375000Y-57100000D03*
X88025000Y-57100000D03*
%TD*%
D25*
%TO.C,C13*%
X80025000Y-81800000D03*
X81575000Y-81800000D03*
%TD*%
D28*
%TO.C,J1*%
X77282958Y-60756782D03*
X77282958Y-61256782D03*
X77282958Y-61756782D03*
X77282958Y-62256782D03*
X77282958Y-62756782D03*
X77282958Y-63256782D03*
X77282958Y-63756782D03*
X77282958Y-64256782D03*
X77282958Y-64756782D03*
X77282958Y-65256782D03*
X77282958Y-65756782D03*
X77282958Y-66256782D03*
X77282958Y-66756782D03*
X77282958Y-67256782D03*
X77282958Y-67756782D03*
X77282958Y-68256782D03*
X77282958Y-68756782D03*
X77282958Y-69256782D03*
X77282958Y-69756782D03*
X77282958Y-70256782D03*
X77282958Y-70756782D03*
X77282958Y-71256782D03*
X77282958Y-71756782D03*
X77282958Y-72256782D03*
X77282958Y-72756782D03*
X77282958Y-73256782D03*
X77282958Y-73756782D03*
X77282958Y-74256782D03*
X77282958Y-74756782D03*
X77282958Y-75256782D03*
X77282958Y-75756782D03*
X77282958Y-76256782D03*
X77282958Y-76756782D03*
X77282958Y-77256782D03*
X77282958Y-77756782D03*
X77282958Y-78256782D03*
X77282958Y-78756782D03*
X77282958Y-79256782D03*
X77282958Y-79756782D03*
X77282958Y-80256782D03*
X77282958Y-80756782D03*
X77282958Y-81256782D03*
X77282958Y-81756782D03*
X77282958Y-82256782D03*
X77282958Y-82756782D03*
X77282958Y-83256782D03*
X77282958Y-83756782D03*
X77282958Y-84256782D03*
X77282958Y-84756782D03*
X77282958Y-85256782D03*
%TD*%
D29*
%TO.C,C28*%
X92250000Y-61400000D03*
X90350000Y-61400000D03*
%TD*%
D17*
%TO.C,R4*%
X90800000Y-75225000D03*
X90800000Y-73575000D03*
%TD*%
D19*
%TO.C,D1*%
X87099998Y-66600000D03*
X87099998Y-63300000D03*
%TD*%
D30*
%TO.C,C31*%
X85500000Y-124050000D03*
X85500000Y-125950000D03*
%TD*%
D25*
%TO.C,C14*%
X80025000Y-83800000D03*
X81575000Y-83800000D03*
%TD*%
D17*
%TO.C,R24*%
X76400000Y-91825000D03*
X76400000Y-90175000D03*
%TD*%
D31*
%TO.C,C33*%
X90400000Y-113800000D03*
X88850000Y-113800000D03*
%TD*%
D30*
%TO.C,C32*%
X83500000Y-124050000D03*
X83500000Y-125950000D03*
%TD*%
D32*
%TO.C,U1*%
X90370000Y-94835000D03*
X87830000Y-94835000D03*
X85290000Y-94835000D03*
X82750000Y-94835000D03*
X80210000Y-94835000D03*
X77670000Y-94835000D03*
X75130000Y-94835000D03*
X75130000Y-111000000D03*
X77670000Y-111000000D03*
X80210000Y-111000000D03*
X82750000Y-111000000D03*
X85290000Y-111000000D03*
X87830000Y-111000000D03*
X90370000Y-111000000D03*
D33*
X83132000Y-98445000D03*
X85037000Y-98445000D03*
D34*
X91382000Y-101620000D03*
X91382000Y-104160000D03*
X88842000Y-101620000D03*
X88842000Y-104160000D03*
X86302000Y-101620000D03*
X86302000Y-104160000D03*
X83762000Y-101620000D03*
X83762000Y-104160000D03*
%TD*%
D17*
%TO.C,R16*%
X81500000Y-125825000D03*
X81500000Y-124175000D03*
%TD*%
D35*
%TO.C,C20*%
X82100000Y-62575000D03*
X82100000Y-61025000D03*
%TD*%
D36*
%TO.C,C27*%
X90099998Y-68450000D03*
X91999998Y-68450000D03*
%TD*%
D25*
%TO.C,C8*%
X81425000Y-72500000D03*
X82975000Y-72500000D03*
%TD*%
D17*
%TO.C,R26*%
X81200000Y-91825000D03*
X81200000Y-90175000D03*
%TD*%
D13*
%TO.C,R20*%
X78000000Y-90175000D03*
X78000000Y-91825000D03*
%TD*%
D26*
%TO.C,H3*%
X75000000Y-136000000D03*
%TD*%
D17*
%TO.C,R1*%
X92400000Y-78225000D03*
X92400000Y-76575000D03*
%TD*%
D36*
%TO.C,C25*%
X86450000Y-55000000D03*
X88350000Y-55000000D03*
%TD*%
D31*
%TO.C,C34*%
X90400000Y-115324000D03*
X88850000Y-115324000D03*
%TD*%
D17*
%TO.C,R25*%
X79600000Y-91825000D03*
X79600000Y-90175000D03*
%TD*%
%TO.C,R2*%
X92400000Y-75125000D03*
X92400000Y-73475000D03*
%TD*%
D35*
%TO.C,C21*%
X80500000Y-62575000D03*
X80500000Y-61025000D03*
%TD*%
%TO.C,C22*%
X83200000Y-85525000D03*
X83200000Y-83975000D03*
%TD*%
D16*
%TO.C,C18*%
X79500000Y-57950000D03*
X79500000Y-56050000D03*
%TD*%
D36*
%TO.C,C26*%
X85149998Y-68450000D03*
X87049998Y-68450000D03*
%TD*%
M02*
