%TF.GenerationSoftware,KiCad,Pcbnew,9.0.5*%
%TF.CreationDate,2025-11-24T11:18:26-05:00*%
%TF.ProjectId,everframe_board,65766572-6672-4616-9d65-5f626f617264,rev?*%
%TF.SameCoordinates,Original*%
%TF.FileFunction,Other,User*%
%FSLAX46Y46*%
G04 Gerber Fmt 4.6, Leading zero omitted, Abs format (unit mm)*
G04 Created by KiCad (PCBNEW 9.0.5) date 2025-11-24 11:18:26*
%MOMM*%
%LPD*%
G01*
G04 APERTURE LIST*
%ADD10C,0.050000*%
G04 APERTURE END LIST*
D10*
%TO.C,C23*%
X88020000Y-89770000D02*
X88020000Y-91230000D01*
X88020000Y-91230000D02*
X90980000Y-91230000D01*
X90980000Y-89770000D02*
X88020000Y-89770000D01*
X90980000Y-91230000D02*
X90980000Y-89770000D01*
%TO.C,C29*%
X87875000Y-58526750D02*
X87875000Y-60486750D01*
X87875000Y-60486750D02*
X91275000Y-60486750D01*
X91275000Y-58526750D02*
X87875000Y-58526750D01*
X91275000Y-60486750D02*
X91275000Y-58526750D01*
%TO.C,U2*%
X87800000Y-86450000D02*
X87800000Y-88550000D01*
X87800000Y-88550000D02*
X88000000Y-88550000D01*
X88000000Y-85450000D02*
X88000000Y-86450000D01*
X88000000Y-86450000D02*
X87800000Y-86450000D01*
X88000000Y-88550000D02*
X88000000Y-89550000D01*
X88000000Y-89550000D02*
X91000000Y-89550000D01*
X91000000Y-85450000D02*
X88000000Y-85450000D01*
X91000000Y-86450000D02*
X91000000Y-85450000D01*
X91000000Y-88550000D02*
X91200000Y-88550000D01*
X91000000Y-89550000D02*
X91000000Y-88550000D01*
X91200000Y-86450000D02*
X91000000Y-86450000D01*
X91200000Y-88550000D02*
X91200000Y-86450000D01*
%TO.C,C5*%
X74300000Y-71820000D02*
X74300000Y-73780000D01*
X74300000Y-73780000D02*
X77700000Y-73780000D01*
X77700000Y-71820000D02*
X74300000Y-71820000D01*
X77700000Y-73780000D02*
X77700000Y-71820000D01*
%TO.C,C12*%
X82470000Y-76720000D02*
X82470000Y-79680000D01*
X82470000Y-79680000D02*
X83930000Y-79680000D01*
X83930000Y-76720000D02*
X82470000Y-76720000D01*
X83930000Y-79680000D02*
X83930000Y-76720000D01*
%TO.C,C17*%
X74520000Y-77270000D02*
X74520000Y-78730000D01*
X74520000Y-78730000D02*
X77480000Y-78730000D01*
X77480000Y-77270000D02*
X74520000Y-77270000D01*
X77480000Y-78730000D02*
X77480000Y-77270000D01*
%TO.C,Q2*%
X81600000Y-52300000D02*
X81600000Y-54100000D01*
X81600000Y-54100000D02*
X81800000Y-54100000D01*
X81800000Y-54100000D02*
X81800000Y-55130000D01*
X81800000Y-55130000D02*
X84800000Y-55130000D01*
X82750000Y-51270000D02*
X82750000Y-52300000D01*
X82750000Y-52300000D02*
X81600000Y-52300000D01*
X83850000Y-51270000D02*
X82750000Y-51270000D01*
X83850000Y-52300000D02*
X83850000Y-51270000D01*
X84800000Y-54100000D02*
X85000000Y-54100000D01*
X84800000Y-55130000D02*
X84800000Y-54100000D01*
X85000000Y-52300000D02*
X83850000Y-52300000D01*
X85000000Y-54100000D02*
X85000000Y-52300000D01*
%TO.C,R22*%
X74070000Y-89520000D02*
X74070000Y-92480000D01*
X74070000Y-92480000D02*
X75530000Y-92480000D01*
X75530000Y-89520000D02*
X74070000Y-89520000D01*
X75530000Y-92480000D02*
X75530000Y-89520000D01*
%TO.C,C2*%
X74300000Y-65520000D02*
X74300000Y-67480000D01*
X74300000Y-67480000D02*
X77700000Y-67480000D01*
X77700000Y-65520000D02*
X74300000Y-65520000D01*
X77700000Y-67480000D02*
X77700000Y-65520000D01*
%TO.C,C1*%
X74300000Y-63420000D02*
X74300000Y-65380000D01*
X74300000Y-65380000D02*
X77700000Y-65380000D01*
X77700000Y-63420000D02*
X74300000Y-63420000D01*
X77700000Y-65380000D02*
X77700000Y-63420000D01*
%TO.C,D4*%
X82925000Y-60756750D02*
X82925000Y-58456750D01*
X82925000Y-60756750D02*
X87625000Y-60756750D01*
X87625000Y-58456750D02*
X82925000Y-58456750D01*
X87625000Y-60756750D02*
X87625000Y-58456750D01*
%TO.C,R19*%
X75670000Y-89520000D02*
X75670000Y-92480000D01*
X75670000Y-92480000D02*
X77130000Y-92480000D01*
X77130000Y-89520000D02*
X75670000Y-89520000D01*
X77130000Y-92480000D02*
X77130000Y-89520000D01*
%TO.C,C3*%
X74300000Y-67620000D02*
X74300000Y-69580000D01*
X74300000Y-69580000D02*
X77700000Y-69580000D01*
X77700000Y-67620000D02*
X74300000Y-67620000D01*
X77700000Y-69580000D02*
X77700000Y-67620000D01*
%TO.C,R15*%
X74370000Y-121520000D02*
X74370000Y-124480000D01*
X74370000Y-124480000D02*
X75830000Y-124480000D01*
X75830000Y-121520000D02*
X74370000Y-121520000D01*
X75830000Y-124480000D02*
X75830000Y-121520000D01*
%TO.C,R8*%
X85970000Y-89020000D02*
X85970000Y-91980000D01*
X85970000Y-91980000D02*
X87430000Y-91980000D01*
X87430000Y-89020000D02*
X85970000Y-89020000D01*
X87430000Y-91980000D02*
X87430000Y-89020000D01*
%TO.C,C10*%
X79270000Y-76720000D02*
X79270000Y-79680000D01*
X79270000Y-79680000D02*
X80730000Y-79680000D01*
X80730000Y-76720000D02*
X79270000Y-76720000D01*
X80730000Y-79680000D02*
X80730000Y-76720000D01*
%TO.C,C30*%
X79420000Y-51700000D02*
X79420000Y-55100000D01*
X79420000Y-55100000D02*
X81380000Y-55100000D01*
X81380000Y-51700000D02*
X79420000Y-51700000D01*
X81380000Y-55100000D02*
X81380000Y-51700000D01*
%TO.C,C9*%
X79420000Y-79770000D02*
X79420000Y-81230000D01*
X79420000Y-81230000D02*
X82380000Y-81230000D01*
X82380000Y-79770000D02*
X79420000Y-79770000D01*
X82380000Y-81230000D02*
X82380000Y-79770000D01*
%TO.C,L2*%
X83725000Y-55356750D02*
X83725000Y-58056750D01*
X83725000Y-58056750D02*
X87625000Y-58056750D01*
X87625000Y-55356750D02*
X83725000Y-55356750D01*
X87625000Y-58056750D02*
X87625000Y-55356750D01*
%TO.C,C15*%
X74520000Y-80270000D02*
X74520000Y-81730000D01*
X74520000Y-81730000D02*
X77480000Y-81730000D01*
X77480000Y-80270000D02*
X74520000Y-80270000D01*
X77480000Y-81730000D02*
X77480000Y-80270000D01*
%TO.C,C16*%
X74520000Y-81870000D02*
X74520000Y-83330000D01*
X74520000Y-83330000D02*
X77480000Y-83330000D01*
X77480000Y-81870000D02*
X74520000Y-81870000D01*
X77480000Y-83330000D02*
X77480000Y-81870000D01*
%TO.C,C35*%
X81470000Y-117920000D02*
X81470000Y-120880000D01*
X81470000Y-120880000D02*
X82930000Y-120880000D01*
X82930000Y-117920000D02*
X81470000Y-117920000D01*
X82930000Y-120880000D02*
X82930000Y-117920000D01*
%TO.C,C4*%
X74300000Y-69720000D02*
X74300000Y-71680000D01*
X74300000Y-71680000D02*
X77700000Y-71680000D01*
X77700000Y-69720000D02*
X74300000Y-69720000D01*
X77700000Y-71680000D02*
X77700000Y-69720000D01*
%TO.C,R14*%
X87895000Y-55976750D02*
X87895000Y-57436750D01*
X87895000Y-57436750D02*
X90855000Y-57436750D01*
X90855000Y-55976750D02*
X87895000Y-55976750D01*
X90855000Y-57436750D02*
X90855000Y-55976750D01*
%TO.C,C11*%
X80870000Y-76720000D02*
X80870000Y-79680000D01*
X80870000Y-79680000D02*
X82330000Y-79680000D01*
X82330000Y-76720000D02*
X80870000Y-76720000D01*
X82330000Y-79680000D02*
X82330000Y-76720000D01*
%TO.C,R21*%
X79870000Y-117920000D02*
X79870000Y-120880000D01*
X79870000Y-120880000D02*
X81330000Y-120880000D01*
X81330000Y-117920000D02*
X79870000Y-117920000D01*
X81330000Y-120880000D02*
X81330000Y-117920000D01*
%TO.C,C6*%
X74300000Y-73920000D02*
X74300000Y-75880000D01*
X74300000Y-75880000D02*
X77700000Y-75880000D01*
X77700000Y-73920000D02*
X74300000Y-73920000D01*
X77700000Y-75880000D02*
X77700000Y-73920000D01*
%TO.C,R13*%
X85270000Y-52120000D02*
X85270000Y-55080000D01*
X85270000Y-55080000D02*
X86730000Y-55080000D01*
X86730000Y-52120000D02*
X85270000Y-52120000D01*
X86730000Y-55080000D02*
X86730000Y-52120000D01*
%TO.C,C24*%
X88020000Y-83770000D02*
X88020000Y-85230000D01*
X88020000Y-85230000D02*
X90980000Y-85230000D01*
X90980000Y-83770000D02*
X88020000Y-83770000D01*
X90980000Y-85230000D02*
X90980000Y-83770000D01*
%TO.C,R9*%
X84370000Y-89020000D02*
X84370000Y-91980000D01*
X84370000Y-91980000D02*
X85830000Y-91980000D01*
X85830000Y-89020000D02*
X84370000Y-89020000D01*
X85830000Y-91980000D02*
X85830000Y-89020000D01*
%TO.C,R18*%
X77270000Y-89520000D02*
X77270000Y-92480000D01*
X77270000Y-92480000D02*
X78730000Y-92480000D01*
X78730000Y-89520000D02*
X77270000Y-89520000D01*
X78730000Y-92480000D02*
X78730000Y-89520000D01*
%TO.C,R7*%
X84720000Y-87270000D02*
X84720000Y-88730000D01*
X84720000Y-88730000D02*
X87680000Y-88730000D01*
X87680000Y-87270000D02*
X84720000Y-87270000D01*
X87680000Y-88730000D02*
X87680000Y-87270000D01*
%TO.C,R17*%
X78870000Y-89520000D02*
X78870000Y-92480000D01*
X78870000Y-92480000D02*
X80330000Y-92480000D01*
X80330000Y-89520000D02*
X78870000Y-89520000D01*
X80330000Y-92480000D02*
X80330000Y-89520000D01*
%TD*%
M02*
