%TF.GenerationSoftware,KiCad,Pcbnew,9.0.5*%
%TF.CreationDate,2025-11-24T11:18:26-05:00*%
%TF.ProjectId,everframe_board,65766572-6672-4616-9d65-5f626f617264,rev?*%
%TF.SameCoordinates,Original*%
%TF.FileFunction,Paste,Bot*%
%TF.FilePolarity,Positive*%
%FSLAX46Y46*%
G04 Gerber Fmt 4.6, Leading zero omitted, Abs format (unit mm)*
G04 Created by KiCad (PCBNEW 9.0.5) date 2025-11-24 11:18:26*
%MOMM*%
%LPD*%
G01*
G04 APERTURE LIST*
G04 Aperture macros list*
%AMRoundRect*
0 Rectangle with rounded corners*
0 $1 Rounding radius*
0 $2 $3 $4 $5 $6 $7 $8 $9 X,Y pos of 4 corners*
0 Add a 4 corners polygon primitive as box body*
4,1,4,$2,$3,$4,$5,$6,$7,$8,$9,$2,$3,0*
0 Add four circle primitives for the rounded corners*
1,1,$1+$1,$2,$3*
1,1,$1+$1,$4,$5*
1,1,$1+$1,$6,$7*
1,1,$1+$1,$8,$9*
0 Add four rect primitives between the rounded corners*
20,1,$1+$1,$2,$3,$4,$5,0*
20,1,$1+$1,$4,$5,$6,$7,0*
20,1,$1+$1,$6,$7,$8,$9,0*
20,1,$1+$1,$8,$9,$2,$3,0*%
G04 Aperture macros list end*
%ADD10RoundRect,0.225000X0.225000X0.250000X-0.225000X0.250000X-0.225000X-0.250000X0.225000X-0.250000X0*%
%ADD11RoundRect,0.250000X0.250000X0.475000X-0.250000X0.475000X-0.250000X-0.475000X0.250000X-0.475000X0*%
%ADD12RoundRect,0.150000X0.150000X-0.512500X0.150000X0.512500X-0.150000X0.512500X-0.150000X-0.512500X0*%
%ADD13RoundRect,0.225000X0.250000X-0.225000X0.250000X0.225000X-0.250000X0.225000X-0.250000X-0.225000X0*%
%ADD14RoundRect,0.150000X0.150000X-0.587500X0.150000X0.587500X-0.150000X0.587500X-0.150000X-0.587500X0*%
%ADD15RoundRect,0.200000X0.275000X-0.200000X0.275000X0.200000X-0.275000X0.200000X-0.275000X-0.200000X0*%
%ADD16RoundRect,0.250000X-0.250000X-0.475000X0.250000X-0.475000X0.250000X0.475000X-0.250000X0.475000X0*%
%ADD17RoundRect,0.225000X-0.225000X-0.375000X0.225000X-0.375000X0.225000X0.375000X-0.225000X0.375000X0*%
%ADD18RoundRect,0.250000X0.475000X-0.250000X0.475000X0.250000X-0.475000X0.250000X-0.475000X-0.250000X0*%
%ADD19RoundRect,0.225000X-0.225000X-0.250000X0.225000X-0.250000X0.225000X0.250000X-0.225000X0.250000X0*%
%ADD20RoundRect,0.250000X0.375000X0.850000X-0.375000X0.850000X-0.375000X-0.850000X0.375000X-0.850000X0*%
%ADD21RoundRect,0.200000X0.200000X0.275000X-0.200000X0.275000X-0.200000X-0.275000X0.200000X-0.275000X0*%
%ADD22RoundRect,0.200000X-0.275000X0.200000X-0.275000X-0.200000X0.275000X-0.200000X0.275000X0.200000X0*%
G04 APERTURE END LIST*
D10*
%TO.C,C23*%
X90275000Y-90500000D03*
X88725000Y-90500000D03*
%TD*%
D11*
%TO.C,C29*%
X90525000Y-59506750D03*
X88625000Y-59506750D03*
%TD*%
D12*
%TO.C,U2*%
X90450000Y-88637500D03*
X89500000Y-88637500D03*
X88550000Y-88637500D03*
X88550000Y-86362500D03*
X90450000Y-86362500D03*
%TD*%
D11*
%TO.C,C5*%
X76950000Y-72800000D03*
X75050000Y-72800000D03*
%TD*%
D13*
%TO.C,C12*%
X83200000Y-78975000D03*
X83200000Y-77425000D03*
%TD*%
D10*
%TO.C,C17*%
X76775000Y-78000000D03*
X75225000Y-78000000D03*
%TD*%
D14*
%TO.C,Q2*%
X84250000Y-54137500D03*
X82350000Y-54137500D03*
X83300000Y-52262500D03*
%TD*%
D15*
%TO.C,R22*%
X74800000Y-91825000D03*
X74800000Y-90175000D03*
%TD*%
D11*
%TO.C,C2*%
X76950000Y-66500000D03*
X75050000Y-66500000D03*
%TD*%
D16*
%TO.C,C1*%
X75050000Y-64400000D03*
X76950000Y-64400000D03*
%TD*%
D17*
%TO.C,D4*%
X83625000Y-59606750D03*
X86925000Y-59606750D03*
%TD*%
D15*
%TO.C,R19*%
X76400000Y-91825000D03*
X76400000Y-90175000D03*
%TD*%
D11*
%TO.C,C3*%
X76950000Y-68600000D03*
X75050000Y-68600000D03*
%TD*%
D15*
%TO.C,R15*%
X75100000Y-123825000D03*
X75100000Y-122175000D03*
%TD*%
%TO.C,R8*%
X86700000Y-91325000D03*
X86700000Y-89675000D03*
%TD*%
D13*
%TO.C,C10*%
X80000000Y-78975000D03*
X80000000Y-77425000D03*
%TD*%
D18*
%TO.C,C30*%
X80400000Y-54350000D03*
X80400000Y-52450000D03*
%TD*%
D19*
%TO.C,C9*%
X80125000Y-80500000D03*
X81675000Y-80500000D03*
%TD*%
D20*
%TO.C,L2*%
X86750000Y-56706750D03*
X84600000Y-56706750D03*
%TD*%
D10*
%TO.C,C15*%
X76775000Y-81000000D03*
X75225000Y-81000000D03*
%TD*%
%TO.C,C16*%
X76775000Y-82600000D03*
X75225000Y-82600000D03*
%TD*%
D13*
%TO.C,C35*%
X82200000Y-120175000D03*
X82200000Y-118625000D03*
%TD*%
D11*
%TO.C,C4*%
X76950000Y-70700000D03*
X75050000Y-70700000D03*
%TD*%
D21*
%TO.C,R14*%
X90200000Y-56706750D03*
X88550000Y-56706750D03*
%TD*%
D13*
%TO.C,C11*%
X81600000Y-78975000D03*
X81600000Y-77425000D03*
%TD*%
D22*
%TO.C,R21*%
X80600000Y-118575000D03*
X80600000Y-120225000D03*
%TD*%
D11*
%TO.C,C6*%
X76950000Y-74900000D03*
X75050000Y-74900000D03*
%TD*%
D15*
%TO.C,R13*%
X86000000Y-54425000D03*
X86000000Y-52775000D03*
%TD*%
D10*
%TO.C,C24*%
X90275000Y-84500000D03*
X88725000Y-84500000D03*
%TD*%
D15*
%TO.C,R9*%
X85100000Y-91325000D03*
X85100000Y-89675000D03*
%TD*%
%TO.C,R18*%
X78000000Y-91825000D03*
X78000000Y-90175000D03*
%TD*%
D21*
%TO.C,R7*%
X87025000Y-88000000D03*
X85375000Y-88000000D03*
%TD*%
D15*
%TO.C,R17*%
X79600000Y-91825000D03*
X79600000Y-90175000D03*
%TD*%
M02*
