%TF.GenerationSoftware,KiCad,Pcbnew,9.0.5*%
%TF.CreationDate,2025-11-24T11:18:26-05:00*%
%TF.ProjectId,everframe_board,65766572-6672-4616-9d65-5f626f617264,rev?*%
%TF.SameCoordinates,Original*%
%TF.FileFunction,Legend,Top*%
%TF.FilePolarity,Positive*%
%FSLAX46Y46*%
G04 Gerber Fmt 4.6, Leading zero omitted, Abs format (unit mm)*
G04 Created by KiCad (PCBNEW 9.0.5) date 2025-11-24 11:18:26*
%MOMM*%
%LPD*%
G01*
G04 APERTURE LIST*
%ADD10C,0.150000*%
%ADD11C,0.106680*%
%ADD12C,0.120000*%
%ADD13C,0.127000*%
%ADD14C,0.200000*%
%ADD15C,0.100000*%
%ADD16C,0.504000*%
G04 APERTURE END LIST*
D10*
X89954819Y-124846190D02*
X90669104Y-124846190D01*
X90669104Y-124846190D02*
X90811961Y-124893809D01*
X90811961Y-124893809D02*
X90907200Y-124989047D01*
X90907200Y-124989047D02*
X90954819Y-125131904D01*
X90954819Y-125131904D02*
X90954819Y-125227142D01*
X89954819Y-124465237D02*
X89954819Y-123846190D01*
X89954819Y-123846190D02*
X90335771Y-124179523D01*
X90335771Y-124179523D02*
X90335771Y-124036666D01*
X90335771Y-124036666D02*
X90383390Y-123941428D01*
X90383390Y-123941428D02*
X90431009Y-123893809D01*
X90431009Y-123893809D02*
X90526247Y-123846190D01*
X90526247Y-123846190D02*
X90764342Y-123846190D01*
X90764342Y-123846190D02*
X90859580Y-123893809D01*
X90859580Y-123893809D02*
X90907200Y-123941428D01*
X90907200Y-123941428D02*
X90954819Y-124036666D01*
X90954819Y-124036666D02*
X90954819Y-124322380D01*
X90954819Y-124322380D02*
X90907200Y-124417618D01*
X90907200Y-124417618D02*
X90859580Y-124465237D01*
X84034819Y-55762857D02*
X83558628Y-56096190D01*
X84034819Y-56334285D02*
X83034819Y-56334285D01*
X83034819Y-56334285D02*
X83034819Y-55953333D01*
X83034819Y-55953333D02*
X83082438Y-55858095D01*
X83082438Y-55858095D02*
X83130057Y-55810476D01*
X83130057Y-55810476D02*
X83225295Y-55762857D01*
X83225295Y-55762857D02*
X83368152Y-55762857D01*
X83368152Y-55762857D02*
X83463390Y-55810476D01*
X83463390Y-55810476D02*
X83511009Y-55858095D01*
X83511009Y-55858095D02*
X83558628Y-55953333D01*
X83558628Y-55953333D02*
X83558628Y-56334285D01*
X84034819Y-54810476D02*
X84034819Y-55381904D01*
X84034819Y-55096190D02*
X83034819Y-55096190D01*
X83034819Y-55096190D02*
X83177676Y-55191428D01*
X83177676Y-55191428D02*
X83272914Y-55286666D01*
X83272914Y-55286666D02*
X83320533Y-55381904D01*
X83034819Y-54191428D02*
X83034819Y-54096190D01*
X83034819Y-54096190D02*
X83082438Y-54000952D01*
X83082438Y-54000952D02*
X83130057Y-53953333D01*
X83130057Y-53953333D02*
X83225295Y-53905714D01*
X83225295Y-53905714D02*
X83415771Y-53858095D01*
X83415771Y-53858095D02*
X83653866Y-53858095D01*
X83653866Y-53858095D02*
X83844342Y-53905714D01*
X83844342Y-53905714D02*
X83939580Y-53953333D01*
X83939580Y-53953333D02*
X83987200Y-54000952D01*
X83987200Y-54000952D02*
X84034819Y-54096190D01*
X84034819Y-54096190D02*
X84034819Y-54191428D01*
X84034819Y-54191428D02*
X83987200Y-54286666D01*
X83987200Y-54286666D02*
X83939580Y-54334285D01*
X83939580Y-54334285D02*
X83844342Y-54381904D01*
X83844342Y-54381904D02*
X83653866Y-54429523D01*
X83653866Y-54429523D02*
X83415771Y-54429523D01*
X83415771Y-54429523D02*
X83225295Y-54381904D01*
X83225295Y-54381904D02*
X83130057Y-54334285D01*
X83130057Y-54334285D02*
X83082438Y-54286666D01*
X83082438Y-54286666D02*
X83034819Y-54191428D01*
X75666667Y-114133950D02*
X75809524Y-114181569D01*
X75809524Y-114181569D02*
X76047619Y-114181569D01*
X76047619Y-114181569D02*
X76142857Y-114133950D01*
X76142857Y-114133950D02*
X76190476Y-114086330D01*
X76190476Y-114086330D02*
X76238095Y-113991092D01*
X76238095Y-113991092D02*
X76238095Y-113895854D01*
X76238095Y-113895854D02*
X76190476Y-113800616D01*
X76190476Y-113800616D02*
X76142857Y-113752997D01*
X76142857Y-113752997D02*
X76047619Y-113705378D01*
X76047619Y-113705378D02*
X75857143Y-113657759D01*
X75857143Y-113657759D02*
X75761905Y-113610140D01*
X75761905Y-113610140D02*
X75714286Y-113562521D01*
X75714286Y-113562521D02*
X75666667Y-113467283D01*
X75666667Y-113467283D02*
X75666667Y-113372045D01*
X75666667Y-113372045D02*
X75714286Y-113276807D01*
X75714286Y-113276807D02*
X75761905Y-113229188D01*
X75761905Y-113229188D02*
X75857143Y-113181569D01*
X75857143Y-113181569D02*
X76095238Y-113181569D01*
X76095238Y-113181569D02*
X76238095Y-113229188D01*
X76571429Y-113181569D02*
X76809524Y-114181569D01*
X76809524Y-114181569D02*
X77000000Y-113467283D01*
X77000000Y-113467283D02*
X77190476Y-114181569D01*
X77190476Y-114181569D02*
X77428572Y-113181569D01*
X78333333Y-114181569D02*
X77761905Y-114181569D01*
X78047619Y-114181569D02*
X78047619Y-113181569D01*
X78047619Y-113181569D02*
X77952381Y-113324426D01*
X77952381Y-113324426D02*
X77857143Y-113419664D01*
X77857143Y-113419664D02*
X77761905Y-113467283D01*
X80631904Y-127431009D02*
X80298571Y-127431009D01*
X80298571Y-127954819D02*
X80298571Y-126954819D01*
X80298571Y-126954819D02*
X80774761Y-126954819D01*
X81489047Y-127431009D02*
X81631904Y-127478628D01*
X81631904Y-127478628D02*
X81679523Y-127526247D01*
X81679523Y-127526247D02*
X81727142Y-127621485D01*
X81727142Y-127621485D02*
X81727142Y-127764342D01*
X81727142Y-127764342D02*
X81679523Y-127859580D01*
X81679523Y-127859580D02*
X81631904Y-127907200D01*
X81631904Y-127907200D02*
X81536666Y-127954819D01*
X81536666Y-127954819D02*
X81155714Y-127954819D01*
X81155714Y-127954819D02*
X81155714Y-126954819D01*
X81155714Y-126954819D02*
X81489047Y-126954819D01*
X81489047Y-126954819D02*
X81584285Y-127002438D01*
X81584285Y-127002438D02*
X81631904Y-127050057D01*
X81631904Y-127050057D02*
X81679523Y-127145295D01*
X81679523Y-127145295D02*
X81679523Y-127240533D01*
X81679523Y-127240533D02*
X81631904Y-127335771D01*
X81631904Y-127335771D02*
X81584285Y-127383390D01*
X81584285Y-127383390D02*
X81489047Y-127431009D01*
X81489047Y-127431009D02*
X81155714Y-127431009D01*
X82679523Y-127954819D02*
X82108095Y-127954819D01*
X82393809Y-127954819D02*
X82393809Y-126954819D01*
X82393809Y-126954819D02*
X82298571Y-127097676D01*
X82298571Y-127097676D02*
X82203333Y-127192914D01*
X82203333Y-127192914D02*
X82108095Y-127240533D01*
X82159580Y-54340476D02*
X82207200Y-54388095D01*
X82207200Y-54388095D02*
X82254819Y-54530952D01*
X82254819Y-54530952D02*
X82254819Y-54626190D01*
X82254819Y-54626190D02*
X82207200Y-54769047D01*
X82207200Y-54769047D02*
X82111961Y-54864285D01*
X82111961Y-54864285D02*
X82016723Y-54911904D01*
X82016723Y-54911904D02*
X81826247Y-54959523D01*
X81826247Y-54959523D02*
X81683390Y-54959523D01*
X81683390Y-54959523D02*
X81492914Y-54911904D01*
X81492914Y-54911904D02*
X81397676Y-54864285D01*
X81397676Y-54864285D02*
X81302438Y-54769047D01*
X81302438Y-54769047D02*
X81254819Y-54626190D01*
X81254819Y-54626190D02*
X81254819Y-54530952D01*
X81254819Y-54530952D02*
X81302438Y-54388095D01*
X81302438Y-54388095D02*
X81350057Y-54340476D01*
X82254819Y-53388095D02*
X82254819Y-53959523D01*
X82254819Y-53673809D02*
X81254819Y-53673809D01*
X81254819Y-53673809D02*
X81397676Y-53769047D01*
X81397676Y-53769047D02*
X81492914Y-53864285D01*
X81492914Y-53864285D02*
X81540533Y-53959523D01*
X82254819Y-52911904D02*
X82254819Y-52721428D01*
X82254819Y-52721428D02*
X82207200Y-52626190D01*
X82207200Y-52626190D02*
X82159580Y-52578571D01*
X82159580Y-52578571D02*
X82016723Y-52483333D01*
X82016723Y-52483333D02*
X81826247Y-52435714D01*
X81826247Y-52435714D02*
X81445295Y-52435714D01*
X81445295Y-52435714D02*
X81350057Y-52483333D01*
X81350057Y-52483333D02*
X81302438Y-52530952D01*
X81302438Y-52530952D02*
X81254819Y-52626190D01*
X81254819Y-52626190D02*
X81254819Y-52816666D01*
X81254819Y-52816666D02*
X81302438Y-52911904D01*
X81302438Y-52911904D02*
X81350057Y-52959523D01*
X81350057Y-52959523D02*
X81445295Y-53007142D01*
X81445295Y-53007142D02*
X81683390Y-53007142D01*
X81683390Y-53007142D02*
X81778628Y-52959523D01*
X81778628Y-52959523D02*
X81826247Y-52911904D01*
X81826247Y-52911904D02*
X81873866Y-52816666D01*
X81873866Y-52816666D02*
X81873866Y-52626190D01*
X81873866Y-52626190D02*
X81826247Y-52530952D01*
X81826247Y-52530952D02*
X81778628Y-52483333D01*
X81778628Y-52483333D02*
X81683390Y-52435714D01*
X91254819Y-80172856D02*
X90778628Y-80506189D01*
X91254819Y-80744284D02*
X90254819Y-80744284D01*
X90254819Y-80744284D02*
X90254819Y-80363332D01*
X90254819Y-80363332D02*
X90302438Y-80268094D01*
X90302438Y-80268094D02*
X90350057Y-80220475D01*
X90350057Y-80220475D02*
X90445295Y-80172856D01*
X90445295Y-80172856D02*
X90588152Y-80172856D01*
X90588152Y-80172856D02*
X90683390Y-80220475D01*
X90683390Y-80220475D02*
X90731009Y-80268094D01*
X90731009Y-80268094D02*
X90778628Y-80363332D01*
X90778628Y-80363332D02*
X90778628Y-80744284D01*
X90254819Y-79839522D02*
X90254819Y-79220475D01*
X90254819Y-79220475D02*
X90635771Y-79553808D01*
X90635771Y-79553808D02*
X90635771Y-79410951D01*
X90635771Y-79410951D02*
X90683390Y-79315713D01*
X90683390Y-79315713D02*
X90731009Y-79268094D01*
X90731009Y-79268094D02*
X90826247Y-79220475D01*
X90826247Y-79220475D02*
X91064342Y-79220475D01*
X91064342Y-79220475D02*
X91159580Y-79268094D01*
X91159580Y-79268094D02*
X91207200Y-79315713D01*
X91207200Y-79315713D02*
X91254819Y-79410951D01*
X91254819Y-79410951D02*
X91254819Y-79696665D01*
X91254819Y-79696665D02*
X91207200Y-79791903D01*
X91207200Y-79791903D02*
X91159580Y-79839522D01*
X90854819Y-55485713D02*
X90854819Y-55961903D01*
X90854819Y-55961903D02*
X89854819Y-55961903D01*
X90854819Y-54628570D02*
X90854819Y-55199998D01*
X90854819Y-54914284D02*
X89854819Y-54914284D01*
X89854819Y-54914284D02*
X89997676Y-55009522D01*
X89997676Y-55009522D02*
X90092914Y-55104760D01*
X90092914Y-55104760D02*
X90140533Y-55199998D01*
X90084819Y-65688094D02*
X89084819Y-65688094D01*
X89084819Y-65688094D02*
X89084819Y-65449999D01*
X89084819Y-65449999D02*
X89132438Y-65307142D01*
X89132438Y-65307142D02*
X89227676Y-65211904D01*
X89227676Y-65211904D02*
X89322914Y-65164285D01*
X89322914Y-65164285D02*
X89513390Y-65116666D01*
X89513390Y-65116666D02*
X89656247Y-65116666D01*
X89656247Y-65116666D02*
X89846723Y-65164285D01*
X89846723Y-65164285D02*
X89941961Y-65211904D01*
X89941961Y-65211904D02*
X90037200Y-65307142D01*
X90037200Y-65307142D02*
X90084819Y-65449999D01*
X90084819Y-65449999D02*
X90084819Y-65688094D01*
X89084819Y-64783332D02*
X89084819Y-64164285D01*
X89084819Y-64164285D02*
X89465771Y-64497618D01*
X89465771Y-64497618D02*
X89465771Y-64354761D01*
X89465771Y-64354761D02*
X89513390Y-64259523D01*
X89513390Y-64259523D02*
X89561009Y-64211904D01*
X89561009Y-64211904D02*
X89656247Y-64164285D01*
X89656247Y-64164285D02*
X89894342Y-64164285D01*
X89894342Y-64164285D02*
X89989580Y-64211904D01*
X89989580Y-64211904D02*
X90037200Y-64259523D01*
X90037200Y-64259523D02*
X90084819Y-64354761D01*
X90084819Y-64354761D02*
X90084819Y-64640475D01*
X90084819Y-64640475D02*
X90037200Y-64735713D01*
X90037200Y-64735713D02*
X89989580Y-64783332D01*
X85314761Y-62170057D02*
X85219523Y-62122438D01*
X85219523Y-62122438D02*
X85124285Y-62027200D01*
X85124285Y-62027200D02*
X84981428Y-61884342D01*
X84981428Y-61884342D02*
X84886190Y-61836723D01*
X84886190Y-61836723D02*
X84790952Y-61836723D01*
X84838571Y-62074819D02*
X84743333Y-62027200D01*
X84743333Y-62027200D02*
X84648095Y-61931961D01*
X84648095Y-61931961D02*
X84600476Y-61741485D01*
X84600476Y-61741485D02*
X84600476Y-61408152D01*
X84600476Y-61408152D02*
X84648095Y-61217676D01*
X84648095Y-61217676D02*
X84743333Y-61122438D01*
X84743333Y-61122438D02*
X84838571Y-61074819D01*
X84838571Y-61074819D02*
X85029047Y-61074819D01*
X85029047Y-61074819D02*
X85124285Y-61122438D01*
X85124285Y-61122438D02*
X85219523Y-61217676D01*
X85219523Y-61217676D02*
X85267142Y-61408152D01*
X85267142Y-61408152D02*
X85267142Y-61741485D01*
X85267142Y-61741485D02*
X85219523Y-61931961D01*
X85219523Y-61931961D02*
X85124285Y-62027200D01*
X85124285Y-62027200D02*
X85029047Y-62074819D01*
X85029047Y-62074819D02*
X84838571Y-62074819D01*
X86219523Y-62074819D02*
X85648095Y-62074819D01*
X85933809Y-62074819D02*
X85933809Y-61074819D01*
X85933809Y-61074819D02*
X85838571Y-61217676D01*
X85838571Y-61217676D02*
X85743333Y-61312914D01*
X85743333Y-61312914D02*
X85648095Y-61360533D01*
X92574819Y-65688094D02*
X91574819Y-65688094D01*
X91574819Y-65688094D02*
X91574819Y-65449999D01*
X91574819Y-65449999D02*
X91622438Y-65307142D01*
X91622438Y-65307142D02*
X91717676Y-65211904D01*
X91717676Y-65211904D02*
X91812914Y-65164285D01*
X91812914Y-65164285D02*
X92003390Y-65116666D01*
X92003390Y-65116666D02*
X92146247Y-65116666D01*
X92146247Y-65116666D02*
X92336723Y-65164285D01*
X92336723Y-65164285D02*
X92431961Y-65211904D01*
X92431961Y-65211904D02*
X92527200Y-65307142D01*
X92527200Y-65307142D02*
X92574819Y-65449999D01*
X92574819Y-65449999D02*
X92574819Y-65688094D01*
X91670057Y-64735713D02*
X91622438Y-64688094D01*
X91622438Y-64688094D02*
X91574819Y-64592856D01*
X91574819Y-64592856D02*
X91574819Y-64354761D01*
X91574819Y-64354761D02*
X91622438Y-64259523D01*
X91622438Y-64259523D02*
X91670057Y-64211904D01*
X91670057Y-64211904D02*
X91765295Y-64164285D01*
X91765295Y-64164285D02*
X91860533Y-64164285D01*
X91860533Y-64164285D02*
X92003390Y-64211904D01*
X92003390Y-64211904D02*
X92574819Y-64783332D01*
X92574819Y-64783332D02*
X92574819Y-64164285D01*
X76454819Y-122226190D02*
X77169104Y-122226190D01*
X77169104Y-122226190D02*
X77311961Y-122273809D01*
X77311961Y-122273809D02*
X77407200Y-122369047D01*
X77407200Y-122369047D02*
X77454819Y-122511904D01*
X77454819Y-122511904D02*
X77454819Y-122607142D01*
X76550057Y-121797618D02*
X76502438Y-121749999D01*
X76502438Y-121749999D02*
X76454819Y-121654761D01*
X76454819Y-121654761D02*
X76454819Y-121416666D01*
X76454819Y-121416666D02*
X76502438Y-121321428D01*
X76502438Y-121321428D02*
X76550057Y-121273809D01*
X76550057Y-121273809D02*
X76645295Y-121226190D01*
X76645295Y-121226190D02*
X76740533Y-121226190D01*
X76740533Y-121226190D02*
X76883390Y-121273809D01*
X76883390Y-121273809D02*
X77454819Y-121845237D01*
X77454819Y-121845237D02*
X77454819Y-121226190D01*
X78643333Y-60024819D02*
X78310000Y-59548628D01*
X78071905Y-60024819D02*
X78071905Y-59024819D01*
X78071905Y-59024819D02*
X78452857Y-59024819D01*
X78452857Y-59024819D02*
X78548095Y-59072438D01*
X78548095Y-59072438D02*
X78595714Y-59120057D01*
X78595714Y-59120057D02*
X78643333Y-59215295D01*
X78643333Y-59215295D02*
X78643333Y-59358152D01*
X78643333Y-59358152D02*
X78595714Y-59453390D01*
X78595714Y-59453390D02*
X78548095Y-59501009D01*
X78548095Y-59501009D02*
X78452857Y-59548628D01*
X78452857Y-59548628D02*
X78071905Y-59548628D01*
X79548095Y-59024819D02*
X79071905Y-59024819D01*
X79071905Y-59024819D02*
X79024286Y-59501009D01*
X79024286Y-59501009D02*
X79071905Y-59453390D01*
X79071905Y-59453390D02*
X79167143Y-59405771D01*
X79167143Y-59405771D02*
X79405238Y-59405771D01*
X79405238Y-59405771D02*
X79500476Y-59453390D01*
X79500476Y-59453390D02*
X79548095Y-59501009D01*
X79548095Y-59501009D02*
X79595714Y-59596247D01*
X79595714Y-59596247D02*
X79595714Y-59834342D01*
X79595714Y-59834342D02*
X79548095Y-59929580D01*
X79548095Y-59929580D02*
X79500476Y-59977200D01*
X79500476Y-59977200D02*
X79405238Y-60024819D01*
X79405238Y-60024819D02*
X79167143Y-60024819D01*
X79167143Y-60024819D02*
X79071905Y-59977200D01*
X79071905Y-59977200D02*
X79024286Y-59929580D01*
X79443333Y-71359580D02*
X79395714Y-71407200D01*
X79395714Y-71407200D02*
X79252857Y-71454819D01*
X79252857Y-71454819D02*
X79157619Y-71454819D01*
X79157619Y-71454819D02*
X79014762Y-71407200D01*
X79014762Y-71407200D02*
X78919524Y-71311961D01*
X78919524Y-71311961D02*
X78871905Y-71216723D01*
X78871905Y-71216723D02*
X78824286Y-71026247D01*
X78824286Y-71026247D02*
X78824286Y-70883390D01*
X78824286Y-70883390D02*
X78871905Y-70692914D01*
X78871905Y-70692914D02*
X78919524Y-70597676D01*
X78919524Y-70597676D02*
X79014762Y-70502438D01*
X79014762Y-70502438D02*
X79157619Y-70454819D01*
X79157619Y-70454819D02*
X79252857Y-70454819D01*
X79252857Y-70454819D02*
X79395714Y-70502438D01*
X79395714Y-70502438D02*
X79443333Y-70550057D01*
X79776667Y-70454819D02*
X80443333Y-70454819D01*
X80443333Y-70454819D02*
X80014762Y-71454819D01*
X73784819Y-91602857D02*
X73308628Y-91936190D01*
X73784819Y-92174285D02*
X72784819Y-92174285D01*
X72784819Y-92174285D02*
X72784819Y-91793333D01*
X72784819Y-91793333D02*
X72832438Y-91698095D01*
X72832438Y-91698095D02*
X72880057Y-91650476D01*
X72880057Y-91650476D02*
X72975295Y-91602857D01*
X72975295Y-91602857D02*
X73118152Y-91602857D01*
X73118152Y-91602857D02*
X73213390Y-91650476D01*
X73213390Y-91650476D02*
X73261009Y-91698095D01*
X73261009Y-91698095D02*
X73308628Y-91793333D01*
X73308628Y-91793333D02*
X73308628Y-92174285D01*
X72880057Y-91221904D02*
X72832438Y-91174285D01*
X72832438Y-91174285D02*
X72784819Y-91079047D01*
X72784819Y-91079047D02*
X72784819Y-90840952D01*
X72784819Y-90840952D02*
X72832438Y-90745714D01*
X72832438Y-90745714D02*
X72880057Y-90698095D01*
X72880057Y-90698095D02*
X72975295Y-90650476D01*
X72975295Y-90650476D02*
X73070533Y-90650476D01*
X73070533Y-90650476D02*
X73213390Y-90698095D01*
X73213390Y-90698095D02*
X73784819Y-91269523D01*
X73784819Y-91269523D02*
X73784819Y-90650476D01*
X72784819Y-90317142D02*
X72784819Y-89698095D01*
X72784819Y-89698095D02*
X73165771Y-90031428D01*
X73165771Y-90031428D02*
X73165771Y-89888571D01*
X73165771Y-89888571D02*
X73213390Y-89793333D01*
X73213390Y-89793333D02*
X73261009Y-89745714D01*
X73261009Y-89745714D02*
X73356247Y-89698095D01*
X73356247Y-89698095D02*
X73594342Y-89698095D01*
X73594342Y-89698095D02*
X73689580Y-89745714D01*
X73689580Y-89745714D02*
X73737200Y-89793333D01*
X73737200Y-89793333D02*
X73784819Y-89888571D01*
X73784819Y-89888571D02*
X73784819Y-90174285D01*
X73784819Y-90174285D02*
X73737200Y-90269523D01*
X73737200Y-90269523D02*
X73689580Y-90317142D01*
X85457142Y-72384819D02*
X85123809Y-71908628D01*
X84885714Y-72384819D02*
X84885714Y-71384819D01*
X84885714Y-71384819D02*
X85266666Y-71384819D01*
X85266666Y-71384819D02*
X85361904Y-71432438D01*
X85361904Y-71432438D02*
X85409523Y-71480057D01*
X85409523Y-71480057D02*
X85457142Y-71575295D01*
X85457142Y-71575295D02*
X85457142Y-71718152D01*
X85457142Y-71718152D02*
X85409523Y-71813390D01*
X85409523Y-71813390D02*
X85361904Y-71861009D01*
X85361904Y-71861009D02*
X85266666Y-71908628D01*
X85266666Y-71908628D02*
X84885714Y-71908628D01*
X86409523Y-72384819D02*
X85838095Y-72384819D01*
X86123809Y-72384819D02*
X86123809Y-71384819D01*
X86123809Y-71384819D02*
X86028571Y-71527676D01*
X86028571Y-71527676D02*
X85933333Y-71622914D01*
X85933333Y-71622914D02*
X85838095Y-71670533D01*
X86790476Y-71480057D02*
X86838095Y-71432438D01*
X86838095Y-71432438D02*
X86933333Y-71384819D01*
X86933333Y-71384819D02*
X87171428Y-71384819D01*
X87171428Y-71384819D02*
X87266666Y-71432438D01*
X87266666Y-71432438D02*
X87314285Y-71480057D01*
X87314285Y-71480057D02*
X87361904Y-71575295D01*
X87361904Y-71575295D02*
X87361904Y-71670533D01*
X87361904Y-71670533D02*
X87314285Y-71813390D01*
X87314285Y-71813390D02*
X86742857Y-72384819D01*
X86742857Y-72384819D02*
X87361904Y-72384819D01*
X78183333Y-86054819D02*
X77850000Y-85578628D01*
X77611905Y-86054819D02*
X77611905Y-85054819D01*
X77611905Y-85054819D02*
X77992857Y-85054819D01*
X77992857Y-85054819D02*
X78088095Y-85102438D01*
X78088095Y-85102438D02*
X78135714Y-85150057D01*
X78135714Y-85150057D02*
X78183333Y-85245295D01*
X78183333Y-85245295D02*
X78183333Y-85388152D01*
X78183333Y-85388152D02*
X78135714Y-85483390D01*
X78135714Y-85483390D02*
X78088095Y-85531009D01*
X78088095Y-85531009D02*
X77992857Y-85578628D01*
X77992857Y-85578628D02*
X77611905Y-85578628D01*
X79040476Y-85054819D02*
X78850000Y-85054819D01*
X78850000Y-85054819D02*
X78754762Y-85102438D01*
X78754762Y-85102438D02*
X78707143Y-85150057D01*
X78707143Y-85150057D02*
X78611905Y-85292914D01*
X78611905Y-85292914D02*
X78564286Y-85483390D01*
X78564286Y-85483390D02*
X78564286Y-85864342D01*
X78564286Y-85864342D02*
X78611905Y-85959580D01*
X78611905Y-85959580D02*
X78659524Y-86007200D01*
X78659524Y-86007200D02*
X78754762Y-86054819D01*
X78754762Y-86054819D02*
X78945238Y-86054819D01*
X78945238Y-86054819D02*
X79040476Y-86007200D01*
X79040476Y-86007200D02*
X79088095Y-85959580D01*
X79088095Y-85959580D02*
X79135714Y-85864342D01*
X79135714Y-85864342D02*
X79135714Y-85626247D01*
X79135714Y-85626247D02*
X79088095Y-85531009D01*
X79088095Y-85531009D02*
X79040476Y-85483390D01*
X79040476Y-85483390D02*
X78945238Y-85435771D01*
X78945238Y-85435771D02*
X78754762Y-85435771D01*
X78754762Y-85435771D02*
X78659524Y-85483390D01*
X78659524Y-85483390D02*
X78611905Y-85531009D01*
X78611905Y-85531009D02*
X78564286Y-85626247D01*
X84589405Y-131373069D02*
X84589405Y-130373069D01*
X84589405Y-130373069D02*
X84827500Y-130373069D01*
X84827500Y-130373069D02*
X84970357Y-130420688D01*
X84970357Y-130420688D02*
X85065595Y-130515926D01*
X85065595Y-130515926D02*
X85113214Y-130611164D01*
X85113214Y-130611164D02*
X85160833Y-130801640D01*
X85160833Y-130801640D02*
X85160833Y-130944497D01*
X85160833Y-130944497D02*
X85113214Y-131134973D01*
X85113214Y-131134973D02*
X85065595Y-131230211D01*
X85065595Y-131230211D02*
X84970357Y-131325450D01*
X84970357Y-131325450D02*
X84827500Y-131373069D01*
X84827500Y-131373069D02*
X84589405Y-131373069D01*
X86065595Y-130373069D02*
X85589405Y-130373069D01*
X85589405Y-130373069D02*
X85541786Y-130849259D01*
X85541786Y-130849259D02*
X85589405Y-130801640D01*
X85589405Y-130801640D02*
X85684643Y-130754021D01*
X85684643Y-130754021D02*
X85922738Y-130754021D01*
X85922738Y-130754021D02*
X86017976Y-130801640D01*
X86017976Y-130801640D02*
X86065595Y-130849259D01*
X86065595Y-130849259D02*
X86113214Y-130944497D01*
X86113214Y-130944497D02*
X86113214Y-131182592D01*
X86113214Y-131182592D02*
X86065595Y-131277830D01*
X86065595Y-131277830D02*
X86017976Y-131325450D01*
X86017976Y-131325450D02*
X85922738Y-131373069D01*
X85922738Y-131373069D02*
X85684643Y-131373069D01*
X85684643Y-131373069D02*
X85589405Y-131325450D01*
X85589405Y-131325450D02*
X85541786Y-131277830D01*
X85464819Y-55772857D02*
X84988628Y-56106190D01*
X85464819Y-56344285D02*
X84464819Y-56344285D01*
X84464819Y-56344285D02*
X84464819Y-55963333D01*
X84464819Y-55963333D02*
X84512438Y-55868095D01*
X84512438Y-55868095D02*
X84560057Y-55820476D01*
X84560057Y-55820476D02*
X84655295Y-55772857D01*
X84655295Y-55772857D02*
X84798152Y-55772857D01*
X84798152Y-55772857D02*
X84893390Y-55820476D01*
X84893390Y-55820476D02*
X84941009Y-55868095D01*
X84941009Y-55868095D02*
X84988628Y-55963333D01*
X84988628Y-55963333D02*
X84988628Y-56344285D01*
X85464819Y-54820476D02*
X85464819Y-55391904D01*
X85464819Y-55106190D02*
X84464819Y-55106190D01*
X84464819Y-55106190D02*
X84607676Y-55201428D01*
X84607676Y-55201428D02*
X84702914Y-55296666D01*
X84702914Y-55296666D02*
X84750533Y-55391904D01*
X85464819Y-53868095D02*
X85464819Y-54439523D01*
X85464819Y-54153809D02*
X84464819Y-54153809D01*
X84464819Y-54153809D02*
X84607676Y-54249047D01*
X84607676Y-54249047D02*
X84702914Y-54344285D01*
X84702914Y-54344285D02*
X84750533Y-54439523D01*
X80157142Y-80556330D02*
X80109523Y-80603950D01*
X80109523Y-80603950D02*
X79966666Y-80651569D01*
X79966666Y-80651569D02*
X79871428Y-80651569D01*
X79871428Y-80651569D02*
X79728571Y-80603950D01*
X79728571Y-80603950D02*
X79633333Y-80508711D01*
X79633333Y-80508711D02*
X79585714Y-80413473D01*
X79585714Y-80413473D02*
X79538095Y-80222997D01*
X79538095Y-80222997D02*
X79538095Y-80080140D01*
X79538095Y-80080140D02*
X79585714Y-79889664D01*
X79585714Y-79889664D02*
X79633333Y-79794426D01*
X79633333Y-79794426D02*
X79728571Y-79699188D01*
X79728571Y-79699188D02*
X79871428Y-79651569D01*
X79871428Y-79651569D02*
X79966666Y-79651569D01*
X79966666Y-79651569D02*
X80109523Y-79699188D01*
X80109523Y-79699188D02*
X80157142Y-79746807D01*
X81109523Y-80651569D02*
X80538095Y-80651569D01*
X80823809Y-80651569D02*
X80823809Y-79651569D01*
X80823809Y-79651569D02*
X80728571Y-79794426D01*
X80728571Y-79794426D02*
X80633333Y-79889664D01*
X80633333Y-79889664D02*
X80538095Y-79937283D01*
X81442857Y-79651569D02*
X82061904Y-79651569D01*
X82061904Y-79651569D02*
X81728571Y-80032521D01*
X81728571Y-80032521D02*
X81871428Y-80032521D01*
X81871428Y-80032521D02*
X81966666Y-80080140D01*
X81966666Y-80080140D02*
X82014285Y-80127759D01*
X82014285Y-80127759D02*
X82061904Y-80222997D01*
X82061904Y-80222997D02*
X82061904Y-80461092D01*
X82061904Y-80461092D02*
X82014285Y-80556330D01*
X82014285Y-80556330D02*
X81966666Y-80603950D01*
X81966666Y-80603950D02*
X81871428Y-80651569D01*
X81871428Y-80651569D02*
X81585714Y-80651569D01*
X81585714Y-80651569D02*
X81490476Y-80603950D01*
X81490476Y-80603950D02*
X81442857Y-80556330D01*
X72400277Y-56432972D02*
X73114562Y-56432972D01*
X73114562Y-56432972D02*
X73257419Y-56480591D01*
X73257419Y-56480591D02*
X73352658Y-56575829D01*
X73352658Y-56575829D02*
X73400277Y-56718686D01*
X73400277Y-56718686D02*
X73400277Y-56813924D01*
X73400277Y-55432972D02*
X73400277Y-56004400D01*
X73400277Y-55718686D02*
X72400277Y-55718686D01*
X72400277Y-55718686D02*
X72543134Y-55813924D01*
X72543134Y-55813924D02*
X72638372Y-55909162D01*
X72638372Y-55909162D02*
X72685991Y-56004400D01*
X92859580Y-59652857D02*
X92907200Y-59700476D01*
X92907200Y-59700476D02*
X92954819Y-59843333D01*
X92954819Y-59843333D02*
X92954819Y-59938571D01*
X92954819Y-59938571D02*
X92907200Y-60081428D01*
X92907200Y-60081428D02*
X92811961Y-60176666D01*
X92811961Y-60176666D02*
X92716723Y-60224285D01*
X92716723Y-60224285D02*
X92526247Y-60271904D01*
X92526247Y-60271904D02*
X92383390Y-60271904D01*
X92383390Y-60271904D02*
X92192914Y-60224285D01*
X92192914Y-60224285D02*
X92097676Y-60176666D01*
X92097676Y-60176666D02*
X92002438Y-60081428D01*
X92002438Y-60081428D02*
X91954819Y-59938571D01*
X91954819Y-59938571D02*
X91954819Y-59843333D01*
X91954819Y-59843333D02*
X92002438Y-59700476D01*
X92002438Y-59700476D02*
X92050057Y-59652857D01*
X92050057Y-59271904D02*
X92002438Y-59224285D01*
X92002438Y-59224285D02*
X91954819Y-59129047D01*
X91954819Y-59129047D02*
X91954819Y-58890952D01*
X91954819Y-58890952D02*
X92002438Y-58795714D01*
X92002438Y-58795714D02*
X92050057Y-58748095D01*
X92050057Y-58748095D02*
X92145295Y-58700476D01*
X92145295Y-58700476D02*
X92240533Y-58700476D01*
X92240533Y-58700476D02*
X92383390Y-58748095D01*
X92383390Y-58748095D02*
X92954819Y-59319523D01*
X92954819Y-59319523D02*
X92954819Y-58700476D01*
X92383390Y-58129047D02*
X92335771Y-58224285D01*
X92335771Y-58224285D02*
X92288152Y-58271904D01*
X92288152Y-58271904D02*
X92192914Y-58319523D01*
X92192914Y-58319523D02*
X92145295Y-58319523D01*
X92145295Y-58319523D02*
X92050057Y-58271904D01*
X92050057Y-58271904D02*
X92002438Y-58224285D01*
X92002438Y-58224285D02*
X91954819Y-58129047D01*
X91954819Y-58129047D02*
X91954819Y-57938571D01*
X91954819Y-57938571D02*
X92002438Y-57843333D01*
X92002438Y-57843333D02*
X92050057Y-57795714D01*
X92050057Y-57795714D02*
X92145295Y-57748095D01*
X92145295Y-57748095D02*
X92192914Y-57748095D01*
X92192914Y-57748095D02*
X92288152Y-57795714D01*
X92288152Y-57795714D02*
X92335771Y-57843333D01*
X92335771Y-57843333D02*
X92383390Y-57938571D01*
X92383390Y-57938571D02*
X92383390Y-58129047D01*
X92383390Y-58129047D02*
X92431009Y-58224285D01*
X92431009Y-58224285D02*
X92478628Y-58271904D01*
X92478628Y-58271904D02*
X92573866Y-58319523D01*
X92573866Y-58319523D02*
X92764342Y-58319523D01*
X92764342Y-58319523D02*
X92859580Y-58271904D01*
X92859580Y-58271904D02*
X92907200Y-58224285D01*
X92907200Y-58224285D02*
X92954819Y-58129047D01*
X92954819Y-58129047D02*
X92954819Y-57938571D01*
X92954819Y-57938571D02*
X92907200Y-57843333D01*
X92907200Y-57843333D02*
X92859580Y-57795714D01*
X92859580Y-57795714D02*
X92764342Y-57748095D01*
X92764342Y-57748095D02*
X92573866Y-57748095D01*
X92573866Y-57748095D02*
X92478628Y-57795714D01*
X92478628Y-57795714D02*
X92431009Y-57843333D01*
X92431009Y-57843333D02*
X92383390Y-57938571D01*
X91264819Y-72086666D02*
X90788628Y-72419999D01*
X91264819Y-72658094D02*
X90264819Y-72658094D01*
X90264819Y-72658094D02*
X90264819Y-72277142D01*
X90264819Y-72277142D02*
X90312438Y-72181904D01*
X90312438Y-72181904D02*
X90360057Y-72134285D01*
X90360057Y-72134285D02*
X90455295Y-72086666D01*
X90455295Y-72086666D02*
X90598152Y-72086666D01*
X90598152Y-72086666D02*
X90693390Y-72134285D01*
X90693390Y-72134285D02*
X90741009Y-72181904D01*
X90741009Y-72181904D02*
X90788628Y-72277142D01*
X90788628Y-72277142D02*
X90788628Y-72658094D01*
X90598152Y-71229523D02*
X91264819Y-71229523D01*
X90217200Y-71467618D02*
X90931485Y-71705713D01*
X90931485Y-71705713D02*
X90931485Y-71086666D01*
X87584819Y-65688094D02*
X86584819Y-65688094D01*
X86584819Y-65688094D02*
X86584819Y-65449999D01*
X86584819Y-65449999D02*
X86632438Y-65307142D01*
X86632438Y-65307142D02*
X86727676Y-65211904D01*
X86727676Y-65211904D02*
X86822914Y-65164285D01*
X86822914Y-65164285D02*
X87013390Y-65116666D01*
X87013390Y-65116666D02*
X87156247Y-65116666D01*
X87156247Y-65116666D02*
X87346723Y-65164285D01*
X87346723Y-65164285D02*
X87441961Y-65211904D01*
X87441961Y-65211904D02*
X87537200Y-65307142D01*
X87537200Y-65307142D02*
X87584819Y-65449999D01*
X87584819Y-65449999D02*
X87584819Y-65688094D01*
X87584819Y-64164285D02*
X87584819Y-64735713D01*
X87584819Y-64449999D02*
X86584819Y-64449999D01*
X86584819Y-64449999D02*
X86727676Y-64545237D01*
X86727676Y-64545237D02*
X86822914Y-64640475D01*
X86822914Y-64640475D02*
X86870533Y-64735713D01*
X85859580Y-122340476D02*
X85907200Y-122388095D01*
X85907200Y-122388095D02*
X85954819Y-122530952D01*
X85954819Y-122530952D02*
X85954819Y-122626190D01*
X85954819Y-122626190D02*
X85907200Y-122769047D01*
X85907200Y-122769047D02*
X85811961Y-122864285D01*
X85811961Y-122864285D02*
X85716723Y-122911904D01*
X85716723Y-122911904D02*
X85526247Y-122959523D01*
X85526247Y-122959523D02*
X85383390Y-122959523D01*
X85383390Y-122959523D02*
X85192914Y-122911904D01*
X85192914Y-122911904D02*
X85097676Y-122864285D01*
X85097676Y-122864285D02*
X85002438Y-122769047D01*
X85002438Y-122769047D02*
X84954819Y-122626190D01*
X84954819Y-122626190D02*
X84954819Y-122530952D01*
X84954819Y-122530952D02*
X85002438Y-122388095D01*
X85002438Y-122388095D02*
X85050057Y-122340476D01*
X84954819Y-122007142D02*
X84954819Y-121388095D01*
X84954819Y-121388095D02*
X85335771Y-121721428D01*
X85335771Y-121721428D02*
X85335771Y-121578571D01*
X85335771Y-121578571D02*
X85383390Y-121483333D01*
X85383390Y-121483333D02*
X85431009Y-121435714D01*
X85431009Y-121435714D02*
X85526247Y-121388095D01*
X85526247Y-121388095D02*
X85764342Y-121388095D01*
X85764342Y-121388095D02*
X85859580Y-121435714D01*
X85859580Y-121435714D02*
X85907200Y-121483333D01*
X85907200Y-121483333D02*
X85954819Y-121578571D01*
X85954819Y-121578571D02*
X85954819Y-121864285D01*
X85954819Y-121864285D02*
X85907200Y-121959523D01*
X85907200Y-121959523D02*
X85859580Y-122007142D01*
X85954819Y-120435714D02*
X85954819Y-121007142D01*
X85954819Y-120721428D02*
X84954819Y-120721428D01*
X84954819Y-120721428D02*
X85097676Y-120816666D01*
X85097676Y-120816666D02*
X85192914Y-120911904D01*
X85192914Y-120911904D02*
X85240533Y-121007142D01*
X83739523Y-82909580D02*
X83691904Y-82957200D01*
X83691904Y-82957200D02*
X83549047Y-83004819D01*
X83549047Y-83004819D02*
X83453809Y-83004819D01*
X83453809Y-83004819D02*
X83310952Y-82957200D01*
X83310952Y-82957200D02*
X83215714Y-82861961D01*
X83215714Y-82861961D02*
X83168095Y-82766723D01*
X83168095Y-82766723D02*
X83120476Y-82576247D01*
X83120476Y-82576247D02*
X83120476Y-82433390D01*
X83120476Y-82433390D02*
X83168095Y-82242914D01*
X83168095Y-82242914D02*
X83215714Y-82147676D01*
X83215714Y-82147676D02*
X83310952Y-82052438D01*
X83310952Y-82052438D02*
X83453809Y-82004819D01*
X83453809Y-82004819D02*
X83549047Y-82004819D01*
X83549047Y-82004819D02*
X83691904Y-82052438D01*
X83691904Y-82052438D02*
X83739523Y-82100057D01*
X84691904Y-83004819D02*
X84120476Y-83004819D01*
X84406190Y-83004819D02*
X84406190Y-82004819D01*
X84406190Y-82004819D02*
X84310952Y-82147676D01*
X84310952Y-82147676D02*
X84215714Y-82242914D01*
X84215714Y-82242914D02*
X84120476Y-82290533D01*
X85549047Y-82338152D02*
X85549047Y-83004819D01*
X85310952Y-81957200D02*
X85072857Y-82671485D01*
X85072857Y-82671485D02*
X85691904Y-82671485D01*
X76854819Y-87512857D02*
X76378628Y-87846190D01*
X76854819Y-88084285D02*
X75854819Y-88084285D01*
X75854819Y-88084285D02*
X75854819Y-87703333D01*
X75854819Y-87703333D02*
X75902438Y-87608095D01*
X75902438Y-87608095D02*
X75950057Y-87560476D01*
X75950057Y-87560476D02*
X76045295Y-87512857D01*
X76045295Y-87512857D02*
X76188152Y-87512857D01*
X76188152Y-87512857D02*
X76283390Y-87560476D01*
X76283390Y-87560476D02*
X76331009Y-87608095D01*
X76331009Y-87608095D02*
X76378628Y-87703333D01*
X76378628Y-87703333D02*
X76378628Y-88084285D01*
X75950057Y-87131904D02*
X75902438Y-87084285D01*
X75902438Y-87084285D02*
X75854819Y-86989047D01*
X75854819Y-86989047D02*
X75854819Y-86750952D01*
X75854819Y-86750952D02*
X75902438Y-86655714D01*
X75902438Y-86655714D02*
X75950057Y-86608095D01*
X75950057Y-86608095D02*
X76045295Y-86560476D01*
X76045295Y-86560476D02*
X76140533Y-86560476D01*
X76140533Y-86560476D02*
X76283390Y-86608095D01*
X76283390Y-86608095D02*
X76854819Y-87179523D01*
X76854819Y-87179523D02*
X76854819Y-86560476D01*
X76188152Y-85703333D02*
X76854819Y-85703333D01*
X75807200Y-85941428D02*
X76521485Y-86179523D01*
X76521485Y-86179523D02*
X76521485Y-85560476D01*
X85899761Y-114159580D02*
X85852142Y-114207200D01*
X85852142Y-114207200D02*
X85709285Y-114254819D01*
X85709285Y-114254819D02*
X85614047Y-114254819D01*
X85614047Y-114254819D02*
X85471190Y-114207200D01*
X85471190Y-114207200D02*
X85375952Y-114111961D01*
X85375952Y-114111961D02*
X85328333Y-114016723D01*
X85328333Y-114016723D02*
X85280714Y-113826247D01*
X85280714Y-113826247D02*
X85280714Y-113683390D01*
X85280714Y-113683390D02*
X85328333Y-113492914D01*
X85328333Y-113492914D02*
X85375952Y-113397676D01*
X85375952Y-113397676D02*
X85471190Y-113302438D01*
X85471190Y-113302438D02*
X85614047Y-113254819D01*
X85614047Y-113254819D02*
X85709285Y-113254819D01*
X85709285Y-113254819D02*
X85852142Y-113302438D01*
X85852142Y-113302438D02*
X85899761Y-113350057D01*
X86233095Y-113254819D02*
X86852142Y-113254819D01*
X86852142Y-113254819D02*
X86518809Y-113635771D01*
X86518809Y-113635771D02*
X86661666Y-113635771D01*
X86661666Y-113635771D02*
X86756904Y-113683390D01*
X86756904Y-113683390D02*
X86804523Y-113731009D01*
X86804523Y-113731009D02*
X86852142Y-113826247D01*
X86852142Y-113826247D02*
X86852142Y-114064342D01*
X86852142Y-114064342D02*
X86804523Y-114159580D01*
X86804523Y-114159580D02*
X86756904Y-114207200D01*
X86756904Y-114207200D02*
X86661666Y-114254819D01*
X86661666Y-114254819D02*
X86375952Y-114254819D01*
X86375952Y-114254819D02*
X86280714Y-114207200D01*
X86280714Y-114207200D02*
X86233095Y-114159580D01*
X87185476Y-113254819D02*
X87804523Y-113254819D01*
X87804523Y-113254819D02*
X87471190Y-113635771D01*
X87471190Y-113635771D02*
X87614047Y-113635771D01*
X87614047Y-113635771D02*
X87709285Y-113683390D01*
X87709285Y-113683390D02*
X87756904Y-113731009D01*
X87756904Y-113731009D02*
X87804523Y-113826247D01*
X87804523Y-113826247D02*
X87804523Y-114064342D01*
X87804523Y-114064342D02*
X87756904Y-114159580D01*
X87756904Y-114159580D02*
X87709285Y-114207200D01*
X87709285Y-114207200D02*
X87614047Y-114254819D01*
X87614047Y-114254819D02*
X87328333Y-114254819D01*
X87328333Y-114254819D02*
X87233095Y-114207200D01*
X87233095Y-114207200D02*
X87185476Y-114159580D01*
X83859580Y-122340476D02*
X83907200Y-122388095D01*
X83907200Y-122388095D02*
X83954819Y-122530952D01*
X83954819Y-122530952D02*
X83954819Y-122626190D01*
X83954819Y-122626190D02*
X83907200Y-122769047D01*
X83907200Y-122769047D02*
X83811961Y-122864285D01*
X83811961Y-122864285D02*
X83716723Y-122911904D01*
X83716723Y-122911904D02*
X83526247Y-122959523D01*
X83526247Y-122959523D02*
X83383390Y-122959523D01*
X83383390Y-122959523D02*
X83192914Y-122911904D01*
X83192914Y-122911904D02*
X83097676Y-122864285D01*
X83097676Y-122864285D02*
X83002438Y-122769047D01*
X83002438Y-122769047D02*
X82954819Y-122626190D01*
X82954819Y-122626190D02*
X82954819Y-122530952D01*
X82954819Y-122530952D02*
X83002438Y-122388095D01*
X83002438Y-122388095D02*
X83050057Y-122340476D01*
X82954819Y-122007142D02*
X82954819Y-121388095D01*
X82954819Y-121388095D02*
X83335771Y-121721428D01*
X83335771Y-121721428D02*
X83335771Y-121578571D01*
X83335771Y-121578571D02*
X83383390Y-121483333D01*
X83383390Y-121483333D02*
X83431009Y-121435714D01*
X83431009Y-121435714D02*
X83526247Y-121388095D01*
X83526247Y-121388095D02*
X83764342Y-121388095D01*
X83764342Y-121388095D02*
X83859580Y-121435714D01*
X83859580Y-121435714D02*
X83907200Y-121483333D01*
X83907200Y-121483333D02*
X83954819Y-121578571D01*
X83954819Y-121578571D02*
X83954819Y-121864285D01*
X83954819Y-121864285D02*
X83907200Y-121959523D01*
X83907200Y-121959523D02*
X83859580Y-122007142D01*
X83050057Y-121007142D02*
X83002438Y-120959523D01*
X83002438Y-120959523D02*
X82954819Y-120864285D01*
X82954819Y-120864285D02*
X82954819Y-120626190D01*
X82954819Y-120626190D02*
X83002438Y-120530952D01*
X83002438Y-120530952D02*
X83050057Y-120483333D01*
X83050057Y-120483333D02*
X83145295Y-120435714D01*
X83145295Y-120435714D02*
X83240533Y-120435714D01*
X83240533Y-120435714D02*
X83383390Y-120483333D01*
X83383390Y-120483333D02*
X83954819Y-121054761D01*
X83954819Y-121054761D02*
X83954819Y-120435714D01*
D11*
X91454911Y-98437071D02*
X91454911Y-99246594D01*
X91454911Y-99246594D02*
X91502530Y-99341832D01*
X91502530Y-99341832D02*
X91550149Y-99389452D01*
X91550149Y-99389452D02*
X91645387Y-99437071D01*
X91645387Y-99437071D02*
X91835863Y-99437071D01*
X91835863Y-99437071D02*
X91931101Y-99389452D01*
X91931101Y-99389452D02*
X91978720Y-99341832D01*
X91978720Y-99341832D02*
X92026339Y-99246594D01*
X92026339Y-99246594D02*
X92026339Y-98437071D01*
X93026339Y-99437071D02*
X92454911Y-99437071D01*
X92740625Y-99437071D02*
X92740625Y-98437071D01*
X92740625Y-98437071D02*
X92645387Y-98579928D01*
X92645387Y-98579928D02*
X92550149Y-98675166D01*
X92550149Y-98675166D02*
X92454911Y-98722785D01*
D10*
X81954819Y-122560476D02*
X81478628Y-122893809D01*
X81954819Y-123131904D02*
X80954819Y-123131904D01*
X80954819Y-123131904D02*
X80954819Y-122750952D01*
X80954819Y-122750952D02*
X81002438Y-122655714D01*
X81002438Y-122655714D02*
X81050057Y-122608095D01*
X81050057Y-122608095D02*
X81145295Y-122560476D01*
X81145295Y-122560476D02*
X81288152Y-122560476D01*
X81288152Y-122560476D02*
X81383390Y-122608095D01*
X81383390Y-122608095D02*
X81431009Y-122655714D01*
X81431009Y-122655714D02*
X81478628Y-122750952D01*
X81478628Y-122750952D02*
X81478628Y-123131904D01*
X81954819Y-121608095D02*
X81954819Y-122179523D01*
X81954819Y-121893809D02*
X80954819Y-121893809D01*
X80954819Y-121893809D02*
X81097676Y-121989047D01*
X81097676Y-121989047D02*
X81192914Y-122084285D01*
X81192914Y-122084285D02*
X81240533Y-122179523D01*
X80954819Y-120750952D02*
X80954819Y-120941428D01*
X80954819Y-120941428D02*
X81002438Y-121036666D01*
X81002438Y-121036666D02*
X81050057Y-121084285D01*
X81050057Y-121084285D02*
X81192914Y-121179523D01*
X81192914Y-121179523D02*
X81383390Y-121227142D01*
X81383390Y-121227142D02*
X81764342Y-121227142D01*
X81764342Y-121227142D02*
X81859580Y-121179523D01*
X81859580Y-121179523D02*
X81907200Y-121131904D01*
X81907200Y-121131904D02*
X81954819Y-121036666D01*
X81954819Y-121036666D02*
X81954819Y-120846190D01*
X81954819Y-120846190D02*
X81907200Y-120750952D01*
X81907200Y-120750952D02*
X81859580Y-120703333D01*
X81859580Y-120703333D02*
X81764342Y-120655714D01*
X81764342Y-120655714D02*
X81526247Y-120655714D01*
X81526247Y-120655714D02*
X81431009Y-120703333D01*
X81431009Y-120703333D02*
X81383390Y-120750952D01*
X81383390Y-120750952D02*
X81335771Y-120846190D01*
X81335771Y-120846190D02*
X81335771Y-121036666D01*
X81335771Y-121036666D02*
X81383390Y-121131904D01*
X81383390Y-121131904D02*
X81431009Y-121179523D01*
X81431009Y-121179523D02*
X81526247Y-121227142D01*
X82429580Y-65462857D02*
X82477200Y-65510476D01*
X82477200Y-65510476D02*
X82524819Y-65653333D01*
X82524819Y-65653333D02*
X82524819Y-65748571D01*
X82524819Y-65748571D02*
X82477200Y-65891428D01*
X82477200Y-65891428D02*
X82381961Y-65986666D01*
X82381961Y-65986666D02*
X82286723Y-66034285D01*
X82286723Y-66034285D02*
X82096247Y-66081904D01*
X82096247Y-66081904D02*
X81953390Y-66081904D01*
X81953390Y-66081904D02*
X81762914Y-66034285D01*
X81762914Y-66034285D02*
X81667676Y-65986666D01*
X81667676Y-65986666D02*
X81572438Y-65891428D01*
X81572438Y-65891428D02*
X81524819Y-65748571D01*
X81524819Y-65748571D02*
X81524819Y-65653333D01*
X81524819Y-65653333D02*
X81572438Y-65510476D01*
X81572438Y-65510476D02*
X81620057Y-65462857D01*
X81620057Y-65081904D02*
X81572438Y-65034285D01*
X81572438Y-65034285D02*
X81524819Y-64939047D01*
X81524819Y-64939047D02*
X81524819Y-64700952D01*
X81524819Y-64700952D02*
X81572438Y-64605714D01*
X81572438Y-64605714D02*
X81620057Y-64558095D01*
X81620057Y-64558095D02*
X81715295Y-64510476D01*
X81715295Y-64510476D02*
X81810533Y-64510476D01*
X81810533Y-64510476D02*
X81953390Y-64558095D01*
X81953390Y-64558095D02*
X82524819Y-65129523D01*
X82524819Y-65129523D02*
X82524819Y-64510476D01*
X81524819Y-63891428D02*
X81524819Y-63796190D01*
X81524819Y-63796190D02*
X81572438Y-63700952D01*
X81572438Y-63700952D02*
X81620057Y-63653333D01*
X81620057Y-63653333D02*
X81715295Y-63605714D01*
X81715295Y-63605714D02*
X81905771Y-63558095D01*
X81905771Y-63558095D02*
X82143866Y-63558095D01*
X82143866Y-63558095D02*
X82334342Y-63605714D01*
X82334342Y-63605714D02*
X82429580Y-63653333D01*
X82429580Y-63653333D02*
X82477200Y-63700952D01*
X82477200Y-63700952D02*
X82524819Y-63796190D01*
X82524819Y-63796190D02*
X82524819Y-63891428D01*
X82524819Y-63891428D02*
X82477200Y-63986666D01*
X82477200Y-63986666D02*
X82429580Y-64034285D01*
X82429580Y-64034285D02*
X82334342Y-64081904D01*
X82334342Y-64081904D02*
X82143866Y-64129523D01*
X82143866Y-64129523D02*
X81905771Y-64129523D01*
X81905771Y-64129523D02*
X81715295Y-64081904D01*
X81715295Y-64081904D02*
X81620057Y-64034285D01*
X81620057Y-64034285D02*
X81572438Y-63986666D01*
X81572438Y-63986666D02*
X81524819Y-63891428D01*
X90427142Y-70519580D02*
X90379523Y-70567200D01*
X90379523Y-70567200D02*
X90236666Y-70614819D01*
X90236666Y-70614819D02*
X90141428Y-70614819D01*
X90141428Y-70614819D02*
X89998571Y-70567200D01*
X89998571Y-70567200D02*
X89903333Y-70471961D01*
X89903333Y-70471961D02*
X89855714Y-70376723D01*
X89855714Y-70376723D02*
X89808095Y-70186247D01*
X89808095Y-70186247D02*
X89808095Y-70043390D01*
X89808095Y-70043390D02*
X89855714Y-69852914D01*
X89855714Y-69852914D02*
X89903333Y-69757676D01*
X89903333Y-69757676D02*
X89998571Y-69662438D01*
X89998571Y-69662438D02*
X90141428Y-69614819D01*
X90141428Y-69614819D02*
X90236666Y-69614819D01*
X90236666Y-69614819D02*
X90379523Y-69662438D01*
X90379523Y-69662438D02*
X90427142Y-69710057D01*
X90808095Y-69710057D02*
X90855714Y-69662438D01*
X90855714Y-69662438D02*
X90950952Y-69614819D01*
X90950952Y-69614819D02*
X91189047Y-69614819D01*
X91189047Y-69614819D02*
X91284285Y-69662438D01*
X91284285Y-69662438D02*
X91331904Y-69710057D01*
X91331904Y-69710057D02*
X91379523Y-69805295D01*
X91379523Y-69805295D02*
X91379523Y-69900533D01*
X91379523Y-69900533D02*
X91331904Y-70043390D01*
X91331904Y-70043390D02*
X90760476Y-70614819D01*
X90760476Y-70614819D02*
X91379523Y-70614819D01*
X91712857Y-69614819D02*
X92379523Y-69614819D01*
X92379523Y-69614819D02*
X91950952Y-70614819D01*
X79423333Y-72899580D02*
X79375714Y-72947200D01*
X79375714Y-72947200D02*
X79232857Y-72994819D01*
X79232857Y-72994819D02*
X79137619Y-72994819D01*
X79137619Y-72994819D02*
X78994762Y-72947200D01*
X78994762Y-72947200D02*
X78899524Y-72851961D01*
X78899524Y-72851961D02*
X78851905Y-72756723D01*
X78851905Y-72756723D02*
X78804286Y-72566247D01*
X78804286Y-72566247D02*
X78804286Y-72423390D01*
X78804286Y-72423390D02*
X78851905Y-72232914D01*
X78851905Y-72232914D02*
X78899524Y-72137676D01*
X78899524Y-72137676D02*
X78994762Y-72042438D01*
X78994762Y-72042438D02*
X79137619Y-71994819D01*
X79137619Y-71994819D02*
X79232857Y-71994819D01*
X79232857Y-71994819D02*
X79375714Y-72042438D01*
X79375714Y-72042438D02*
X79423333Y-72090057D01*
X79994762Y-72423390D02*
X79899524Y-72375771D01*
X79899524Y-72375771D02*
X79851905Y-72328152D01*
X79851905Y-72328152D02*
X79804286Y-72232914D01*
X79804286Y-72232914D02*
X79804286Y-72185295D01*
X79804286Y-72185295D02*
X79851905Y-72090057D01*
X79851905Y-72090057D02*
X79899524Y-72042438D01*
X79899524Y-72042438D02*
X79994762Y-71994819D01*
X79994762Y-71994819D02*
X80185238Y-71994819D01*
X80185238Y-71994819D02*
X80280476Y-72042438D01*
X80280476Y-72042438D02*
X80328095Y-72090057D01*
X80328095Y-72090057D02*
X80375714Y-72185295D01*
X80375714Y-72185295D02*
X80375714Y-72232914D01*
X80375714Y-72232914D02*
X80328095Y-72328152D01*
X80328095Y-72328152D02*
X80280476Y-72375771D01*
X80280476Y-72375771D02*
X80185238Y-72423390D01*
X80185238Y-72423390D02*
X79994762Y-72423390D01*
X79994762Y-72423390D02*
X79899524Y-72471009D01*
X79899524Y-72471009D02*
X79851905Y-72518628D01*
X79851905Y-72518628D02*
X79804286Y-72613866D01*
X79804286Y-72613866D02*
X79804286Y-72804342D01*
X79804286Y-72804342D02*
X79851905Y-72899580D01*
X79851905Y-72899580D02*
X79899524Y-72947200D01*
X79899524Y-72947200D02*
X79994762Y-72994819D01*
X79994762Y-72994819D02*
X80185238Y-72994819D01*
X80185238Y-72994819D02*
X80280476Y-72947200D01*
X80280476Y-72947200D02*
X80328095Y-72899580D01*
X80328095Y-72899580D02*
X80375714Y-72804342D01*
X80375714Y-72804342D02*
X80375714Y-72613866D01*
X80375714Y-72613866D02*
X80328095Y-72518628D01*
X80328095Y-72518628D02*
X80280476Y-72471009D01*
X80280476Y-72471009D02*
X80185238Y-72423390D01*
X82404819Y-88560476D02*
X81928628Y-88893809D01*
X82404819Y-89131904D02*
X81404819Y-89131904D01*
X81404819Y-89131904D02*
X81404819Y-88750952D01*
X81404819Y-88750952D02*
X81452438Y-88655714D01*
X81452438Y-88655714D02*
X81500057Y-88608095D01*
X81500057Y-88608095D02*
X81595295Y-88560476D01*
X81595295Y-88560476D02*
X81738152Y-88560476D01*
X81738152Y-88560476D02*
X81833390Y-88608095D01*
X81833390Y-88608095D02*
X81881009Y-88655714D01*
X81881009Y-88655714D02*
X81928628Y-88750952D01*
X81928628Y-88750952D02*
X81928628Y-89131904D01*
X81500057Y-88179523D02*
X81452438Y-88131904D01*
X81452438Y-88131904D02*
X81404819Y-88036666D01*
X81404819Y-88036666D02*
X81404819Y-87798571D01*
X81404819Y-87798571D02*
X81452438Y-87703333D01*
X81452438Y-87703333D02*
X81500057Y-87655714D01*
X81500057Y-87655714D02*
X81595295Y-87608095D01*
X81595295Y-87608095D02*
X81690533Y-87608095D01*
X81690533Y-87608095D02*
X81833390Y-87655714D01*
X81833390Y-87655714D02*
X82404819Y-88227142D01*
X82404819Y-88227142D02*
X82404819Y-87608095D01*
X81404819Y-86750952D02*
X81404819Y-86941428D01*
X81404819Y-86941428D02*
X81452438Y-87036666D01*
X81452438Y-87036666D02*
X81500057Y-87084285D01*
X81500057Y-87084285D02*
X81642914Y-87179523D01*
X81642914Y-87179523D02*
X81833390Y-87227142D01*
X81833390Y-87227142D02*
X82214342Y-87227142D01*
X82214342Y-87227142D02*
X82309580Y-87179523D01*
X82309580Y-87179523D02*
X82357200Y-87131904D01*
X82357200Y-87131904D02*
X82404819Y-87036666D01*
X82404819Y-87036666D02*
X82404819Y-86846190D01*
X82404819Y-86846190D02*
X82357200Y-86750952D01*
X82357200Y-86750952D02*
X82309580Y-86703333D01*
X82309580Y-86703333D02*
X82214342Y-86655714D01*
X82214342Y-86655714D02*
X81976247Y-86655714D01*
X81976247Y-86655714D02*
X81881009Y-86703333D01*
X81881009Y-86703333D02*
X81833390Y-86750952D01*
X81833390Y-86750952D02*
X81785771Y-86846190D01*
X81785771Y-86846190D02*
X81785771Y-87036666D01*
X81785771Y-87036666D02*
X81833390Y-87131904D01*
X81833390Y-87131904D02*
X81881009Y-87179523D01*
X81881009Y-87179523D02*
X81976247Y-87227142D01*
X78474819Y-88602857D02*
X77998628Y-88936190D01*
X78474819Y-89174285D02*
X77474819Y-89174285D01*
X77474819Y-89174285D02*
X77474819Y-88793333D01*
X77474819Y-88793333D02*
X77522438Y-88698095D01*
X77522438Y-88698095D02*
X77570057Y-88650476D01*
X77570057Y-88650476D02*
X77665295Y-88602857D01*
X77665295Y-88602857D02*
X77808152Y-88602857D01*
X77808152Y-88602857D02*
X77903390Y-88650476D01*
X77903390Y-88650476D02*
X77951009Y-88698095D01*
X77951009Y-88698095D02*
X77998628Y-88793333D01*
X77998628Y-88793333D02*
X77998628Y-89174285D01*
X77570057Y-88221904D02*
X77522438Y-88174285D01*
X77522438Y-88174285D02*
X77474819Y-88079047D01*
X77474819Y-88079047D02*
X77474819Y-87840952D01*
X77474819Y-87840952D02*
X77522438Y-87745714D01*
X77522438Y-87745714D02*
X77570057Y-87698095D01*
X77570057Y-87698095D02*
X77665295Y-87650476D01*
X77665295Y-87650476D02*
X77760533Y-87650476D01*
X77760533Y-87650476D02*
X77903390Y-87698095D01*
X77903390Y-87698095D02*
X78474819Y-88269523D01*
X78474819Y-88269523D02*
X78474819Y-87650476D01*
X77474819Y-87031428D02*
X77474819Y-86936190D01*
X77474819Y-86936190D02*
X77522438Y-86840952D01*
X77522438Y-86840952D02*
X77570057Y-86793333D01*
X77570057Y-86793333D02*
X77665295Y-86745714D01*
X77665295Y-86745714D02*
X77855771Y-86698095D01*
X77855771Y-86698095D02*
X78093866Y-86698095D01*
X78093866Y-86698095D02*
X78284342Y-86745714D01*
X78284342Y-86745714D02*
X78379580Y-86793333D01*
X78379580Y-86793333D02*
X78427200Y-86840952D01*
X78427200Y-86840952D02*
X78474819Y-86936190D01*
X78474819Y-86936190D02*
X78474819Y-87031428D01*
X78474819Y-87031428D02*
X78427200Y-87126666D01*
X78427200Y-87126666D02*
X78379580Y-87174285D01*
X78379580Y-87174285D02*
X78284342Y-87221904D01*
X78284342Y-87221904D02*
X78093866Y-87269523D01*
X78093866Y-87269523D02*
X77855771Y-87269523D01*
X77855771Y-87269523D02*
X77665295Y-87221904D01*
X77665295Y-87221904D02*
X77570057Y-87174285D01*
X77570057Y-87174285D02*
X77522438Y-87126666D01*
X77522438Y-87126666D02*
X77474819Y-87031428D01*
X93104819Y-80172856D02*
X92628628Y-80506189D01*
X93104819Y-80744284D02*
X92104819Y-80744284D01*
X92104819Y-80744284D02*
X92104819Y-80363332D01*
X92104819Y-80363332D02*
X92152438Y-80268094D01*
X92152438Y-80268094D02*
X92200057Y-80220475D01*
X92200057Y-80220475D02*
X92295295Y-80172856D01*
X92295295Y-80172856D02*
X92438152Y-80172856D01*
X92438152Y-80172856D02*
X92533390Y-80220475D01*
X92533390Y-80220475D02*
X92581009Y-80268094D01*
X92581009Y-80268094D02*
X92628628Y-80363332D01*
X92628628Y-80363332D02*
X92628628Y-80744284D01*
X93104819Y-79220475D02*
X93104819Y-79791903D01*
X93104819Y-79506189D02*
X92104819Y-79506189D01*
X92104819Y-79506189D02*
X92247676Y-79601427D01*
X92247676Y-79601427D02*
X92342914Y-79696665D01*
X92342914Y-79696665D02*
X92390533Y-79791903D01*
X86777142Y-53579580D02*
X86729523Y-53627200D01*
X86729523Y-53627200D02*
X86586666Y-53674819D01*
X86586666Y-53674819D02*
X86491428Y-53674819D01*
X86491428Y-53674819D02*
X86348571Y-53627200D01*
X86348571Y-53627200D02*
X86253333Y-53531961D01*
X86253333Y-53531961D02*
X86205714Y-53436723D01*
X86205714Y-53436723D02*
X86158095Y-53246247D01*
X86158095Y-53246247D02*
X86158095Y-53103390D01*
X86158095Y-53103390D02*
X86205714Y-52912914D01*
X86205714Y-52912914D02*
X86253333Y-52817676D01*
X86253333Y-52817676D02*
X86348571Y-52722438D01*
X86348571Y-52722438D02*
X86491428Y-52674819D01*
X86491428Y-52674819D02*
X86586666Y-52674819D01*
X86586666Y-52674819D02*
X86729523Y-52722438D01*
X86729523Y-52722438D02*
X86777142Y-52770057D01*
X87158095Y-52770057D02*
X87205714Y-52722438D01*
X87205714Y-52722438D02*
X87300952Y-52674819D01*
X87300952Y-52674819D02*
X87539047Y-52674819D01*
X87539047Y-52674819D02*
X87634285Y-52722438D01*
X87634285Y-52722438D02*
X87681904Y-52770057D01*
X87681904Y-52770057D02*
X87729523Y-52865295D01*
X87729523Y-52865295D02*
X87729523Y-52960533D01*
X87729523Y-52960533D02*
X87681904Y-53103390D01*
X87681904Y-53103390D02*
X87110476Y-53674819D01*
X87110476Y-53674819D02*
X87729523Y-53674819D01*
X88634285Y-52674819D02*
X88158095Y-52674819D01*
X88158095Y-52674819D02*
X88110476Y-53151009D01*
X88110476Y-53151009D02*
X88158095Y-53103390D01*
X88158095Y-53103390D02*
X88253333Y-53055771D01*
X88253333Y-53055771D02*
X88491428Y-53055771D01*
X88491428Y-53055771D02*
X88586666Y-53103390D01*
X88586666Y-53103390D02*
X88634285Y-53151009D01*
X88634285Y-53151009D02*
X88681904Y-53246247D01*
X88681904Y-53246247D02*
X88681904Y-53484342D01*
X88681904Y-53484342D02*
X88634285Y-53579580D01*
X88634285Y-53579580D02*
X88586666Y-53627200D01*
X88586666Y-53627200D02*
X88491428Y-53674819D01*
X88491428Y-53674819D02*
X88253333Y-53674819D01*
X88253333Y-53674819D02*
X88158095Y-53627200D01*
X88158095Y-53627200D02*
X88110476Y-53579580D01*
X86077142Y-115749580D02*
X86029523Y-115797200D01*
X86029523Y-115797200D02*
X85886666Y-115844819D01*
X85886666Y-115844819D02*
X85791428Y-115844819D01*
X85791428Y-115844819D02*
X85648571Y-115797200D01*
X85648571Y-115797200D02*
X85553333Y-115701961D01*
X85553333Y-115701961D02*
X85505714Y-115606723D01*
X85505714Y-115606723D02*
X85458095Y-115416247D01*
X85458095Y-115416247D02*
X85458095Y-115273390D01*
X85458095Y-115273390D02*
X85505714Y-115082914D01*
X85505714Y-115082914D02*
X85553333Y-114987676D01*
X85553333Y-114987676D02*
X85648571Y-114892438D01*
X85648571Y-114892438D02*
X85791428Y-114844819D01*
X85791428Y-114844819D02*
X85886666Y-114844819D01*
X85886666Y-114844819D02*
X86029523Y-114892438D01*
X86029523Y-114892438D02*
X86077142Y-114940057D01*
X86410476Y-114844819D02*
X87029523Y-114844819D01*
X87029523Y-114844819D02*
X86696190Y-115225771D01*
X86696190Y-115225771D02*
X86839047Y-115225771D01*
X86839047Y-115225771D02*
X86934285Y-115273390D01*
X86934285Y-115273390D02*
X86981904Y-115321009D01*
X86981904Y-115321009D02*
X87029523Y-115416247D01*
X87029523Y-115416247D02*
X87029523Y-115654342D01*
X87029523Y-115654342D02*
X86981904Y-115749580D01*
X86981904Y-115749580D02*
X86934285Y-115797200D01*
X86934285Y-115797200D02*
X86839047Y-115844819D01*
X86839047Y-115844819D02*
X86553333Y-115844819D01*
X86553333Y-115844819D02*
X86458095Y-115797200D01*
X86458095Y-115797200D02*
X86410476Y-115749580D01*
X87886666Y-115178152D02*
X87886666Y-115844819D01*
X87648571Y-114797200D02*
X87410476Y-115511485D01*
X87410476Y-115511485D02*
X88029523Y-115511485D01*
X80144819Y-88592857D02*
X79668628Y-88926190D01*
X80144819Y-89164285D02*
X79144819Y-89164285D01*
X79144819Y-89164285D02*
X79144819Y-88783333D01*
X79144819Y-88783333D02*
X79192438Y-88688095D01*
X79192438Y-88688095D02*
X79240057Y-88640476D01*
X79240057Y-88640476D02*
X79335295Y-88592857D01*
X79335295Y-88592857D02*
X79478152Y-88592857D01*
X79478152Y-88592857D02*
X79573390Y-88640476D01*
X79573390Y-88640476D02*
X79621009Y-88688095D01*
X79621009Y-88688095D02*
X79668628Y-88783333D01*
X79668628Y-88783333D02*
X79668628Y-89164285D01*
X79240057Y-88211904D02*
X79192438Y-88164285D01*
X79192438Y-88164285D02*
X79144819Y-88069047D01*
X79144819Y-88069047D02*
X79144819Y-87830952D01*
X79144819Y-87830952D02*
X79192438Y-87735714D01*
X79192438Y-87735714D02*
X79240057Y-87688095D01*
X79240057Y-87688095D02*
X79335295Y-87640476D01*
X79335295Y-87640476D02*
X79430533Y-87640476D01*
X79430533Y-87640476D02*
X79573390Y-87688095D01*
X79573390Y-87688095D02*
X80144819Y-88259523D01*
X80144819Y-88259523D02*
X80144819Y-87640476D01*
X79144819Y-86735714D02*
X79144819Y-87211904D01*
X79144819Y-87211904D02*
X79621009Y-87259523D01*
X79621009Y-87259523D02*
X79573390Y-87211904D01*
X79573390Y-87211904D02*
X79525771Y-87116666D01*
X79525771Y-87116666D02*
X79525771Y-86878571D01*
X79525771Y-86878571D02*
X79573390Y-86783333D01*
X79573390Y-86783333D02*
X79621009Y-86735714D01*
X79621009Y-86735714D02*
X79716247Y-86688095D01*
X79716247Y-86688095D02*
X79954342Y-86688095D01*
X79954342Y-86688095D02*
X80049580Y-86735714D01*
X80049580Y-86735714D02*
X80097200Y-86783333D01*
X80097200Y-86783333D02*
X80144819Y-86878571D01*
X80144819Y-86878571D02*
X80144819Y-87116666D01*
X80144819Y-87116666D02*
X80097200Y-87211904D01*
X80097200Y-87211904D02*
X80049580Y-87259523D01*
X92834819Y-72056666D02*
X92358628Y-72389999D01*
X92834819Y-72628094D02*
X91834819Y-72628094D01*
X91834819Y-72628094D02*
X91834819Y-72247142D01*
X91834819Y-72247142D02*
X91882438Y-72151904D01*
X91882438Y-72151904D02*
X91930057Y-72104285D01*
X91930057Y-72104285D02*
X92025295Y-72056666D01*
X92025295Y-72056666D02*
X92168152Y-72056666D01*
X92168152Y-72056666D02*
X92263390Y-72104285D01*
X92263390Y-72104285D02*
X92311009Y-72151904D01*
X92311009Y-72151904D02*
X92358628Y-72247142D01*
X92358628Y-72247142D02*
X92358628Y-72628094D01*
X91930057Y-71675713D02*
X91882438Y-71628094D01*
X91882438Y-71628094D02*
X91834819Y-71532856D01*
X91834819Y-71532856D02*
X91834819Y-71294761D01*
X91834819Y-71294761D02*
X91882438Y-71199523D01*
X91882438Y-71199523D02*
X91930057Y-71151904D01*
X91930057Y-71151904D02*
X92025295Y-71104285D01*
X92025295Y-71104285D02*
X92120533Y-71104285D01*
X92120533Y-71104285D02*
X92263390Y-71151904D01*
X92263390Y-71151904D02*
X92834819Y-71723332D01*
X92834819Y-71723332D02*
X92834819Y-71104285D01*
X80839580Y-65362857D02*
X80887200Y-65410476D01*
X80887200Y-65410476D02*
X80934819Y-65553333D01*
X80934819Y-65553333D02*
X80934819Y-65648571D01*
X80934819Y-65648571D02*
X80887200Y-65791428D01*
X80887200Y-65791428D02*
X80791961Y-65886666D01*
X80791961Y-65886666D02*
X80696723Y-65934285D01*
X80696723Y-65934285D02*
X80506247Y-65981904D01*
X80506247Y-65981904D02*
X80363390Y-65981904D01*
X80363390Y-65981904D02*
X80172914Y-65934285D01*
X80172914Y-65934285D02*
X80077676Y-65886666D01*
X80077676Y-65886666D02*
X79982438Y-65791428D01*
X79982438Y-65791428D02*
X79934819Y-65648571D01*
X79934819Y-65648571D02*
X79934819Y-65553333D01*
X79934819Y-65553333D02*
X79982438Y-65410476D01*
X79982438Y-65410476D02*
X80030057Y-65362857D01*
X80030057Y-64981904D02*
X79982438Y-64934285D01*
X79982438Y-64934285D02*
X79934819Y-64839047D01*
X79934819Y-64839047D02*
X79934819Y-64600952D01*
X79934819Y-64600952D02*
X79982438Y-64505714D01*
X79982438Y-64505714D02*
X80030057Y-64458095D01*
X80030057Y-64458095D02*
X80125295Y-64410476D01*
X80125295Y-64410476D02*
X80220533Y-64410476D01*
X80220533Y-64410476D02*
X80363390Y-64458095D01*
X80363390Y-64458095D02*
X80934819Y-65029523D01*
X80934819Y-65029523D02*
X80934819Y-64410476D01*
X80934819Y-63458095D02*
X80934819Y-64029523D01*
X80934819Y-63743809D02*
X79934819Y-63743809D01*
X79934819Y-63743809D02*
X80077676Y-63839047D01*
X80077676Y-63839047D02*
X80172914Y-63934285D01*
X80172914Y-63934285D02*
X80220533Y-64029523D01*
X85162830Y-85642857D02*
X85210450Y-85690476D01*
X85210450Y-85690476D02*
X85258069Y-85833333D01*
X85258069Y-85833333D02*
X85258069Y-85928571D01*
X85258069Y-85928571D02*
X85210450Y-86071428D01*
X85210450Y-86071428D02*
X85115211Y-86166666D01*
X85115211Y-86166666D02*
X85019973Y-86214285D01*
X85019973Y-86214285D02*
X84829497Y-86261904D01*
X84829497Y-86261904D02*
X84686640Y-86261904D01*
X84686640Y-86261904D02*
X84496164Y-86214285D01*
X84496164Y-86214285D02*
X84400926Y-86166666D01*
X84400926Y-86166666D02*
X84305688Y-86071428D01*
X84305688Y-86071428D02*
X84258069Y-85928571D01*
X84258069Y-85928571D02*
X84258069Y-85833333D01*
X84258069Y-85833333D02*
X84305688Y-85690476D01*
X84305688Y-85690476D02*
X84353307Y-85642857D01*
X84353307Y-85261904D02*
X84305688Y-85214285D01*
X84305688Y-85214285D02*
X84258069Y-85119047D01*
X84258069Y-85119047D02*
X84258069Y-84880952D01*
X84258069Y-84880952D02*
X84305688Y-84785714D01*
X84305688Y-84785714D02*
X84353307Y-84738095D01*
X84353307Y-84738095D02*
X84448545Y-84690476D01*
X84448545Y-84690476D02*
X84543783Y-84690476D01*
X84543783Y-84690476D02*
X84686640Y-84738095D01*
X84686640Y-84738095D02*
X85258069Y-85309523D01*
X85258069Y-85309523D02*
X85258069Y-84690476D01*
X84353307Y-84309523D02*
X84305688Y-84261904D01*
X84305688Y-84261904D02*
X84258069Y-84166666D01*
X84258069Y-84166666D02*
X84258069Y-83928571D01*
X84258069Y-83928571D02*
X84305688Y-83833333D01*
X84305688Y-83833333D02*
X84353307Y-83785714D01*
X84353307Y-83785714D02*
X84448545Y-83738095D01*
X84448545Y-83738095D02*
X84543783Y-83738095D01*
X84543783Y-83738095D02*
X84686640Y-83785714D01*
X84686640Y-83785714D02*
X85258069Y-84357142D01*
X85258069Y-84357142D02*
X85258069Y-83738095D01*
X79859580Y-54340476D02*
X79907200Y-54388095D01*
X79907200Y-54388095D02*
X79954819Y-54530952D01*
X79954819Y-54530952D02*
X79954819Y-54626190D01*
X79954819Y-54626190D02*
X79907200Y-54769047D01*
X79907200Y-54769047D02*
X79811961Y-54864285D01*
X79811961Y-54864285D02*
X79716723Y-54911904D01*
X79716723Y-54911904D02*
X79526247Y-54959523D01*
X79526247Y-54959523D02*
X79383390Y-54959523D01*
X79383390Y-54959523D02*
X79192914Y-54911904D01*
X79192914Y-54911904D02*
X79097676Y-54864285D01*
X79097676Y-54864285D02*
X79002438Y-54769047D01*
X79002438Y-54769047D02*
X78954819Y-54626190D01*
X78954819Y-54626190D02*
X78954819Y-54530952D01*
X78954819Y-54530952D02*
X79002438Y-54388095D01*
X79002438Y-54388095D02*
X79050057Y-54340476D01*
X79954819Y-53388095D02*
X79954819Y-53959523D01*
X79954819Y-53673809D02*
X78954819Y-53673809D01*
X78954819Y-53673809D02*
X79097676Y-53769047D01*
X79097676Y-53769047D02*
X79192914Y-53864285D01*
X79192914Y-53864285D02*
X79240533Y-53959523D01*
X79383390Y-52816666D02*
X79335771Y-52911904D01*
X79335771Y-52911904D02*
X79288152Y-52959523D01*
X79288152Y-52959523D02*
X79192914Y-53007142D01*
X79192914Y-53007142D02*
X79145295Y-53007142D01*
X79145295Y-53007142D02*
X79050057Y-52959523D01*
X79050057Y-52959523D02*
X79002438Y-52911904D01*
X79002438Y-52911904D02*
X78954819Y-52816666D01*
X78954819Y-52816666D02*
X78954819Y-52626190D01*
X78954819Y-52626190D02*
X79002438Y-52530952D01*
X79002438Y-52530952D02*
X79050057Y-52483333D01*
X79050057Y-52483333D02*
X79145295Y-52435714D01*
X79145295Y-52435714D02*
X79192914Y-52435714D01*
X79192914Y-52435714D02*
X79288152Y-52483333D01*
X79288152Y-52483333D02*
X79335771Y-52530952D01*
X79335771Y-52530952D02*
X79383390Y-52626190D01*
X79383390Y-52626190D02*
X79383390Y-52816666D01*
X79383390Y-52816666D02*
X79431009Y-52911904D01*
X79431009Y-52911904D02*
X79478628Y-52959523D01*
X79478628Y-52959523D02*
X79573866Y-53007142D01*
X79573866Y-53007142D02*
X79764342Y-53007142D01*
X79764342Y-53007142D02*
X79859580Y-52959523D01*
X79859580Y-52959523D02*
X79907200Y-52911904D01*
X79907200Y-52911904D02*
X79954819Y-52816666D01*
X79954819Y-52816666D02*
X79954819Y-52626190D01*
X79954819Y-52626190D02*
X79907200Y-52530952D01*
X79907200Y-52530952D02*
X79859580Y-52483333D01*
X79859580Y-52483333D02*
X79764342Y-52435714D01*
X79764342Y-52435714D02*
X79573866Y-52435714D01*
X79573866Y-52435714D02*
X79478628Y-52483333D01*
X79478628Y-52483333D02*
X79431009Y-52530952D01*
X79431009Y-52530952D02*
X79383390Y-52626190D01*
X82267142Y-68759580D02*
X82219523Y-68807200D01*
X82219523Y-68807200D02*
X82076666Y-68854819D01*
X82076666Y-68854819D02*
X81981428Y-68854819D01*
X81981428Y-68854819D02*
X81838571Y-68807200D01*
X81838571Y-68807200D02*
X81743333Y-68711961D01*
X81743333Y-68711961D02*
X81695714Y-68616723D01*
X81695714Y-68616723D02*
X81648095Y-68426247D01*
X81648095Y-68426247D02*
X81648095Y-68283390D01*
X81648095Y-68283390D02*
X81695714Y-68092914D01*
X81695714Y-68092914D02*
X81743333Y-67997676D01*
X81743333Y-67997676D02*
X81838571Y-67902438D01*
X81838571Y-67902438D02*
X81981428Y-67854819D01*
X81981428Y-67854819D02*
X82076666Y-67854819D01*
X82076666Y-67854819D02*
X82219523Y-67902438D01*
X82219523Y-67902438D02*
X82267142Y-67950057D01*
X82648095Y-67950057D02*
X82695714Y-67902438D01*
X82695714Y-67902438D02*
X82790952Y-67854819D01*
X82790952Y-67854819D02*
X83029047Y-67854819D01*
X83029047Y-67854819D02*
X83124285Y-67902438D01*
X83124285Y-67902438D02*
X83171904Y-67950057D01*
X83171904Y-67950057D02*
X83219523Y-68045295D01*
X83219523Y-68045295D02*
X83219523Y-68140533D01*
X83219523Y-68140533D02*
X83171904Y-68283390D01*
X83171904Y-68283390D02*
X82600476Y-68854819D01*
X82600476Y-68854819D02*
X83219523Y-68854819D01*
X84076666Y-67854819D02*
X83886190Y-67854819D01*
X83886190Y-67854819D02*
X83790952Y-67902438D01*
X83790952Y-67902438D02*
X83743333Y-67950057D01*
X83743333Y-67950057D02*
X83648095Y-68092914D01*
X83648095Y-68092914D02*
X83600476Y-68283390D01*
X83600476Y-68283390D02*
X83600476Y-68664342D01*
X83600476Y-68664342D02*
X83648095Y-68759580D01*
X83648095Y-68759580D02*
X83695714Y-68807200D01*
X83695714Y-68807200D02*
X83790952Y-68854819D01*
X83790952Y-68854819D02*
X83981428Y-68854819D01*
X83981428Y-68854819D02*
X84076666Y-68807200D01*
X84076666Y-68807200D02*
X84124285Y-68759580D01*
X84124285Y-68759580D02*
X84171904Y-68664342D01*
X84171904Y-68664342D02*
X84171904Y-68426247D01*
X84171904Y-68426247D02*
X84124285Y-68331009D01*
X84124285Y-68331009D02*
X84076666Y-68283390D01*
X84076666Y-68283390D02*
X83981428Y-68235771D01*
X83981428Y-68235771D02*
X83790952Y-68235771D01*
X83790952Y-68235771D02*
X83695714Y-68283390D01*
X83695714Y-68283390D02*
X83648095Y-68331009D01*
X83648095Y-68331009D02*
X83600476Y-68426247D01*
D12*
%TO.C,J3*%
X88790000Y-126015000D02*
X88790000Y-127815000D01*
X88790000Y-130185000D02*
X87800000Y-130185000D01*
X88790000Y-131985000D02*
X88790000Y-130185000D01*
X90240000Y-126015000D02*
X88790000Y-126015000D01*
X90240000Y-131985000D02*
X88790000Y-131985000D01*
X93060000Y-130715000D02*
X93060000Y-127285000D01*
%TO.C,R10*%
X83690000Y-58000242D02*
X83690000Y-58474758D01*
X84735000Y-58000242D02*
X84735000Y-58474758D01*
%TO.C,SW1*%
X74800000Y-116450000D02*
X74800000Y-116350000D01*
X74800000Y-117950000D02*
X79200000Y-117950000D01*
X79200000Y-114850000D02*
X74800000Y-114850000D01*
X79200000Y-116450000D02*
X79200000Y-116350000D01*
%TO.C,FB1*%
X84662779Y-126990000D02*
X84337221Y-126990000D01*
X84662779Y-128010000D02*
X84337221Y-128010000D01*
%TO.C,C19*%
X81065000Y-57261252D02*
X81065000Y-56738748D01*
X82535000Y-57261252D02*
X82535000Y-56738748D01*
%TO.C,R3*%
X90277500Y-77637258D02*
X90277500Y-77162742D01*
X91322500Y-77637258D02*
X91322500Y-77162742D01*
%TO.C,L1*%
X89290000Y-58038748D02*
X89290000Y-58561252D01*
X91510000Y-58038748D02*
X91510000Y-58561252D01*
%TO.C,D3*%
X88549998Y-67310000D02*
X88549998Y-63300000D01*
X88549998Y-67310000D02*
X90549998Y-67310000D01*
X90549998Y-67310000D02*
X90549998Y-63300000D01*
%TO.C,Q1*%
X85540000Y-59240000D02*
X85590000Y-59240000D01*
X85540000Y-60760000D02*
X85540000Y-59240000D01*
X86540000Y-60760000D02*
X85540000Y-60760000D01*
X86710000Y-59240000D02*
X87490000Y-59240000D01*
X88610000Y-59240000D02*
X88660000Y-59240000D01*
X88660000Y-59240000D02*
X88660000Y-60760000D01*
X88660000Y-60760000D02*
X87660000Y-60760000D01*
X87480000Y-58700000D02*
X87150000Y-58940000D01*
X87150000Y-58460000D01*
X87480000Y-58700000D01*
G36*
X87480000Y-58700000D02*
G01*
X87150000Y-58940000D01*
X87150000Y-58460000D01*
X87480000Y-58700000D01*
G37*
%TO.C,D2*%
X91049998Y-62590000D02*
X91049998Y-66600000D01*
X93049998Y-62590000D02*
X91049998Y-62590000D01*
X93049998Y-62590000D02*
X93049998Y-66600000D01*
D13*
%TO.C,J2*%
X75420000Y-123680000D02*
X78580000Y-123680000D01*
X75420000Y-124830000D02*
X75420000Y-123680000D01*
X75420000Y-132620000D02*
X75420000Y-131570000D01*
X78580000Y-123680000D02*
X78580000Y-124730000D01*
X78580000Y-131470000D02*
X78580000Y-132620000D01*
X78580000Y-132620000D02*
X75420000Y-132620000D01*
D14*
X77965000Y-123150000D02*
G75*
G02*
X77765000Y-123150000I-100000J0D01*
G01*
X77765000Y-123150000D02*
G75*
G02*
X77965000Y-123150000I100000J0D01*
G01*
D12*
%TO.C,R5*%
X81062742Y-58977500D02*
X81537258Y-58977500D01*
X81062742Y-60022500D02*
X81537258Y-60022500D01*
%TO.C,C7*%
X82059420Y-70390000D02*
X82340580Y-70390000D01*
X82059420Y-71410000D02*
X82340580Y-71410000D01*
%TO.C,R23*%
X74277500Y-91237258D02*
X74277500Y-90762742D01*
X75322500Y-91237258D02*
X75322500Y-90762742D01*
%TO.C,R12*%
X85962740Y-69827500D02*
X86437256Y-69827500D01*
X85962740Y-70872500D02*
X86437256Y-70872500D01*
%TO.C,R6*%
X80562742Y-84977500D02*
X81037258Y-84977500D01*
X80562742Y-86022500D02*
X81037258Y-86022500D01*
%TO.C,D5*%
X83690000Y-128790000D02*
X83690000Y-130010000D01*
X83690000Y-128790000D02*
X85100000Y-128790000D01*
X83690000Y-130010000D02*
X85100000Y-130010000D01*
%TO.C,R11*%
X86962742Y-56577500D02*
X87437258Y-56577500D01*
X86962742Y-57622500D02*
X87437258Y-57622500D01*
%TO.C,C13*%
X80659420Y-81290000D02*
X80940580Y-81290000D01*
X80659420Y-82310000D02*
X80940580Y-82310000D01*
D13*
%TO.C,J1*%
X71982958Y-57756782D02*
X72962958Y-57756782D01*
X71982958Y-88256782D02*
X71982958Y-57756782D01*
X72962958Y-88256782D02*
X71982958Y-88256782D01*
X75402958Y-88256782D02*
X76982958Y-88256782D01*
X76982958Y-57756782D02*
X75402958Y-57756782D01*
X76982958Y-57756782D02*
X76982958Y-60286782D01*
X76982958Y-88256782D02*
X76982958Y-85726782D01*
D14*
X78632958Y-60756782D02*
G75*
G02*
X78432958Y-60756782I-100000J0D01*
G01*
X78432958Y-60756782D02*
G75*
G02*
X78632958Y-60756782I100000J0D01*
G01*
D12*
%TO.C,C28*%
X91561252Y-60665000D02*
X91038748Y-60665000D01*
X91561252Y-62135000D02*
X91038748Y-62135000D01*
%TO.C,R4*%
X90277500Y-74637258D02*
X90277500Y-74162742D01*
X91322500Y-74637258D02*
X91322500Y-74162742D01*
%TO.C,D1*%
X86099998Y-67310000D02*
X86099998Y-63300000D01*
X86099998Y-67310000D02*
X88099998Y-67310000D01*
X88099998Y-67310000D02*
X88099998Y-63300000D01*
%TO.C,C31*%
X84765000Y-124738748D02*
X84765000Y-125261252D01*
X86235000Y-124738748D02*
X86235000Y-125261252D01*
%TO.C,C14*%
X80659420Y-83290000D02*
X80940580Y-83290000D01*
X80659420Y-84310000D02*
X80940580Y-84310000D01*
%TO.C,R24*%
X75877500Y-91237258D02*
X75877500Y-90762742D01*
X76922500Y-91237258D02*
X76922500Y-90762742D01*
%TO.C,C33*%
X89765580Y-113290000D02*
X89484420Y-113290000D01*
X89765580Y-114310000D02*
X89484420Y-114310000D01*
%TO.C,C32*%
X82765000Y-124738748D02*
X82765000Y-125261252D01*
X84235000Y-124738748D02*
X84235000Y-125261252D01*
D15*
%TO.C,U1*%
X72332000Y-95905000D02*
X72332000Y-109875000D01*
X74237000Y-94000000D02*
X91382000Y-94000000D01*
X74237000Y-111780000D02*
X91382000Y-111780000D01*
D13*
X93287000Y-98395000D02*
X94297272Y-98398728D01*
D15*
X93287000Y-109875000D02*
X93287000Y-95905000D01*
D13*
X94297000Y-107394000D02*
X93287000Y-107394000D01*
X94797000Y-98898728D02*
X94797000Y-106894000D01*
D15*
X72332000Y-95905000D02*
G75*
G02*
X74237000Y-94000000I1905001J-1D01*
G01*
X74237000Y-111780000D02*
G75*
G02*
X72331994Y-109875000I0J1905006D01*
G01*
X91386000Y-94000000D02*
G75*
G02*
X93291000Y-95905000I-1J-1905001D01*
G01*
X93287000Y-109875000D02*
G75*
G02*
X91382000Y-111779994I-1905000J6D01*
G01*
D13*
X94297272Y-98398728D02*
G75*
G02*
X94796999Y-98898728I-291J-500018D01*
G01*
X94797000Y-106894000D02*
G75*
G02*
X94297000Y-107393994I-500000J6D01*
G01*
D16*
X92400000Y-95007000D02*
G75*
G02*
X91896000Y-95007000I-252000J0D01*
G01*
X91896000Y-95007000D02*
G75*
G02*
X92400000Y-95007000I252000J0D01*
G01*
X93123000Y-93790000D02*
G75*
G02*
X92619000Y-93790000I-252000J0D01*
G01*
X92619000Y-93790000D02*
G75*
G02*
X93123000Y-93790000I252000J0D01*
G01*
D12*
%TO.C,R16*%
X80977500Y-125237258D02*
X80977500Y-124762742D01*
X82022500Y-125237258D02*
X82022500Y-124762742D01*
%TO.C,C20*%
X81590000Y-61940580D02*
X81590000Y-61659420D01*
X82610000Y-61940580D02*
X82610000Y-61659420D01*
%TO.C,C27*%
X90788746Y-67715000D02*
X91311250Y-67715000D01*
X90788746Y-69185000D02*
X91311250Y-69185000D01*
%TO.C,C8*%
X82059420Y-71990000D02*
X82340580Y-71990000D01*
X82059420Y-73010000D02*
X82340580Y-73010000D01*
%TO.C,R26*%
X80677500Y-91237258D02*
X80677500Y-90762742D01*
X81722500Y-91237258D02*
X81722500Y-90762742D01*
%TO.C,R20*%
X77477500Y-90762742D02*
X77477500Y-91237258D01*
X78522500Y-90762742D02*
X78522500Y-91237258D01*
%TO.C,R1*%
X91877500Y-77637258D02*
X91877500Y-77162742D01*
X92922500Y-77637258D02*
X92922500Y-77162742D01*
%TO.C,C25*%
X87138748Y-54265000D02*
X87661252Y-54265000D01*
X87138748Y-55735000D02*
X87661252Y-55735000D01*
%TO.C,C34*%
X89765580Y-114814000D02*
X89484420Y-114814000D01*
X89765580Y-115834000D02*
X89484420Y-115834000D01*
%TO.C,R25*%
X79077500Y-91237258D02*
X79077500Y-90762742D01*
X80122500Y-91237258D02*
X80122500Y-90762742D01*
%TO.C,R2*%
X91877500Y-74537258D02*
X91877500Y-74062742D01*
X92922500Y-74537258D02*
X92922500Y-74062742D01*
%TO.C,C21*%
X79990000Y-61940580D02*
X79990000Y-61659420D01*
X81010000Y-61940580D02*
X81010000Y-61659420D01*
%TO.C,C22*%
X82690000Y-84890580D02*
X82690000Y-84609420D01*
X83710000Y-84890580D02*
X83710000Y-84609420D01*
%TO.C,C18*%
X78765000Y-57261252D02*
X78765000Y-56738748D01*
X80235000Y-57261252D02*
X80235000Y-56738748D01*
%TO.C,C26*%
X85838746Y-67715000D02*
X86361250Y-67715000D01*
X85838746Y-69185000D02*
X86361250Y-69185000D01*
%TD*%
M02*
