%TF.GenerationSoftware,KiCad,Pcbnew,9.0.5*%
%TF.CreationDate,2025-11-24T11:18:26-05:00*%
%TF.ProjectId,everframe_board,65766572-6672-4616-9d65-5f626f617264,rev?*%
%TF.SameCoordinates,Original*%
%TF.FileFunction,Copper,L4,Bot*%
%TF.FilePolarity,Positive*%
%FSLAX46Y46*%
G04 Gerber Fmt 4.6, Leading zero omitted, Abs format (unit mm)*
G04 Created by KiCad (PCBNEW 9.0.5) date 2025-11-24 11:18:26*
%MOMM*%
%LPD*%
G01*
G04 APERTURE LIST*
G04 Aperture macros list*
%AMRoundRect*
0 Rectangle with rounded corners*
0 $1 Rounding radius*
0 $2 $3 $4 $5 $6 $7 $8 $9 X,Y pos of 4 corners*
0 Add a 4 corners polygon primitive as box body*
4,1,4,$2,$3,$4,$5,$6,$7,$8,$9,$2,$3,0*
0 Add four circle primitives for the rounded corners*
1,1,$1+$1,$2,$3*
1,1,$1+$1,$4,$5*
1,1,$1+$1,$6,$7*
1,1,$1+$1,$8,$9*
0 Add four rect primitives between the rounded corners*
20,1,$1+$1,$2,$3,$4,$5,0*
20,1,$1+$1,$4,$5,$6,$7,0*
20,1,$1+$1,$6,$7,$8,$9,0*
20,1,$1+$1,$8,$9,$2,$3,0*%
G04 Aperture macros list end*
%TA.AperFunction,ComponentPad*%
%ADD10O,1.150000X1.400000*%
%TD*%
%TA.AperFunction,ComponentPad*%
%ADD11RoundRect,0.375000X0.375000X-0.875000X0.375000X0.875000X-0.375000X0.875000X-0.375000X-0.875000X0*%
%TD*%
%TA.AperFunction,SMDPad,CuDef*%
%ADD12RoundRect,0.225000X0.225000X0.250000X-0.225000X0.250000X-0.225000X-0.250000X0.225000X-0.250000X0*%
%TD*%
%TA.AperFunction,SMDPad,CuDef*%
%ADD13RoundRect,0.250000X0.250000X0.475000X-0.250000X0.475000X-0.250000X-0.475000X0.250000X-0.475000X0*%
%TD*%
%TA.AperFunction,SMDPad,CuDef*%
%ADD14RoundRect,0.150000X0.150000X-0.512500X0.150000X0.512500X-0.150000X0.512500X-0.150000X-0.512500X0*%
%TD*%
%TA.AperFunction,SMDPad,CuDef*%
%ADD15RoundRect,0.225000X0.250000X-0.225000X0.250000X0.225000X-0.250000X0.225000X-0.250000X-0.225000X0*%
%TD*%
%TA.AperFunction,SMDPad,CuDef*%
%ADD16RoundRect,0.150000X0.150000X-0.587500X0.150000X0.587500X-0.150000X0.587500X-0.150000X-0.587500X0*%
%TD*%
%TA.AperFunction,SMDPad,CuDef*%
%ADD17RoundRect,0.200000X0.275000X-0.200000X0.275000X0.200000X-0.275000X0.200000X-0.275000X-0.200000X0*%
%TD*%
%TA.AperFunction,SMDPad,CuDef*%
%ADD18RoundRect,0.250000X-0.250000X-0.475000X0.250000X-0.475000X0.250000X0.475000X-0.250000X0.475000X0*%
%TD*%
%TA.AperFunction,SMDPad,CuDef*%
%ADD19RoundRect,0.225000X-0.225000X-0.375000X0.225000X-0.375000X0.225000X0.375000X-0.225000X0.375000X0*%
%TD*%
%TA.AperFunction,SMDPad,CuDef*%
%ADD20RoundRect,0.250000X0.475000X-0.250000X0.475000X0.250000X-0.475000X0.250000X-0.475000X-0.250000X0*%
%TD*%
%TA.AperFunction,SMDPad,CuDef*%
%ADD21RoundRect,0.225000X-0.225000X-0.250000X0.225000X-0.250000X0.225000X0.250000X-0.225000X0.250000X0*%
%TD*%
%TA.AperFunction,SMDPad,CuDef*%
%ADD22RoundRect,0.250000X0.375000X0.850000X-0.375000X0.850000X-0.375000X-0.850000X0.375000X-0.850000X0*%
%TD*%
%TA.AperFunction,SMDPad,CuDef*%
%ADD23RoundRect,0.200000X0.200000X0.275000X-0.200000X0.275000X-0.200000X-0.275000X0.200000X-0.275000X0*%
%TD*%
%TA.AperFunction,SMDPad,CuDef*%
%ADD24RoundRect,0.200000X-0.275000X0.200000X-0.275000X-0.200000X0.275000X-0.200000X0.275000X0.200000X0*%
%TD*%
%TA.AperFunction,ViaPad*%
%ADD25C,0.600000*%
%TD*%
%TA.AperFunction,Conductor*%
%ADD26C,0.200000*%
%TD*%
%TA.AperFunction,Conductor*%
%ADD27C,0.400000*%
%TD*%
%TA.AperFunction,Conductor*%
%ADD28C,0.600000*%
%TD*%
%TA.AperFunction,Conductor*%
%ADD29C,0.250000*%
%TD*%
%TA.AperFunction,Conductor*%
%ADD30C,0.300000*%
%TD*%
%TA.AperFunction,Conductor*%
%ADD31C,1.000000*%
%TD*%
G04 APERTURE END LIST*
D10*
%TO.P,J2,SH1,SHIELD*%
%TO.N,GND*%
X79150000Y-125750000D03*
%TO.P,J2,SH2,SHIELD__1*%
X79150000Y-130550000D03*
%TO.P,J2,SH3,SHIELD__2*%
X74850000Y-125750000D03*
%TO.P,J2,SH4,SHIELD__3*%
X74850000Y-130550000D03*
%TD*%
D11*
%TO.P,U1,15,BAT*%
%TO.N,/esp32-s3/VBAT*%
X83132000Y-98445000D03*
%TO.P,U1,16,GND*%
%TO.N,GND*%
X85037000Y-98445000D03*
%TD*%
D12*
%TO.P,C23,1*%
%TO.N,+5V*%
X90275000Y-90500000D03*
%TO.P,C23,2*%
%TO.N,GND*%
X88725000Y-90500000D03*
%TD*%
D13*
%TO.P,C29,1*%
%TO.N,GND*%
X90525000Y-59506750D03*
%TO.P,C29,2*%
%TO.N,/epaper display (page 3)/VPC*%
X88625000Y-59506750D03*
%TD*%
D14*
%TO.P,U2,1,IN*%
%TO.N,+5V*%
X90450000Y-88637500D03*
%TO.P,U2,2,GND*%
%TO.N,GND*%
X89500000Y-88637500D03*
%TO.P,U2,3,EN*%
%TO.N,Net-(U2-EN)*%
X88550000Y-88637500D03*
%TO.P,U2,4,NC*%
%TO.N,unconnected-(U2-NC-Pad4)*%
X88550000Y-86362500D03*
%TO.P,U2,5,OUT*%
%TO.N,+3.3V*%
X90450000Y-86362500D03*
%TD*%
D13*
%TO.P,C5,1*%
%TO.N,/epaper display (page 3)/VSL_LV*%
X76950000Y-72800000D03*
%TO.P,C5,2*%
%TO.N,GND*%
X75050000Y-72800000D03*
%TD*%
D15*
%TO.P,C12,1*%
%TO.N,+3.3V*%
X83200000Y-78975000D03*
%TO.P,C12,2*%
%TO.N,GND*%
X83200000Y-77425000D03*
%TD*%
D12*
%TO.P,C17,1*%
%TO.N,/epaper display (page 3)/VDDO*%
X76775000Y-78000000D03*
%TO.P,C17,2*%
%TO.N,GND*%
X75225000Y-78000000D03*
%TD*%
D16*
%TO.P,Q2,1,G*%
%TO.N,/epaper display (page 3)/GDRC*%
X84250000Y-54137500D03*
%TO.P,Q2,2,S*%
%TO.N,Net-(D4-K)*%
X82350000Y-54137500D03*
%TO.P,Q2,3,D*%
%TO.N,+3.3V*%
X83300000Y-52262500D03*
%TD*%
D17*
%TO.P,R22,1*%
%TO.N,/esp32-s3/ESP32_DC*%
X74800000Y-91825000D03*
%TO.P,R22,2*%
%TO.N,/epaper display (page 3)/DC*%
X74800000Y-90175000D03*
%TD*%
D13*
%TO.P,C2,1*%
%TO.N,/epaper display (page 3)/VSH_LV*%
X76950000Y-66500000D03*
%TO.P,C2,2*%
%TO.N,GND*%
X75050000Y-66500000D03*
%TD*%
D18*
%TO.P,C1,1*%
%TO.N,/epaper display (page 3)/VSH*%
X75050000Y-64400000D03*
%TO.P,C1,2*%
%TO.N,GND*%
X76950000Y-64400000D03*
%TD*%
D19*
%TO.P,D4,1,K*%
%TO.N,Net-(D4-K)*%
X83625000Y-59606750D03*
%TO.P,D4,2,A*%
%TO.N,/epaper display (page 3)/VPC*%
X86925000Y-59606750D03*
%TD*%
D17*
%TO.P,R19,1*%
%TO.N,/esp32-s3/ESP32_SCK*%
X76400000Y-91825000D03*
%TO.P,R19,2*%
%TO.N,/epaper display (page 3)/SCK*%
X76400000Y-90175000D03*
%TD*%
D13*
%TO.P,C3,1*%
%TO.N,/epaper display (page 3)/VSH_LV2*%
X76950000Y-68600000D03*
%TO.P,C3,2*%
%TO.N,GND*%
X75050000Y-68600000D03*
%TD*%
D17*
%TO.P,R15,1*%
%TO.N,Net-(J2-CC2)*%
X75100000Y-123825000D03*
%TO.P,R15,2*%
%TO.N,GND*%
X75100000Y-122175000D03*
%TD*%
%TO.P,R8,1*%
%TO.N,/epaper display (page 3)/RST_N*%
X86700000Y-91325000D03*
%TO.P,R8,2*%
%TO.N,Net-(U2-EN)*%
X86700000Y-89675000D03*
%TD*%
D15*
%TO.P,C10,1*%
%TO.N,+3.3V*%
X80000000Y-78975000D03*
%TO.P,C10,2*%
%TO.N,GND*%
X80000000Y-77425000D03*
%TD*%
D20*
%TO.P,C30,1*%
%TO.N,GND*%
X80400000Y-54350000D03*
%TO.P,C30,2*%
%TO.N,+3.3V*%
X80400000Y-52450000D03*
%TD*%
D21*
%TO.P,C9,1*%
%TO.N,+3.3V*%
X80125000Y-80500000D03*
%TO.P,C9,2*%
%TO.N,GND*%
X81675000Y-80500000D03*
%TD*%
D22*
%TO.P,L2,1,1*%
%TO.N,/epaper display (page 3)/RESEC*%
X86750000Y-56706750D03*
%TO.P,L2,2,2*%
%TO.N,Net-(D4-K)*%
X84600000Y-56706750D03*
%TD*%
D12*
%TO.P,C15,1*%
%TO.N,/epaper display (page 3)/VCP2*%
X76775000Y-81000000D03*
%TO.P,C15,2*%
%TO.N,GND*%
X75225000Y-81000000D03*
%TD*%
%TO.P,C16,1*%
%TO.N,/epaper display (page 3)/VCP1*%
X76775000Y-82600000D03*
%TO.P,C16,2*%
%TO.N,GND*%
X75225000Y-82600000D03*
%TD*%
D15*
%TO.P,C35,1*%
%TO.N,Net-(U1-GPIO1_A0_D0)*%
X82200000Y-120175000D03*
%TO.P,C35,2*%
%TO.N,GND*%
X82200000Y-118625000D03*
%TD*%
D13*
%TO.P,C4,1*%
%TO.N,/epaper display (page 3)/VSL*%
X76950000Y-70700000D03*
%TO.P,C4,2*%
%TO.N,GND*%
X75050000Y-70700000D03*
%TD*%
D23*
%TO.P,R14,1*%
%TO.N,GND*%
X90200000Y-56706750D03*
%TO.P,R14,2*%
%TO.N,/epaper display (page 3)/RESEC*%
X88550000Y-56706750D03*
%TD*%
D15*
%TO.P,C11,1*%
%TO.N,+3.3V*%
X81600000Y-78975000D03*
%TO.P,C11,2*%
%TO.N,GND*%
X81600000Y-77425000D03*
%TD*%
D24*
%TO.P,R21,1*%
%TO.N,Net-(R21-Pad1)*%
X80600000Y-118575000D03*
%TO.P,R21,2*%
%TO.N,Net-(U1-GPIO1_A0_D0)*%
X80600000Y-120225000D03*
%TD*%
D13*
%TO.P,C6,1*%
%TO.N,/epaper display (page 3)/VSL_LV2*%
X76950000Y-74900000D03*
%TO.P,C6,2*%
%TO.N,GND*%
X75050000Y-74900000D03*
%TD*%
D17*
%TO.P,R13,1*%
%TO.N,/epaper display (page 3)/GDRC*%
X86000000Y-54425000D03*
%TO.P,R13,2*%
%TO.N,+3.3V*%
X86000000Y-52775000D03*
%TD*%
D12*
%TO.P,C24,1*%
%TO.N,+3.3V*%
X90275000Y-84500000D03*
%TO.P,C24,2*%
%TO.N,GND*%
X88725000Y-84500000D03*
%TD*%
D17*
%TO.P,R9,1*%
%TO.N,/epaper display (page 3)/DISP_PWR_EN*%
X85100000Y-91325000D03*
%TO.P,R9,2*%
%TO.N,Net-(U2-EN)*%
X85100000Y-89675000D03*
%TD*%
%TO.P,R18,1*%
%TO.N,/esp32-s3/ESP32_MISO*%
X78000000Y-91825000D03*
%TO.P,R18,2*%
%TO.N,/epaper display (page 3)/SI1*%
X78000000Y-90175000D03*
%TD*%
D23*
%TO.P,R7,1*%
%TO.N,GND*%
X87025000Y-88000000D03*
%TO.P,R7,2*%
%TO.N,Net-(U2-EN)*%
X85375000Y-88000000D03*
%TD*%
D17*
%TO.P,R17,1*%
%TO.N,/esp32-s3/ESP32_MOSI*%
X79600000Y-91825000D03*
%TO.P,R17,2*%
%TO.N,/epaper display (page 3)/SI0*%
X79600000Y-90175000D03*
%TD*%
D25*
%TO.N,+3.3V*%
X90400000Y-55700000D03*
X91900000Y-83500000D03*
X80125000Y-79000000D03*
X78704804Y-78744319D03*
X92300000Y-78175000D03*
X91900000Y-86400000D03*
X88300000Y-55000000D03*
X91100000Y-82800000D03*
X78700000Y-80400000D03*
X90300000Y-82800000D03*
X81600000Y-78975000D03*
X80400000Y-52450000D03*
X90800000Y-78200000D03*
X83100000Y-78975000D03*
X91900000Y-85000000D03*
X91900000Y-85700000D03*
X91900000Y-82800000D03*
X83300000Y-52300000D03*
X75839917Y-79229867D03*
X80550000Y-62475000D03*
X86000000Y-52800000D03*
X91900000Y-84300000D03*
X82050000Y-62475000D03*
%TO.N,+5V*%
X91900000Y-89400000D03*
X91900000Y-87800000D03*
X91900000Y-91000000D03*
X91900000Y-88600000D03*
X83500000Y-126000000D03*
X85500000Y-126000000D03*
X91900000Y-90200000D03*
X91700000Y-115325000D03*
X85300000Y-127500000D03*
X91700000Y-114550000D03*
X90400000Y-112000000D03*
X91700000Y-113000000D03*
X91700000Y-113775000D03*
X91700000Y-116100000D03*
%TO.N,+5V_USB*%
X79519392Y-126886368D03*
X83100000Y-129400000D03*
X79100000Y-129000000D03*
X74896025Y-127673597D03*
X74700000Y-129200000D03*
X83700000Y-127500000D03*
%TO.N,/epaper display (page 3)/SCK*%
X77100000Y-87302688D03*
%TO.N,/epaper display (page 3)/GDRC*%
X75700000Y-54600000D03*
X84200000Y-52854174D03*
X74000000Y-61500000D03*
%TO.N,Net-(J2-CC2)*%
X75015136Y-128464682D03*
%TO.N,Net-(J2-CC1)*%
X81500000Y-125825000D03*
X79000000Y-127600000D03*
%TO.N,/epaper display (page 3)/DISP_PWR_EN*%
X84200000Y-91200000D03*
%TO.N,/esp32-s3/ESP32_MOSI*%
X82900000Y-113100000D03*
%TO.N,/esp32-s3/ESP32_MISO*%
X80300000Y-113200000D03*
%TO.N,/esp32-s3/ESP32_SCK*%
X77800000Y-113200000D03*
%TO.N,Net-(R21-Pad1)*%
X80500000Y-117200000D03*
%TO.N,/epaper display (page 3)/RESEC*%
X84900000Y-60800000D03*
%TO.N,/epaper display (page 3)/DC*%
X76200000Y-89000000D03*
%TO.N,/epaper display (page 3)/VSL_LV2*%
X80100000Y-70600000D03*
%TO.N,/epaper display (page 3)/VCP2*%
X76058068Y-81644928D03*
%TO.N,/esp32-s3/ESP32_DC*%
X75300000Y-113200000D03*
%TO.N,/epaper display (page 3)/VCP1*%
X75800000Y-83800000D03*
%TO.N,GND*%
X85500000Y-124100000D03*
X93000000Y-80000000D03*
X75200000Y-81000000D03*
X73000000Y-134000000D03*
X93000000Y-104000000D03*
X93000000Y-90000000D03*
X79000000Y-50000000D03*
X77000000Y-138000000D03*
X73000000Y-60000000D03*
X88650000Y-129625000D03*
X73000000Y-90000000D03*
X73000000Y-116000000D03*
X80116487Y-65920238D03*
X93000000Y-52000000D03*
X87000000Y-138000000D03*
X93000000Y-82000000D03*
X93000000Y-120000000D03*
X81700000Y-80500000D03*
X88700000Y-84500000D03*
X75100000Y-72600000D03*
X93000000Y-128000000D03*
X93000000Y-118000000D03*
X73000000Y-66000000D03*
X73000000Y-118000000D03*
X73000000Y-88000000D03*
X86820000Y-55100000D03*
X93000000Y-88000000D03*
X81000000Y-50000000D03*
X93000000Y-92000000D03*
X73000000Y-84000000D03*
X76009561Y-63668514D03*
X75100000Y-66600000D03*
X93000000Y-122000000D03*
X89500000Y-88600000D03*
X75100000Y-68600000D03*
X81600000Y-77400000D03*
X81000000Y-138000000D03*
X93000000Y-70000000D03*
X93000000Y-98000000D03*
X93000000Y-124000000D03*
X73000000Y-80000000D03*
X75981441Y-65798419D03*
X78484952Y-64550000D03*
X93000000Y-130000000D03*
X87000000Y-50000000D03*
X93000000Y-133000000D03*
X89000000Y-138000000D03*
X93000000Y-94000000D03*
X93000000Y-110000000D03*
X80400000Y-54400000D03*
X73000000Y-132000000D03*
X93000000Y-65000000D03*
X93000000Y-135000000D03*
X75200000Y-78000000D03*
X83100000Y-77400000D03*
X81500000Y-124200000D03*
X90100000Y-68500000D03*
X73000000Y-112000000D03*
X73000000Y-128000000D03*
X73000000Y-130000000D03*
X74600000Y-57800000D03*
X73000000Y-124000000D03*
X73000000Y-54000000D03*
X73000000Y-78000000D03*
X93000000Y-108000000D03*
X93000000Y-102000000D03*
X73000000Y-58000000D03*
X90800000Y-73575000D03*
X83200000Y-83975000D03*
X73000000Y-106000000D03*
X93000000Y-106000000D03*
X83000000Y-50000000D03*
X83000000Y-138000000D03*
X85149997Y-68449998D03*
X86000000Y-129400000D03*
X78682046Y-79594017D03*
X75000000Y-50000000D03*
X87025000Y-88000000D03*
X73000000Y-76000000D03*
X73000000Y-110000000D03*
X73000000Y-102000000D03*
X73000000Y-86000000D03*
X75102136Y-122194199D03*
X73000000Y-114000000D03*
X93000000Y-100000000D03*
X93000000Y-116000000D03*
X75100000Y-70600000D03*
X73000000Y-94000000D03*
X76048699Y-80017385D03*
X73000000Y-64000000D03*
X73000000Y-70000000D03*
X93000000Y-114000000D03*
X83000000Y-71000000D03*
X88700000Y-90500000D03*
X93000000Y-72000000D03*
X83500000Y-124100000D03*
X73000000Y-62000000D03*
X93000000Y-96000000D03*
X73000000Y-120000000D03*
X75100000Y-74600000D03*
X81800000Y-56050000D03*
X91000000Y-138000000D03*
X93000000Y-54000000D03*
X82200000Y-117600000D03*
X89000000Y-50000000D03*
X73000000Y-108000000D03*
X79000000Y-138000000D03*
X73000000Y-72000000D03*
X82975000Y-72500000D03*
X93000000Y-86000000D03*
X73000000Y-98000000D03*
X93000000Y-68000000D03*
X73000000Y-56000000D03*
X75000000Y-138000000D03*
X88000000Y-112000000D03*
X73000000Y-74000000D03*
X73000000Y-104000000D03*
X79500000Y-56000000D03*
X73000000Y-92000000D03*
X89549998Y-66600000D03*
X85000000Y-50000000D03*
X93000000Y-112000000D03*
X93000000Y-60000000D03*
X83400000Y-60900000D03*
X79377473Y-71420357D03*
X80550000Y-60925000D03*
X85000000Y-138000000D03*
X73000000Y-122000000D03*
X93000000Y-56000000D03*
X74600000Y-88100000D03*
X93000000Y-58000000D03*
X73000000Y-126000000D03*
X73000000Y-100000000D03*
X77000000Y-50000000D03*
X73000000Y-68000000D03*
X73000000Y-82000000D03*
X75200000Y-82500000D03*
X78750000Y-93000000D03*
X91000000Y-50000000D03*
X73000000Y-96000000D03*
X93000000Y-84000000D03*
X73000000Y-136000000D03*
X80100000Y-77400000D03*
X73000000Y-52000000D03*
%TO.N,/epaper display (page 3)/VSL_LV*%
X80900000Y-69900000D03*
%TO.N,/epaper display (page 3)/VSH*%
X73600000Y-65400000D03*
%TO.N,/epaper display (page 3)/VGH*%
X88200000Y-72600000D03*
X89100000Y-82900000D03*
X78600000Y-84500000D03*
X88800000Y-76400000D03*
%TO.N,/epaper display (page 3)/VPC*%
X85684236Y-61784648D03*
%TO.N,/epaper display (page 3)/RST_N*%
X87000000Y-92200000D03*
%TO.N,/epaper display (page 3)/GDRH*%
X87221625Y-58487825D03*
X83200000Y-61700000D03*
%TO.N,/epaper display (page 3)/VDDO*%
X75900000Y-77000000D03*
%TO.N,/epaper display (page 3)/VSL*%
X81200000Y-68900000D03*
%TO.N,/epaper display (page 3)/SI0*%
X79474193Y-87068481D03*
%TO.N,/epaper display (page 3)/VSH_LV2*%
X80800000Y-68200000D03*
%TO.N,/epaper display (page 3)/VSH_LV*%
X79819813Y-67976595D03*
%TO.N,/epaper display (page 3)/SI1*%
X78100000Y-86503132D03*
%TO.N,/esp32-s3/VBAT*%
X87500000Y-126800000D03*
X85200000Y-116700000D03*
X86986139Y-127303171D03*
X85900000Y-117400000D03*
X87600001Y-122899999D03*
X87600001Y-121900000D03*
%TO.N,Net-(U1-GPIO1_A0_D0)*%
X86300000Y-113100000D03*
X89900000Y-98300000D03*
X83700000Y-120100000D03*
%TD*%
D26*
%TO.N,/epaper display (page 3)/SI1*%
X78100000Y-86503132D02*
X78100000Y-88300000D01*
X78100000Y-88300000D02*
X78000000Y-88400000D01*
X78000000Y-88400000D02*
X78000000Y-90175000D01*
%TO.N,/epaper display (page 3)/SCK*%
X76400000Y-90175000D02*
X76400000Y-89700000D01*
X76400000Y-89700000D02*
X77100000Y-89000000D01*
X77100000Y-89000000D02*
X77100000Y-87302688D01*
D27*
%TO.N,+3.3V*%
X81600000Y-78975000D02*
X83100000Y-78975000D01*
D28*
X90450000Y-86362500D02*
X90450000Y-84675000D01*
D27*
X79675000Y-78975000D02*
X79500000Y-78800000D01*
D26*
X83300000Y-52262500D02*
X83300000Y-52300000D01*
D27*
X80100000Y-78975000D02*
X81600000Y-78975000D01*
X78760485Y-78800000D02*
X78704804Y-78744319D01*
X80100000Y-78975000D02*
X79675000Y-78975000D01*
X80125000Y-79000000D02*
X80100000Y-78975000D01*
X79500000Y-78800000D02*
X78760485Y-78800000D01*
D28*
X90450000Y-84675000D02*
X90275000Y-84500000D01*
D26*
X86000000Y-52775000D02*
X86000000Y-52800000D01*
D27*
X80125000Y-80500000D02*
X80125000Y-79000000D01*
X78800000Y-80500000D02*
X78700000Y-80400000D01*
X80125000Y-80500000D02*
X78800000Y-80500000D01*
%TO.N,+5V*%
X90450000Y-88637500D02*
X90450000Y-89550000D01*
X90450000Y-89550000D02*
X90275000Y-89725000D01*
X90275000Y-89725000D02*
X90275000Y-90500000D01*
D26*
%TO.N,/epaper display (page 3)/GDRC*%
X84250000Y-54137500D02*
X84537500Y-54425000D01*
X84250000Y-54137500D02*
X84250000Y-52904174D01*
X84537500Y-54425000D02*
X86000000Y-54425000D01*
X74000000Y-56300000D02*
X75700000Y-54600000D01*
X84250000Y-52904174D02*
X84200000Y-52854174D01*
X74000000Y-61500000D02*
X74000000Y-56300000D01*
%TO.N,Net-(J2-CC2)*%
X75015136Y-128464682D02*
X74837167Y-128464682D01*
X76100000Y-126300000D02*
X76100000Y-124825000D01*
X75400000Y-127000000D02*
X76100000Y-126300000D01*
X74295025Y-127922540D02*
X74295025Y-127304975D01*
X74600000Y-127000000D02*
X75400000Y-127000000D01*
X74295025Y-127304975D02*
X74600000Y-127000000D01*
X76100000Y-124825000D02*
X75100000Y-123825000D01*
X74837167Y-128464682D02*
X74295025Y-127922540D01*
%TO.N,Net-(J2-CC1)*%
X81500000Y-126562500D02*
X81500000Y-125825000D01*
X79000000Y-127600000D02*
X80462500Y-127600000D01*
X80462500Y-127600000D02*
X81500000Y-126562500D01*
%TO.N,Net-(U2-EN)*%
X86700000Y-89675000D02*
X87512500Y-89675000D01*
X87512500Y-89675000D02*
X88550000Y-88637500D01*
X85200000Y-89675000D02*
X85200000Y-88175000D01*
X85200000Y-88175000D02*
X85375000Y-88000000D01*
X86700000Y-89675000D02*
X85200000Y-89675000D01*
%TO.N,/epaper display (page 3)/DISP_PWR_EN*%
X84325000Y-91325000D02*
X84200000Y-91200000D01*
X85200000Y-91325000D02*
X84325000Y-91325000D01*
D29*
%TO.N,/esp32-s3/ESP32_MOSI*%
X79500000Y-109700000D02*
X79500000Y-91825000D01*
X82900000Y-113100000D02*
X79500000Y-109700000D01*
%TO.N,/esp32-s3/ESP32_MISO*%
X78000000Y-110900000D02*
X78000000Y-91825000D01*
X80300000Y-113200000D02*
X78000000Y-110900000D01*
%TO.N,/esp32-s3/ESP32_SCK*%
X76500000Y-111900000D02*
X76500000Y-91825000D01*
X77800000Y-113200000D02*
X76500000Y-111900000D01*
D26*
%TO.N,Net-(R21-Pad1)*%
X80600000Y-118575000D02*
X80600000Y-117300000D01*
X80600000Y-117300000D02*
X80500000Y-117200000D01*
%TO.N,/epaper display (page 3)/RESEC*%
X84900000Y-60800000D02*
X85772000Y-59928000D01*
X85772000Y-59928000D02*
X85772000Y-58528000D01*
D28*
X88550000Y-56706750D02*
X86750000Y-56706750D01*
D26*
X86750000Y-58050000D02*
X86750000Y-56706750D01*
X86100000Y-58200000D02*
X86600000Y-58200000D01*
X85772000Y-58528000D02*
X86100000Y-58200000D01*
X86600000Y-58200000D02*
X86750000Y-58050000D01*
%TO.N,/epaper display (page 3)/DC*%
X75000000Y-90175000D02*
X75000000Y-89200000D01*
X75000000Y-89200000D02*
X75200000Y-89000000D01*
X75200000Y-89000000D02*
X76200000Y-89000000D01*
D30*
%TO.N,/epaper display (page 3)/VSL_LV2*%
X80100000Y-70952086D02*
X80100000Y-70600000D01*
X80028473Y-73071527D02*
X80028473Y-71023613D01*
X78500000Y-74600000D02*
X80028473Y-73071527D01*
X76950000Y-74600000D02*
X78500000Y-74600000D01*
X80028473Y-71023613D02*
X80100000Y-70952086D01*
%TO.N,/epaper display (page 3)/VCP2*%
X76058068Y-81644928D02*
X76058068Y-81141932D01*
X76058068Y-81141932D02*
X76200000Y-81000000D01*
X76200000Y-81000000D02*
X76775000Y-81000000D01*
D29*
%TO.N,/esp32-s3/ESP32_DC*%
X75000000Y-112900000D02*
X75000000Y-91825000D01*
X75300000Y-113200000D02*
X75000000Y-112900000D01*
D30*
%TO.N,/epaper display (page 3)/VCP1*%
X75800000Y-83800000D02*
X75816845Y-83783155D01*
X75816845Y-83783155D02*
X75816845Y-83458155D01*
X75816845Y-83458155D02*
X76775000Y-82500000D01*
D27*
%TO.N,GND*%
X82200000Y-118625000D02*
X82200000Y-117600000D01*
D29*
X73250000Y-125750000D02*
X73000000Y-126000000D01*
X74850000Y-125750000D02*
X73250000Y-125750000D01*
D30*
%TO.N,/epaper display (page 3)/VSL_LV*%
X78900000Y-70650000D02*
X78900000Y-70310050D01*
X76950000Y-72600000D02*
X78900000Y-70650000D01*
X78900000Y-70310050D02*
X79310050Y-69900000D01*
X79310050Y-69900000D02*
X80900000Y-69900000D01*
D26*
%TO.N,/epaper display (page 3)/VSH*%
X73600000Y-65400000D02*
X73600000Y-65100000D01*
X73600000Y-65100000D02*
X74100000Y-64600000D01*
X74100000Y-64600000D02*
X75050000Y-64600000D01*
D30*
%TO.N,/epaper display (page 3)/VGH*%
X88800000Y-73200000D02*
X88200000Y-72600000D01*
X88800000Y-76400000D02*
X88800000Y-73200000D01*
X80200000Y-82900000D02*
X89100000Y-82900000D01*
X78600000Y-84500000D02*
X80200000Y-82900000D01*
D28*
%TO.N,/epaper display (page 3)/VPC*%
X88525000Y-59606750D02*
X88625000Y-59506750D01*
X86925000Y-59606750D02*
X88525000Y-59606750D01*
X86925000Y-59606750D02*
X86925000Y-60543884D01*
X86925000Y-60543884D02*
X85684236Y-61784648D01*
D26*
%TO.N,/epaper display (page 3)/RST_N*%
X87000000Y-91625000D02*
X86700000Y-91325000D01*
X87000000Y-92200000D02*
X87000000Y-91625000D01*
%TO.N,/epaper display (page 3)/GDRH*%
X83200000Y-61700000D02*
X84870712Y-61700000D01*
X86581640Y-58600000D02*
X87109450Y-58600000D01*
X84870712Y-61700000D02*
X86174000Y-60396712D01*
X86174000Y-59007640D02*
X86581640Y-58600000D01*
X87109450Y-58600000D02*
X87221625Y-58487825D01*
X86174000Y-60396712D02*
X86174000Y-59007640D01*
D30*
%TO.N,/epaper display (page 3)/VDDO*%
X76400000Y-77000000D02*
X76800000Y-77400000D01*
X75900000Y-77000000D02*
X76400000Y-77000000D01*
X76800000Y-77400000D02*
X76775000Y-77425000D01*
X76775000Y-77425000D02*
X76775000Y-78000000D01*
%TO.N,/epaper display (page 3)/VSL*%
X80410050Y-69400000D02*
X80910050Y-68900000D01*
X76950000Y-70600000D02*
X78150000Y-69400000D01*
X80910050Y-68900000D02*
X81200000Y-68900000D01*
X78150000Y-69400000D02*
X80410050Y-69400000D01*
D26*
%TO.N,/epaper display (page 3)/SI0*%
X79500000Y-87094288D02*
X79474193Y-87068481D01*
X79500000Y-90175000D02*
X79500000Y-87094288D01*
D30*
%TO.N,/epaper display (page 3)/VSH_LV2*%
X80237583Y-68762417D02*
X80800000Y-68200000D01*
X76950000Y-68600000D02*
X77112417Y-68762417D01*
X77112417Y-68762417D02*
X80237583Y-68762417D01*
%TO.N,/epaper display (page 3)/VSH_LV*%
X78326595Y-67976595D02*
X79819813Y-67976595D01*
X76950000Y-66600000D02*
X78326595Y-67976595D01*
D31*
%TO.N,/esp32-s3/VBAT*%
X84500000Y-116000000D02*
X85900000Y-117400000D01*
X83132000Y-98445000D02*
X83132000Y-110532000D01*
X87600001Y-122899999D02*
X87600001Y-126689309D01*
X84500000Y-111900000D02*
X84500000Y-116000000D01*
X87600001Y-122899999D02*
X87600001Y-121900000D01*
X83132000Y-110532000D02*
X84500000Y-111900000D01*
X87600001Y-126689309D02*
X86986139Y-127303171D01*
D26*
%TO.N,Net-(U1-GPIO1_A0_D0)*%
X82200000Y-120175000D02*
X83625000Y-120175000D01*
X86300000Y-113100000D02*
X86300000Y-101900000D01*
X83625000Y-120175000D02*
X83700000Y-120100000D01*
X82150000Y-120225000D02*
X82200000Y-120175000D01*
X86300000Y-101900000D02*
X89900000Y-98300000D01*
X80600000Y-120225000D02*
X82150000Y-120225000D01*
%TD*%
%TA.AperFunction,Conductor*%
%TO.N,GND*%
G36*
X79537488Y-70257428D02*
G01*
X79549927Y-70258318D01*
X79555999Y-70262863D01*
X79580932Y-70270185D01*
X79626687Y-70322989D01*
X79636631Y-70392147D01*
X79633668Y-70406594D01*
X79633609Y-70406810D01*
X79633608Y-70406814D01*
X79599500Y-70534108D01*
X79599500Y-70665892D01*
X79631491Y-70785286D01*
X79633609Y-70793188D01*
X79633609Y-70793189D01*
X79671954Y-70859604D01*
X79688427Y-70927504D01*
X79684343Y-70953694D01*
X79677973Y-70977469D01*
X79677973Y-72874983D01*
X79658288Y-72942022D01*
X79641654Y-72962664D01*
X78391137Y-74213181D01*
X78329814Y-74246666D01*
X78303456Y-74249500D01*
X77692980Y-74249500D01*
X77625941Y-74229815D01*
X77593210Y-74199133D01*
X77522151Y-74102851D01*
X77412882Y-74022207D01*
X77412880Y-74022206D01*
X77284700Y-73977353D01*
X77254270Y-73974500D01*
X77254266Y-73974500D01*
X76645734Y-73974500D01*
X76645730Y-73974500D01*
X76615300Y-73977353D01*
X76615298Y-73977353D01*
X76487119Y-74022206D01*
X76487117Y-74022207D01*
X76377850Y-74102850D01*
X76297207Y-74212117D01*
X76274842Y-74276033D01*
X76234120Y-74332808D01*
X76169167Y-74358555D01*
X76100605Y-74345098D01*
X76050203Y-74296711D01*
X76040095Y-74274081D01*
X75984358Y-74105880D01*
X75984356Y-74105875D01*
X75892315Y-73956654D01*
X75873342Y-73937681D01*
X75839857Y-73876358D01*
X75844841Y-73806666D01*
X75873342Y-73762319D01*
X75892315Y-73743345D01*
X75984356Y-73594124D01*
X75984359Y-73594117D01*
X76040094Y-73425918D01*
X76079866Y-73368473D01*
X76144382Y-73341649D01*
X76213158Y-73353964D01*
X76264358Y-73401506D01*
X76274841Y-73423965D01*
X76276147Y-73427697D01*
X76297207Y-73487882D01*
X76377850Y-73597150D01*
X76487118Y-73677793D01*
X76529845Y-73692744D01*
X76615299Y-73722646D01*
X76645730Y-73725500D01*
X76645734Y-73725500D01*
X77254270Y-73725500D01*
X77284699Y-73722646D01*
X77284701Y-73722646D01*
X77348790Y-73700219D01*
X77412882Y-73677793D01*
X77522150Y-73597150D01*
X77602793Y-73487882D01*
X77633017Y-73401506D01*
X77647646Y-73359701D01*
X77647646Y-73359699D01*
X77650500Y-73329269D01*
X77650500Y-72446544D01*
X77670185Y-72379505D01*
X77686819Y-72358863D01*
X78423036Y-71622646D01*
X79180469Y-70865213D01*
X79226614Y-70785288D01*
X79240011Y-70735288D01*
X79250500Y-70696144D01*
X79250500Y-70506593D01*
X79259144Y-70477152D01*
X79265668Y-70447166D01*
X79269422Y-70442150D01*
X79270185Y-70439554D01*
X79286819Y-70418912D01*
X79418912Y-70286819D01*
X79480235Y-70253334D01*
X79506593Y-70250500D01*
X79513893Y-70250500D01*
X79537488Y-70257428D01*
G37*
%TD.AperFunction*%
%TA.AperFunction,Conductor*%
G36*
X75842416Y-64943717D02*
G01*
X75854010Y-64941486D01*
X75876070Y-64950322D01*
X75899392Y-64954900D01*
X75907909Y-64963076D01*
X75918869Y-64967467D01*
X75932649Y-64986827D01*
X75949795Y-65003287D01*
X75958944Y-65023768D01*
X75959386Y-65024389D01*
X75959405Y-65024801D01*
X75959904Y-65025917D01*
X76015642Y-65194121D01*
X76015643Y-65194124D01*
X76107684Y-65343345D01*
X76231654Y-65467315D01*
X76336875Y-65532216D01*
X76341722Y-65537605D01*
X76348449Y-65540300D01*
X76364771Y-65563231D01*
X76383599Y-65584164D01*
X76384763Y-65591317D01*
X76388966Y-65597222D01*
X76390299Y-65625340D01*
X76394822Y-65653127D01*
X76392014Y-65661484D01*
X76392277Y-65667013D01*
X76384734Y-65683158D01*
X76379153Y-65699777D01*
X76375678Y-65705792D01*
X76297207Y-65812118D01*
X76270997Y-65887020D01*
X76265176Y-65897099D01*
X76247970Y-65913497D01*
X76234120Y-65932808D01*
X76223145Y-65937158D01*
X76214599Y-65945304D01*
X76191260Y-65949797D01*
X76169167Y-65958555D01*
X76157581Y-65956281D01*
X76145989Y-65958513D01*
X76123927Y-65949675D01*
X76100605Y-65945098D01*
X76092088Y-65936921D01*
X76081130Y-65932532D01*
X76067349Y-65913172D01*
X76050203Y-65896711D01*
X76041055Y-65876232D01*
X76040613Y-65875610D01*
X76040593Y-65875196D01*
X76040095Y-65874081D01*
X75984358Y-65705880D01*
X75984356Y-65705875D01*
X75892315Y-65556654D01*
X75768345Y-65432684D01*
X75663124Y-65367783D01*
X75658276Y-65362393D01*
X75651550Y-65359699D01*
X75635227Y-65336767D01*
X75616400Y-65315835D01*
X75615235Y-65308681D01*
X75611033Y-65302777D01*
X75609698Y-65274653D01*
X75605178Y-65246872D01*
X75607984Y-65238516D01*
X75607722Y-65232986D01*
X75615265Y-65216836D01*
X75620846Y-65200222D01*
X75624314Y-65194217D01*
X75702793Y-65087882D01*
X75729004Y-65012972D01*
X75734823Y-65002900D01*
X75752026Y-64986503D01*
X75765877Y-64967192D01*
X75776853Y-64962840D01*
X75785400Y-64954695D01*
X75808735Y-64950202D01*
X75830830Y-64941444D01*
X75842416Y-64943717D01*
G37*
%TD.AperFunction*%
%TA.AperFunction,Conductor*%
G36*
X91003736Y-49500726D02*
G01*
X91293796Y-49518271D01*
X91308659Y-49520076D01*
X91590798Y-49571780D01*
X91605335Y-49575363D01*
X91879172Y-49660695D01*
X91893163Y-49666000D01*
X92154743Y-49783727D01*
X92167989Y-49790680D01*
X92413465Y-49939075D01*
X92425776Y-49947573D01*
X92651573Y-50124473D01*
X92662781Y-50134403D01*
X92865596Y-50337218D01*
X92875526Y-50348426D01*
X92995481Y-50501538D01*
X93052422Y-50574217D01*
X93060928Y-50586540D01*
X93209316Y-50832004D01*
X93216275Y-50845263D01*
X93333997Y-51106831D01*
X93339306Y-51120832D01*
X93424635Y-51394663D01*
X93428219Y-51409201D01*
X93479923Y-51691340D01*
X93481728Y-51706205D01*
X93499274Y-51996263D01*
X93499500Y-52003750D01*
X93499500Y-81987341D01*
X93479815Y-82054380D01*
X93427011Y-82100135D01*
X93366667Y-82111025D01*
X93366060Y-82110982D01*
X93363817Y-82110822D01*
X93363811Y-82110821D01*
X93363801Y-82110821D01*
X93338666Y-82110565D01*
X93338665Y-82110565D01*
X93338662Y-82110565D01*
X93250661Y-82135432D01*
X93189333Y-82168920D01*
X93189331Y-82168920D01*
X93167984Y-82184901D01*
X93155675Y-82193020D01*
X93108704Y-82220139D01*
X93078800Y-82232526D01*
X93048021Y-82240774D01*
X93015925Y-82245000D01*
X92984073Y-82245000D01*
X92951977Y-82240774D01*
X92921201Y-82232527D01*
X92891296Y-82220140D01*
X92863698Y-82204206D01*
X92838018Y-82184500D01*
X92815498Y-82161980D01*
X92795791Y-82136298D01*
X92779857Y-82108699D01*
X92767470Y-82078793D01*
X92758906Y-82046831D01*
X92755794Y-82027254D01*
X92755355Y-82027302D01*
X92752578Y-82001476D01*
X92750303Y-81980316D01*
X92741594Y-81940281D01*
X92739102Y-81928825D01*
X92738045Y-81924500D01*
X92736610Y-81918627D01*
X92693600Y-81837915D01*
X92647845Y-81785111D01*
X92647839Y-81785104D01*
X92630257Y-81767160D01*
X92630256Y-81767159D01*
X92630254Y-81767157D01*
X92630252Y-81767156D01*
X92630250Y-81767154D01*
X92550440Y-81722511D01*
X92550435Y-81722509D01*
X92483403Y-81702826D01*
X92483399Y-81702825D01*
X92483398Y-81702825D01*
X92425500Y-81694500D01*
X89624000Y-81694500D01*
X89623992Y-81694500D01*
X89580313Y-81699197D01*
X89528825Y-81710397D01*
X89518627Y-81712890D01*
X89518624Y-81712891D01*
X89437916Y-81755899D01*
X89437913Y-81755901D01*
X89385104Y-81801660D01*
X89367160Y-81819242D01*
X89367154Y-81819249D01*
X89322511Y-81899059D01*
X89322509Y-81899064D01*
X89302826Y-81966096D01*
X89302825Y-81966101D01*
X89302825Y-81966102D01*
X89297740Y-82001472D01*
X89294500Y-82024003D01*
X89294500Y-82275500D01*
X89274815Y-82342539D01*
X89222011Y-82388294D01*
X89170500Y-82399500D01*
X89034108Y-82399500D01*
X88906812Y-82433608D01*
X88792686Y-82499500D01*
X88792683Y-82499502D01*
X88779005Y-82513181D01*
X88717682Y-82546666D01*
X88691324Y-82549500D01*
X80153856Y-82549500D01*
X80064712Y-82573386D01*
X80064709Y-82573387D01*
X79984791Y-82619527D01*
X79984786Y-82619531D01*
X78641137Y-83963181D01*
X78579814Y-83996666D01*
X78553456Y-83999500D01*
X78534108Y-83999500D01*
X78406812Y-84033608D01*
X78292686Y-84099500D01*
X78292683Y-84099502D01*
X78199502Y-84192683D01*
X78199500Y-84192686D01*
X78133608Y-84306812D01*
X78099500Y-84434108D01*
X78099500Y-84565891D01*
X78133608Y-84693187D01*
X78159940Y-84738794D01*
X78199500Y-84807314D01*
X78292686Y-84900500D01*
X78406814Y-84966392D01*
X78534108Y-85000500D01*
X78534110Y-85000500D01*
X78665890Y-85000500D01*
X78665892Y-85000500D01*
X78793186Y-84966392D01*
X78907314Y-84900500D01*
X79000500Y-84807314D01*
X79066392Y-84693186D01*
X79100500Y-84565892D01*
X79100500Y-84546544D01*
X79120185Y-84479505D01*
X79136819Y-84458863D01*
X79394005Y-84201677D01*
X87775000Y-84201677D01*
X87775000Y-84250000D01*
X88475000Y-84250000D01*
X88475000Y-83524999D01*
X88451693Y-83525000D01*
X88451674Y-83525001D01*
X88352392Y-83535144D01*
X88191518Y-83588452D01*
X88191507Y-83588457D01*
X88047271Y-83677424D01*
X88047267Y-83677427D01*
X87927427Y-83797267D01*
X87927424Y-83797271D01*
X87838457Y-83941507D01*
X87838452Y-83941518D01*
X87785144Y-84102393D01*
X87775000Y-84201677D01*
X79394005Y-84201677D01*
X80308863Y-83286819D01*
X80370186Y-83253334D01*
X80396544Y-83250500D01*
X88691324Y-83250500D01*
X88758363Y-83270185D01*
X88758471Y-83270254D01*
X88769623Y-83277437D01*
X88792686Y-83300500D01*
X88906814Y-83366392D01*
X88908374Y-83366810D01*
X88918147Y-83373105D01*
X88939104Y-83397341D01*
X88961216Y-83420531D01*
X88962018Y-83423840D01*
X88963848Y-83425956D01*
X88965728Y-83439132D01*
X88975000Y-83477351D01*
X88975000Y-84376000D01*
X88955315Y-84443039D01*
X88902511Y-84488794D01*
X88851000Y-84500000D01*
X88725000Y-84500000D01*
X88725000Y-84626000D01*
X88705315Y-84693039D01*
X88652511Y-84738794D01*
X88601000Y-84750000D01*
X87775001Y-84750000D01*
X87775001Y-84798322D01*
X87785144Y-84897607D01*
X87838452Y-85058481D01*
X87838457Y-85058492D01*
X87927424Y-85202728D01*
X87927427Y-85202732D01*
X88047267Y-85322572D01*
X88047271Y-85322575D01*
X88151592Y-85386922D01*
X88198317Y-85438870D01*
X88209538Y-85507833D01*
X88181695Y-85571914D01*
X88174177Y-85580141D01*
X88110802Y-85643516D01*
X88059426Y-85748608D01*
X88049500Y-85816739D01*
X88049500Y-86908260D01*
X88059426Y-86976391D01*
X88110803Y-87081485D01*
X88193514Y-87164196D01*
X88193515Y-87164196D01*
X88193517Y-87164198D01*
X88298607Y-87215573D01*
X88332673Y-87220536D01*
X88366739Y-87225500D01*
X88366740Y-87225500D01*
X88733261Y-87225500D01*
X88755971Y-87222191D01*
X88801393Y-87215573D01*
X88906483Y-87164198D01*
X88989198Y-87081483D01*
X89040573Y-86976393D01*
X89050500Y-86908260D01*
X89050500Y-85816740D01*
X89040573Y-85748607D01*
X88989261Y-85643647D01*
X88977503Y-85574776D01*
X89004847Y-85510479D01*
X89062611Y-85471172D01*
X89088062Y-85465831D01*
X89097606Y-85464855D01*
X89258481Y-85411547D01*
X89258492Y-85411542D01*
X89402728Y-85322575D01*
X89402732Y-85322572D01*
X89522572Y-85202732D01*
X89522575Y-85202728D01*
X89584608Y-85102159D01*
X89601898Y-85086607D01*
X89615836Y-85067989D01*
X89627387Y-85063680D01*
X89636556Y-85055434D01*
X89659511Y-85051698D01*
X89681300Y-85043572D01*
X89693348Y-85046193D01*
X89705518Y-85044213D01*
X89726846Y-85053480D01*
X89749573Y-85058424D01*
X89765269Y-85070174D01*
X89769600Y-85072056D01*
X89777827Y-85079575D01*
X89783181Y-85084929D01*
X89816666Y-85146252D01*
X89819500Y-85172610D01*
X89819500Y-85481007D01*
X89824197Y-85524686D01*
X89835397Y-85576174D01*
X89836367Y-85580141D01*
X89837890Y-85586373D01*
X89868340Y-85643516D01*
X89880899Y-85667083D01*
X89880901Y-85667086D01*
X89919213Y-85711300D01*
X89948238Y-85774856D01*
X89949500Y-85792503D01*
X89949500Y-86747302D01*
X89929815Y-86814341D01*
X89877011Y-86860096D01*
X89824812Y-86871300D01*
X89626478Y-86870198D01*
X89626468Y-86870199D01*
X89581696Y-86874882D01*
X89581678Y-86874885D01*
X89528904Y-86886355D01*
X89517669Y-86889130D01*
X89437186Y-86932550D01*
X89437177Y-86932557D01*
X89384614Y-86978578D01*
X89384604Y-86978587D01*
X89366746Y-86996266D01*
X89322509Y-87076318D01*
X89303173Y-87143453D01*
X89295148Y-87201384D01*
X89295148Y-87201386D01*
X89296018Y-87370065D01*
X89276679Y-87437205D01*
X89224112Y-87483231D01*
X89206615Y-87489780D01*
X89089806Y-87523716D01*
X89089803Y-87523717D01*
X88948447Y-87607314D01*
X88948442Y-87607318D01*
X88832316Y-87723445D01*
X88829944Y-87726504D01*
X88827475Y-87728286D01*
X88826802Y-87728960D01*
X88826693Y-87728851D01*
X88773300Y-87767409D01*
X88731967Y-87774500D01*
X88366739Y-87774500D01*
X88298608Y-87784426D01*
X88193516Y-87835802D01*
X88136680Y-87892638D01*
X88075356Y-87926122D01*
X88005665Y-87921137D01*
X87949731Y-87879266D01*
X87925315Y-87813801D01*
X87924999Y-87804956D01*
X87924999Y-87668417D01*
X87918591Y-87597897D01*
X87918590Y-87597892D01*
X87868018Y-87435603D01*
X87780072Y-87290122D01*
X87659877Y-87169927D01*
X87514395Y-87081980D01*
X87514396Y-87081980D01*
X87352105Y-87031409D01*
X87352106Y-87031409D01*
X87281572Y-87025000D01*
X87275000Y-87025000D01*
X87275000Y-87876000D01*
X87255315Y-87943039D01*
X87202511Y-87988794D01*
X87151000Y-88000000D01*
X86899000Y-88000000D01*
X86831961Y-87980315D01*
X86786206Y-87927511D01*
X86775000Y-87876000D01*
X86775000Y-87025000D01*
X86774999Y-87024999D01*
X86768436Y-87025000D01*
X86768417Y-87025001D01*
X86697897Y-87031408D01*
X86697892Y-87031409D01*
X86535603Y-87081981D01*
X86390122Y-87169927D01*
X86269927Y-87290122D01*
X86181981Y-87435603D01*
X86156863Y-87516209D01*
X86118125Y-87574356D01*
X86054100Y-87602330D01*
X85985115Y-87591248D01*
X85933072Y-87544629D01*
X85928002Y-87535630D01*
X85903050Y-87486658D01*
X85903048Y-87486656D01*
X85903045Y-87486652D01*
X85813347Y-87396954D01*
X85813344Y-87396952D01*
X85813342Y-87396950D01*
X85736517Y-87357805D01*
X85700301Y-87339352D01*
X85606524Y-87324500D01*
X85143482Y-87324500D01*
X85062519Y-87337323D01*
X85049696Y-87339354D01*
X84936658Y-87396950D01*
X84936657Y-87396951D01*
X84936652Y-87396954D01*
X84846954Y-87486652D01*
X84846952Y-87486656D01*
X84846950Y-87486658D01*
X84842254Y-87495875D01*
X84789352Y-87599698D01*
X84774500Y-87693475D01*
X84774500Y-88306517D01*
X84785292Y-88374657D01*
X84789354Y-88400304D01*
X84846950Y-88513342D01*
X84846951Y-88513343D01*
X84846953Y-88513346D01*
X84863179Y-88529571D01*
X84896666Y-88590893D01*
X84899500Y-88617254D01*
X84899500Y-88951802D01*
X84879815Y-89018841D01*
X84827011Y-89064596D01*
X84794898Y-89074275D01*
X84699699Y-89089352D01*
X84652305Y-89113501D01*
X84586658Y-89146950D01*
X84586657Y-89146951D01*
X84586652Y-89146954D01*
X84496954Y-89236652D01*
X84496951Y-89236657D01*
X84496950Y-89236658D01*
X84489442Y-89251393D01*
X84439352Y-89349698D01*
X84424500Y-89443475D01*
X84424500Y-89906517D01*
X84432181Y-89955013D01*
X84439354Y-90000304D01*
X84496950Y-90113342D01*
X84496952Y-90113344D01*
X84496954Y-90113347D01*
X84586652Y-90203045D01*
X84586654Y-90203046D01*
X84586658Y-90203050D01*
X84699694Y-90260645D01*
X84699698Y-90260647D01*
X84793475Y-90275499D01*
X84793481Y-90275500D01*
X85406518Y-90275499D01*
X85500304Y-90260646D01*
X85613342Y-90203050D01*
X85703050Y-90113342D01*
X85738787Y-90043203D01*
X85749235Y-90032140D01*
X85755558Y-90018297D01*
X85772738Y-90007255D01*
X85786761Y-89992409D01*
X85802440Y-89988167D01*
X85814336Y-89980523D01*
X85849271Y-89975500D01*
X85950728Y-89975500D01*
X86017767Y-89995185D01*
X86061212Y-90043204D01*
X86096949Y-90113340D01*
X86096954Y-90113347D01*
X86186652Y-90203045D01*
X86186654Y-90203046D01*
X86186658Y-90203050D01*
X86299694Y-90260645D01*
X86299698Y-90260647D01*
X86393475Y-90275499D01*
X86393481Y-90275500D01*
X87006518Y-90275499D01*
X87100304Y-90260646D01*
X87213342Y-90203050D01*
X87303050Y-90113342D01*
X87338787Y-90043203D01*
X87344183Y-90037490D01*
X87346576Y-90030004D01*
X87367832Y-90012450D01*
X87386761Y-89992409D01*
X87395756Y-89989390D01*
X87400450Y-89985515D01*
X87418099Y-89981894D01*
X87434541Y-89976378D01*
X87441880Y-89975500D01*
X87472938Y-89975500D01*
X87552062Y-89975500D01*
X87628489Y-89955021D01*
X87632522Y-89952692D01*
X87649734Y-89950633D01*
X87675795Y-89955013D01*
X87702219Y-89955642D01*
X87709714Y-89960715D01*
X87718637Y-89962215D01*
X87738192Y-89979989D01*
X87760082Y-89994804D01*
X87763644Y-90003122D01*
X87770341Y-90009209D01*
X87777183Y-90034737D01*
X87787587Y-90059032D01*
X87787017Y-90071431D01*
X87788429Y-90076697D01*
X87786498Y-90082736D01*
X87785720Y-90099698D01*
X87785144Y-90102387D01*
X87775000Y-90201677D01*
X87775000Y-90250000D01*
X88601000Y-90250000D01*
X88668039Y-90269685D01*
X88713794Y-90322489D01*
X88725000Y-90374000D01*
X88725000Y-90500000D01*
X88851000Y-90500000D01*
X88918039Y-90519685D01*
X88963794Y-90572489D01*
X88975000Y-90624000D01*
X88975000Y-91474999D01*
X88998308Y-91474999D01*
X88998322Y-91474998D01*
X89097605Y-91464856D01*
X89154628Y-91445960D01*
X89224456Y-91443558D01*
X89284498Y-91479289D01*
X89315691Y-91541809D01*
X89317631Y-91563026D01*
X89318867Y-91802697D01*
X89318867Y-91802711D01*
X89323672Y-91845826D01*
X89323674Y-91845839D01*
X89334880Y-91896724D01*
X89337250Y-91906370D01*
X89380259Y-91987080D01*
X89380262Y-91987085D01*
X89391202Y-91999710D01*
X89426022Y-92039895D01*
X89442309Y-92056517D01*
X89443608Y-92057843D01*
X89443609Y-92057844D01*
X89443611Y-92057845D01*
X89460196Y-92067122D01*
X89523425Y-92102490D01*
X89590464Y-92122175D01*
X89648362Y-92130500D01*
X89648366Y-92130500D01*
X92458566Y-92130500D01*
X92467106Y-92130143D01*
X92475656Y-92129787D01*
X92496219Y-92128070D01*
X92568911Y-92108128D01*
X92631758Y-92077599D01*
X92653654Y-92065253D01*
X92717438Y-91999711D01*
X92753803Y-91940051D01*
X92756906Y-91932802D01*
X92763503Y-91919620D01*
X92795789Y-91863700D01*
X92815488Y-91838028D01*
X92838026Y-91815490D01*
X92863693Y-91795794D01*
X92891303Y-91779853D01*
X92921197Y-91767472D01*
X92951982Y-91759223D01*
X92984069Y-91755000D01*
X93015928Y-91755000D01*
X93048019Y-91759225D01*
X93078792Y-91767470D01*
X93108700Y-91779857D01*
X93135906Y-91795565D01*
X93141813Y-91798975D01*
X93150005Y-91804537D01*
X93150114Y-91804376D01*
X93154255Y-91807143D01*
X93154256Y-91807144D01*
X93208929Y-91843678D01*
X93208932Y-91843679D01*
X93208933Y-91843680D01*
X93253909Y-91864220D01*
X93272485Y-91872703D01*
X93295949Y-91881728D01*
X93385608Y-91889060D01*
X93450818Y-91914142D01*
X93492117Y-91970499D01*
X93499500Y-92012647D01*
X93499500Y-135996249D01*
X93499274Y-136003736D01*
X93481728Y-136293794D01*
X93479923Y-136308659D01*
X93428219Y-136590798D01*
X93424635Y-136605336D01*
X93339306Y-136879167D01*
X93333997Y-136893168D01*
X93216275Y-137154736D01*
X93209316Y-137167995D01*
X93060928Y-137413459D01*
X93052422Y-137425782D01*
X92875526Y-137651573D01*
X92865596Y-137662781D01*
X92662781Y-137865596D01*
X92651573Y-137875526D01*
X92425782Y-138052422D01*
X92413459Y-138060928D01*
X92167995Y-138209316D01*
X92154736Y-138216275D01*
X91893168Y-138333997D01*
X91879167Y-138339306D01*
X91605336Y-138424635D01*
X91590798Y-138428219D01*
X91308659Y-138479923D01*
X91293794Y-138481728D01*
X91003736Y-138499274D01*
X90996249Y-138499500D01*
X75003751Y-138499500D01*
X74996264Y-138499274D01*
X74706205Y-138481728D01*
X74691340Y-138479923D01*
X74409201Y-138428219D01*
X74394663Y-138424635D01*
X74120832Y-138339306D01*
X74106831Y-138333997D01*
X73845263Y-138216275D01*
X73832004Y-138209316D01*
X73586540Y-138060928D01*
X73574217Y-138052422D01*
X73348426Y-137875526D01*
X73337218Y-137865596D01*
X73134403Y-137662781D01*
X73124473Y-137651573D01*
X72947573Y-137425776D01*
X72939075Y-137413465D01*
X72790680Y-137167989D01*
X72783727Y-137154743D01*
X72666000Y-136893163D01*
X72660693Y-136879167D01*
X72630437Y-136782073D01*
X72575363Y-136605335D01*
X72571780Y-136590798D01*
X72520076Y-136308659D01*
X72518271Y-136293794D01*
X72500726Y-136003736D01*
X72500500Y-135996249D01*
X72500500Y-135905513D01*
X73799500Y-135905513D01*
X73799500Y-136094486D01*
X73829059Y-136281118D01*
X73887454Y-136460836D01*
X73953674Y-136590798D01*
X73973240Y-136629199D01*
X74084310Y-136782073D01*
X74217927Y-136915690D01*
X74370801Y-137026760D01*
X74450347Y-137067290D01*
X74539163Y-137112545D01*
X74539165Y-137112545D01*
X74539168Y-137112547D01*
X74635497Y-137143846D01*
X74718881Y-137170940D01*
X74905514Y-137200500D01*
X74905519Y-137200500D01*
X75094486Y-137200500D01*
X75281118Y-137170940D01*
X75330988Y-137154736D01*
X75460832Y-137112547D01*
X75629199Y-137026760D01*
X75782073Y-136915690D01*
X75915690Y-136782073D01*
X76026760Y-136629199D01*
X76112547Y-136460832D01*
X76170940Y-136281118D01*
X76200500Y-136094486D01*
X76200500Y-135905513D01*
X89799500Y-135905513D01*
X89799500Y-136094486D01*
X89829059Y-136281118D01*
X89887454Y-136460836D01*
X89953674Y-136590798D01*
X89973240Y-136629199D01*
X90084310Y-136782073D01*
X90217927Y-136915690D01*
X90370801Y-137026760D01*
X90450347Y-137067290D01*
X90539163Y-137112545D01*
X90539165Y-137112545D01*
X90539168Y-137112547D01*
X90635497Y-137143846D01*
X90718881Y-137170940D01*
X90905514Y-137200500D01*
X90905519Y-137200500D01*
X91094486Y-137200500D01*
X91281118Y-137170940D01*
X91330988Y-137154736D01*
X91460832Y-137112547D01*
X91629199Y-137026760D01*
X91782073Y-136915690D01*
X91915690Y-136782073D01*
X92026760Y-136629199D01*
X92112547Y-136460832D01*
X92170940Y-136281118D01*
X92200500Y-136094486D01*
X92200500Y-135905513D01*
X92170940Y-135718881D01*
X92112545Y-135539163D01*
X92026759Y-135370800D01*
X91915690Y-135217927D01*
X91782073Y-135084310D01*
X91629199Y-134973240D01*
X91460836Y-134887454D01*
X91281118Y-134829059D01*
X91094486Y-134799500D01*
X91094481Y-134799500D01*
X90905519Y-134799500D01*
X90905514Y-134799500D01*
X90718881Y-134829059D01*
X90539163Y-134887454D01*
X90370800Y-134973240D01*
X90283579Y-135036610D01*
X90217927Y-135084310D01*
X90217925Y-135084312D01*
X90217924Y-135084312D01*
X90084312Y-135217924D01*
X90084312Y-135217925D01*
X90084310Y-135217927D01*
X90036610Y-135283579D01*
X89973240Y-135370800D01*
X89887454Y-135539163D01*
X89829059Y-135718881D01*
X89799500Y-135905513D01*
X76200500Y-135905513D01*
X76170940Y-135718881D01*
X76112545Y-135539163D01*
X76026759Y-135370800D01*
X75915690Y-135217927D01*
X75782073Y-135084310D01*
X75629199Y-134973240D01*
X75460836Y-134887454D01*
X75281118Y-134829059D01*
X75094486Y-134799500D01*
X75094481Y-134799500D01*
X74905519Y-134799500D01*
X74905514Y-134799500D01*
X74718881Y-134829059D01*
X74539163Y-134887454D01*
X74370800Y-134973240D01*
X74283579Y-135036610D01*
X74217927Y-135084310D01*
X74217925Y-135084312D01*
X74217924Y-135084312D01*
X74084312Y-135217924D01*
X74084312Y-135217925D01*
X74084310Y-135217927D01*
X74036610Y-135283579D01*
X73973240Y-135370800D01*
X73887454Y-135539163D01*
X73829059Y-135718881D01*
X73799500Y-135905513D01*
X72500500Y-135905513D01*
X72500500Y-125500000D01*
X73781398Y-125500000D01*
X74547030Y-125500000D01*
X74525000Y-125582213D01*
X74525000Y-125917787D01*
X74547030Y-126000000D01*
X73781398Y-126000000D01*
X73801469Y-126126726D01*
X73853760Y-126287659D01*
X73930578Y-126438423D01*
X74030038Y-126575316D01*
X74030038Y-126575317D01*
X74149682Y-126694961D01*
X74149688Y-126694966D01*
X74223580Y-126748652D01*
X74234994Y-126763454D01*
X74249962Y-126774659D01*
X74255889Y-126790551D01*
X74266246Y-126803982D01*
X74267845Y-126822606D01*
X74274379Y-126840123D01*
X74270773Y-126856697D01*
X74272225Y-126873595D01*
X74263501Y-126890126D01*
X74259528Y-126908396D01*
X74240330Y-126934040D01*
X74239619Y-126935390D01*
X74238377Y-126936651D01*
X74203669Y-126971360D01*
X74110514Y-127064515D01*
X74110513Y-127064515D01*
X74110512Y-127064516D01*
X74054566Y-127120462D01*
X74054560Y-127120470D01*
X74015007Y-127188979D01*
X74015004Y-127188984D01*
X74012186Y-127199502D01*
X73994525Y-127265413D01*
X73994525Y-127962102D01*
X74015004Y-128038529D01*
X74015005Y-128038530D01*
X74029815Y-128064183D01*
X74054562Y-128107047D01*
X74054566Y-128107052D01*
X74503052Y-128555538D01*
X74536537Y-128616861D01*
X74531553Y-128686553D01*
X74489681Y-128742486D01*
X74477372Y-128750606D01*
X74392686Y-128799500D01*
X74392683Y-128799502D01*
X74299502Y-128892683D01*
X74299500Y-128892686D01*
X74233608Y-129006812D01*
X74217778Y-129065892D01*
X74199500Y-129134108D01*
X74199500Y-129265892D01*
X74210599Y-129307314D01*
X74233608Y-129393186D01*
X74239149Y-129402783D01*
X74255622Y-129470683D01*
X74232770Y-129536710D01*
X74204649Y-129565101D01*
X74149685Y-129605035D01*
X74030038Y-129724682D01*
X74030038Y-129724683D01*
X73930578Y-129861576D01*
X73853760Y-130012340D01*
X73801469Y-130173273D01*
X73781398Y-130300000D01*
X74547030Y-130300000D01*
X74525000Y-130382213D01*
X74525000Y-130717787D01*
X74547030Y-130800000D01*
X73781398Y-130800000D01*
X73801469Y-130926726D01*
X73853760Y-131087659D01*
X73930578Y-131238423D01*
X74030038Y-131375316D01*
X74030038Y-131375317D01*
X74149682Y-131494961D01*
X74286576Y-131594421D01*
X74437340Y-131671239D01*
X74598273Y-131723530D01*
X74600000Y-131723804D01*
X74600000Y-130884618D01*
X74650446Y-130935064D01*
X74724555Y-130977851D01*
X74807213Y-131000000D01*
X74892787Y-131000000D01*
X74975445Y-130977851D01*
X75049554Y-130935064D01*
X75100000Y-130884618D01*
X75100000Y-131723803D01*
X75101726Y-131723530D01*
X75104496Y-131722630D01*
X76214500Y-131722630D01*
X76214500Y-132077369D01*
X76244684Y-132229114D01*
X76244686Y-132229122D01*
X76303897Y-132372071D01*
X76303902Y-132372080D01*
X76389861Y-132500726D01*
X76389864Y-132500730D01*
X76499269Y-132610135D01*
X76499273Y-132610138D01*
X76627919Y-132696097D01*
X76627925Y-132696100D01*
X76627926Y-132696101D01*
X76770878Y-132755314D01*
X76922630Y-132785499D01*
X76922634Y-132785500D01*
X76922635Y-132785500D01*
X77077366Y-132785500D01*
X77077367Y-132785499D01*
X77229122Y-132755314D01*
X77372074Y-132696101D01*
X77500727Y-132610138D01*
X77610138Y-132500727D01*
X77696101Y-132372074D01*
X77755314Y-132229122D01*
X77785500Y-132077365D01*
X77785500Y-132000000D01*
X77785500Y-131934108D01*
X77785500Y-131734108D01*
X77785500Y-131722635D01*
X77755314Y-131570878D01*
X77696101Y-131427926D01*
X77696100Y-131427925D01*
X77696097Y-131427919D01*
X77610138Y-131299273D01*
X77610135Y-131299269D01*
X77500730Y-131189864D01*
X77500726Y-131189861D01*
X77372080Y-131103902D01*
X77372071Y-131103897D01*
X77229122Y-131044686D01*
X77229114Y-131044684D01*
X77077369Y-131014500D01*
X77077365Y-131014500D01*
X77065892Y-131014500D01*
X77000000Y-131014500D01*
X76922635Y-131014500D01*
X76922630Y-131014500D01*
X76770885Y-131044684D01*
X76770877Y-131044686D01*
X76627928Y-131103897D01*
X76627919Y-131103902D01*
X76499273Y-131189861D01*
X76499269Y-131189864D01*
X76389864Y-131299269D01*
X76389861Y-131299273D01*
X76303902Y-131427919D01*
X76303897Y-131427928D01*
X76244686Y-131570877D01*
X76244684Y-131570885D01*
X76214500Y-131722630D01*
X75104496Y-131722630D01*
X75262659Y-131671239D01*
X75390586Y-131606058D01*
X75413423Y-131594421D01*
X75550316Y-131494961D01*
X75550317Y-131494961D01*
X75669961Y-131375317D01*
X75669961Y-131375316D01*
X75769421Y-131238423D01*
X75846239Y-131087659D01*
X75898530Y-130926726D01*
X75918602Y-130800000D01*
X75152970Y-130800000D01*
X75175000Y-130717787D01*
X75175000Y-130382213D01*
X75152970Y-130300000D01*
X75918602Y-130300000D01*
X78081398Y-130300000D01*
X78847030Y-130300000D01*
X78825000Y-130382213D01*
X78825000Y-130717787D01*
X78847030Y-130800000D01*
X78081398Y-130800000D01*
X78101469Y-130926726D01*
X78153760Y-131087659D01*
X78230578Y-131238423D01*
X78330038Y-131375316D01*
X78330038Y-131375317D01*
X78449682Y-131494961D01*
X78586576Y-131594421D01*
X78737340Y-131671239D01*
X78898273Y-131723530D01*
X78900000Y-131723804D01*
X78900000Y-130884618D01*
X78950446Y-130935064D01*
X79024555Y-130977851D01*
X79107213Y-131000000D01*
X79192787Y-131000000D01*
X79275445Y-130977851D01*
X79349554Y-130935064D01*
X79400000Y-130884618D01*
X79400000Y-131723804D01*
X79401726Y-131723530D01*
X79562659Y-131671239D01*
X79713423Y-131594421D01*
X79850316Y-131494961D01*
X79850317Y-131494961D01*
X79969961Y-131375317D01*
X79969961Y-131375316D01*
X80069421Y-131238423D01*
X80146239Y-131087659D01*
X80198530Y-130926726D01*
X80218602Y-130800000D01*
X79452970Y-130800000D01*
X79475000Y-130717787D01*
X79475000Y-130382213D01*
X79452970Y-130300000D01*
X80218602Y-130300000D01*
X80198530Y-130173273D01*
X80146239Y-130012340D01*
X80069421Y-129861576D01*
X79969961Y-129724683D01*
X79969961Y-129724682D01*
X79850317Y-129605038D01*
X79713423Y-129505578D01*
X79577784Y-129436466D01*
X79577784Y-129436465D01*
X79576891Y-129436011D01*
X79526089Y-129388043D01*
X79512725Y-129334108D01*
X82599500Y-129334108D01*
X82599500Y-129465891D01*
X82633608Y-129593187D01*
X82666554Y-129650250D01*
X82699500Y-129707314D01*
X82792686Y-129800500D01*
X82906814Y-129866392D01*
X83034108Y-129900500D01*
X83034110Y-129900500D01*
X83165890Y-129900500D01*
X83165892Y-129900500D01*
X83293186Y-129866392D01*
X83407314Y-129800500D01*
X83500500Y-129707314D01*
X83566392Y-129593186D01*
X83600500Y-129465892D01*
X83600500Y-129334108D01*
X83566392Y-129206814D01*
X83500500Y-129092686D01*
X83407314Y-128999500D01*
X83350250Y-128966554D01*
X83293187Y-128933608D01*
X83222291Y-128914612D01*
X83165892Y-128899500D01*
X83034108Y-128899500D01*
X82906812Y-128933608D01*
X82792686Y-128999500D01*
X82792683Y-128999502D01*
X82699502Y-129092683D01*
X82699500Y-129092686D01*
X82633608Y-129206812D01*
X82599500Y-129334108D01*
X79512725Y-129334108D01*
X79509285Y-129320224D01*
X79525784Y-129263520D01*
X79566392Y-129193186D01*
X79600500Y-129065892D01*
X79600500Y-128934108D01*
X79566392Y-128806814D01*
X79500500Y-128692686D01*
X79407314Y-128599500D01*
X79331170Y-128555538D01*
X79293187Y-128533608D01*
X79229539Y-128516554D01*
X79165892Y-128499500D01*
X79034108Y-128499500D01*
X78906812Y-128533608D01*
X78792686Y-128599500D01*
X78792683Y-128599502D01*
X78699502Y-128692683D01*
X78699500Y-128692686D01*
X78633608Y-128806812D01*
X78617969Y-128865179D01*
X78599500Y-128934108D01*
X78599500Y-129065892D01*
X78617778Y-129134108D01*
X78633609Y-129193188D01*
X78633609Y-129193189D01*
X78696945Y-129302890D01*
X78713418Y-129370790D01*
X78690565Y-129436817D01*
X78645854Y-129475374D01*
X78586578Y-129505576D01*
X78449683Y-129605038D01*
X78449682Y-129605038D01*
X78330038Y-129724682D01*
X78330038Y-129724683D01*
X78230578Y-129861576D01*
X78153760Y-130012340D01*
X78101469Y-130173273D01*
X78081398Y-130300000D01*
X75918602Y-130300000D01*
X75898530Y-130173273D01*
X75846239Y-130012340D01*
X75769421Y-129861576D01*
X75669961Y-129724683D01*
X75669961Y-129724682D01*
X75550317Y-129605038D01*
X75413423Y-129505578D01*
X75259037Y-129426914D01*
X75208241Y-129378939D01*
X75191446Y-129311118D01*
X75195556Y-129284339D01*
X75200500Y-129265892D01*
X75200500Y-129134108D01*
X75179059Y-129054088D01*
X75180722Y-128984243D01*
X75219884Y-128926380D01*
X75236829Y-128914615D01*
X75322450Y-128865182D01*
X75415636Y-128771996D01*
X75481528Y-128657868D01*
X75515636Y-128530574D01*
X75515636Y-128398790D01*
X75481528Y-128271496D01*
X75415636Y-128157368D01*
X75342815Y-128084547D01*
X75309330Y-128023224D01*
X75314314Y-127953532D01*
X75323105Y-127934871D01*
X75362417Y-127866783D01*
X75396525Y-127739489D01*
X75396525Y-127607705D01*
X75362417Y-127480411D01*
X75362414Y-127480406D01*
X75359305Y-127472897D01*
X75361098Y-127472154D01*
X75347124Y-127414556D01*
X75369975Y-127348529D01*
X75424896Y-127305337D01*
X75438890Y-127300679D01*
X75439558Y-127300500D01*
X75439562Y-127300500D01*
X75515989Y-127280021D01*
X75584511Y-127240460D01*
X75640460Y-127184511D01*
X76340460Y-126484511D01*
X76350921Y-126466392D01*
X76380021Y-126415989D01*
X76400500Y-126339562D01*
X76400500Y-125500000D01*
X78081398Y-125500000D01*
X78847030Y-125500000D01*
X78825000Y-125582213D01*
X78825000Y-125917787D01*
X78847030Y-126000000D01*
X78081398Y-126000000D01*
X78101469Y-126126726D01*
X78153760Y-126287659D01*
X78230578Y-126438423D01*
X78330038Y-126575316D01*
X78330038Y-126575317D01*
X78449682Y-126694961D01*
X78586576Y-126794421D01*
X78737340Y-126871239D01*
X78813150Y-126895872D01*
X78870826Y-126935310D01*
X78898024Y-126999668D01*
X78886109Y-127068515D01*
X78838865Y-127119990D01*
X78814294Y-127130444D01*
X78814318Y-127130500D01*
X78808505Y-127132907D01*
X78806934Y-127133575D01*
X78806889Y-127133587D01*
X78806813Y-127133608D01*
X78692686Y-127199500D01*
X78692683Y-127199502D01*
X78599502Y-127292683D01*
X78599500Y-127292686D01*
X78533608Y-127406812D01*
X78499500Y-127534108D01*
X78499500Y-127665891D01*
X78533608Y-127793187D01*
X78560902Y-127840460D01*
X78599500Y-127907314D01*
X78692686Y-128000500D01*
X78806814Y-128066392D01*
X78934108Y-128100500D01*
X78934110Y-128100500D01*
X79065890Y-128100500D01*
X79065892Y-128100500D01*
X79193186Y-128066392D01*
X79307314Y-128000500D01*
X79370995Y-127936819D01*
X79432318Y-127903334D01*
X79458676Y-127900500D01*
X80502060Y-127900500D01*
X80502062Y-127900500D01*
X80578489Y-127880021D01*
X80647011Y-127840460D01*
X80702960Y-127784511D01*
X81053363Y-127434108D01*
X83199500Y-127434108D01*
X83199500Y-127565891D01*
X83233608Y-127693187D01*
X83260341Y-127739489D01*
X83299500Y-127807314D01*
X83392686Y-127900500D01*
X83484540Y-127953532D01*
X83499383Y-127962102D01*
X83506814Y-127966392D01*
X83634108Y-128000500D01*
X83634110Y-128000500D01*
X83765890Y-128000500D01*
X83765892Y-128000500D01*
X83893186Y-127966392D01*
X84007314Y-127900500D01*
X84100500Y-127807314D01*
X84166392Y-127693186D01*
X84200500Y-127565892D01*
X84200500Y-127434108D01*
X84799500Y-127434108D01*
X84799500Y-127565891D01*
X84833608Y-127693187D01*
X84860341Y-127739489D01*
X84899500Y-127807314D01*
X84992686Y-127900500D01*
X85084540Y-127953532D01*
X85099383Y-127962102D01*
X85106814Y-127966392D01*
X85234108Y-128000500D01*
X85234110Y-128000500D01*
X85365890Y-128000500D01*
X85365892Y-128000500D01*
X85493186Y-127966392D01*
X85607314Y-127900500D01*
X85700500Y-127807314D01*
X85766392Y-127693186D01*
X85800500Y-127565892D01*
X85800500Y-127434108D01*
X85783903Y-127372167D01*
X86285638Y-127372167D01*
X86312557Y-127507493D01*
X86312560Y-127507503D01*
X86365361Y-127634978D01*
X86442026Y-127749716D01*
X86539593Y-127847283D01*
X86654331Y-127923948D01*
X86756802Y-127966392D01*
X86781811Y-127976751D01*
X86781815Y-127976751D01*
X86781816Y-127976752D01*
X86917142Y-128003671D01*
X86917145Y-128003671D01*
X87055135Y-128003671D01*
X87146179Y-127985560D01*
X87190467Y-127976751D01*
X87286872Y-127936819D01*
X87317946Y-127923948D01*
X87317947Y-127923947D01*
X87317950Y-127923946D01*
X87432682Y-127847285D01*
X88144115Y-127135852D01*
X88220776Y-127021120D01*
X88273581Y-126893637D01*
X88287710Y-126822606D01*
X88300501Y-126758305D01*
X88300501Y-121831004D01*
X88273582Y-121695677D01*
X88273581Y-121695676D01*
X88273581Y-121695672D01*
X88269410Y-121685603D01*
X88220779Y-121568195D01*
X88220772Y-121568182D01*
X88144115Y-121453458D01*
X88144112Y-121453454D01*
X88046546Y-121355888D01*
X88046542Y-121355885D01*
X87931818Y-121279228D01*
X87931805Y-121279221D01*
X87804333Y-121226421D01*
X87804323Y-121226418D01*
X87668996Y-121199500D01*
X87668994Y-121199500D01*
X87531008Y-121199500D01*
X87531006Y-121199500D01*
X87395678Y-121226418D01*
X87395668Y-121226421D01*
X87268196Y-121279221D01*
X87268183Y-121279228D01*
X87153459Y-121355885D01*
X87153455Y-121355888D01*
X87055889Y-121453454D01*
X87055886Y-121453458D01*
X86979229Y-121568182D01*
X86979222Y-121568195D01*
X86926422Y-121695667D01*
X86926419Y-121695677D01*
X86899501Y-121831004D01*
X86899501Y-126347789D01*
X86879816Y-126414828D01*
X86863182Y-126435470D01*
X86442027Y-126856624D01*
X86442026Y-126856625D01*
X86365361Y-126971363D01*
X86312560Y-127098838D01*
X86312557Y-127098848D01*
X86285639Y-127234174D01*
X86285639Y-127234177D01*
X86285639Y-127372165D01*
X86285639Y-127372167D01*
X86285638Y-127372167D01*
X85783903Y-127372167D01*
X85766392Y-127306814D01*
X85766390Y-127306810D01*
X85756735Y-127290087D01*
X85756734Y-127290086D01*
X85750804Y-127279815D01*
X85700500Y-127192686D01*
X85607314Y-127099500D01*
X85546718Y-127064515D01*
X85493187Y-127033608D01*
X85429539Y-127016554D01*
X85365892Y-126999500D01*
X85234108Y-126999500D01*
X85106812Y-127033608D01*
X84992686Y-127099500D01*
X84992683Y-127099502D01*
X84899502Y-127192683D01*
X84899500Y-127192686D01*
X84833608Y-127306812D01*
X84799500Y-127434108D01*
X84200500Y-127434108D01*
X84166392Y-127306814D01*
X84100500Y-127192686D01*
X84007314Y-127099500D01*
X83946718Y-127064515D01*
X83893187Y-127033608D01*
X83829539Y-127016554D01*
X83765892Y-126999500D01*
X83634108Y-126999500D01*
X83506812Y-127033608D01*
X83392686Y-127099500D01*
X83392683Y-127099502D01*
X83299502Y-127192683D01*
X83299500Y-127192686D01*
X83233608Y-127306812D01*
X83199500Y-127434108D01*
X81053363Y-127434108D01*
X81740460Y-126747011D01*
X81780022Y-126678488D01*
X81800500Y-126602062D01*
X81800500Y-126522938D01*
X81800500Y-126283676D01*
X81820185Y-126216637D01*
X81836819Y-126195995D01*
X81857285Y-126175529D01*
X81900500Y-126132314D01*
X81966392Y-126018186D01*
X81988920Y-125934108D01*
X82999500Y-125934108D01*
X82999500Y-126065891D01*
X83033608Y-126193187D01*
X83054536Y-126229434D01*
X83099500Y-126307314D01*
X83192686Y-126400500D01*
X83284841Y-126453706D01*
X83306810Y-126466390D01*
X83306814Y-126466392D01*
X83434108Y-126500500D01*
X83434110Y-126500500D01*
X83565890Y-126500500D01*
X83565892Y-126500500D01*
X83693186Y-126466392D01*
X83807314Y-126400500D01*
X83900500Y-126307314D01*
X83966392Y-126193186D01*
X84000500Y-126065892D01*
X84000500Y-125934108D01*
X84999500Y-125934108D01*
X84999500Y-126065891D01*
X85033608Y-126193187D01*
X85054536Y-126229434D01*
X85099500Y-126307314D01*
X85192686Y-126400500D01*
X85284841Y-126453706D01*
X85306810Y-126466390D01*
X85306814Y-126466392D01*
X85434108Y-126500500D01*
X85434110Y-126500500D01*
X85565890Y-126500500D01*
X85565892Y-126500500D01*
X85693186Y-126466392D01*
X85807314Y-126400500D01*
X85900500Y-126307314D01*
X85966392Y-126193186D01*
X86000500Y-126065892D01*
X86000500Y-125934108D01*
X85966392Y-125806814D01*
X85900500Y-125692686D01*
X85807314Y-125599500D01*
X85750250Y-125566554D01*
X85693187Y-125533608D01*
X85629539Y-125516554D01*
X85565892Y-125499500D01*
X85434108Y-125499500D01*
X85306812Y-125533608D01*
X85192686Y-125599500D01*
X85192683Y-125599502D01*
X85099502Y-125692683D01*
X85099500Y-125692686D01*
X85033608Y-125806812D01*
X84999500Y-125934108D01*
X84000500Y-125934108D01*
X83966392Y-125806814D01*
X83900500Y-125692686D01*
X83807314Y-125599500D01*
X83750250Y-125566554D01*
X83693187Y-125533608D01*
X83629539Y-125516554D01*
X83565892Y-125499500D01*
X83434108Y-125499500D01*
X83306812Y-125533608D01*
X83192686Y-125599500D01*
X83192683Y-125599502D01*
X83099502Y-125692683D01*
X83099500Y-125692686D01*
X83033608Y-125806812D01*
X82999500Y-125934108D01*
X81988920Y-125934108D01*
X82000500Y-125890892D01*
X82000500Y-125759108D01*
X81966392Y-125631814D01*
X81900500Y-125517686D01*
X81807314Y-125424500D01*
X81750250Y-125391554D01*
X81693187Y-125358608D01*
X81629539Y-125341554D01*
X81565892Y-125324500D01*
X81434108Y-125324500D01*
X81306812Y-125358608D01*
X81192686Y-125424500D01*
X81192683Y-125424502D01*
X81099502Y-125517683D01*
X81099500Y-125517686D01*
X81033608Y-125631812D01*
X80999500Y-125759108D01*
X80999500Y-125890892D01*
X81011080Y-125934108D01*
X81033608Y-126018187D01*
X81061151Y-126065892D01*
X81099500Y-126132314D01*
X81099502Y-126132316D01*
X81163181Y-126195995D01*
X81177884Y-126222922D01*
X81194477Y-126248741D01*
X81195368Y-126254941D01*
X81196666Y-126257318D01*
X81199500Y-126283676D01*
X81199500Y-126386667D01*
X81179815Y-126453706D01*
X81163181Y-126474348D01*
X80374348Y-127263181D01*
X80313025Y-127296666D01*
X80286667Y-127299500D01*
X80073573Y-127299500D01*
X80006534Y-127279815D01*
X79960779Y-127227011D01*
X79950835Y-127157853D01*
X79966186Y-127113500D01*
X79985782Y-127079557D01*
X79985784Y-127079554D01*
X80019892Y-126952260D01*
X80019892Y-126820476D01*
X79985784Y-126693182D01*
X79981124Y-126685111D01*
X79964650Y-126617214D01*
X79987500Y-126551186D01*
X79988193Y-126550224D01*
X80069419Y-126438427D01*
X80146239Y-126287659D01*
X80198530Y-126126726D01*
X80218602Y-126000000D01*
X79452970Y-126000000D01*
X79475000Y-125917787D01*
X79475000Y-125582213D01*
X79452970Y-125500000D01*
X80218602Y-125500000D01*
X80198530Y-125373273D01*
X80146239Y-125212340D01*
X80069421Y-125061576D01*
X79969961Y-124924683D01*
X79969961Y-124924682D01*
X79850317Y-124805038D01*
X79713423Y-124705578D01*
X79562661Y-124628760D01*
X79401726Y-124576469D01*
X79400000Y-124576194D01*
X79400000Y-125415382D01*
X79349554Y-125364936D01*
X79275445Y-125322149D01*
X79192787Y-125300000D01*
X79107213Y-125300000D01*
X79024555Y-125322149D01*
X78950446Y-125364936D01*
X78900000Y-125415382D01*
X78900000Y-124576195D01*
X78899999Y-124576194D01*
X78898273Y-124576469D01*
X78737338Y-124628760D01*
X78586576Y-124705578D01*
X78449683Y-124805038D01*
X78449682Y-124805038D01*
X78330038Y-124924682D01*
X78330038Y-124924683D01*
X78230578Y-125061576D01*
X78153760Y-125212340D01*
X78101469Y-125373273D01*
X78081398Y-125500000D01*
X76400500Y-125500000D01*
X76400500Y-124786462D01*
X76420185Y-124719423D01*
X76472989Y-124673668D01*
X76542147Y-124663724D01*
X76605703Y-124692749D01*
X76612181Y-124698781D01*
X76701896Y-124788496D01*
X76812604Y-124852414D01*
X76936083Y-124885500D01*
X76936085Y-124885500D01*
X77063915Y-124885500D01*
X77063917Y-124885500D01*
X77187396Y-124852414D01*
X77298104Y-124788496D01*
X77388496Y-124698104D01*
X77452414Y-124587396D01*
X77485500Y-124463917D01*
X77485500Y-124336083D01*
X77452414Y-124212604D01*
X77388496Y-124101896D01*
X77298104Y-124011504D01*
X77187396Y-123947586D01*
X77063917Y-123914500D01*
X76936083Y-123914500D01*
X76812603Y-123947586D01*
X76701896Y-124011504D01*
X76701893Y-124011506D01*
X76611506Y-124101893D01*
X76611504Y-124101896D01*
X76547586Y-124212603D01*
X76514500Y-124336083D01*
X76514500Y-124463918D01*
X76523058Y-124495858D01*
X76521394Y-124565708D01*
X76482231Y-124623570D01*
X76418002Y-124651073D01*
X76349100Y-124639486D01*
X76315602Y-124615631D01*
X75811818Y-124111847D01*
X75778333Y-124050524D01*
X75775499Y-124024174D01*
X75775499Y-123593482D01*
X75760646Y-123499696D01*
X75703050Y-123386658D01*
X75703046Y-123386654D01*
X75703045Y-123386652D01*
X75613347Y-123296954D01*
X75613343Y-123296951D01*
X75613342Y-123296950D01*
X75611724Y-123296126D01*
X75564386Y-123272005D01*
X75513590Y-123224030D01*
X75496796Y-123156209D01*
X75519334Y-123090074D01*
X75574050Y-123046623D01*
X75583792Y-123043135D01*
X75664399Y-123018017D01*
X75809877Y-122930072D01*
X75930072Y-122809877D01*
X76018019Y-122664395D01*
X76068590Y-122502106D01*
X76075000Y-122431572D01*
X76075000Y-122425000D01*
X74125001Y-122425000D01*
X74125001Y-122431582D01*
X74131408Y-122502102D01*
X74131409Y-122502107D01*
X74181981Y-122664396D01*
X74269927Y-122809877D01*
X74390122Y-122930072D01*
X74535600Y-123018017D01*
X74616208Y-123043135D01*
X74674356Y-123081873D01*
X74702330Y-123145898D01*
X74691249Y-123214883D01*
X74644630Y-123266926D01*
X74635614Y-123272005D01*
X74586659Y-123296949D01*
X74586652Y-123296954D01*
X74496954Y-123386652D01*
X74496951Y-123386657D01*
X74439352Y-123499698D01*
X74424500Y-123593475D01*
X74424500Y-124056517D01*
X74435292Y-124124657D01*
X74439354Y-124150304D01*
X74496950Y-124263342D01*
X74496952Y-124263344D01*
X74496954Y-124263347D01*
X74586652Y-124353045D01*
X74586655Y-124353047D01*
X74586658Y-124353050D01*
X74592191Y-124355869D01*
X74642987Y-124403840D01*
X74659784Y-124471661D01*
X74637249Y-124537796D01*
X74582535Y-124581250D01*
X74574217Y-124584285D01*
X74437338Y-124628760D01*
X74286576Y-124705578D01*
X74149683Y-124805038D01*
X74149682Y-124805038D01*
X74030038Y-124924682D01*
X74030038Y-124924683D01*
X73930578Y-125061576D01*
X73853760Y-125212340D01*
X73801469Y-125373273D01*
X73781398Y-125500000D01*
X72500500Y-125500000D01*
X72500500Y-121918427D01*
X74125000Y-121918427D01*
X74125000Y-121925000D01*
X74850000Y-121925000D01*
X75350000Y-121925000D01*
X76074999Y-121925000D01*
X76074999Y-121918417D01*
X76068591Y-121847897D01*
X76068590Y-121847892D01*
X76018018Y-121685603D01*
X75930072Y-121540122D01*
X75809877Y-121419927D01*
X75664395Y-121331980D01*
X75664396Y-121331980D01*
X75502105Y-121281409D01*
X75502106Y-121281409D01*
X75431572Y-121275000D01*
X75350000Y-121275000D01*
X75350000Y-121925000D01*
X74850000Y-121925000D01*
X74850000Y-121275000D01*
X74849999Y-121274999D01*
X74768417Y-121275000D01*
X74697897Y-121281408D01*
X74697892Y-121281409D01*
X74535603Y-121331981D01*
X74390122Y-121419927D01*
X74269927Y-121540122D01*
X74181980Y-121685604D01*
X74131409Y-121847893D01*
X74125000Y-121918427D01*
X72500500Y-121918427D01*
X72500500Y-118343475D01*
X79924500Y-118343475D01*
X79924500Y-118806517D01*
X79932229Y-118855315D01*
X79939354Y-118900304D01*
X79996950Y-119013342D01*
X79996952Y-119013344D01*
X79996954Y-119013347D01*
X80086652Y-119103045D01*
X80086654Y-119103046D01*
X80086658Y-119103050D01*
X80183389Y-119152337D01*
X80199698Y-119160647D01*
X80293475Y-119175499D01*
X80293481Y-119175500D01*
X80906518Y-119175499D01*
X81000304Y-119160646D01*
X81113342Y-119103050D01*
X81113342Y-119103049D01*
X81119537Y-119099893D01*
X81188206Y-119086996D01*
X81252946Y-119113272D01*
X81284061Y-119152706D01*
X81284661Y-119152337D01*
X81287855Y-119157515D01*
X81288213Y-119157969D01*
X81288455Y-119158488D01*
X81377424Y-119302728D01*
X81377427Y-119302732D01*
X81497266Y-119422571D01*
X81597840Y-119484606D01*
X81644564Y-119536554D01*
X81655787Y-119605517D01*
X81641455Y-119649792D01*
X81632939Y-119665312D01*
X81601472Y-119696780D01*
X81540281Y-119816874D01*
X81536425Y-119841219D01*
X81526040Y-119860147D01*
X81515961Y-119870185D01*
X81509869Y-119883035D01*
X81491701Y-119894346D01*
X81476535Y-119909452D01*
X81462631Y-119912447D01*
X81450557Y-119919965D01*
X81417328Y-119924500D01*
X81349272Y-119924500D01*
X81282233Y-119904815D01*
X81238788Y-119856796D01*
X81206120Y-119792683D01*
X81203050Y-119786658D01*
X81203047Y-119786655D01*
X81203045Y-119786652D01*
X81113347Y-119696954D01*
X81113344Y-119696952D01*
X81113342Y-119696950D01*
X81020790Y-119649792D01*
X81000301Y-119639352D01*
X80906524Y-119624500D01*
X80293482Y-119624500D01*
X80212519Y-119637323D01*
X80199696Y-119639354D01*
X80086658Y-119696950D01*
X80086657Y-119696951D01*
X80086652Y-119696954D01*
X79996954Y-119786652D01*
X79996951Y-119786657D01*
X79996950Y-119786658D01*
X79993880Y-119792684D01*
X79939352Y-119899698D01*
X79924500Y-119993475D01*
X79924500Y-120456517D01*
X79931428Y-120500257D01*
X79939354Y-120550304D01*
X79996950Y-120663342D01*
X79996952Y-120663344D01*
X79996954Y-120663347D01*
X80086652Y-120753045D01*
X80086654Y-120753046D01*
X80086658Y-120753050D01*
X80197877Y-120809719D01*
X80199698Y-120810647D01*
X80293475Y-120825499D01*
X80293481Y-120825500D01*
X80906518Y-120825499D01*
X81000304Y-120810646D01*
X81113342Y-120753050D01*
X81203050Y-120663342D01*
X81238787Y-120593203D01*
X81249235Y-120582140D01*
X81255558Y-120568297D01*
X81272738Y-120557255D01*
X81286761Y-120542409D01*
X81302440Y-120538167D01*
X81314336Y-120530523D01*
X81349271Y-120525500D01*
X81460408Y-120525500D01*
X81527447Y-120545185D01*
X81570892Y-120593205D01*
X81601469Y-120653216D01*
X81601476Y-120653225D01*
X81696774Y-120748523D01*
X81696778Y-120748526D01*
X81696780Y-120748528D01*
X81816874Y-120809719D01*
X81816876Y-120809719D01*
X81816878Y-120809720D01*
X81916507Y-120825500D01*
X81916512Y-120825500D01*
X82483493Y-120825500D01*
X82583121Y-120809720D01*
X82583121Y-120809719D01*
X82583126Y-120809719D01*
X82703220Y-120748528D01*
X82798528Y-120653220D01*
X82854584Y-120543203D01*
X82902558Y-120492409D01*
X82965068Y-120475500D01*
X83318013Y-120475500D01*
X83385052Y-120495185D01*
X83392266Y-120500257D01*
X83392684Y-120500498D01*
X83392686Y-120500500D01*
X83506814Y-120566392D01*
X83634108Y-120600500D01*
X83634110Y-120600500D01*
X83765890Y-120600500D01*
X83765892Y-120600500D01*
X83893186Y-120566392D01*
X84007314Y-120500500D01*
X84100500Y-120407314D01*
X84166392Y-120293186D01*
X84200500Y-120165892D01*
X84200500Y-120034108D01*
X84166392Y-119906814D01*
X84100500Y-119792686D01*
X84007314Y-119699500D01*
X83950250Y-119666554D01*
X83893187Y-119633608D01*
X83829349Y-119616503D01*
X83765892Y-119599500D01*
X83634108Y-119599500D01*
X83506812Y-119633608D01*
X83392686Y-119699500D01*
X83392683Y-119699502D01*
X83299501Y-119792684D01*
X83299497Y-119792689D01*
X83288060Y-119812500D01*
X83279372Y-119820783D01*
X83274386Y-119831703D01*
X83254554Y-119844447D01*
X83237493Y-119860716D01*
X83224236Y-119863931D01*
X83215608Y-119869477D01*
X83180673Y-119874500D01*
X82965068Y-119874500D01*
X82898029Y-119854815D01*
X82854583Y-119806795D01*
X82798528Y-119696780D01*
X82798524Y-119696776D01*
X82798523Y-119696774D01*
X82779575Y-119677826D01*
X82746090Y-119616503D01*
X82751074Y-119546811D01*
X82792946Y-119490878D01*
X82802160Y-119484606D01*
X82902731Y-119422573D01*
X83022572Y-119302732D01*
X83022575Y-119302728D01*
X83111542Y-119158492D01*
X83111547Y-119158481D01*
X83164855Y-118997606D01*
X83174999Y-118898322D01*
X83175000Y-118898309D01*
X83175000Y-118875000D01*
X82324000Y-118875000D01*
X82256961Y-118855315D01*
X82211206Y-118802511D01*
X82200000Y-118751000D01*
X82200000Y-118625000D01*
X82074000Y-118625000D01*
X82006961Y-118605315D01*
X81961206Y-118552511D01*
X81950000Y-118501000D01*
X81950000Y-118375000D01*
X82450000Y-118375000D01*
X83174999Y-118375000D01*
X83174999Y-118351692D01*
X83174998Y-118351677D01*
X83164855Y-118252392D01*
X83111547Y-118091518D01*
X83111542Y-118091507D01*
X83022575Y-117947271D01*
X83022572Y-117947267D01*
X82902732Y-117827427D01*
X82902728Y-117827424D01*
X82758492Y-117738457D01*
X82758481Y-117738452D01*
X82597606Y-117685144D01*
X82498322Y-117675000D01*
X82450000Y-117675000D01*
X82450000Y-118375000D01*
X81950000Y-118375000D01*
X81950000Y-117675000D01*
X81949999Y-117674999D01*
X81901693Y-117675000D01*
X81901675Y-117675001D01*
X81802392Y-117685144D01*
X81641518Y-117738452D01*
X81641507Y-117738457D01*
X81497271Y-117827424D01*
X81497267Y-117827427D01*
X81377428Y-117947266D01*
X81320978Y-118038784D01*
X81269029Y-118085507D01*
X81200066Y-118096728D01*
X81155234Y-118082088D01*
X81140043Y-118073651D01*
X81113342Y-118046950D01*
X81000304Y-117989354D01*
X80983456Y-117986685D01*
X80964294Y-117976043D01*
X80954530Y-117966138D01*
X80941963Y-117960180D01*
X80930486Y-117941746D01*
X80915245Y-117926285D01*
X80912386Y-117912675D01*
X80905034Y-117900866D01*
X80900500Y-117867640D01*
X80900500Y-117540539D01*
X80917112Y-117478540D01*
X80966392Y-117393186D01*
X81000500Y-117265892D01*
X81000500Y-117134108D01*
X80966392Y-117006814D01*
X80900500Y-116892686D01*
X80807314Y-116799500D01*
X80750250Y-116766554D01*
X80693187Y-116733608D01*
X80629539Y-116716554D01*
X80565892Y-116699500D01*
X80434108Y-116699500D01*
X80306812Y-116733608D01*
X80192686Y-116799500D01*
X80192683Y-116799502D01*
X80099502Y-116892683D01*
X80099500Y-116892686D01*
X80033608Y-117006812D01*
X79999500Y-117134108D01*
X79999500Y-117265891D01*
X80033608Y-117393187D01*
X80066554Y-117450250D01*
X80099500Y-117507314D01*
X80192686Y-117600500D01*
X80237500Y-117626373D01*
X80245783Y-117635060D01*
X80256703Y-117640047D01*
X80269447Y-117659878D01*
X80285716Y-117676940D01*
X80288931Y-117690196D01*
X80294477Y-117698825D01*
X80299500Y-117733760D01*
X80299500Y-117867640D01*
X80279815Y-117934679D01*
X80227011Y-117980434D01*
X80208842Y-117985911D01*
X80208981Y-117986337D01*
X80199699Y-117989352D01*
X80144297Y-118017580D01*
X80086658Y-118046950D01*
X80086657Y-118046951D01*
X80086652Y-118046954D01*
X79996954Y-118136652D01*
X79996951Y-118136657D01*
X79939352Y-118249698D01*
X79924500Y-118343475D01*
X72500500Y-118343475D01*
X72500500Y-91593475D01*
X74124500Y-91593475D01*
X74124500Y-92056517D01*
X74134899Y-92122173D01*
X74139354Y-92150304D01*
X74196950Y-92263342D01*
X74196952Y-92263344D01*
X74196954Y-92263347D01*
X74286652Y-92353045D01*
X74286654Y-92353046D01*
X74286658Y-92353050D01*
X74399694Y-92410645D01*
X74399698Y-92410647D01*
X74493475Y-92425499D01*
X74493481Y-92425500D01*
X74550500Y-92425499D01*
X74617538Y-92445182D01*
X74663294Y-92497986D01*
X74674500Y-92549499D01*
X74674500Y-112857147D01*
X74674500Y-112942853D01*
X74685591Y-112984246D01*
X74696682Y-113025640D01*
X74716421Y-113059827D01*
X74739535Y-113099862D01*
X74739537Y-113099864D01*
X74763181Y-113123508D01*
X74796666Y-113184831D01*
X74799500Y-113211189D01*
X74799500Y-113265891D01*
X74833608Y-113393187D01*
X74841766Y-113407316D01*
X74899500Y-113507314D01*
X74992686Y-113600500D01*
X75106814Y-113666392D01*
X75234108Y-113700500D01*
X75234110Y-113700500D01*
X75365890Y-113700500D01*
X75365892Y-113700500D01*
X75493186Y-113666392D01*
X75607314Y-113600500D01*
X75700500Y-113507314D01*
X75766392Y-113393186D01*
X75800500Y-113265892D01*
X75800500Y-113134108D01*
X75766392Y-113006814D01*
X75700500Y-112892686D01*
X75607314Y-112799500D01*
X75493186Y-112733608D01*
X75417406Y-112713303D01*
X75357746Y-112676937D01*
X75327217Y-112614090D01*
X75325500Y-112593528D01*
X75325500Y-92392254D01*
X75345185Y-92325215D01*
X75361820Y-92304572D01*
X75403046Y-92263346D01*
X75403050Y-92263342D01*
X75460646Y-92150304D01*
X75460646Y-92150302D01*
X75460647Y-92150301D01*
X75474116Y-92065255D01*
X75475500Y-92056519D01*
X75475499Y-91593482D01*
X75475498Y-91593475D01*
X75724500Y-91593475D01*
X75724500Y-92056517D01*
X75734899Y-92122173D01*
X75739354Y-92150304D01*
X75796950Y-92263342D01*
X75796952Y-92263344D01*
X75796954Y-92263347D01*
X75886652Y-92353045D01*
X75886654Y-92353046D01*
X75886658Y-92353050D01*
X75999696Y-92410646D01*
X75999697Y-92410646D01*
X75999699Y-92410647D01*
X76069897Y-92421765D01*
X76133032Y-92451694D01*
X76169964Y-92511005D01*
X76174500Y-92544238D01*
X76174500Y-111942852D01*
X76196682Y-112025640D01*
X76218108Y-112062750D01*
X76239535Y-112099862D01*
X76753763Y-112614090D01*
X77263181Y-113123507D01*
X77296666Y-113184830D01*
X77299500Y-113211188D01*
X77299500Y-113265891D01*
X77333608Y-113393187D01*
X77341766Y-113407316D01*
X77399500Y-113507314D01*
X77492686Y-113600500D01*
X77606814Y-113666392D01*
X77734108Y-113700500D01*
X77734110Y-113700500D01*
X77865890Y-113700500D01*
X77865892Y-113700500D01*
X77993186Y-113666392D01*
X78107314Y-113600500D01*
X78200500Y-113507314D01*
X78266392Y-113393186D01*
X78300500Y-113265892D01*
X78300500Y-113134108D01*
X78266392Y-113006814D01*
X78200500Y-112892686D01*
X78107314Y-112799500D01*
X78050250Y-112766554D01*
X77993187Y-112733608D01*
X77917406Y-112713303D01*
X77865892Y-112699500D01*
X77865891Y-112699500D01*
X77811188Y-112699500D01*
X77744149Y-112679815D01*
X77723507Y-112663181D01*
X76861819Y-111801492D01*
X76828334Y-111740169D01*
X76825500Y-111713811D01*
X76825500Y-92473795D01*
X76845185Y-92406756D01*
X76893207Y-92363309D01*
X76913342Y-92353050D01*
X77003050Y-92263342D01*
X77060646Y-92150304D01*
X77060646Y-92150302D01*
X77060647Y-92150301D01*
X77074116Y-92065255D01*
X77075500Y-92056519D01*
X77075499Y-91593482D01*
X77075498Y-91593475D01*
X77324500Y-91593475D01*
X77324500Y-92056517D01*
X77334899Y-92122173D01*
X77339354Y-92150304D01*
X77396950Y-92263342D01*
X77396952Y-92263344D01*
X77396954Y-92263347D01*
X77486652Y-92353045D01*
X77486656Y-92353048D01*
X77486658Y-92353050D01*
X77599696Y-92410646D01*
X77599699Y-92410646D01*
X77606795Y-92414262D01*
X77657591Y-92462236D01*
X77674500Y-92524747D01*
X77674500Y-110942852D01*
X77696682Y-111025640D01*
X77718108Y-111062750D01*
X77739535Y-111099862D01*
X77739537Y-111099864D01*
X79763181Y-113123508D01*
X79796666Y-113184831D01*
X79799500Y-113211189D01*
X79799500Y-113265891D01*
X79833608Y-113393187D01*
X79841766Y-113407316D01*
X79899500Y-113507314D01*
X79992686Y-113600500D01*
X80106814Y-113666392D01*
X80234108Y-113700500D01*
X80234110Y-113700500D01*
X80365890Y-113700500D01*
X80365892Y-113700500D01*
X80493186Y-113666392D01*
X80607314Y-113600500D01*
X80700500Y-113507314D01*
X80766392Y-113393186D01*
X80800500Y-113265892D01*
X80800500Y-113134108D01*
X80766392Y-113006814D01*
X80700500Y-112892686D01*
X80607314Y-112799500D01*
X80550250Y-112766554D01*
X80493187Y-112733608D01*
X80417406Y-112713303D01*
X80365892Y-112699500D01*
X80365891Y-112699500D01*
X80311189Y-112699500D01*
X80244150Y-112679815D01*
X80223508Y-112663181D01*
X78361819Y-110801492D01*
X78328334Y-110740169D01*
X78325500Y-110713811D01*
X78325500Y-92524748D01*
X78345185Y-92457709D01*
X78393205Y-92414263D01*
X78400304Y-92410646D01*
X78513342Y-92353050D01*
X78603050Y-92263342D01*
X78660646Y-92150304D01*
X78660646Y-92150302D01*
X78660647Y-92150301D01*
X78674116Y-92065255D01*
X78675500Y-92056519D01*
X78675499Y-91593482D01*
X78675498Y-91593475D01*
X78924500Y-91593475D01*
X78924500Y-92056517D01*
X78934899Y-92122173D01*
X78939354Y-92150304D01*
X78996950Y-92263342D01*
X79086658Y-92353050D01*
X79086660Y-92353051D01*
X79106793Y-92363309D01*
X79157590Y-92411283D01*
X79174500Y-92473795D01*
X79174500Y-109742852D01*
X79196682Y-109825640D01*
X79218108Y-109862750D01*
X79239535Y-109899862D01*
X79239537Y-109899864D01*
X82363181Y-113023508D01*
X82396666Y-113084831D01*
X82399500Y-113111189D01*
X82399500Y-113165892D01*
X82404575Y-113184831D01*
X82433608Y-113293187D01*
X82454502Y-113329376D01*
X82499500Y-113407314D01*
X82592686Y-113500500D01*
X82706814Y-113566392D01*
X82834108Y-113600500D01*
X82834110Y-113600500D01*
X82965890Y-113600500D01*
X82965892Y-113600500D01*
X83093186Y-113566392D01*
X83207314Y-113500500D01*
X83300500Y-113407314D01*
X83366392Y-113293186D01*
X83400500Y-113165892D01*
X83400500Y-113034108D01*
X83366392Y-112906814D01*
X83300500Y-112792686D01*
X83207314Y-112699500D01*
X83144408Y-112663181D01*
X83093187Y-112633608D01*
X83020343Y-112614090D01*
X82965892Y-112599500D01*
X82965891Y-112599500D01*
X82911189Y-112599500D01*
X82844150Y-112579815D01*
X82823508Y-112563181D01*
X79861819Y-109601492D01*
X79828334Y-109540169D01*
X79825500Y-109513811D01*
X79825500Y-97532272D01*
X82181500Y-97532272D01*
X82181500Y-99357727D01*
X82196313Y-99470235D01*
X82196313Y-99470236D01*
X82254300Y-99610230D01*
X82254302Y-99610233D01*
X82346546Y-99730448D01*
X82346547Y-99730449D01*
X82346549Y-99730451D01*
X82382987Y-99758410D01*
X82424189Y-99814836D01*
X82431500Y-99856785D01*
X82431500Y-110463006D01*
X82431500Y-110600994D01*
X82431500Y-110600996D01*
X82431499Y-110600996D01*
X82458418Y-110736322D01*
X82458421Y-110736332D01*
X82511222Y-110863807D01*
X82587887Y-110978545D01*
X82587888Y-110978546D01*
X83763181Y-112153838D01*
X83796666Y-112215161D01*
X83799500Y-112241519D01*
X83799500Y-115931006D01*
X83799500Y-116068994D01*
X83799500Y-116068996D01*
X83799499Y-116068996D01*
X83826418Y-116204322D01*
X83826421Y-116204332D01*
X83879222Y-116331807D01*
X83955887Y-116446545D01*
X85453454Y-117944112D01*
X85568192Y-118020777D01*
X85695667Y-118073578D01*
X85695672Y-118073580D01*
X85695676Y-118073580D01*
X85695677Y-118073581D01*
X85831003Y-118100500D01*
X85831006Y-118100500D01*
X85968996Y-118100500D01*
X86061556Y-118082088D01*
X86104328Y-118073580D01*
X86168619Y-118046950D01*
X86231807Y-118020777D01*
X86231808Y-118020776D01*
X86231811Y-118020775D01*
X86346543Y-117944114D01*
X86444114Y-117846543D01*
X86520775Y-117731811D01*
X86538013Y-117690196D01*
X86549622Y-117662169D01*
X86573580Y-117604328D01*
X86600500Y-117468994D01*
X86600500Y-117331006D01*
X86600500Y-117331003D01*
X86573581Y-117195677D01*
X86573580Y-117195676D01*
X86573580Y-117195672D01*
X86573578Y-117195667D01*
X86520777Y-117068192D01*
X86444112Y-116953454D01*
X85236819Y-115746161D01*
X85203334Y-115684838D01*
X85200500Y-115658480D01*
X85200500Y-113034108D01*
X85799500Y-113034108D01*
X85799500Y-113165892D01*
X85804575Y-113184831D01*
X85833608Y-113293187D01*
X85854502Y-113329376D01*
X85899500Y-113407314D01*
X85992686Y-113500500D01*
X86106814Y-113566392D01*
X86234108Y-113600500D01*
X86234110Y-113600500D01*
X86365890Y-113600500D01*
X86365892Y-113600500D01*
X86493186Y-113566392D01*
X86607314Y-113500500D01*
X86700500Y-113407314D01*
X86766392Y-113293186D01*
X86800500Y-113165892D01*
X86800500Y-113034108D01*
X86773705Y-112934108D01*
X91199500Y-112934108D01*
X91199500Y-113065891D01*
X91233608Y-113193187D01*
X91299504Y-113307321D01*
X91303107Y-113312016D01*
X91328300Y-113377186D01*
X91314260Y-113445630D01*
X91303107Y-113462984D01*
X91299504Y-113467678D01*
X91233608Y-113581812D01*
X91199500Y-113709108D01*
X91199500Y-113840891D01*
X91233608Y-113968187D01*
X91299504Y-114082321D01*
X91303107Y-114087016D01*
X91328300Y-114152186D01*
X91314260Y-114220630D01*
X91303107Y-114237984D01*
X91299504Y-114242678D01*
X91233608Y-114356812D01*
X91199500Y-114484108D01*
X91199500Y-114615891D01*
X91233608Y-114743187D01*
X91299504Y-114857321D01*
X91303107Y-114862016D01*
X91328300Y-114927186D01*
X91314260Y-114995630D01*
X91303107Y-115012984D01*
X91299504Y-115017678D01*
X91233608Y-115131812D01*
X91199500Y-115259108D01*
X91199500Y-115390891D01*
X91233608Y-115518187D01*
X91299504Y-115632321D01*
X91303107Y-115637016D01*
X91328300Y-115702186D01*
X91314260Y-115770630D01*
X91303107Y-115787984D01*
X91299504Y-115792678D01*
X91233608Y-115906812D01*
X91199500Y-116034108D01*
X91199500Y-116165891D01*
X91233608Y-116293187D01*
X91255906Y-116331807D01*
X91299500Y-116407314D01*
X91392686Y-116500500D01*
X91506814Y-116566392D01*
X91634108Y-116600500D01*
X91634110Y-116600500D01*
X91765890Y-116600500D01*
X91765892Y-116600500D01*
X91893186Y-116566392D01*
X92007314Y-116500500D01*
X92100500Y-116407314D01*
X92166392Y-116293186D01*
X92200500Y-116165892D01*
X92200500Y-116034108D01*
X92166392Y-115906814D01*
X92100500Y-115792686D01*
X92100494Y-115792680D01*
X92096896Y-115787990D01*
X92071699Y-115722821D01*
X92085735Y-115654376D01*
X92096896Y-115637010D01*
X92100493Y-115632321D01*
X92100500Y-115632314D01*
X92166392Y-115518186D01*
X92200500Y-115390892D01*
X92200500Y-115259108D01*
X92166392Y-115131814D01*
X92100500Y-115017686D01*
X92100494Y-115017680D01*
X92096896Y-115012990D01*
X92071699Y-114947821D01*
X92085735Y-114879376D01*
X92096896Y-114862010D01*
X92100493Y-114857321D01*
X92100500Y-114857314D01*
X92166392Y-114743186D01*
X92200500Y-114615892D01*
X92200500Y-114484108D01*
X92166392Y-114356814D01*
X92100500Y-114242686D01*
X92100494Y-114242680D01*
X92096896Y-114237990D01*
X92071699Y-114172821D01*
X92085735Y-114104376D01*
X92096896Y-114087010D01*
X92100493Y-114082321D01*
X92100500Y-114082314D01*
X92166392Y-113968186D01*
X92200500Y-113840892D01*
X92200500Y-113709108D01*
X92166392Y-113581814D01*
X92100500Y-113467686D01*
X92100494Y-113467680D01*
X92096896Y-113462990D01*
X92071699Y-113397821D01*
X92085735Y-113329376D01*
X92096896Y-113312010D01*
X92100493Y-113307321D01*
X92100500Y-113307314D01*
X92166392Y-113193186D01*
X92200500Y-113065892D01*
X92200500Y-112934108D01*
X92166392Y-112806814D01*
X92100500Y-112692686D01*
X92007314Y-112599500D01*
X91944408Y-112563181D01*
X91893187Y-112533608D01*
X91829539Y-112516554D01*
X91765892Y-112499500D01*
X91634108Y-112499500D01*
X91506812Y-112533608D01*
X91392686Y-112599500D01*
X91392683Y-112599502D01*
X91299502Y-112692683D01*
X91299500Y-112692686D01*
X91233608Y-112806812D01*
X91199500Y-112934108D01*
X86773705Y-112934108D01*
X86766392Y-112906814D01*
X86700500Y-112792686D01*
X86636818Y-112729004D01*
X86603334Y-112667680D01*
X86600500Y-112641323D01*
X86600500Y-111934108D01*
X89899500Y-111934108D01*
X89899500Y-112065891D01*
X89933608Y-112193187D01*
X89946295Y-112215161D01*
X89999500Y-112307314D01*
X90092686Y-112400500D01*
X90206814Y-112466392D01*
X90334108Y-112500500D01*
X90334110Y-112500500D01*
X90465890Y-112500500D01*
X90465892Y-112500500D01*
X90593186Y-112466392D01*
X90707314Y-112400500D01*
X90800500Y-112307314D01*
X90866392Y-112193186D01*
X90900500Y-112065892D01*
X90900500Y-111934108D01*
X90866392Y-111806814D01*
X90800500Y-111692686D01*
X90707314Y-111599500D01*
X90650250Y-111566554D01*
X90593187Y-111533608D01*
X90529539Y-111516554D01*
X90465892Y-111499500D01*
X90334108Y-111499500D01*
X90206812Y-111533608D01*
X90092686Y-111599500D01*
X90092683Y-111599502D01*
X89999502Y-111692683D01*
X89999500Y-111692686D01*
X89933608Y-111806812D01*
X89899500Y-111934108D01*
X86600500Y-111934108D01*
X86600500Y-102075832D01*
X86620185Y-102008793D01*
X86636814Y-101988156D01*
X89788151Y-98836818D01*
X89849474Y-98803334D01*
X89875832Y-98800500D01*
X89965890Y-98800500D01*
X89965892Y-98800500D01*
X90093186Y-98766392D01*
X90207314Y-98700500D01*
X90300500Y-98607314D01*
X90366392Y-98493186D01*
X90400500Y-98365892D01*
X90400500Y-98234108D01*
X90366392Y-98106814D01*
X90300500Y-97992686D01*
X90207314Y-97899500D01*
X90150250Y-97866554D01*
X90093187Y-97833608D01*
X90029539Y-97816554D01*
X89965892Y-97799500D01*
X89834108Y-97799500D01*
X89706812Y-97833608D01*
X89592686Y-97899500D01*
X89592683Y-97899502D01*
X89499502Y-97992683D01*
X89499500Y-97992686D01*
X89433608Y-98106812D01*
X89399500Y-98234108D01*
X89399500Y-98324166D01*
X89379815Y-98391205D01*
X89363181Y-98411847D01*
X86115489Y-101659540D01*
X86059541Y-101715487D01*
X86059535Y-101715495D01*
X86019982Y-101784004D01*
X86019979Y-101784009D01*
X85999500Y-101860439D01*
X85999500Y-112641323D01*
X85979815Y-112708362D01*
X85963182Y-112729004D01*
X85899500Y-112792686D01*
X85833608Y-112906812D01*
X85823951Y-112942853D01*
X85799500Y-113034108D01*
X85200500Y-113034108D01*
X85200500Y-111831004D01*
X85178326Y-111719532D01*
X85178326Y-111719531D01*
X85173580Y-111695671D01*
X85120775Y-111568189D01*
X85044114Y-111453457D01*
X85044112Y-111453454D01*
X83868819Y-110278161D01*
X83835334Y-110216838D01*
X83832500Y-110190480D01*
X83832500Y-100034596D01*
X83852185Y-99967557D01*
X83904989Y-99921802D01*
X83974147Y-99911858D01*
X84033677Y-99939044D01*
X84034393Y-99938155D01*
X84187974Y-100061607D01*
X84187977Y-100061609D01*
X84358476Y-100146168D01*
X84543175Y-100192102D01*
X84585903Y-100195000D01*
X85488097Y-100195000D01*
X85530824Y-100192102D01*
X85715523Y-100146168D01*
X85886022Y-100061609D01*
X85886025Y-100061607D01*
X86034364Y-99942369D01*
X86034372Y-99942360D01*
X86099627Y-99861179D01*
X85456628Y-99218180D01*
X85502925Y-99137993D01*
X85537000Y-99010826D01*
X85537000Y-98591448D01*
X86286999Y-99341448D01*
X86287000Y-99341447D01*
X86287000Y-97548552D01*
X86286999Y-97548551D01*
X85537000Y-98298550D01*
X85537000Y-97879174D01*
X85502925Y-97752007D01*
X85456627Y-97671818D01*
X86099627Y-97028819D01*
X86034367Y-96947633D01*
X86034366Y-96947632D01*
X85886025Y-96828392D01*
X85886022Y-96828390D01*
X85715523Y-96743831D01*
X85530824Y-96697897D01*
X85488097Y-96695000D01*
X84585903Y-96695000D01*
X84543175Y-96697897D01*
X84358476Y-96743831D01*
X84187977Y-96828390D01*
X84187974Y-96828392D01*
X84039635Y-96947631D01*
X83963616Y-97042202D01*
X83906272Y-97082120D01*
X83836450Y-97084700D01*
X83805294Y-97069586D01*
X83804268Y-97071364D01*
X83797230Y-97067300D01*
X83704327Y-97028819D01*
X83657236Y-97009313D01*
X83643171Y-97007461D01*
X83544727Y-96994500D01*
X83544720Y-96994500D01*
X82719280Y-96994500D01*
X82719272Y-96994500D01*
X82606764Y-97009313D01*
X82606763Y-97009313D01*
X82466770Y-97067300D01*
X82466767Y-97067301D01*
X82466767Y-97067302D01*
X82447456Y-97082120D01*
X82346549Y-97159549D01*
X82254300Y-97279770D01*
X82196313Y-97419763D01*
X82196313Y-97419764D01*
X82181500Y-97532272D01*
X79825500Y-97532272D01*
X79825500Y-92544237D01*
X79845185Y-92477198D01*
X79897989Y-92431443D01*
X79930099Y-92421764D01*
X80000304Y-92410646D01*
X80113342Y-92353050D01*
X80203050Y-92263342D01*
X80260646Y-92150304D01*
X80260646Y-92150302D01*
X80260647Y-92150301D01*
X80274116Y-92065255D01*
X80275500Y-92056519D01*
X80275499Y-91593482D01*
X80260646Y-91499696D01*
X80203050Y-91386658D01*
X80203046Y-91386654D01*
X80203045Y-91386652D01*
X80113347Y-91296954D01*
X80113344Y-91296952D01*
X80113342Y-91296950D01*
X80000304Y-91239354D01*
X80000303Y-91239353D01*
X80000300Y-91239352D01*
X80000301Y-91239352D01*
X79906524Y-91224500D01*
X79293482Y-91224500D01*
X79212519Y-91237323D01*
X79199696Y-91239354D01*
X79086658Y-91296950D01*
X79086657Y-91296951D01*
X79086652Y-91296954D01*
X78996954Y-91386652D01*
X78996951Y-91386657D01*
X78996950Y-91386658D01*
X78977751Y-91424337D01*
X78939352Y-91499698D01*
X78924500Y-91593475D01*
X78675498Y-91593475D01*
X78660646Y-91499696D01*
X78603050Y-91386658D01*
X78603046Y-91386654D01*
X78603045Y-91386652D01*
X78513347Y-91296954D01*
X78513344Y-91296952D01*
X78513342Y-91296950D01*
X78436517Y-91257805D01*
X78400301Y-91239352D01*
X78306524Y-91224500D01*
X77693482Y-91224500D01*
X77612519Y-91237323D01*
X77599696Y-91239354D01*
X77486658Y-91296950D01*
X77486657Y-91296951D01*
X77486652Y-91296954D01*
X77396954Y-91386652D01*
X77396951Y-91386657D01*
X77396950Y-91386658D01*
X77377751Y-91424337D01*
X77339352Y-91499698D01*
X77324500Y-91593475D01*
X77075498Y-91593475D01*
X77060646Y-91499696D01*
X77003050Y-91386658D01*
X77003046Y-91386654D01*
X77003045Y-91386652D01*
X76913347Y-91296954D01*
X76913344Y-91296952D01*
X76913342Y-91296950D01*
X76836517Y-91257805D01*
X76800301Y-91239352D01*
X76706524Y-91224500D01*
X76093482Y-91224500D01*
X76012519Y-91237323D01*
X75999696Y-91239354D01*
X75886658Y-91296950D01*
X75886657Y-91296951D01*
X75886652Y-91296954D01*
X75796954Y-91386652D01*
X75796951Y-91386657D01*
X75796950Y-91386658D01*
X75777751Y-91424337D01*
X75739352Y-91499698D01*
X75724500Y-91593475D01*
X75475498Y-91593475D01*
X75460646Y-91499696D01*
X75403050Y-91386658D01*
X75403046Y-91386654D01*
X75403045Y-91386652D01*
X75313347Y-91296954D01*
X75313344Y-91296952D01*
X75313342Y-91296950D01*
X75236517Y-91257805D01*
X75200301Y-91239352D01*
X75106524Y-91224500D01*
X74493482Y-91224500D01*
X74412519Y-91237323D01*
X74399696Y-91239354D01*
X74286658Y-91296950D01*
X74286657Y-91296951D01*
X74286652Y-91296954D01*
X74196954Y-91386652D01*
X74196951Y-91386657D01*
X74196950Y-91386658D01*
X74177751Y-91424337D01*
X74139352Y-91499698D01*
X74124500Y-91593475D01*
X72500500Y-91593475D01*
X72500500Y-91134108D01*
X83699500Y-91134108D01*
X83699500Y-91265891D01*
X83733608Y-91393187D01*
X83762124Y-91442577D01*
X83799500Y-91507314D01*
X83892686Y-91600500D01*
X84006814Y-91666392D01*
X84134108Y-91700500D01*
X84134110Y-91700500D01*
X84265888Y-91700500D01*
X84265892Y-91700500D01*
X84344033Y-91679562D01*
X84413877Y-91681225D01*
X84471740Y-91720387D01*
X84486606Y-91743041D01*
X84496949Y-91763340D01*
X84496954Y-91763347D01*
X84586652Y-91853045D01*
X84586654Y-91853046D01*
X84586658Y-91853050D01*
X84672373Y-91896724D01*
X84699698Y-91910647D01*
X84793475Y-91925499D01*
X84793481Y-91925500D01*
X85406518Y-91925499D01*
X85500304Y-91910646D01*
X85613342Y-91853050D01*
X85703050Y-91763342D01*
X85760646Y-91650304D01*
X85760646Y-91650302D01*
X85760647Y-91650301D01*
X85775499Y-91556524D01*
X85775500Y-91556519D01*
X85775499Y-91093482D01*
X85775498Y-91093475D01*
X86024500Y-91093475D01*
X86024500Y-91556517D01*
X86030355Y-91593482D01*
X86039354Y-91650304D01*
X86096950Y-91763342D01*
X86096952Y-91763344D01*
X86096954Y-91763347D01*
X86186652Y-91853045D01*
X86186654Y-91853046D01*
X86186658Y-91853050D01*
X86272373Y-91896724D01*
X86299698Y-91910647D01*
X86393469Y-91925499D01*
X86393475Y-91925499D01*
X86393481Y-91925500D01*
X86393775Y-91925499D01*
X86393885Y-91925532D01*
X86398332Y-91925882D01*
X86398258Y-91926815D01*
X86460815Y-91945171D01*
X86506580Y-91997966D01*
X86516537Y-92067122D01*
X86513571Y-92081591D01*
X86499500Y-92134106D01*
X86499500Y-92265891D01*
X86533608Y-92393187D01*
X86555696Y-92431443D01*
X86599500Y-92507314D01*
X86692686Y-92600500D01*
X86806814Y-92666392D01*
X86934108Y-92700500D01*
X86934110Y-92700500D01*
X87065890Y-92700500D01*
X87065892Y-92700500D01*
X87193186Y-92666392D01*
X87307314Y-92600500D01*
X87400500Y-92507314D01*
X87466392Y-92393186D01*
X87500500Y-92265892D01*
X87500500Y-92134108D01*
X87466392Y-92006814D01*
X87462290Y-91999710D01*
X87455001Y-91987085D01*
X87400500Y-91892686D01*
X87355988Y-91848174D01*
X87322503Y-91786851D01*
X87327487Y-91717159D01*
X87333175Y-91704217D01*
X87360646Y-91650304D01*
X87362180Y-91640622D01*
X87375499Y-91556524D01*
X87375500Y-91556519D01*
X87375499Y-91093482D01*
X87360646Y-90999696D01*
X87303050Y-90886658D01*
X87303046Y-90886654D01*
X87303045Y-90886652D01*
X87214715Y-90798322D01*
X87775001Y-90798322D01*
X87785144Y-90897607D01*
X87838452Y-91058481D01*
X87838457Y-91058492D01*
X87927424Y-91202728D01*
X87927427Y-91202732D01*
X88047267Y-91322572D01*
X88047271Y-91322575D01*
X88191507Y-91411542D01*
X88191518Y-91411547D01*
X88352393Y-91464855D01*
X88451683Y-91474999D01*
X88475000Y-91474998D01*
X88475000Y-90750000D01*
X87775001Y-90750000D01*
X87775001Y-90798322D01*
X87214715Y-90798322D01*
X87213347Y-90796954D01*
X87213342Y-90796950D01*
X87100301Y-90739352D01*
X87006524Y-90724500D01*
X86393482Y-90724500D01*
X86312519Y-90737323D01*
X86299696Y-90739354D01*
X86186658Y-90796950D01*
X86186657Y-90796951D01*
X86186652Y-90796954D01*
X86096954Y-90886652D01*
X86096951Y-90886657D01*
X86096950Y-90886658D01*
X86077751Y-90924337D01*
X86039352Y-90999698D01*
X86024500Y-91093475D01*
X85775498Y-91093475D01*
X85760646Y-90999696D01*
X85703050Y-90886658D01*
X85703046Y-90886654D01*
X85703045Y-90886652D01*
X85613347Y-90796954D01*
X85613344Y-90796952D01*
X85613342Y-90796950D01*
X85521198Y-90750000D01*
X85500301Y-90739352D01*
X85406524Y-90724500D01*
X84793482Y-90724500D01*
X84699695Y-90739354D01*
X84602152Y-90789055D01*
X84533483Y-90801951D01*
X84483858Y-90785957D01*
X84393189Y-90733609D01*
X84393186Y-90733608D01*
X84265892Y-90699500D01*
X84134108Y-90699500D01*
X84006812Y-90733608D01*
X83892686Y-90799500D01*
X83892683Y-90799502D01*
X83799502Y-90892683D01*
X83799500Y-90892686D01*
X83733608Y-91006812D01*
X83699500Y-91134108D01*
X72500500Y-91134108D01*
X72500500Y-89943475D01*
X74124500Y-89943475D01*
X74124500Y-90406517D01*
X74135292Y-90474657D01*
X74139354Y-90500304D01*
X74196950Y-90613342D01*
X74196952Y-90613344D01*
X74196954Y-90613347D01*
X74286652Y-90703045D01*
X74286654Y-90703046D01*
X74286658Y-90703050D01*
X74399694Y-90760645D01*
X74399698Y-90760647D01*
X74493475Y-90775499D01*
X74493481Y-90775500D01*
X75106518Y-90775499D01*
X75200304Y-90760646D01*
X75313342Y-90703050D01*
X75403050Y-90613342D01*
X75460646Y-90500304D01*
X75460646Y-90500302D01*
X75460647Y-90500301D01*
X75475499Y-90406524D01*
X75475500Y-90406519D01*
X75475499Y-89943482D01*
X75460646Y-89849696D01*
X75403050Y-89736658D01*
X75403046Y-89736654D01*
X75403045Y-89736652D01*
X75336819Y-89670426D01*
X75322115Y-89643498D01*
X75305523Y-89617680D01*
X75304631Y-89611479D01*
X75303334Y-89609103D01*
X75300500Y-89582745D01*
X75300500Y-89424500D01*
X75320185Y-89357461D01*
X75372989Y-89311706D01*
X75424500Y-89300500D01*
X75741324Y-89300500D01*
X75808363Y-89320185D01*
X75829005Y-89336819D01*
X75892686Y-89400500D01*
X75918828Y-89415593D01*
X75967044Y-89466160D01*
X75980267Y-89534767D01*
X75954299Y-89599632D01*
X75913126Y-89633463D01*
X75886660Y-89646948D01*
X75886652Y-89646954D01*
X75796954Y-89736652D01*
X75796951Y-89736657D01*
X75796950Y-89736658D01*
X75779097Y-89771696D01*
X75739352Y-89849698D01*
X75724500Y-89943475D01*
X75724500Y-90406517D01*
X75735292Y-90474657D01*
X75739354Y-90500304D01*
X75796950Y-90613342D01*
X75796952Y-90613344D01*
X75796954Y-90613347D01*
X75886652Y-90703045D01*
X75886654Y-90703046D01*
X75886658Y-90703050D01*
X75999694Y-90760645D01*
X75999698Y-90760647D01*
X76093475Y-90775499D01*
X76093481Y-90775500D01*
X76706518Y-90775499D01*
X76800304Y-90760646D01*
X76913342Y-90703050D01*
X77003050Y-90613342D01*
X77060646Y-90500304D01*
X77060646Y-90500302D01*
X77060647Y-90500301D01*
X77075499Y-90406524D01*
X77075500Y-90406519D01*
X77075499Y-89943482D01*
X77060646Y-89849696D01*
X77003050Y-89736658D01*
X77003046Y-89736654D01*
X77003045Y-89736652D01*
X76983362Y-89716969D01*
X76949877Y-89655646D01*
X76954861Y-89585954D01*
X76983359Y-89541610D01*
X77340460Y-89184511D01*
X77354358Y-89160438D01*
X77380021Y-89115989D01*
X77400500Y-89039562D01*
X77400500Y-87761364D01*
X77420185Y-87694325D01*
X77436819Y-87673683D01*
X77442085Y-87668417D01*
X77500500Y-87610002D01*
X77550317Y-87523717D01*
X77568113Y-87492894D01*
X77618680Y-87444678D01*
X77687287Y-87431456D01*
X77752152Y-87457424D01*
X77792680Y-87514338D01*
X77799500Y-87554894D01*
X77799500Y-88124167D01*
X77779815Y-88191206D01*
X77763181Y-88211848D01*
X77759541Y-88215487D01*
X77759535Y-88215495D01*
X77719982Y-88284004D01*
X77719979Y-88284009D01*
X77699500Y-88360439D01*
X77699500Y-89467640D01*
X77679815Y-89534679D01*
X77627011Y-89580434D01*
X77608842Y-89585911D01*
X77608981Y-89586337D01*
X77599699Y-89589352D01*
X77556273Y-89611479D01*
X77486658Y-89646950D01*
X77486657Y-89646951D01*
X77486652Y-89646954D01*
X77396954Y-89736652D01*
X77396951Y-89736657D01*
X77396950Y-89736658D01*
X77379097Y-89771696D01*
X77339352Y-89849698D01*
X77324500Y-89943475D01*
X77324500Y-90406517D01*
X77335292Y-90474657D01*
X77339354Y-90500304D01*
X77396950Y-90613342D01*
X77396952Y-90613344D01*
X77396954Y-90613347D01*
X77486652Y-90703045D01*
X77486654Y-90703046D01*
X77486658Y-90703050D01*
X77599694Y-90760645D01*
X77599698Y-90760647D01*
X77693475Y-90775499D01*
X77693481Y-90775500D01*
X78306518Y-90775499D01*
X78400304Y-90760646D01*
X78513342Y-90703050D01*
X78603050Y-90613342D01*
X78660646Y-90500304D01*
X78660646Y-90500302D01*
X78660647Y-90500301D01*
X78675499Y-90406524D01*
X78675500Y-90406519D01*
X78675499Y-89943482D01*
X78675498Y-89943475D01*
X78924500Y-89943475D01*
X78924500Y-90406517D01*
X78935292Y-90474657D01*
X78939354Y-90500304D01*
X78996950Y-90613342D01*
X78996952Y-90613344D01*
X78996954Y-90613347D01*
X79086652Y-90703045D01*
X79086654Y-90703046D01*
X79086658Y-90703050D01*
X79199694Y-90760645D01*
X79199698Y-90760647D01*
X79293475Y-90775499D01*
X79293481Y-90775500D01*
X79906518Y-90775499D01*
X80000304Y-90760646D01*
X80113342Y-90703050D01*
X80203050Y-90613342D01*
X80260646Y-90500304D01*
X80260646Y-90500302D01*
X80260647Y-90500301D01*
X80275499Y-90406524D01*
X80275500Y-90406519D01*
X80275499Y-89943482D01*
X80260646Y-89849696D01*
X80203050Y-89736658D01*
X80203046Y-89736654D01*
X80203045Y-89736652D01*
X80113347Y-89646954D01*
X80113344Y-89646952D01*
X80113342Y-89646950D01*
X80020476Y-89599632D01*
X80000301Y-89589352D01*
X79905101Y-89574274D01*
X79841967Y-89544344D01*
X79805036Y-89485032D01*
X79800500Y-89451801D01*
X79800500Y-87501350D01*
X79820185Y-87434311D01*
X79836819Y-87413669D01*
X79853538Y-87396950D01*
X79874693Y-87375795D01*
X79940585Y-87261667D01*
X79974693Y-87134373D01*
X79974693Y-87002589D01*
X79940585Y-86875295D01*
X79938278Y-86871300D01*
X79918069Y-86836296D01*
X79874693Y-86761167D01*
X79781507Y-86667981D01*
X79724443Y-86635035D01*
X79667380Y-86602089D01*
X79603732Y-86585035D01*
X79540085Y-86567981D01*
X79408301Y-86567981D01*
X79281005Y-86602089D01*
X79166879Y-86667981D01*
X79166876Y-86667983D01*
X79073695Y-86761164D01*
X79073693Y-86761167D01*
X79007801Y-86875293D01*
X78973693Y-87002589D01*
X78973693Y-87134372D01*
X79007801Y-87261668D01*
X79040747Y-87318731D01*
X79073693Y-87375795D01*
X79073695Y-87375797D01*
X79163181Y-87465283D01*
X79196666Y-87526606D01*
X79199500Y-87552964D01*
X79199500Y-89513466D01*
X79179815Y-89580505D01*
X79131796Y-89623950D01*
X79086656Y-89646950D01*
X78996954Y-89736652D01*
X78996951Y-89736657D01*
X78996950Y-89736658D01*
X78979097Y-89771696D01*
X78939352Y-89849698D01*
X78924500Y-89943475D01*
X78675498Y-89943475D01*
X78660646Y-89849696D01*
X78603050Y-89736658D01*
X78603046Y-89736654D01*
X78603045Y-89736652D01*
X78513347Y-89646954D01*
X78513344Y-89646952D01*
X78513342Y-89646950D01*
X78420476Y-89599632D01*
X78400301Y-89589352D01*
X78391020Y-89586337D01*
X78391836Y-89583825D01*
X78341963Y-89560180D01*
X78305034Y-89500866D01*
X78300500Y-89467640D01*
X78300500Y-88575833D01*
X78320185Y-88508794D01*
X78321048Y-88507468D01*
X78327955Y-88497015D01*
X78340460Y-88484511D01*
X78367911Y-88436964D01*
X78380021Y-88415989D01*
X78400500Y-88339562D01*
X78400500Y-86961808D01*
X78420185Y-86894769D01*
X78436819Y-86874127D01*
X78461918Y-86849028D01*
X78500500Y-86810446D01*
X78566392Y-86696318D01*
X78600500Y-86569024D01*
X78600500Y-86437240D01*
X78566392Y-86309946D01*
X78500500Y-86195818D01*
X78407314Y-86102632D01*
X78350250Y-86069686D01*
X78293187Y-86036740D01*
X78215514Y-86015928D01*
X78165892Y-86002632D01*
X78034108Y-86002632D01*
X77906812Y-86036740D01*
X77792686Y-86102632D01*
X77792683Y-86102634D01*
X77699502Y-86195815D01*
X77699500Y-86195818D01*
X77633608Y-86309944D01*
X77599500Y-86437240D01*
X77599500Y-86569023D01*
X77633608Y-86696319D01*
X77663044Y-86747302D01*
X77699500Y-86810446D01*
X77699502Y-86810448D01*
X77763181Y-86874127D01*
X77777884Y-86901054D01*
X77794477Y-86926873D01*
X77795368Y-86933073D01*
X77796666Y-86935450D01*
X77799500Y-86961808D01*
X77799500Y-87050481D01*
X77779815Y-87117520D01*
X77727011Y-87163275D01*
X77657853Y-87173219D01*
X77594297Y-87144194D01*
X77568113Y-87112482D01*
X77532316Y-87050481D01*
X77500500Y-86995374D01*
X77407314Y-86902188D01*
X77334409Y-86860096D01*
X77293187Y-86836296D01*
X77196719Y-86810448D01*
X77165892Y-86802188D01*
X77034108Y-86802188D01*
X76906812Y-86836296D01*
X76792686Y-86902188D01*
X76792683Y-86902190D01*
X76699502Y-86995371D01*
X76699500Y-86995374D01*
X76633608Y-87109500D01*
X76608988Y-87201386D01*
X76599500Y-87236796D01*
X76599500Y-87368580D01*
X76616347Y-87431456D01*
X76633608Y-87495875D01*
X76649683Y-87523717D01*
X76699500Y-87610002D01*
X76699502Y-87610004D01*
X76763181Y-87673683D01*
X76796666Y-87735006D01*
X76799500Y-87761364D01*
X76799500Y-88592324D01*
X76779815Y-88659363D01*
X76727011Y-88705118D01*
X76657853Y-88715062D01*
X76594297Y-88686037D01*
X76587819Y-88680005D01*
X76507316Y-88599502D01*
X76507314Y-88599500D01*
X76446512Y-88564396D01*
X76393187Y-88533608D01*
X76317555Y-88513343D01*
X76265892Y-88499500D01*
X76134108Y-88499500D01*
X76006812Y-88533608D01*
X75892686Y-88599500D01*
X75892683Y-88599502D01*
X75829005Y-88663181D01*
X75767682Y-88696666D01*
X75741324Y-88699500D01*
X75160438Y-88699500D01*
X75084010Y-88719978D01*
X75015489Y-88759540D01*
X75015486Y-88759542D01*
X74759541Y-89015487D01*
X74759535Y-89015495D01*
X74719982Y-89084004D01*
X74719979Y-89084009D01*
X74699500Y-89160438D01*
X74699500Y-89450500D01*
X74679815Y-89517539D01*
X74627011Y-89563294D01*
X74575501Y-89574500D01*
X74493482Y-89574500D01*
X74418746Y-89586337D01*
X74399696Y-89589354D01*
X74286658Y-89646950D01*
X74286657Y-89646951D01*
X74286652Y-89646954D01*
X74196954Y-89736652D01*
X74196951Y-89736657D01*
X74196950Y-89736658D01*
X74179097Y-89771696D01*
X74139352Y-89849698D01*
X74124500Y-89943475D01*
X72500500Y-89943475D01*
X72500500Y-83734108D01*
X75299500Y-83734108D01*
X75299500Y-83865892D01*
X75309034Y-83901472D01*
X75333608Y-83993187D01*
X75366554Y-84050250D01*
X75399500Y-84107314D01*
X75492686Y-84200500D01*
X75606814Y-84266392D01*
X75734108Y-84300500D01*
X75734110Y-84300500D01*
X75865890Y-84300500D01*
X75865892Y-84300500D01*
X75993186Y-84266392D01*
X76107314Y-84200500D01*
X76200500Y-84107314D01*
X76266392Y-83993186D01*
X76300500Y-83865892D01*
X76300500Y-83734108D01*
X76266392Y-83606814D01*
X76266391Y-83606812D01*
X76264288Y-83598963D01*
X76266723Y-83598310D01*
X76265935Y-83590998D01*
X76258946Y-83572258D01*
X76262271Y-83556969D01*
X76260597Y-83541415D01*
X76269546Y-83523529D01*
X76273798Y-83503985D01*
X76290469Y-83481714D01*
X76291862Y-83478931D01*
X76294894Y-83475786D01*
X76458864Y-83311816D01*
X76520185Y-83278334D01*
X76546543Y-83275500D01*
X77033493Y-83275500D01*
X77133121Y-83259720D01*
X77133121Y-83259719D01*
X77133126Y-83259719D01*
X77253220Y-83198528D01*
X77348528Y-83103220D01*
X77409719Y-82983126D01*
X77423151Y-82898322D01*
X77425500Y-82883493D01*
X77425500Y-82316506D01*
X77409720Y-82216878D01*
X77409719Y-82216876D01*
X77409719Y-82216874D01*
X77348528Y-82096780D01*
X77348526Y-82096778D01*
X77348523Y-82096774D01*
X77253225Y-82001476D01*
X77253221Y-82001473D01*
X77253220Y-82001472D01*
X77133126Y-81940281D01*
X77133124Y-81940280D01*
X77133121Y-81940279D01*
X77033493Y-81924500D01*
X77033488Y-81924500D01*
X76662912Y-81924500D01*
X76638922Y-81917455D01*
X76614094Y-81914486D01*
X76605974Y-81907781D01*
X76595873Y-81904815D01*
X76579501Y-81885921D01*
X76560218Y-81869998D01*
X76557012Y-81859967D01*
X76550118Y-81852011D01*
X76546559Y-81827263D01*
X76538947Y-81803445D01*
X76540848Y-81787546D01*
X76540174Y-81782853D01*
X76543139Y-81768401D01*
X76543407Y-81767401D01*
X76579774Y-81707742D01*
X76642623Y-81677216D01*
X76663180Y-81675500D01*
X77033493Y-81675500D01*
X77133121Y-81659720D01*
X77133121Y-81659719D01*
X77133126Y-81659719D01*
X77253220Y-81598528D01*
X77348528Y-81503220D01*
X77409719Y-81383126D01*
X77409720Y-81383121D01*
X77425500Y-81283493D01*
X77425500Y-80716506D01*
X77409720Y-80616878D01*
X77409719Y-80616876D01*
X77409719Y-80616874D01*
X77348528Y-80496780D01*
X77348526Y-80496778D01*
X77348523Y-80496774D01*
X77253225Y-80401476D01*
X77253221Y-80401473D01*
X77253220Y-80401472D01*
X77133126Y-80340281D01*
X77133124Y-80340280D01*
X77133121Y-80340279D01*
X77094158Y-80334108D01*
X78199500Y-80334108D01*
X78199500Y-80465891D01*
X78233608Y-80593187D01*
X78266554Y-80650250D01*
X78299500Y-80707314D01*
X78392686Y-80800500D01*
X78506814Y-80866392D01*
X78634108Y-80900500D01*
X78747273Y-80900500D01*
X79423147Y-80900500D01*
X79490186Y-80920185D01*
X79533632Y-80968206D01*
X79551471Y-81003218D01*
X79551476Y-81003225D01*
X79646774Y-81098523D01*
X79646778Y-81098526D01*
X79646780Y-81098528D01*
X79766874Y-81159719D01*
X79766876Y-81159719D01*
X79766878Y-81159720D01*
X79866507Y-81175500D01*
X79866512Y-81175500D01*
X80383493Y-81175500D01*
X80483121Y-81159720D01*
X80483121Y-81159719D01*
X80483126Y-81159719D01*
X80603220Y-81098528D01*
X80622173Y-81079574D01*
X80683494Y-81046090D01*
X80753185Y-81051073D01*
X80809120Y-81092944D01*
X80815392Y-81102159D01*
X80877424Y-81202728D01*
X80877427Y-81202732D01*
X80997267Y-81322572D01*
X80997271Y-81322575D01*
X81141507Y-81411542D01*
X81141518Y-81411547D01*
X81302393Y-81464855D01*
X81401683Y-81474999D01*
X81925000Y-81474999D01*
X81948308Y-81474999D01*
X81948322Y-81474998D01*
X82047607Y-81464855D01*
X82208481Y-81411547D01*
X82208492Y-81411542D01*
X82352728Y-81322575D01*
X82352732Y-81322572D01*
X82472572Y-81202732D01*
X82472575Y-81202728D01*
X82561542Y-81058492D01*
X82561547Y-81058481D01*
X82614855Y-80897606D01*
X82624999Y-80798322D01*
X82625000Y-80798309D01*
X82625000Y-80750000D01*
X81925000Y-80750000D01*
X81925000Y-81474999D01*
X81401683Y-81474999D01*
X81425000Y-81474998D01*
X81425000Y-80624000D01*
X81444685Y-80556961D01*
X81497489Y-80511206D01*
X81549000Y-80500000D01*
X81675000Y-80500000D01*
X81675000Y-80374000D01*
X81694685Y-80306961D01*
X81747489Y-80261206D01*
X81799000Y-80250000D01*
X82624999Y-80250000D01*
X82624999Y-80201692D01*
X82624998Y-80201677D01*
X82614855Y-80102392D01*
X82561547Y-79941518D01*
X82561542Y-79941507D01*
X82472575Y-79797271D01*
X82472572Y-79797267D01*
X82352731Y-79677426D01*
X82245754Y-79611441D01*
X82243123Y-79608516D01*
X82239400Y-79607247D01*
X82219950Y-79582752D01*
X82199030Y-79559493D01*
X82198398Y-79555609D01*
X82195952Y-79552529D01*
X82192832Y-79521401D01*
X82187809Y-79490530D01*
X82189263Y-79485792D01*
X82188984Y-79483008D01*
X82200369Y-79449606D01*
X82203634Y-79443197D01*
X82251611Y-79392405D01*
X82314115Y-79375500D01*
X82485885Y-79375500D01*
X82552924Y-79395185D01*
X82596370Y-79443206D01*
X82601471Y-79453219D01*
X82601476Y-79453225D01*
X82696774Y-79548523D01*
X82696778Y-79548526D01*
X82696780Y-79548528D01*
X82816874Y-79609719D01*
X82816876Y-79609719D01*
X82816878Y-79609720D01*
X82916507Y-79625500D01*
X82916512Y-79625500D01*
X83483493Y-79625500D01*
X83583121Y-79609720D01*
X83583121Y-79609719D01*
X83583126Y-79609719D01*
X83703220Y-79548528D01*
X83798528Y-79453220D01*
X83859719Y-79333126D01*
X83859720Y-79333121D01*
X83875500Y-79233493D01*
X83875500Y-78716506D01*
X83859720Y-78616878D01*
X83859719Y-78616876D01*
X83859719Y-78616874D01*
X83798528Y-78496780D01*
X83798526Y-78496778D01*
X83798523Y-78496774D01*
X83779575Y-78477826D01*
X83746090Y-78416503D01*
X83751074Y-78346811D01*
X83792946Y-78290878D01*
X83802160Y-78284606D01*
X83902731Y-78222573D01*
X83991196Y-78134108D01*
X90299500Y-78134108D01*
X90299500Y-78265892D01*
X90306195Y-78290878D01*
X90333608Y-78393187D01*
X90358905Y-78437002D01*
X90399500Y-78507314D01*
X90492686Y-78600500D01*
X90606814Y-78666392D01*
X90734108Y-78700500D01*
X90734110Y-78700500D01*
X90865890Y-78700500D01*
X90865892Y-78700500D01*
X90993186Y-78666392D01*
X91107314Y-78600500D01*
X91200500Y-78507314D01*
X91266392Y-78393186D01*
X91300500Y-78265892D01*
X91300500Y-78134108D01*
X91293801Y-78109108D01*
X91799500Y-78109108D01*
X91799500Y-78240892D01*
X91810915Y-78283493D01*
X91833608Y-78368187D01*
X91855161Y-78405517D01*
X91899500Y-78482314D01*
X91992686Y-78575500D01*
X92106814Y-78641392D01*
X92234108Y-78675500D01*
X92234110Y-78675500D01*
X92365890Y-78675500D01*
X92365892Y-78675500D01*
X92493186Y-78641392D01*
X92607314Y-78575500D01*
X92700500Y-78482314D01*
X92766392Y-78368186D01*
X92800500Y-78240892D01*
X92800500Y-78109108D01*
X92766392Y-77981814D01*
X92700500Y-77867686D01*
X92607314Y-77774500D01*
X92536487Y-77733608D01*
X92493187Y-77708608D01*
X92429539Y-77691554D01*
X92365892Y-77674500D01*
X92234108Y-77674500D01*
X92106812Y-77708608D01*
X91992686Y-77774500D01*
X91992683Y-77774502D01*
X91899502Y-77867683D01*
X91899500Y-77867686D01*
X91833608Y-77981812D01*
X91826909Y-78006814D01*
X91799500Y-78109108D01*
X91293801Y-78109108D01*
X91266392Y-78006814D01*
X91200500Y-77892686D01*
X91107314Y-77799500D01*
X91021578Y-77750000D01*
X90993187Y-77733608D01*
X90929360Y-77716506D01*
X90865892Y-77699500D01*
X90734108Y-77699500D01*
X90606812Y-77733608D01*
X90492686Y-77799500D01*
X90492683Y-77799502D01*
X90399502Y-77892683D01*
X90399500Y-77892686D01*
X90333608Y-78006812D01*
X90319120Y-78060884D01*
X90299500Y-78134108D01*
X83991196Y-78134108D01*
X84022572Y-78102732D01*
X84022575Y-78102728D01*
X84048386Y-78060884D01*
X84111542Y-77958492D01*
X84111547Y-77958481D01*
X84164855Y-77797606D01*
X84174999Y-77698322D01*
X84175000Y-77698309D01*
X84175000Y-77675000D01*
X79025001Y-77675000D01*
X79025001Y-77698322D01*
X79035144Y-77797607D01*
X79088452Y-77958481D01*
X79088457Y-77958492D01*
X79177424Y-78102728D01*
X79177427Y-78102732D01*
X79262514Y-78187819D01*
X79273126Y-78207255D01*
X79287627Y-78223989D01*
X79289543Y-78237320D01*
X79295999Y-78249142D01*
X79294419Y-78271228D01*
X79297571Y-78293147D01*
X79291975Y-78305398D01*
X79291015Y-78318834D01*
X79277744Y-78336560D01*
X79268546Y-78356703D01*
X79257214Y-78363985D01*
X79249143Y-78374767D01*
X79228397Y-78382504D01*
X79209768Y-78394477D01*
X79187849Y-78397628D01*
X79183679Y-78399184D01*
X79174833Y-78399500D01*
X79119161Y-78399500D01*
X79052122Y-78379815D01*
X79031480Y-78363181D01*
X79012120Y-78343821D01*
X79012118Y-78343819D01*
X78920422Y-78290878D01*
X78897991Y-78277927D01*
X78834343Y-78260873D01*
X78770696Y-78243819D01*
X78638912Y-78243819D01*
X78511616Y-78277927D01*
X78397490Y-78343819D01*
X78397487Y-78343821D01*
X78304306Y-78437002D01*
X78304304Y-78437005D01*
X78238412Y-78551131D01*
X78225184Y-78600500D01*
X78204304Y-78678427D01*
X78204304Y-78810211D01*
X78211109Y-78835608D01*
X78238412Y-78937506D01*
X78260059Y-78974999D01*
X78304304Y-79051633D01*
X78397490Y-79144819D01*
X78511618Y-79210711D01*
X78638912Y-79244819D01*
X78638914Y-79244819D01*
X78770694Y-79244819D01*
X78770696Y-79244819D01*
X78897990Y-79210711D01*
X78897996Y-79210707D01*
X78899853Y-79209939D01*
X78903799Y-79209153D01*
X78905841Y-79208607D01*
X78905876Y-79208740D01*
X78947306Y-79200500D01*
X79213369Y-79200500D01*
X79280408Y-79220185D01*
X79326163Y-79272989D01*
X79335842Y-79305103D01*
X79340279Y-79333121D01*
X79340280Y-79333124D01*
X79340281Y-79333126D01*
X79401472Y-79453220D01*
X79401473Y-79453221D01*
X79401476Y-79453225D01*
X79496774Y-79548523D01*
X79496778Y-79548526D01*
X79496780Y-79548528D01*
X79616874Y-79609719D01*
X79619892Y-79610197D01*
X79623268Y-79611797D01*
X79626160Y-79612737D01*
X79626038Y-79613110D01*
X79650680Y-79624790D01*
X79681703Y-79638958D01*
X79682199Y-79639730D01*
X79683028Y-79640123D01*
X79701037Y-79669043D01*
X79719477Y-79697736D01*
X79719648Y-79698929D01*
X79719962Y-79699433D01*
X79724500Y-79732671D01*
X79724500Y-79785884D01*
X79704815Y-79852923D01*
X79656796Y-79896368D01*
X79646778Y-79901472D01*
X79551476Y-79996774D01*
X79551472Y-79996780D01*
X79537094Y-80025000D01*
X79533632Y-80031794D01*
X79485658Y-80082590D01*
X79423147Y-80099500D01*
X79158676Y-80099500D01*
X79091637Y-80079815D01*
X79070995Y-80063181D01*
X79007316Y-79999502D01*
X79007314Y-79999500D01*
X78950250Y-79966554D01*
X78893187Y-79933608D01*
X78829539Y-79916554D01*
X78765892Y-79899500D01*
X78634108Y-79899500D01*
X78506812Y-79933608D01*
X78392686Y-79999500D01*
X78392683Y-79999502D01*
X78299502Y-80092683D01*
X78299500Y-80092686D01*
X78233608Y-80206812D01*
X78199500Y-80334108D01*
X77094158Y-80334108D01*
X77033493Y-80324500D01*
X77033488Y-80324500D01*
X76516512Y-80324500D01*
X76516507Y-80324500D01*
X76416878Y-80340279D01*
X76296778Y-80401473D01*
X76277825Y-80420426D01*
X76216501Y-80453910D01*
X76146809Y-80448924D01*
X76090876Y-80407052D01*
X76084606Y-80397840D01*
X76022571Y-80297266D01*
X75902732Y-80177427D01*
X75902728Y-80177424D01*
X75758492Y-80088457D01*
X75758481Y-80088452D01*
X75597606Y-80035144D01*
X75498322Y-80025000D01*
X75475000Y-80025000D01*
X75475000Y-83363385D01*
X75470771Y-83395494D01*
X75469878Y-83398825D01*
X75437789Y-83454396D01*
X75399503Y-83492682D01*
X75399500Y-83492686D01*
X75333608Y-83606812D01*
X75331456Y-83614844D01*
X75299500Y-83734108D01*
X72500500Y-83734108D01*
X72500500Y-82898322D01*
X74275001Y-82898322D01*
X74285144Y-82997607D01*
X74338452Y-83158481D01*
X74338457Y-83158492D01*
X74427424Y-83302728D01*
X74427427Y-83302732D01*
X74547267Y-83422572D01*
X74547271Y-83422575D01*
X74691507Y-83511542D01*
X74691518Y-83511547D01*
X74852393Y-83564855D01*
X74951683Y-83574999D01*
X74975000Y-83574998D01*
X74975000Y-82850000D01*
X74275001Y-82850000D01*
X74275001Y-82898322D01*
X72500500Y-82898322D01*
X72500500Y-82301677D01*
X74275000Y-82301677D01*
X74275000Y-82350000D01*
X74975000Y-82350000D01*
X74975000Y-81250000D01*
X74275001Y-81250000D01*
X74275001Y-81298322D01*
X74285144Y-81397607D01*
X74338452Y-81558481D01*
X74338457Y-81558492D01*
X74427424Y-81702728D01*
X74427427Y-81702732D01*
X74437014Y-81712319D01*
X74470499Y-81773642D01*
X74465515Y-81843334D01*
X74437014Y-81887681D01*
X74427427Y-81897267D01*
X74427424Y-81897271D01*
X74338457Y-82041507D01*
X74338452Y-82041518D01*
X74285144Y-82202393D01*
X74275000Y-82301677D01*
X72500500Y-82301677D01*
X72500500Y-80701677D01*
X74275000Y-80701677D01*
X74275000Y-80750000D01*
X74975000Y-80750000D01*
X74975000Y-80024999D01*
X74951693Y-80025000D01*
X74951674Y-80025001D01*
X74852392Y-80035144D01*
X74691518Y-80088452D01*
X74691507Y-80088457D01*
X74547271Y-80177424D01*
X74547267Y-80177427D01*
X74427427Y-80297267D01*
X74427424Y-80297271D01*
X74338457Y-80441507D01*
X74338452Y-80441518D01*
X74285144Y-80602393D01*
X74275000Y-80701677D01*
X72500500Y-80701677D01*
X72500500Y-79163975D01*
X75339417Y-79163975D01*
X75339417Y-79295758D01*
X75373525Y-79423054D01*
X75390944Y-79453224D01*
X75439417Y-79537181D01*
X75532603Y-79630367D01*
X75646731Y-79696259D01*
X75774025Y-79730367D01*
X75774027Y-79730367D01*
X75905807Y-79730367D01*
X75905809Y-79730367D01*
X76033103Y-79696259D01*
X76147231Y-79630367D01*
X76240417Y-79537181D01*
X76306309Y-79423053D01*
X76340417Y-79295759D01*
X76340417Y-79163975D01*
X76306309Y-79036681D01*
X76240417Y-78922553D01*
X76147231Y-78829367D01*
X76108267Y-78806871D01*
X76100773Y-78799012D01*
X76090814Y-78794685D01*
X76077085Y-78774169D01*
X76060051Y-78756304D01*
X76057996Y-78745642D01*
X76051957Y-78736617D01*
X76051499Y-78711932D01*
X76046829Y-78687697D01*
X76050830Y-78675780D01*
X76050663Y-78666759D01*
X76064728Y-78634388D01*
X76084606Y-78602160D01*
X76136553Y-78555435D01*
X76205516Y-78544212D01*
X76269598Y-78572055D01*
X76277826Y-78579575D01*
X76296774Y-78598523D01*
X76296778Y-78598526D01*
X76296780Y-78598528D01*
X76416874Y-78659719D01*
X76416876Y-78659719D01*
X76416878Y-78659720D01*
X76516507Y-78675500D01*
X76516512Y-78675500D01*
X77033493Y-78675500D01*
X77133121Y-78659720D01*
X77133121Y-78659719D01*
X77133126Y-78659719D01*
X77253220Y-78598528D01*
X77348528Y-78503220D01*
X77409719Y-78383126D01*
X77409818Y-78382504D01*
X77425500Y-78283493D01*
X77425500Y-77716506D01*
X77409720Y-77616878D01*
X77409719Y-77616876D01*
X77409719Y-77616874D01*
X77348528Y-77496780D01*
X77348526Y-77496778D01*
X77348523Y-77496774D01*
X77253225Y-77401476D01*
X77253221Y-77401473D01*
X77253220Y-77401472D01*
X77247250Y-77398430D01*
X77198223Y-77373449D01*
X77147428Y-77325474D01*
X77141554Y-77314101D01*
X77137371Y-77304860D01*
X77126614Y-77264712D01*
X77080469Y-77184788D01*
X77047358Y-77151677D01*
X79025000Y-77151677D01*
X79025000Y-77175000D01*
X79750000Y-77175000D01*
X79750000Y-76475000D01*
X80250000Y-76475000D01*
X80250000Y-77175000D01*
X81350000Y-77175000D01*
X81350000Y-76475000D01*
X81850000Y-76475000D01*
X81850000Y-77175000D01*
X82950000Y-77175000D01*
X83450000Y-77175000D01*
X84174999Y-77175000D01*
X84174999Y-77151692D01*
X84174998Y-77151677D01*
X84164855Y-77052392D01*
X84111547Y-76891518D01*
X84111542Y-76891507D01*
X84022575Y-76747271D01*
X84022572Y-76747267D01*
X83902732Y-76627427D01*
X83902728Y-76627424D01*
X83758492Y-76538457D01*
X83758481Y-76538452D01*
X83597606Y-76485144D01*
X83498322Y-76475000D01*
X83450000Y-76475000D01*
X83450000Y-77175000D01*
X82950000Y-77175000D01*
X82950000Y-76475000D01*
X82949999Y-76474999D01*
X82901693Y-76475000D01*
X82901675Y-76475001D01*
X82802392Y-76485144D01*
X82641518Y-76538452D01*
X82641507Y-76538457D01*
X82497271Y-76627424D01*
X82497267Y-76627427D01*
X82487681Y-76637014D01*
X82426358Y-76670499D01*
X82356666Y-76665515D01*
X82312319Y-76637014D01*
X82302732Y-76627427D01*
X82302728Y-76627424D01*
X82158492Y-76538457D01*
X82158481Y-76538452D01*
X81997606Y-76485144D01*
X81898322Y-76475000D01*
X81850000Y-76475000D01*
X81350000Y-76475000D01*
X81349999Y-76474999D01*
X81301693Y-76475000D01*
X81301675Y-76475001D01*
X81202392Y-76485144D01*
X81041518Y-76538452D01*
X81041507Y-76538457D01*
X80897271Y-76627424D01*
X80897267Y-76627427D01*
X80887681Y-76637014D01*
X80826358Y-76670499D01*
X80756666Y-76665515D01*
X80712319Y-76637014D01*
X80702732Y-76627427D01*
X80702728Y-76627424D01*
X80558492Y-76538457D01*
X80558481Y-76538452D01*
X80397606Y-76485144D01*
X80298322Y-76475000D01*
X80250000Y-76475000D01*
X79750000Y-76475000D01*
X79749999Y-76474999D01*
X79701693Y-76475000D01*
X79701675Y-76475001D01*
X79602392Y-76485144D01*
X79441518Y-76538452D01*
X79441507Y-76538457D01*
X79297271Y-76627424D01*
X79297267Y-76627427D01*
X79177427Y-76747267D01*
X79177424Y-76747271D01*
X79088457Y-76891507D01*
X79088452Y-76891518D01*
X79035144Y-77052393D01*
X79025000Y-77151677D01*
X77047358Y-77151677D01*
X77015212Y-77119531D01*
X76615212Y-76719530D01*
X76615211Y-76719529D01*
X76615208Y-76719527D01*
X76535290Y-76673387D01*
X76535289Y-76673386D01*
X76535288Y-76673386D01*
X76446144Y-76649500D01*
X76446143Y-76649500D01*
X76308676Y-76649500D01*
X76241637Y-76629815D01*
X76220995Y-76613181D01*
X76207316Y-76599502D01*
X76207314Y-76599500D01*
X76150250Y-76566554D01*
X76093187Y-76533608D01*
X76029539Y-76516554D01*
X75965892Y-76499500D01*
X75834108Y-76499500D01*
X75706812Y-76533608D01*
X75592686Y-76599500D01*
X75592683Y-76599502D01*
X75499502Y-76692683D01*
X75499500Y-76692686D01*
X75433608Y-76806812D01*
X75417644Y-76866392D01*
X75399500Y-76934108D01*
X75399500Y-77065892D01*
X75429385Y-77177427D01*
X75433609Y-77193188D01*
X75433610Y-77193191D01*
X75458386Y-77236103D01*
X75475000Y-77298104D01*
X75475000Y-78835608D01*
X75455315Y-78902647D01*
X75442280Y-78918822D01*
X75439417Y-78922553D01*
X75373525Y-79036679D01*
X75339417Y-79163975D01*
X72500500Y-79163975D01*
X72500500Y-78298322D01*
X74275001Y-78298322D01*
X74285144Y-78397607D01*
X74338452Y-78558481D01*
X74338457Y-78558492D01*
X74427424Y-78702728D01*
X74427427Y-78702732D01*
X74547267Y-78822572D01*
X74547271Y-78822575D01*
X74691507Y-78911542D01*
X74691518Y-78911547D01*
X74852393Y-78964855D01*
X74951683Y-78974999D01*
X74975000Y-78974998D01*
X74975000Y-78250000D01*
X74275001Y-78250000D01*
X74275001Y-78298322D01*
X72500500Y-78298322D01*
X72500500Y-77701677D01*
X74275000Y-77701677D01*
X74275000Y-77750000D01*
X74975000Y-77750000D01*
X74975000Y-77024999D01*
X74951693Y-77025000D01*
X74951674Y-77025001D01*
X74852392Y-77035144D01*
X74691518Y-77088452D01*
X74691507Y-77088457D01*
X74547271Y-77177424D01*
X74547267Y-77177427D01*
X74427427Y-77297267D01*
X74427424Y-77297271D01*
X74338457Y-77441507D01*
X74338452Y-77441518D01*
X74285144Y-77602393D01*
X74275000Y-77701677D01*
X72500500Y-77701677D01*
X72500500Y-75424986D01*
X74050001Y-75424986D01*
X74060494Y-75527697D01*
X74115641Y-75694119D01*
X74115643Y-75694124D01*
X74207684Y-75843345D01*
X74331654Y-75967315D01*
X74480875Y-76059356D01*
X74480880Y-76059358D01*
X74647302Y-76114505D01*
X74647309Y-76114506D01*
X74750019Y-76124999D01*
X74799999Y-76124998D01*
X74800000Y-76124998D01*
X74800000Y-75150000D01*
X74050001Y-75150000D01*
X74050001Y-75424986D01*
X72500500Y-75424986D01*
X72500500Y-74375013D01*
X74050000Y-74375013D01*
X74050000Y-74650000D01*
X74800000Y-74650000D01*
X74800000Y-73050000D01*
X74050001Y-73050000D01*
X74050001Y-73324986D01*
X74060494Y-73427697D01*
X74115641Y-73594119D01*
X74115643Y-73594124D01*
X74207684Y-73743345D01*
X74226658Y-73762319D01*
X74260143Y-73823642D01*
X74255159Y-73893334D01*
X74226658Y-73937681D01*
X74207684Y-73956654D01*
X74115643Y-74105875D01*
X74115641Y-74105880D01*
X74060494Y-74272302D01*
X74060493Y-74272309D01*
X74050000Y-74375013D01*
X72500500Y-74375013D01*
X72500500Y-72275013D01*
X74050000Y-72275013D01*
X74050000Y-72550000D01*
X74800000Y-72550000D01*
X74800000Y-70950000D01*
X74050001Y-70950000D01*
X74050001Y-71224986D01*
X74060494Y-71327697D01*
X74115641Y-71494119D01*
X74115643Y-71494124D01*
X74207684Y-71643345D01*
X74226658Y-71662319D01*
X74260143Y-71723642D01*
X74255159Y-71793334D01*
X74226658Y-71837681D01*
X74207684Y-71856654D01*
X74115643Y-72005875D01*
X74115641Y-72005880D01*
X74060494Y-72172302D01*
X74060493Y-72172309D01*
X74050000Y-72275013D01*
X72500500Y-72275013D01*
X72500500Y-70175013D01*
X74050000Y-70175013D01*
X74050000Y-70450000D01*
X74800000Y-70450000D01*
X74800000Y-68850000D01*
X74050001Y-68850000D01*
X74050001Y-69124986D01*
X74060494Y-69227697D01*
X74115641Y-69394119D01*
X74115643Y-69394124D01*
X74207684Y-69543345D01*
X74226658Y-69562319D01*
X74260143Y-69623642D01*
X74255159Y-69693334D01*
X74226658Y-69737681D01*
X74207684Y-69756654D01*
X74115643Y-69905875D01*
X74115641Y-69905880D01*
X74060494Y-70072302D01*
X74060493Y-70072309D01*
X74050000Y-70175013D01*
X72500500Y-70175013D01*
X72500500Y-68075013D01*
X74050000Y-68075013D01*
X74050000Y-68350000D01*
X74800000Y-68350000D01*
X74800000Y-66750000D01*
X74050001Y-66750000D01*
X74050001Y-67024986D01*
X74060494Y-67127697D01*
X74115641Y-67294119D01*
X74115643Y-67294124D01*
X74207684Y-67443345D01*
X74226658Y-67462319D01*
X74260143Y-67523642D01*
X74255159Y-67593334D01*
X74226658Y-67637681D01*
X74207684Y-67656654D01*
X74115643Y-67805875D01*
X74115641Y-67805880D01*
X74060494Y-67972302D01*
X74060493Y-67972309D01*
X74050000Y-68075013D01*
X72500500Y-68075013D01*
X72500500Y-65334108D01*
X73099500Y-65334108D01*
X73099500Y-65465892D01*
X73116554Y-65529539D01*
X73133608Y-65593187D01*
X73135938Y-65597222D01*
X73199500Y-65707314D01*
X73292686Y-65800500D01*
X73406814Y-65866392D01*
X73534108Y-65900500D01*
X73534110Y-65900500D01*
X73665890Y-65900500D01*
X73665892Y-65900500D01*
X73793186Y-65866392D01*
X73867888Y-65823262D01*
X73935786Y-65806790D01*
X74001813Y-65829642D01*
X74045004Y-65884563D01*
X74053245Y-65943251D01*
X74050000Y-65975008D01*
X74050000Y-66250000D01*
X74926000Y-66250000D01*
X74993039Y-66269685D01*
X75038794Y-66322489D01*
X75050000Y-66374000D01*
X75050000Y-66500000D01*
X75176000Y-66500000D01*
X75243039Y-66519685D01*
X75288794Y-66572489D01*
X75300000Y-66624000D01*
X75300000Y-76124999D01*
X75349972Y-76124999D01*
X75349986Y-76124998D01*
X75452697Y-76114505D01*
X75619119Y-76059358D01*
X75619124Y-76059356D01*
X75768345Y-75967315D01*
X75892315Y-75843345D01*
X75984356Y-75694124D01*
X75984359Y-75694117D01*
X76040094Y-75525918D01*
X76079866Y-75468473D01*
X76144382Y-75441649D01*
X76213158Y-75453964D01*
X76264358Y-75501506D01*
X76274841Y-75523965D01*
X76276147Y-75527697D01*
X76297207Y-75587882D01*
X76377850Y-75697150D01*
X76487118Y-75777793D01*
X76529845Y-75792744D01*
X76615299Y-75822646D01*
X76645730Y-75825500D01*
X76645734Y-75825500D01*
X77254270Y-75825500D01*
X77284699Y-75822646D01*
X77284701Y-75822646D01*
X77348790Y-75800219D01*
X77412882Y-75777793D01*
X77522150Y-75697150D01*
X77602793Y-75587882D01*
X77644576Y-75468473D01*
X77647646Y-75459701D01*
X77647646Y-75459699D01*
X77650500Y-75429269D01*
X77650500Y-75074500D01*
X77670185Y-75007461D01*
X77722989Y-74961706D01*
X77774500Y-74950500D01*
X78546142Y-74950500D01*
X78546144Y-74950500D01*
X78635288Y-74926614D01*
X78715212Y-74880470D01*
X80308942Y-73286739D01*
X80355087Y-73206815D01*
X80369277Y-73153856D01*
X80378973Y-73117671D01*
X80378973Y-72534108D01*
X87699500Y-72534108D01*
X87699500Y-72665891D01*
X87733608Y-72793187D01*
X87766554Y-72850250D01*
X87799500Y-72907314D01*
X87892686Y-73000500D01*
X88006814Y-73066392D01*
X88134108Y-73100500D01*
X88153456Y-73100500D01*
X88182896Y-73109144D01*
X88212883Y-73115668D01*
X88217898Y-73119422D01*
X88220495Y-73120185D01*
X88241137Y-73136819D01*
X88413181Y-73308863D01*
X88446666Y-73370186D01*
X88449500Y-73396544D01*
X88449500Y-75991324D01*
X88429815Y-76058363D01*
X88413181Y-76079005D01*
X88399502Y-76092683D01*
X88399500Y-76092686D01*
X88333608Y-76206812D01*
X88299500Y-76334108D01*
X88299500Y-76465892D01*
X88301941Y-76475001D01*
X88333608Y-76593187D01*
X88345152Y-76613181D01*
X88399500Y-76707314D01*
X88492686Y-76800500D01*
X88606814Y-76866392D01*
X88734108Y-76900500D01*
X88734110Y-76900500D01*
X88865890Y-76900500D01*
X88865892Y-76900500D01*
X88993186Y-76866392D01*
X89107314Y-76800500D01*
X89200500Y-76707314D01*
X89266392Y-76593186D01*
X89300500Y-76465892D01*
X89300500Y-76334108D01*
X89266392Y-76206814D01*
X89200500Y-76092686D01*
X89186819Y-76079005D01*
X89153334Y-76017682D01*
X89150500Y-75991324D01*
X89150500Y-73153856D01*
X89140804Y-73117670D01*
X89126614Y-73064712D01*
X89103908Y-73025384D01*
X89080470Y-72984788D01*
X88736819Y-72641137D01*
X88703334Y-72579814D01*
X88700500Y-72553456D01*
X88700500Y-72534110D01*
X88700500Y-72534108D01*
X88666392Y-72406814D01*
X88600500Y-72292686D01*
X88507314Y-72199500D01*
X88450250Y-72166554D01*
X88393187Y-72133608D01*
X88312983Y-72112118D01*
X88265892Y-72099500D01*
X88134108Y-72099500D01*
X88006812Y-72133608D01*
X87892686Y-72199500D01*
X87892683Y-72199502D01*
X87799502Y-72292683D01*
X87799500Y-72292686D01*
X87733608Y-72406812D01*
X87699500Y-72534108D01*
X80378973Y-72534108D01*
X80378973Y-71203116D01*
X80386554Y-71160424D01*
X80390237Y-71150379D01*
X80426614Y-71087374D01*
X80432236Y-71066392D01*
X80450500Y-70998230D01*
X80450500Y-70986047D01*
X80457729Y-70966335D01*
X80470672Y-70948844D01*
X80479474Y-70928947D01*
X80486457Y-70921356D01*
X80500500Y-70907314D01*
X80566392Y-70793186D01*
X80600500Y-70665892D01*
X80600500Y-70534108D01*
X80599448Y-70530181D01*
X80599529Y-70526742D01*
X80599439Y-70526052D01*
X80599546Y-70526037D01*
X80601111Y-70460333D01*
X80640274Y-70402471D01*
X80704503Y-70374967D01*
X80751309Y-70378314D01*
X80834108Y-70400500D01*
X80834111Y-70400500D01*
X80965890Y-70400500D01*
X80965892Y-70400500D01*
X81093186Y-70366392D01*
X81207314Y-70300500D01*
X81300500Y-70207314D01*
X81366392Y-70093186D01*
X81400500Y-69965892D01*
X81400500Y-69834108D01*
X81366392Y-69706814D01*
X81300500Y-69592686D01*
X81293482Y-69585668D01*
X81259997Y-69524345D01*
X81264981Y-69454653D01*
X81306853Y-69398720D01*
X81349068Y-69378213D01*
X81393186Y-69366392D01*
X81507314Y-69300500D01*
X81600500Y-69207314D01*
X81666392Y-69093186D01*
X81700500Y-68965892D01*
X81700500Y-68834108D01*
X81666392Y-68706814D01*
X81600500Y-68592686D01*
X81507314Y-68499500D01*
X81441421Y-68461456D01*
X81393185Y-68433607D01*
X81393186Y-68433607D01*
X81384551Y-68431294D01*
X81324891Y-68394928D01*
X81294363Y-68332080D01*
X81296872Y-68279429D01*
X81300500Y-68265892D01*
X81300500Y-68134108D01*
X81266392Y-68006814D01*
X81200500Y-67892686D01*
X81107314Y-67799500D01*
X81050250Y-67766554D01*
X80993187Y-67733608D01*
X80929539Y-67716554D01*
X80865892Y-67699500D01*
X80734108Y-67699500D01*
X80606812Y-67733608D01*
X80492686Y-67799500D01*
X80481938Y-67810248D01*
X80420613Y-67843731D01*
X80350922Y-67838744D01*
X80294990Y-67796871D01*
X80286872Y-67784564D01*
X80250869Y-67722206D01*
X80220313Y-67669281D01*
X80127127Y-67576095D01*
X80070063Y-67543149D01*
X80013000Y-67510203D01*
X79949352Y-67493149D01*
X79885705Y-67476095D01*
X79753921Y-67476095D01*
X79626625Y-67510203D01*
X79512499Y-67576095D01*
X79512496Y-67576097D01*
X79498818Y-67589776D01*
X79437495Y-67623261D01*
X79411137Y-67626095D01*
X78523138Y-67626095D01*
X78456099Y-67606410D01*
X78435457Y-67589776D01*
X77686819Y-66841137D01*
X77653334Y-66779814D01*
X77650500Y-66753456D01*
X77650500Y-65970730D01*
X77647646Y-65940300D01*
X77647646Y-65940298D01*
X77602793Y-65812119D01*
X77602792Y-65812117D01*
X77528449Y-65711386D01*
X77504480Y-65645760D01*
X77519795Y-65577590D01*
X77563125Y-65532216D01*
X77668343Y-65467317D01*
X77792315Y-65343345D01*
X77884356Y-65194124D01*
X77884358Y-65194119D01*
X77939505Y-65027697D01*
X77939506Y-65027690D01*
X77949999Y-64924986D01*
X77950000Y-64924973D01*
X77950000Y-64650000D01*
X77074000Y-64650000D01*
X77006961Y-64630315D01*
X76961206Y-64577511D01*
X76950000Y-64526000D01*
X76950000Y-64400000D01*
X76824000Y-64400000D01*
X76756961Y-64380315D01*
X76711206Y-64327511D01*
X76700000Y-64276000D01*
X76700000Y-64150000D01*
X77200000Y-64150000D01*
X77949999Y-64150000D01*
X77949999Y-63875028D01*
X77949998Y-63875013D01*
X77939505Y-63772302D01*
X77884358Y-63605880D01*
X77884356Y-63605875D01*
X77792315Y-63456654D01*
X77668345Y-63332684D01*
X77519124Y-63240643D01*
X77519119Y-63240641D01*
X77352697Y-63185494D01*
X77352690Y-63185493D01*
X77249986Y-63175000D01*
X77200000Y-63175000D01*
X77200000Y-64150000D01*
X76700000Y-64150000D01*
X76700000Y-63175000D01*
X76699999Y-63174999D01*
X76650029Y-63175000D01*
X76650011Y-63175001D01*
X76547302Y-63185494D01*
X76380880Y-63240641D01*
X76380875Y-63240643D01*
X76231654Y-63332684D01*
X76107684Y-63456654D01*
X76015643Y-63605875D01*
X76015641Y-63605880D01*
X75959905Y-63774082D01*
X75920132Y-63831527D01*
X75855617Y-63858350D01*
X75786841Y-63846035D01*
X75735641Y-63798492D01*
X75725158Y-63776033D01*
X75702793Y-63712119D01*
X75702792Y-63712117D01*
X75622150Y-63602850D01*
X75512882Y-63522207D01*
X75512880Y-63522206D01*
X75384700Y-63477353D01*
X75354270Y-63474500D01*
X75354266Y-63474500D01*
X74745734Y-63474500D01*
X74745730Y-63474500D01*
X74715300Y-63477353D01*
X74715298Y-63477353D01*
X74587119Y-63522206D01*
X74587117Y-63522207D01*
X74477850Y-63602850D01*
X74397207Y-63712117D01*
X74397206Y-63712119D01*
X74352353Y-63840298D01*
X74352353Y-63840300D01*
X74349500Y-63870730D01*
X74349500Y-64175500D01*
X74329815Y-64242539D01*
X74277011Y-64288294D01*
X74225500Y-64299500D01*
X74060438Y-64299500D01*
X73984010Y-64319978D01*
X73915489Y-64359540D01*
X73915486Y-64359542D01*
X73359542Y-64915486D01*
X73359538Y-64915492D01*
X73336822Y-64954836D01*
X73298252Y-64993408D01*
X73299131Y-64994554D01*
X73292689Y-64999496D01*
X73199500Y-65092686D01*
X73133608Y-65206812D01*
X73118063Y-65264829D01*
X73099500Y-65334108D01*
X72500500Y-65334108D01*
X72500500Y-62409108D01*
X80049500Y-62409108D01*
X80049500Y-62540891D01*
X80083608Y-62668187D01*
X80116554Y-62725250D01*
X80149500Y-62782314D01*
X80242686Y-62875500D01*
X80356814Y-62941392D01*
X80484108Y-62975500D01*
X80484110Y-62975500D01*
X80615890Y-62975500D01*
X80615892Y-62975500D01*
X80743186Y-62941392D01*
X80857314Y-62875500D01*
X80950500Y-62782314D01*
X81016392Y-62668186D01*
X81050500Y-62540892D01*
X81050500Y-62409108D01*
X81549500Y-62409108D01*
X81549500Y-62540891D01*
X81583608Y-62668187D01*
X81616554Y-62725250D01*
X81649500Y-62782314D01*
X81742686Y-62875500D01*
X81856814Y-62941392D01*
X81984108Y-62975500D01*
X81984110Y-62975500D01*
X82115890Y-62975500D01*
X82115892Y-62975500D01*
X82243186Y-62941392D01*
X82357314Y-62875500D01*
X82450500Y-62782314D01*
X82516392Y-62668186D01*
X82550500Y-62540892D01*
X82550500Y-62409108D01*
X82516392Y-62281814D01*
X82450500Y-62167686D01*
X82357314Y-62074500D01*
X82292049Y-62036819D01*
X82243187Y-62008608D01*
X82161692Y-61986772D01*
X82115892Y-61974500D01*
X81984108Y-61974500D01*
X81856812Y-62008608D01*
X81742686Y-62074500D01*
X81742683Y-62074502D01*
X81649502Y-62167683D01*
X81649500Y-62167686D01*
X81583608Y-62281812D01*
X81549500Y-62409108D01*
X81050500Y-62409108D01*
X81016392Y-62281814D01*
X80950500Y-62167686D01*
X80857314Y-62074500D01*
X80792049Y-62036819D01*
X80743187Y-62008608D01*
X80661692Y-61986772D01*
X80615892Y-61974500D01*
X80484108Y-61974500D01*
X80356812Y-62008608D01*
X80242686Y-62074500D01*
X80242683Y-62074502D01*
X80149502Y-62167683D01*
X80149500Y-62167686D01*
X80083608Y-62281812D01*
X80049500Y-62409108D01*
X72500500Y-62409108D01*
X72500500Y-61434108D01*
X73499500Y-61434108D01*
X73499500Y-61565891D01*
X73533608Y-61693187D01*
X73566554Y-61750250D01*
X73599500Y-61807314D01*
X73692686Y-61900500D01*
X73806814Y-61966392D01*
X73934108Y-62000500D01*
X73934110Y-62000500D01*
X74065890Y-62000500D01*
X74065892Y-62000500D01*
X74193186Y-61966392D01*
X74307314Y-61900500D01*
X74400500Y-61807314D01*
X74466392Y-61693186D01*
X74500500Y-61565892D01*
X74500500Y-61434108D01*
X74466392Y-61306814D01*
X74400500Y-61192686D01*
X74336818Y-61129004D01*
X74303334Y-61067680D01*
X74300500Y-61041323D01*
X74300500Y-56475832D01*
X74320185Y-56408793D01*
X74336814Y-56388156D01*
X75588151Y-55136818D01*
X75649474Y-55103334D01*
X75675832Y-55100500D01*
X75765890Y-55100500D01*
X75765892Y-55100500D01*
X75893186Y-55066392D01*
X76007314Y-55000500D01*
X76100500Y-54907314D01*
X76166392Y-54793186D01*
X76200500Y-54665892D01*
X76200500Y-54649986D01*
X79175001Y-54649986D01*
X79185494Y-54752697D01*
X79240641Y-54919119D01*
X79240643Y-54919124D01*
X79332684Y-55068345D01*
X79456654Y-55192315D01*
X79605875Y-55284356D01*
X79605880Y-55284358D01*
X79772302Y-55339505D01*
X79772309Y-55339506D01*
X79875019Y-55349999D01*
X80149999Y-55349999D01*
X80150000Y-55349998D01*
X80150000Y-54600000D01*
X79175001Y-54600000D01*
X79175001Y-54649986D01*
X76200500Y-54649986D01*
X76200500Y-54534108D01*
X76166392Y-54406814D01*
X76100500Y-54292686D01*
X76007314Y-54199500D01*
X75915075Y-54146246D01*
X75893187Y-54133608D01*
X75796088Y-54107591D01*
X75765892Y-54099500D01*
X75634108Y-54099500D01*
X75506812Y-54133608D01*
X75392686Y-54199500D01*
X75392683Y-54199502D01*
X75299502Y-54292683D01*
X75299500Y-54292686D01*
X75233608Y-54406812D01*
X75199500Y-54534108D01*
X75199500Y-54624166D01*
X75179815Y-54691205D01*
X75163181Y-54711847D01*
X73815489Y-56059540D01*
X73759541Y-56115487D01*
X73759535Y-56115495D01*
X73719982Y-56184004D01*
X73719979Y-56184009D01*
X73714779Y-56203416D01*
X73701928Y-56251379D01*
X73699500Y-56260439D01*
X73699500Y-61041323D01*
X73679815Y-61108362D01*
X73663182Y-61129004D01*
X73599500Y-61192686D01*
X73533608Y-61306812D01*
X73499500Y-61434108D01*
X72500500Y-61434108D01*
X72500500Y-54050013D01*
X79175000Y-54050013D01*
X79175000Y-54100000D01*
X80276000Y-54100000D01*
X80343039Y-54119685D01*
X80388794Y-54172489D01*
X80400000Y-54224000D01*
X80400000Y-54350000D01*
X80526000Y-54350000D01*
X80593039Y-54369685D01*
X80638794Y-54422489D01*
X80650000Y-54474000D01*
X80650000Y-55349999D01*
X80924972Y-55349999D01*
X80924986Y-55349998D01*
X81027697Y-55339505D01*
X81194119Y-55284358D01*
X81194124Y-55284356D01*
X81343345Y-55192315D01*
X81467315Y-55068345D01*
X81559356Y-54919124D01*
X81559359Y-54919117D01*
X81612318Y-54759296D01*
X81652090Y-54701851D01*
X81716606Y-54675027D01*
X81785382Y-54687342D01*
X81836582Y-54734884D01*
X81848297Y-54761051D01*
X81851292Y-54770562D01*
X81859427Y-54826393D01*
X81885982Y-54880712D01*
X81888773Y-54889574D01*
X81889039Y-54903218D01*
X81894500Y-54926822D01*
X81894500Y-55174764D01*
X81874815Y-55241803D01*
X81858174Y-55260361D01*
X81858953Y-55261084D01*
X81852922Y-55267583D01*
X81800893Y-55342789D01*
X81800889Y-55342797D01*
X81774925Y-55407650D01*
X81774921Y-55407661D01*
X81767025Y-55431522D01*
X81763915Y-55522921D01*
X81763916Y-55522925D01*
X81777138Y-55591532D01*
X81783396Y-55615877D01*
X81830195Y-55694452D01*
X81878410Y-55745020D01*
X81924389Y-55781179D01*
X81967000Y-55805780D01*
X81992680Y-55825486D01*
X82024513Y-55857319D01*
X82044219Y-55883000D01*
X82066733Y-55921995D01*
X82079119Y-55951898D01*
X82090774Y-55995392D01*
X82095000Y-56027485D01*
X82095000Y-56072513D01*
X82090774Y-56104609D01*
X82079120Y-56148099D01*
X82066733Y-56178003D01*
X82044219Y-56216998D01*
X82024513Y-56242679D01*
X81992679Y-56274513D01*
X81966998Y-56294219D01*
X81928003Y-56316733D01*
X81898099Y-56329120D01*
X81879887Y-56334000D01*
X81854607Y-56340774D01*
X81822513Y-56345000D01*
X81725976Y-56345000D01*
X81680253Y-56350152D01*
X81671217Y-56352755D01*
X81655269Y-56356231D01*
X81642054Y-56358211D01*
X81642043Y-56358213D01*
X81642038Y-56358214D01*
X81627269Y-56361314D01*
X81618626Y-56363129D01*
X81537916Y-56406138D01*
X81537913Y-56406140D01*
X81485104Y-56451899D01*
X81467160Y-56469481D01*
X81467154Y-56469488D01*
X81422511Y-56549298D01*
X81422509Y-56549303D01*
X81402826Y-56616335D01*
X81394500Y-56674242D01*
X81394500Y-60076007D01*
X81399197Y-60119686D01*
X81410397Y-60171174D01*
X81412890Y-60181372D01*
X81412891Y-60181375D01*
X81455899Y-60262083D01*
X81455901Y-60262086D01*
X81501660Y-60314895D01*
X81516728Y-60330273D01*
X81519246Y-60332843D01*
X81519247Y-60332844D01*
X81519249Y-60332845D01*
X81599059Y-60377488D01*
X81599063Y-60377490D01*
X81666102Y-60397175D01*
X81724000Y-60405500D01*
X81724004Y-60405500D01*
X82555052Y-60405500D01*
X82576584Y-60402628D01*
X82608889Y-60398321D01*
X82671596Y-60381297D01*
X82691491Y-60374792D01*
X82767415Y-60323803D01*
X82815296Y-60272919D01*
X82831370Y-60253593D01*
X82832232Y-60251599D01*
X82833620Y-60249929D01*
X82836015Y-60246034D01*
X82836574Y-60246378D01*
X82876909Y-60197883D01*
X82943536Y-60176846D01*
X83010960Y-60195171D01*
X83046366Y-60227941D01*
X83051475Y-60234974D01*
X83146774Y-60330273D01*
X83146778Y-60330276D01*
X83146780Y-60330278D01*
X83266874Y-60391469D01*
X83266876Y-60391469D01*
X83266878Y-60391470D01*
X83366507Y-60407250D01*
X83366512Y-60407250D01*
X83883493Y-60407250D01*
X83983121Y-60391470D01*
X83983121Y-60391469D01*
X83983126Y-60391469D01*
X84103220Y-60330278D01*
X84198528Y-60234970D01*
X84198531Y-60234963D01*
X84204261Y-60227078D01*
X84207048Y-60229103D01*
X84242963Y-60191035D01*
X84310775Y-60174202D01*
X84376922Y-60196703D01*
X84402902Y-60221310D01*
X84409757Y-60230003D01*
X84426853Y-60262085D01*
X84472608Y-60314889D01*
X84490199Y-60332843D01*
X84491366Y-60333495D01*
X84497670Y-60341490D01*
X84508310Y-60367968D01*
X84521730Y-60393151D01*
X84521172Y-60399971D01*
X84523724Y-60406321D01*
X84518360Y-60434351D01*
X84516034Y-60462789D01*
X84511302Y-60471232D01*
X84510592Y-60474945D01*
X84507256Y-60478452D01*
X84503307Y-60485499D01*
X84503564Y-60485648D01*
X84433608Y-60606812D01*
X84399500Y-60734108D01*
X84399500Y-60865891D01*
X84433608Y-60993187D01*
X84461400Y-61041323D01*
X84499500Y-61107314D01*
X84499502Y-61107316D01*
X84580005Y-61187819D01*
X84613490Y-61249142D01*
X84608506Y-61318834D01*
X84566634Y-61374767D01*
X84501170Y-61399184D01*
X84492324Y-61399500D01*
X83658676Y-61399500D01*
X83591637Y-61379815D01*
X83570995Y-61363181D01*
X83507316Y-61299502D01*
X83507314Y-61299500D01*
X83420092Y-61249142D01*
X83393187Y-61233608D01*
X83329539Y-61216554D01*
X83265892Y-61199500D01*
X83134108Y-61199500D01*
X83006812Y-61233608D01*
X82892686Y-61299500D01*
X82892683Y-61299502D01*
X82799502Y-61392683D01*
X82799500Y-61392686D01*
X82733608Y-61506812D01*
X82717778Y-61565892D01*
X82699500Y-61634108D01*
X82699500Y-61765892D01*
X82711840Y-61811947D01*
X82733608Y-61893187D01*
X82760902Y-61940460D01*
X82799500Y-62007314D01*
X82892686Y-62100500D01*
X83006814Y-62166392D01*
X83134108Y-62200500D01*
X83134110Y-62200500D01*
X83265890Y-62200500D01*
X83265892Y-62200500D01*
X83393186Y-62166392D01*
X83507314Y-62100500D01*
X83570995Y-62036819D01*
X83632318Y-62003334D01*
X83658676Y-62000500D01*
X84910272Y-62000500D01*
X84910274Y-62000500D01*
X84986701Y-61980021D01*
X85053618Y-61941386D01*
X85121516Y-61924913D01*
X85187543Y-61947765D01*
X85223004Y-61986772D01*
X85230930Y-62000500D01*
X85283736Y-62091962D01*
X85376922Y-62185148D01*
X85491050Y-62251040D01*
X85618344Y-62285148D01*
X85618346Y-62285148D01*
X85750126Y-62285148D01*
X85750128Y-62285148D01*
X85877422Y-62251040D01*
X85991550Y-62185148D01*
X87222104Y-60954591D01*
X87222109Y-60954588D01*
X87232312Y-60944384D01*
X87232314Y-60944384D01*
X87325500Y-60851198D01*
X87391392Y-60737070D01*
X87410780Y-60664712D01*
X87425500Y-60609777D01*
X87425500Y-60477992D01*
X87425500Y-60359360D01*
X87445185Y-60292321D01*
X87448070Y-60288030D01*
X87454236Y-60279261D01*
X87498528Y-60234970D01*
X87533101Y-60167116D01*
X87538162Y-60159920D01*
X87558893Y-60143417D01*
X87577082Y-60124159D01*
X87586178Y-60121698D01*
X87592827Y-60116406D01*
X87613494Y-60114309D01*
X87639592Y-60107250D01*
X87853648Y-60107250D01*
X87920687Y-60126935D01*
X87966442Y-60179739D01*
X87970690Y-60190298D01*
X87972205Y-60194628D01*
X87972206Y-60194631D01*
X87972605Y-60195171D01*
X88052850Y-60303900D01*
X88162118Y-60384543D01*
X88198213Y-60397173D01*
X88290299Y-60429396D01*
X88320730Y-60432250D01*
X88320734Y-60432250D01*
X88929270Y-60432250D01*
X88959699Y-60429396D01*
X88959701Y-60429396D01*
X89045137Y-60399500D01*
X89087882Y-60384543D01*
X89197150Y-60303900D01*
X89277793Y-60194632D01*
X89300158Y-60130714D01*
X89340877Y-60073942D01*
X89405830Y-60048194D01*
X89474392Y-60061650D01*
X89524795Y-60110037D01*
X89534904Y-60132667D01*
X89590642Y-60300871D01*
X89590643Y-60300874D01*
X89682684Y-60450095D01*
X89806654Y-60574065D01*
X89955875Y-60666106D01*
X89955880Y-60666108D01*
X90122302Y-60721255D01*
X90122309Y-60721256D01*
X90225019Y-60731749D01*
X90775000Y-60731749D01*
X90824972Y-60731749D01*
X90824986Y-60731748D01*
X90927697Y-60721255D01*
X91094119Y-60666108D01*
X91094124Y-60666106D01*
X91243345Y-60574065D01*
X91367315Y-60450095D01*
X91459356Y-60300874D01*
X91459358Y-60300869D01*
X91514505Y-60134447D01*
X91514506Y-60134440D01*
X91524999Y-60031736D01*
X91525000Y-60031723D01*
X91525000Y-59756750D01*
X90775000Y-59756750D01*
X90775000Y-60731749D01*
X90225019Y-60731749D01*
X90274999Y-60731748D01*
X90275000Y-60731748D01*
X90275000Y-59256750D01*
X90775000Y-59256750D01*
X91524999Y-59256750D01*
X91524999Y-58981778D01*
X91524998Y-58981763D01*
X91514505Y-58879052D01*
X91459358Y-58712630D01*
X91459356Y-58712625D01*
X91367315Y-58563404D01*
X91243345Y-58439434D01*
X91094124Y-58347393D01*
X91094119Y-58347391D01*
X90927697Y-58292244D01*
X90927690Y-58292243D01*
X90824986Y-58281750D01*
X90775000Y-58281750D01*
X90775000Y-59256750D01*
X90275000Y-59256750D01*
X90275000Y-58281750D01*
X90274999Y-58281749D01*
X90225029Y-58281750D01*
X90225011Y-58281751D01*
X90122302Y-58292244D01*
X89955880Y-58347391D01*
X89955875Y-58347393D01*
X89806654Y-58439434D01*
X89682684Y-58563404D01*
X89590643Y-58712625D01*
X89590641Y-58712630D01*
X89534905Y-58880832D01*
X89495132Y-58938277D01*
X89430617Y-58965100D01*
X89361841Y-58952785D01*
X89310641Y-58905242D01*
X89300158Y-58882783D01*
X89277793Y-58818869D01*
X89277792Y-58818867D01*
X89260280Y-58795139D01*
X89197150Y-58709600D01*
X89087882Y-58628957D01*
X89087880Y-58628956D01*
X88959700Y-58584103D01*
X88929270Y-58581250D01*
X88929266Y-58581250D01*
X88320734Y-58581250D01*
X88320730Y-58581250D01*
X88290300Y-58584103D01*
X88290298Y-58584103D01*
X88162119Y-58628956D01*
X88162117Y-58628957D01*
X88052850Y-58709600D01*
X87972207Y-58818867D01*
X87972206Y-58818869D01*
X87927353Y-58947048D01*
X87927353Y-58947050D01*
X87924500Y-58977480D01*
X87924500Y-58982250D01*
X87921949Y-58990935D01*
X87923238Y-58999897D01*
X87912259Y-59023937D01*
X87904815Y-59049289D01*
X87897974Y-59055216D01*
X87894213Y-59063453D01*
X87871978Y-59077742D01*
X87852011Y-59095044D01*
X87841496Y-59097331D01*
X87835435Y-59101227D01*
X87800500Y-59106250D01*
X87639592Y-59106250D01*
X87572553Y-59086565D01*
X87529108Y-59038545D01*
X87519246Y-59019190D01*
X87506349Y-58950521D01*
X87532625Y-58885781D01*
X87542032Y-58875231D01*
X87622125Y-58795139D01*
X87688017Y-58681011D01*
X87722125Y-58553717D01*
X87722125Y-58421933D01*
X87688017Y-58294639D01*
X87622125Y-58180511D01*
X87528939Y-58087325D01*
X87508846Y-58075724D01*
X87483888Y-58061314D01*
X87435674Y-58010747D01*
X87422452Y-57942139D01*
X87446120Y-57880294D01*
X87447147Y-57878901D01*
X87447150Y-57878900D01*
X87527793Y-57769632D01*
X87550219Y-57705540D01*
X87572646Y-57641451D01*
X87572646Y-57641449D01*
X87575500Y-57611019D01*
X87575500Y-57331250D01*
X87595185Y-57264211D01*
X87647989Y-57218456D01*
X87699500Y-57207250D01*
X87957746Y-57207250D01*
X88024785Y-57226935D01*
X88045422Y-57243564D01*
X88111658Y-57309800D01*
X88224694Y-57367395D01*
X88224698Y-57367397D01*
X88318475Y-57382249D01*
X88318481Y-57382250D01*
X88781518Y-57382249D01*
X88875304Y-57367396D01*
X88988342Y-57309800D01*
X89078050Y-57220092D01*
X89102995Y-57171134D01*
X89150967Y-57120341D01*
X89218788Y-57103546D01*
X89284923Y-57126083D01*
X89328375Y-57180798D01*
X89331863Y-57190541D01*
X89356981Y-57271146D01*
X89444927Y-57416627D01*
X89565122Y-57536822D01*
X89710604Y-57624769D01*
X89710603Y-57624769D01*
X89872894Y-57675340D01*
X89872893Y-57675340D01*
X89943408Y-57681748D01*
X89943426Y-57681749D01*
X90450000Y-57681749D01*
X90456581Y-57681749D01*
X90527102Y-57675341D01*
X90527107Y-57675340D01*
X90689396Y-57624768D01*
X90834877Y-57536822D01*
X90955072Y-57416627D01*
X91043019Y-57271145D01*
X91093590Y-57108856D01*
X91100000Y-57038322D01*
X91100000Y-56956750D01*
X90450000Y-56956750D01*
X90450000Y-57681749D01*
X89943426Y-57681749D01*
X89949999Y-57681748D01*
X89950000Y-57681748D01*
X89950000Y-56830750D01*
X89969685Y-56763711D01*
X90022489Y-56717956D01*
X90074000Y-56706750D01*
X90200000Y-56706750D01*
X90200000Y-56580750D01*
X90219685Y-56513711D01*
X90272489Y-56467956D01*
X90324000Y-56456750D01*
X91099999Y-56456750D01*
X91099999Y-56375167D01*
X91093591Y-56304647D01*
X91093590Y-56304642D01*
X91043018Y-56142353D01*
X90955072Y-55996872D01*
X90913843Y-55955643D01*
X90880358Y-55894320D01*
X90881748Y-55835872D01*
X90900500Y-55765892D01*
X90900500Y-55634108D01*
X90866392Y-55506814D01*
X90800500Y-55392686D01*
X90707314Y-55299500D01*
X90640776Y-55261084D01*
X90593187Y-55233608D01*
X90529539Y-55216554D01*
X90465892Y-55199500D01*
X90334108Y-55199500D01*
X90206812Y-55233608D01*
X90092686Y-55299500D01*
X90092683Y-55299502D01*
X89999502Y-55392683D01*
X89999500Y-55392686D01*
X89933608Y-55506812D01*
X89899500Y-55634108D01*
X89899500Y-55638627D01*
X89879815Y-55705666D01*
X89827011Y-55751421D01*
X89812391Y-55757012D01*
X89710603Y-55788731D01*
X89565122Y-55876677D01*
X89444927Y-55996872D01*
X89356981Y-56142353D01*
X89331863Y-56222959D01*
X89293125Y-56281106D01*
X89229100Y-56309080D01*
X89160115Y-56297998D01*
X89108072Y-56251379D01*
X89103002Y-56242380D01*
X89078050Y-56193408D01*
X89078048Y-56193406D01*
X89078045Y-56193402D01*
X88988347Y-56103704D01*
X88988344Y-56103702D01*
X88988342Y-56103700D01*
X88901674Y-56059540D01*
X88875301Y-56046102D01*
X88781524Y-56031250D01*
X88318482Y-56031250D01*
X88237519Y-56044073D01*
X88224696Y-56046104D01*
X88111658Y-56103700D01*
X88111657Y-56103701D01*
X88111656Y-56103701D01*
X88081597Y-56133761D01*
X88045425Y-56169932D01*
X87984105Y-56203416D01*
X87957746Y-56206250D01*
X87699500Y-56206250D01*
X87632461Y-56186565D01*
X87586706Y-56133761D01*
X87575500Y-56082250D01*
X87575500Y-55802480D01*
X87572646Y-55772050D01*
X87572646Y-55772048D01*
X87527793Y-55643869D01*
X87527792Y-55643867D01*
X87520590Y-55634108D01*
X87447150Y-55534600D01*
X87337882Y-55453957D01*
X87337880Y-55453956D01*
X87209700Y-55409103D01*
X87179270Y-55406250D01*
X87179266Y-55406250D01*
X86320734Y-55406250D01*
X86320730Y-55406250D01*
X86290300Y-55409103D01*
X86290298Y-55409103D01*
X86162119Y-55453956D01*
X86162117Y-55453957D01*
X86052850Y-55534600D01*
X85972207Y-55643867D01*
X85972206Y-55643869D01*
X85927353Y-55772048D01*
X85927353Y-55772050D01*
X85924500Y-55802480D01*
X85924500Y-57611019D01*
X85927353Y-57641449D01*
X85927353Y-57641451D01*
X85972206Y-57769630D01*
X85976551Y-57777851D01*
X85974977Y-57778682D01*
X85995116Y-57833828D01*
X85979796Y-57901997D01*
X85955161Y-57933236D01*
X85945140Y-57942420D01*
X85915489Y-57959540D01*
X85794841Y-58080187D01*
X85792857Y-58082006D01*
X85763819Y-58096259D01*
X85735428Y-58111762D01*
X85732643Y-58111562D01*
X85730137Y-58112793D01*
X85698012Y-58109086D01*
X85665736Y-58106778D01*
X85663150Y-58105063D01*
X85660727Y-58104784D01*
X85652195Y-58097798D01*
X85618908Y-58075724D01*
X85611116Y-58067472D01*
X85611115Y-58067471D01*
X85611113Y-58067469D01*
X85532135Y-58021352D01*
X85513556Y-58015521D01*
X85465485Y-58000434D01*
X85465479Y-58000432D01*
X85465471Y-58000430D01*
X85441070Y-57994384D01*
X85441067Y-57994384D01*
X85432463Y-57992252D01*
X85433001Y-57990079D01*
X85379692Y-57968421D01*
X85339454Y-57911301D01*
X85336486Y-57841494D01*
X85357069Y-57797712D01*
X85377793Y-57769632D01*
X85400219Y-57705540D01*
X85422646Y-57641451D01*
X85422646Y-57641449D01*
X85425500Y-57611019D01*
X85425500Y-55802480D01*
X85422646Y-55772050D01*
X85422646Y-55772048D01*
X85377793Y-55643869D01*
X85377792Y-55643867D01*
X85370590Y-55634108D01*
X85297150Y-55534600D01*
X85187882Y-55453957D01*
X85187880Y-55453956D01*
X85059700Y-55409103D01*
X85029270Y-55406250D01*
X85029266Y-55406250D01*
X84170734Y-55406250D01*
X84170730Y-55406250D01*
X84140300Y-55409103D01*
X84140298Y-55409104D01*
X84024780Y-55449526D01*
X83955001Y-55453088D01*
X83894374Y-55418360D01*
X83862146Y-55356366D01*
X83860741Y-55347527D01*
X83859285Y-55335617D01*
X83861876Y-55299396D01*
X83862132Y-55274261D01*
X83843904Y-55209756D01*
X83842745Y-55200271D01*
X83846951Y-55174851D01*
X83847214Y-55149083D01*
X83852562Y-55140944D01*
X83854152Y-55131339D01*
X83871433Y-55112227D01*
X83885586Y-55090693D01*
X83894483Y-55086738D01*
X83901015Y-55079516D01*
X83925889Y-55072781D01*
X83949434Y-55062318D01*
X83960969Y-55063284D01*
X83968457Y-55061257D01*
X83979846Y-55064865D01*
X83988868Y-55065620D01*
X83989078Y-55064185D01*
X84066739Y-55075500D01*
X84066740Y-55075500D01*
X84433261Y-55075500D01*
X84455971Y-55072191D01*
X84501393Y-55065573D01*
X84606483Y-55014198D01*
X84689198Y-54931483D01*
X84740573Y-54826393D01*
X84740573Y-54826391D01*
X84740574Y-54826390D01*
X84743416Y-54817193D01*
X84746060Y-54818010D01*
X84768946Y-54768132D01*
X84827790Y-54730461D01*
X84862515Y-54725500D01*
X85250728Y-54725500D01*
X85317767Y-54745185D01*
X85361212Y-54793204D01*
X85396949Y-54863340D01*
X85396954Y-54863347D01*
X85486652Y-54953045D01*
X85486654Y-54953046D01*
X85486658Y-54953050D01*
X85599694Y-55010645D01*
X85599698Y-55010647D01*
X85693475Y-55025499D01*
X85693481Y-55025500D01*
X86306518Y-55025499D01*
X86400304Y-55010646D01*
X86513342Y-54953050D01*
X86532284Y-54934108D01*
X87799500Y-54934108D01*
X87799500Y-55065892D01*
X87811915Y-55112227D01*
X87833608Y-55193187D01*
X87861677Y-55241803D01*
X87899500Y-55307314D01*
X87992686Y-55400500D01*
X88106814Y-55466392D01*
X88234108Y-55500500D01*
X88234110Y-55500500D01*
X88365890Y-55500500D01*
X88365892Y-55500500D01*
X88493186Y-55466392D01*
X88607314Y-55400500D01*
X88700500Y-55307314D01*
X88766392Y-55193186D01*
X88800500Y-55065892D01*
X88800500Y-54934108D01*
X88766392Y-54806814D01*
X88700500Y-54692686D01*
X88607314Y-54599500D01*
X88550250Y-54566554D01*
X88493187Y-54533608D01*
X88429539Y-54516554D01*
X88365892Y-54499500D01*
X88234108Y-54499500D01*
X88106812Y-54533608D01*
X87992686Y-54599500D01*
X87992683Y-54599502D01*
X87899502Y-54692683D01*
X87899500Y-54692686D01*
X87833608Y-54806812D01*
X87801452Y-54926822D01*
X87799500Y-54934108D01*
X86532284Y-54934108D01*
X86603050Y-54863342D01*
X86660646Y-54750304D01*
X86660646Y-54750302D01*
X86660647Y-54750301D01*
X86674015Y-54665892D01*
X86675500Y-54656519D01*
X86675499Y-54193482D01*
X86660646Y-54099696D01*
X86603050Y-53986658D01*
X86603046Y-53986654D01*
X86603045Y-53986652D01*
X86513347Y-53896954D01*
X86513344Y-53896952D01*
X86513342Y-53896950D01*
X86436517Y-53857805D01*
X86400301Y-53839352D01*
X86306524Y-53824500D01*
X85693482Y-53824500D01*
X85612519Y-53837323D01*
X85599696Y-53839354D01*
X85486658Y-53896950D01*
X85486657Y-53896951D01*
X85486652Y-53896954D01*
X85396954Y-53986652D01*
X85396951Y-53986657D01*
X85396950Y-53986658D01*
X85361212Y-54056796D01*
X85313239Y-54107591D01*
X85250729Y-54124500D01*
X84874500Y-54124500D01*
X84807461Y-54104815D01*
X84761706Y-54052011D01*
X84750500Y-54000500D01*
X84750500Y-53516739D01*
X84740573Y-53448608D01*
X84724841Y-53416427D01*
X84689198Y-53343517D01*
X84689196Y-53343515D01*
X84689196Y-53343514D01*
X84633619Y-53287937D01*
X84600134Y-53226614D01*
X84605118Y-53156922D01*
X84613910Y-53138260D01*
X84666392Y-53047360D01*
X84700500Y-52920066D01*
X84700500Y-52788282D01*
X84666392Y-52660988D01*
X84600500Y-52546860D01*
X84597115Y-52543475D01*
X85324500Y-52543475D01*
X85324500Y-53006517D01*
X85330969Y-53047360D01*
X85339354Y-53100304D01*
X85396950Y-53213342D01*
X85396952Y-53213344D01*
X85396954Y-53213347D01*
X85486652Y-53303045D01*
X85486654Y-53303046D01*
X85486658Y-53303050D01*
X85578400Y-53349795D01*
X85599698Y-53360647D01*
X85693475Y-53375499D01*
X85693481Y-53375500D01*
X86306518Y-53375499D01*
X86400304Y-53360646D01*
X86513342Y-53303050D01*
X86603050Y-53213342D01*
X86660646Y-53100304D01*
X86660646Y-53100302D01*
X86660647Y-53100301D01*
X86675499Y-53006524D01*
X86675500Y-53006519D01*
X86675499Y-52543482D01*
X86660646Y-52449696D01*
X86603050Y-52336658D01*
X86603046Y-52336654D01*
X86603045Y-52336652D01*
X86513347Y-52246954D01*
X86513344Y-52246952D01*
X86513342Y-52246950D01*
X86436517Y-52207805D01*
X86400301Y-52189352D01*
X86306524Y-52174500D01*
X85693482Y-52174500D01*
X85612519Y-52187323D01*
X85599696Y-52189354D01*
X85486658Y-52246950D01*
X85486657Y-52246951D01*
X85486652Y-52246954D01*
X85396954Y-52336652D01*
X85396951Y-52336657D01*
X85396950Y-52336658D01*
X85388280Y-52353674D01*
X85339352Y-52449698D01*
X85324500Y-52543475D01*
X84597115Y-52543475D01*
X84507314Y-52453674D01*
X84442028Y-52415981D01*
X84393187Y-52387782D01*
X84329539Y-52370728D01*
X84265892Y-52353674D01*
X84134108Y-52353674D01*
X84006814Y-52387782D01*
X84006813Y-52387782D01*
X84006811Y-52387783D01*
X84006808Y-52387784D01*
X83986498Y-52399510D01*
X83918598Y-52415981D01*
X83852571Y-52393128D01*
X83809382Y-52338206D01*
X83800500Y-52292122D01*
X83800500Y-51905513D01*
X89799500Y-51905513D01*
X89799500Y-52094486D01*
X89829059Y-52281118D01*
X89887454Y-52460836D01*
X89958672Y-52600608D01*
X89973240Y-52629199D01*
X90084310Y-52782073D01*
X90217927Y-52915690D01*
X90370801Y-53026760D01*
X90411231Y-53047360D01*
X90539163Y-53112545D01*
X90539165Y-53112545D01*
X90539168Y-53112547D01*
X90610244Y-53135641D01*
X90718881Y-53170940D01*
X90905514Y-53200500D01*
X90905519Y-53200500D01*
X91094486Y-53200500D01*
X91281118Y-53170940D01*
X91310208Y-53161488D01*
X91460832Y-53112547D01*
X91629199Y-53026760D01*
X91782073Y-52915690D01*
X91915690Y-52782073D01*
X92026760Y-52629199D01*
X92112547Y-52460832D01*
X92170940Y-52281118D01*
X92176351Y-52246954D01*
X92200500Y-52094486D01*
X92200500Y-51905513D01*
X92170940Y-51718881D01*
X92112545Y-51539163D01*
X92067290Y-51450347D01*
X92026760Y-51370801D01*
X91915690Y-51217927D01*
X91782073Y-51084310D01*
X91629199Y-50973240D01*
X91460836Y-50887454D01*
X91281118Y-50829059D01*
X91094486Y-50799500D01*
X91094481Y-50799500D01*
X90905519Y-50799500D01*
X90905514Y-50799500D01*
X90718881Y-50829059D01*
X90539163Y-50887454D01*
X90370800Y-50973240D01*
X90283579Y-51036610D01*
X90217927Y-51084310D01*
X90217925Y-51084312D01*
X90217924Y-51084312D01*
X90084312Y-51217924D01*
X90084312Y-51217925D01*
X90084310Y-51217927D01*
X90036610Y-51283579D01*
X89973240Y-51370800D01*
X89887454Y-51539163D01*
X89829059Y-51718881D01*
X89799500Y-51905513D01*
X83800500Y-51905513D01*
X83800500Y-51641739D01*
X83790573Y-51573608D01*
X83790573Y-51573607D01*
X83739198Y-51468517D01*
X83739196Y-51468515D01*
X83739196Y-51468514D01*
X83656485Y-51385803D01*
X83551391Y-51334426D01*
X83483261Y-51324500D01*
X83483260Y-51324500D01*
X83116740Y-51324500D01*
X83116739Y-51324500D01*
X83048608Y-51334426D01*
X82943514Y-51385803D01*
X82860803Y-51468514D01*
X82809426Y-51573608D01*
X82799500Y-51641739D01*
X82799500Y-52883260D01*
X82809426Y-52951391D01*
X82860803Y-53056485D01*
X82900223Y-53095904D01*
X82909062Y-53112090D01*
X82921974Y-53125268D01*
X82925461Y-53142123D01*
X82933709Y-53157227D01*
X82932393Y-53175624D01*
X82936131Y-53193689D01*
X82928806Y-53225784D01*
X82928725Y-53226918D01*
X82928278Y-53228098D01*
X82926080Y-53233813D01*
X82883643Y-53289318D01*
X82817934Y-53313069D01*
X82749815Y-53297524D01*
X82722664Y-53276982D01*
X82706485Y-53260803D01*
X82601391Y-53209426D01*
X82533261Y-53199500D01*
X82533260Y-53199500D01*
X82166740Y-53199500D01*
X82166739Y-53199500D01*
X82098608Y-53209426D01*
X81993514Y-53260803D01*
X81910803Y-53343514D01*
X81859426Y-53448608D01*
X81849500Y-53516739D01*
X81849500Y-53888043D01*
X81829815Y-53955082D01*
X81777011Y-54000837D01*
X81707853Y-54010781D01*
X81644297Y-53981756D01*
X81607794Y-53927047D01*
X81559358Y-53780880D01*
X81559356Y-53780875D01*
X81467315Y-53631654D01*
X81343345Y-53507684D01*
X81194124Y-53415643D01*
X81194119Y-53415641D01*
X81025917Y-53359905D01*
X80968472Y-53320133D01*
X80941649Y-53255617D01*
X80953964Y-53186841D01*
X81001507Y-53135641D01*
X81023966Y-53125158D01*
X81023972Y-53125156D01*
X81087882Y-53102793D01*
X81197150Y-53022150D01*
X81277793Y-52912882D01*
X81321392Y-52788284D01*
X81322646Y-52784701D01*
X81322646Y-52784699D01*
X81325500Y-52754269D01*
X81325500Y-52145730D01*
X81322646Y-52115300D01*
X81322646Y-52115298D01*
X81283613Y-52003750D01*
X81277793Y-51987118D01*
X81197150Y-51877850D01*
X81087882Y-51797207D01*
X81087880Y-51797206D01*
X80959700Y-51752353D01*
X80929270Y-51749500D01*
X80929266Y-51749500D01*
X79870734Y-51749500D01*
X79870730Y-51749500D01*
X79840300Y-51752353D01*
X79840298Y-51752353D01*
X79712119Y-51797206D01*
X79712117Y-51797207D01*
X79602850Y-51877850D01*
X79522207Y-51987117D01*
X79522206Y-51987119D01*
X79477353Y-52115298D01*
X79477353Y-52115300D01*
X79474500Y-52145730D01*
X79474500Y-52754269D01*
X79477353Y-52784699D01*
X79477353Y-52784701D01*
X79522206Y-52912880D01*
X79522207Y-52912882D01*
X79602850Y-53022150D01*
X79712118Y-53102793D01*
X79776033Y-53125158D01*
X79832807Y-53165878D01*
X79858555Y-53230830D01*
X79845099Y-53299392D01*
X79796712Y-53349795D01*
X79774082Y-53359904D01*
X79605878Y-53415642D01*
X79605875Y-53415643D01*
X79456654Y-53507684D01*
X79332684Y-53631654D01*
X79240643Y-53780875D01*
X79240641Y-53780880D01*
X79185494Y-53947302D01*
X79185493Y-53947309D01*
X79175000Y-54050013D01*
X72500500Y-54050013D01*
X72500500Y-52003750D01*
X72500726Y-51996264D01*
X72501279Y-51987117D01*
X72506215Y-51905513D01*
X73799500Y-51905513D01*
X73799500Y-52094486D01*
X73829059Y-52281118D01*
X73887454Y-52460836D01*
X73958672Y-52600608D01*
X73973240Y-52629199D01*
X74084310Y-52782073D01*
X74217927Y-52915690D01*
X74370801Y-53026760D01*
X74411231Y-53047360D01*
X74539163Y-53112545D01*
X74539165Y-53112545D01*
X74539168Y-53112547D01*
X74610244Y-53135641D01*
X74718881Y-53170940D01*
X74905514Y-53200500D01*
X74905519Y-53200500D01*
X75094486Y-53200500D01*
X75281118Y-53170940D01*
X75310208Y-53161488D01*
X75460832Y-53112547D01*
X75629199Y-53026760D01*
X75782073Y-52915690D01*
X75915690Y-52782073D01*
X76026760Y-52629199D01*
X76112547Y-52460832D01*
X76170940Y-52281118D01*
X76176351Y-52246954D01*
X76200500Y-52094486D01*
X76200500Y-51905513D01*
X76170940Y-51718881D01*
X76112545Y-51539163D01*
X76067290Y-51450347D01*
X76026760Y-51370801D01*
X75915690Y-51217927D01*
X75782073Y-51084310D01*
X75629199Y-50973240D01*
X75460836Y-50887454D01*
X75281118Y-50829059D01*
X75094486Y-50799500D01*
X75094481Y-50799500D01*
X74905519Y-50799500D01*
X74905514Y-50799500D01*
X74718881Y-50829059D01*
X74539163Y-50887454D01*
X74370800Y-50973240D01*
X74283579Y-51036610D01*
X74217927Y-51084310D01*
X74217925Y-51084312D01*
X74217924Y-51084312D01*
X74084312Y-51217924D01*
X74084312Y-51217925D01*
X74084310Y-51217927D01*
X74036610Y-51283579D01*
X73973240Y-51370800D01*
X73887454Y-51539163D01*
X73829059Y-51718881D01*
X73799500Y-51905513D01*
X72506215Y-51905513D01*
X72518271Y-51706201D01*
X72520076Y-51691340D01*
X72541652Y-51573607D01*
X72571780Y-51409197D01*
X72575364Y-51394663D01*
X72578125Y-51385803D01*
X72660696Y-51120822D01*
X72665998Y-51106841D01*
X72783731Y-50845249D01*
X72790676Y-50832016D01*
X72939080Y-50586526D01*
X72947567Y-50574230D01*
X73124480Y-50348417D01*
X73134395Y-50337226D01*
X73337226Y-50134395D01*
X73348417Y-50124480D01*
X73574230Y-49947567D01*
X73586526Y-49939080D01*
X73832016Y-49790676D01*
X73845249Y-49783731D01*
X74106841Y-49665998D01*
X74120822Y-49660696D01*
X74394668Y-49575362D01*
X74409197Y-49571780D01*
X74691344Y-49520075D01*
X74706201Y-49518271D01*
X74996264Y-49500726D01*
X75003751Y-49500500D01*
X75065892Y-49500500D01*
X90934108Y-49500500D01*
X90996249Y-49500500D01*
X91003736Y-49500726D01*
G37*
%TD.AperFunction*%
%TA.AperFunction,Conductor*%
G36*
X93048019Y-89759225D02*
G01*
X93078792Y-89767470D01*
X93108702Y-89779858D01*
X93141813Y-89798975D01*
X93150005Y-89804537D01*
X93150114Y-89804376D01*
X93154255Y-89807143D01*
X93154256Y-89807144D01*
X93208929Y-89843678D01*
X93208932Y-89843679D01*
X93208933Y-89843680D01*
X93253909Y-89864220D01*
X93272485Y-89872703D01*
X93295949Y-89881728D01*
X93304227Y-89884912D01*
X93303554Y-89886659D01*
X93354880Y-89915364D01*
X93387743Y-89977023D01*
X93382053Y-90046660D01*
X93339618Y-90102167D01*
X93320296Y-90113787D01*
X93310497Y-90118524D01*
X93250656Y-90135435D01*
X93189333Y-90168920D01*
X93162071Y-90189328D01*
X93151763Y-90195279D01*
X93151741Y-90195290D01*
X93108704Y-90220139D01*
X93078800Y-90232526D01*
X93048021Y-90240774D01*
X93015925Y-90245000D01*
X92984073Y-90245000D01*
X92951977Y-90240774D01*
X92921201Y-90232527D01*
X92891296Y-90220140D01*
X92863698Y-90204206D01*
X92838018Y-90184500D01*
X92815498Y-90161980D01*
X92795791Y-90136298D01*
X92779857Y-90108699D01*
X92767470Y-90078792D01*
X92759225Y-90048020D01*
X92755000Y-90015928D01*
X92755000Y-89984070D01*
X92759225Y-89951978D01*
X92761502Y-89943482D01*
X92767470Y-89921205D01*
X92779858Y-89891298D01*
X92795791Y-89863701D01*
X92815492Y-89838025D01*
X92838025Y-89815491D01*
X92863693Y-89795794D01*
X92891303Y-89779853D01*
X92921197Y-89767472D01*
X92951982Y-89759223D01*
X92984069Y-89755000D01*
X93015928Y-89755000D01*
X93048019Y-89759225D01*
G37*
%TD.AperFunction*%
%TA.AperFunction,Conductor*%
G36*
X93048011Y-87759224D02*
G01*
X93048019Y-87759225D01*
X93078792Y-87767470D01*
X93108700Y-87779857D01*
X93116615Y-87784427D01*
X93141813Y-87798975D01*
X93150005Y-87804537D01*
X93150114Y-87804376D01*
X93154255Y-87807143D01*
X93154256Y-87807144D01*
X93208929Y-87843678D01*
X93208932Y-87843679D01*
X93208933Y-87843680D01*
X93262681Y-87868226D01*
X93272485Y-87872703D01*
X93289548Y-87879266D01*
X93304227Y-87884912D01*
X93303554Y-87886659D01*
X93354880Y-87915364D01*
X93387743Y-87977023D01*
X93382053Y-88046660D01*
X93339618Y-88102167D01*
X93320296Y-88113787D01*
X93310497Y-88118524D01*
X93250656Y-88135435D01*
X93189333Y-88168920D01*
X93162071Y-88189328D01*
X93151763Y-88195279D01*
X93151741Y-88195290D01*
X93108704Y-88220139D01*
X93078800Y-88232526D01*
X93048021Y-88240774D01*
X93015925Y-88245000D01*
X92984073Y-88245000D01*
X92951977Y-88240774D01*
X92921201Y-88232527D01*
X92891296Y-88220140D01*
X92863698Y-88204206D01*
X92838018Y-88184500D01*
X92815498Y-88161980D01*
X92795791Y-88136298D01*
X92779857Y-88108699D01*
X92767470Y-88078792D01*
X92759225Y-88048020D01*
X92755000Y-88015928D01*
X92755000Y-87984070D01*
X92759225Y-87951978D01*
X92767470Y-87921206D01*
X92779858Y-87891298D01*
X92795791Y-87863701D01*
X92815492Y-87838025D01*
X92838025Y-87815491D01*
X92863693Y-87795794D01*
X92891303Y-87779853D01*
X92921197Y-87767472D01*
X92951982Y-87759223D01*
X92984069Y-87755000D01*
X93015928Y-87755000D01*
X93048011Y-87759224D01*
G37*
%TD.AperFunction*%
%TA.AperFunction,Conductor*%
G36*
X93048019Y-85759225D02*
G01*
X93078792Y-85767470D01*
X93108702Y-85779858D01*
X93141813Y-85798975D01*
X93150005Y-85804537D01*
X93150114Y-85804376D01*
X93154255Y-85807143D01*
X93154256Y-85807144D01*
X93208929Y-85843678D01*
X93208932Y-85843679D01*
X93208933Y-85843680D01*
X93253909Y-85864220D01*
X93272485Y-85872703D01*
X93295949Y-85881728D01*
X93304227Y-85884912D01*
X93303554Y-85886659D01*
X93354880Y-85915364D01*
X93387743Y-85977023D01*
X93382053Y-86046660D01*
X93339618Y-86102167D01*
X93320296Y-86113787D01*
X93310497Y-86118524D01*
X93250656Y-86135435D01*
X93189333Y-86168920D01*
X93162071Y-86189328D01*
X93151763Y-86195279D01*
X93151741Y-86195290D01*
X93108704Y-86220139D01*
X93078800Y-86232526D01*
X93048021Y-86240774D01*
X93015925Y-86245000D01*
X92984073Y-86245000D01*
X92951977Y-86240774D01*
X92921201Y-86232527D01*
X92891296Y-86220140D01*
X92863698Y-86204206D01*
X92838018Y-86184500D01*
X92815498Y-86161980D01*
X92795791Y-86136298D01*
X92779857Y-86108699D01*
X92767470Y-86078792D01*
X92759225Y-86048020D01*
X92755000Y-86015928D01*
X92755000Y-85984070D01*
X92759225Y-85951978D01*
X92767470Y-85921206D01*
X92779858Y-85891298D01*
X92795791Y-85863701D01*
X92815492Y-85838025D01*
X92838025Y-85815491D01*
X92863693Y-85795794D01*
X92891303Y-85779853D01*
X92921197Y-85767472D01*
X92951982Y-85759223D01*
X92984069Y-85755000D01*
X93015928Y-85755000D01*
X93048019Y-85759225D01*
G37*
%TD.AperFunction*%
%TA.AperFunction,Conductor*%
G36*
X93048019Y-83759225D02*
G01*
X93078792Y-83767470D01*
X93108700Y-83779857D01*
X93138861Y-83797271D01*
X93141813Y-83798975D01*
X93150005Y-83804537D01*
X93150114Y-83804376D01*
X93154255Y-83807143D01*
X93154256Y-83807144D01*
X93208929Y-83843678D01*
X93208932Y-83843679D01*
X93208933Y-83843680D01*
X93257568Y-83865891D01*
X93272485Y-83872703D01*
X93295949Y-83881728D01*
X93304227Y-83884912D01*
X93303554Y-83886659D01*
X93354880Y-83915364D01*
X93387743Y-83977023D01*
X93382053Y-84046660D01*
X93339618Y-84102167D01*
X93320296Y-84113787D01*
X93310497Y-84118524D01*
X93250656Y-84135435D01*
X93189333Y-84168920D01*
X93162071Y-84189328D01*
X93151763Y-84195279D01*
X93151741Y-84195290D01*
X93108704Y-84220139D01*
X93078800Y-84232526D01*
X93048021Y-84240774D01*
X93015925Y-84245000D01*
X92984073Y-84245000D01*
X92951977Y-84240774D01*
X92921201Y-84232527D01*
X92891296Y-84220140D01*
X92863698Y-84204206D01*
X92838018Y-84184500D01*
X92815498Y-84161980D01*
X92795791Y-84136298D01*
X92779857Y-84108699D01*
X92767470Y-84078792D01*
X92759225Y-84048020D01*
X92755000Y-84015928D01*
X92755000Y-83984070D01*
X92759225Y-83951978D01*
X92767470Y-83921206D01*
X92779858Y-83891298D01*
X92795791Y-83863701D01*
X92815492Y-83838025D01*
X92838025Y-83815491D01*
X92863693Y-83795794D01*
X92891303Y-83779853D01*
X92921197Y-83767472D01*
X92951982Y-83759223D01*
X92984069Y-83755000D01*
X93015928Y-83755000D01*
X93048019Y-83759225D01*
G37*
%TD.AperFunction*%
%TD*%
%TA.AperFunction,Conductor*%
%TO.N,+5V*%
G36*
X90027286Y-87077929D02*
G01*
X90094211Y-87097984D01*
X90114274Y-87114245D01*
X90127235Y-87127206D01*
X90230009Y-87172585D01*
X90255135Y-87175500D01*
X90644864Y-87175499D01*
X90644879Y-87175497D01*
X90644882Y-87175497D01*
X90669986Y-87172586D01*
X90669987Y-87172585D01*
X90669991Y-87172585D01*
X90772765Y-87127206D01*
X90781047Y-87118923D01*
X90842365Y-87085440D01*
X90869408Y-87082607D01*
X93376193Y-87096534D01*
X93443118Y-87116590D01*
X93488579Y-87169647D01*
X93499500Y-87220531D01*
X93499500Y-87563036D01*
X93479815Y-87630075D01*
X93427011Y-87675830D01*
X93357853Y-87685774D01*
X93294297Y-87656749D01*
X93287819Y-87650717D01*
X93276615Y-87639513D01*
X93276613Y-87639511D01*
X93173886Y-87580201D01*
X93059309Y-87549500D01*
X92940691Y-87549500D01*
X92826114Y-87580201D01*
X92826112Y-87580201D01*
X92826112Y-87580202D01*
X92723387Y-87639511D01*
X92723384Y-87639513D01*
X92639513Y-87723384D01*
X92639511Y-87723387D01*
X92580201Y-87826114D01*
X92549500Y-87940691D01*
X92549500Y-88059309D01*
X92580201Y-88173886D01*
X92639511Y-88276613D01*
X92723387Y-88360489D01*
X92826114Y-88419799D01*
X92940691Y-88450500D01*
X92940694Y-88450500D01*
X93059306Y-88450500D01*
X93059309Y-88450500D01*
X93173886Y-88419799D01*
X93276613Y-88360489D01*
X93287819Y-88349283D01*
X93349142Y-88315798D01*
X93418834Y-88320782D01*
X93474767Y-88362654D01*
X93499184Y-88428118D01*
X93499500Y-88436964D01*
X93499500Y-89563036D01*
X93479815Y-89630075D01*
X93427011Y-89675830D01*
X93357853Y-89685774D01*
X93294297Y-89656749D01*
X93287819Y-89650717D01*
X93276615Y-89639513D01*
X93276613Y-89639511D01*
X93173886Y-89580201D01*
X93059309Y-89549500D01*
X92940691Y-89549500D01*
X92826114Y-89580201D01*
X92826112Y-89580201D01*
X92826112Y-89580202D01*
X92723387Y-89639511D01*
X92723384Y-89639513D01*
X92639513Y-89723384D01*
X92639511Y-89723387D01*
X92580201Y-89826114D01*
X92549500Y-89940691D01*
X92549500Y-90059309D01*
X92580201Y-90173886D01*
X92639511Y-90276613D01*
X92723387Y-90360489D01*
X92826114Y-90419799D01*
X92940691Y-90450500D01*
X92940694Y-90450500D01*
X93059306Y-90450500D01*
X93059309Y-90450500D01*
X93173886Y-90419799D01*
X93276613Y-90360489D01*
X93287819Y-90349283D01*
X93349142Y-90315798D01*
X93418834Y-90320782D01*
X93474767Y-90362654D01*
X93499184Y-90428118D01*
X93499500Y-90436964D01*
X93499500Y-91563036D01*
X93479815Y-91630075D01*
X93427011Y-91675830D01*
X93357853Y-91685774D01*
X93294297Y-91656749D01*
X93287819Y-91650717D01*
X93276615Y-91639513D01*
X93276613Y-91639511D01*
X93173886Y-91580201D01*
X93059309Y-91549500D01*
X92940691Y-91549500D01*
X92826114Y-91580201D01*
X92826112Y-91580201D01*
X92826112Y-91580202D01*
X92723387Y-91639511D01*
X92723384Y-91639513D01*
X92639513Y-91723384D01*
X92639511Y-91723387D01*
X92580201Y-91826113D01*
X92578331Y-91833094D01*
X92541966Y-91892754D01*
X92479119Y-91923283D01*
X92458556Y-91925000D01*
X89648362Y-91925000D01*
X89581323Y-91905315D01*
X89535568Y-91852511D01*
X89524364Y-91801639D01*
X89523767Y-91685774D01*
X89522806Y-91499455D01*
X89542144Y-91432317D01*
X89594712Y-91386291D01*
X89663818Y-91375991D01*
X89711903Y-91393280D01*
X89741516Y-91411546D01*
X89741518Y-91411547D01*
X89902393Y-91464855D01*
X90001683Y-91474999D01*
X90525000Y-91474999D01*
X90548308Y-91474999D01*
X90548322Y-91474998D01*
X90647607Y-91464855D01*
X90808481Y-91411547D01*
X90808492Y-91411542D01*
X90952728Y-91322575D01*
X90952732Y-91322572D01*
X91072572Y-91202732D01*
X91072575Y-91202728D01*
X91161542Y-91058492D01*
X91161547Y-91058481D01*
X91214855Y-90897606D01*
X91224999Y-90798322D01*
X91225000Y-90798309D01*
X91225000Y-90750000D01*
X90525000Y-90750000D01*
X90525000Y-91474999D01*
X90001683Y-91474999D01*
X90025000Y-91474998D01*
X90025000Y-89961426D01*
X90525000Y-89961426D01*
X90525000Y-90250000D01*
X91224999Y-90250000D01*
X91224999Y-90201692D01*
X91224998Y-90201677D01*
X91214855Y-90102392D01*
X91161547Y-89941518D01*
X91161542Y-89941507D01*
X91072575Y-89797271D01*
X91072572Y-89797267D01*
X91059953Y-89784648D01*
X91026468Y-89723325D01*
X91031452Y-89653633D01*
X91059953Y-89609285D01*
X91117681Y-89551557D01*
X91117685Y-89551552D01*
X91201282Y-89410196D01*
X91201283Y-89410193D01*
X91247099Y-89252495D01*
X91247100Y-89252489D01*
X91249999Y-89215649D01*
X91250000Y-89215634D01*
X91250000Y-88887500D01*
X90700000Y-88887500D01*
X90700000Y-89806000D01*
X90694380Y-89825137D01*
X90693683Y-89845073D01*
X90684737Y-89857976D01*
X90680315Y-89873039D01*
X90665241Y-89886100D01*
X90653877Y-89902494D01*
X90629825Y-89916788D01*
X90627511Y-89918794D01*
X90625839Y-89919157D01*
X90623537Y-89920526D01*
X90525000Y-89961426D01*
X90025000Y-89961426D01*
X90025000Y-89519000D01*
X90044685Y-89451961D01*
X90097489Y-89406206D01*
X90149000Y-89395000D01*
X90200000Y-89395000D01*
X90200000Y-88387500D01*
X90700000Y-88387500D01*
X91250000Y-88387500D01*
X91250000Y-88059365D01*
X91249999Y-88059350D01*
X91247100Y-88022510D01*
X91247099Y-88022504D01*
X91201283Y-87864806D01*
X91201282Y-87864803D01*
X91117685Y-87723447D01*
X91117678Y-87723438D01*
X91001561Y-87607321D01*
X91001552Y-87607314D01*
X90860196Y-87523717D01*
X90860193Y-87523716D01*
X90702494Y-87477900D01*
X90702497Y-87477900D01*
X90700000Y-87477703D01*
X90700000Y-88387500D01*
X90200000Y-88387500D01*
X90200000Y-87477703D01*
X90197503Y-87477900D01*
X90039806Y-87523716D01*
X90039803Y-87523717D01*
X89898447Y-87607314D01*
X89898438Y-87607321D01*
X89782321Y-87723438D01*
X89782314Y-87723447D01*
X89758556Y-87763621D01*
X89750255Y-87771371D01*
X89745537Y-87781703D01*
X89725177Y-87794787D01*
X89707487Y-87811305D01*
X89694792Y-87814314D01*
X89686759Y-87819477D01*
X89651824Y-87824500D01*
X89627225Y-87824500D01*
X89560186Y-87804815D01*
X89514431Y-87752011D01*
X89503227Y-87701141D01*
X89500646Y-87200329D01*
X89519983Y-87133193D01*
X89572551Y-87087167D01*
X89625330Y-87075696D01*
X90027286Y-87077929D01*
G37*
%TD.AperFunction*%
%TD*%
%TA.AperFunction,Conductor*%
%TO.N,+3.3V*%
G36*
X92492539Y-81919685D02*
G01*
X92538294Y-81972489D01*
X92549500Y-82024000D01*
X92549500Y-82059309D01*
X92580201Y-82173886D01*
X92639511Y-82276613D01*
X92723387Y-82360489D01*
X92826114Y-82419799D01*
X92940691Y-82450500D01*
X92940694Y-82450500D01*
X93059306Y-82450500D01*
X93059309Y-82450500D01*
X93173886Y-82419799D01*
X93276613Y-82360489D01*
X93287819Y-82349283D01*
X93349142Y-82315798D01*
X93418834Y-82320782D01*
X93474767Y-82362654D01*
X93499184Y-82428118D01*
X93499500Y-82436964D01*
X93499500Y-83563036D01*
X93479815Y-83630075D01*
X93427011Y-83675830D01*
X93357853Y-83685774D01*
X93294297Y-83656749D01*
X93287819Y-83650717D01*
X93276615Y-83639513D01*
X93276613Y-83639511D01*
X93173886Y-83580201D01*
X93059309Y-83549500D01*
X92940691Y-83549500D01*
X92826114Y-83580201D01*
X92826112Y-83580201D01*
X92826112Y-83580202D01*
X92723387Y-83639511D01*
X92723384Y-83639513D01*
X92639513Y-83723384D01*
X92639511Y-83723387D01*
X92580201Y-83826114D01*
X92549500Y-83940691D01*
X92549500Y-84059309D01*
X92580201Y-84173886D01*
X92639511Y-84276613D01*
X92723387Y-84360489D01*
X92826114Y-84419799D01*
X92940691Y-84450500D01*
X92940694Y-84450500D01*
X93059306Y-84450500D01*
X93059309Y-84450500D01*
X93173886Y-84419799D01*
X93276613Y-84360489D01*
X93287819Y-84349283D01*
X93349142Y-84315798D01*
X93418834Y-84320782D01*
X93474767Y-84362654D01*
X93499184Y-84428118D01*
X93499500Y-84436964D01*
X93499500Y-85563036D01*
X93479815Y-85630075D01*
X93427011Y-85675830D01*
X93357853Y-85685774D01*
X93294297Y-85656749D01*
X93287819Y-85650717D01*
X93276615Y-85639513D01*
X93276613Y-85639511D01*
X93173886Y-85580201D01*
X93059309Y-85549500D01*
X92940691Y-85549500D01*
X92826114Y-85580201D01*
X92826112Y-85580201D01*
X92826112Y-85580202D01*
X92723387Y-85639511D01*
X92723384Y-85639513D01*
X92639513Y-85723384D01*
X92639511Y-85723387D01*
X92580201Y-85826114D01*
X92549500Y-85940691D01*
X92549500Y-86059309D01*
X92580201Y-86173886D01*
X92639511Y-86276613D01*
X92723387Y-86360489D01*
X92826114Y-86419799D01*
X92940691Y-86450500D01*
X92940694Y-86450500D01*
X93059306Y-86450500D01*
X93059309Y-86450500D01*
X93173886Y-86419799D01*
X93276613Y-86360489D01*
X93287819Y-86349283D01*
X93349142Y-86315798D01*
X93418834Y-86320782D01*
X93474767Y-86362654D01*
X93499184Y-86428118D01*
X93499500Y-86436964D01*
X93499500Y-86817025D01*
X93479815Y-86884064D01*
X93427011Y-86929819D01*
X93374811Y-86941023D01*
X91373311Y-86929903D01*
X91306382Y-86909846D01*
X91260921Y-86856789D01*
X91250000Y-86805905D01*
X91250000Y-86612500D01*
X90574000Y-86612500D01*
X90506961Y-86592815D01*
X90461206Y-86540011D01*
X90450000Y-86488500D01*
X90450000Y-86362500D01*
X90324000Y-86362500D01*
X90256961Y-86342815D01*
X90211206Y-86290011D01*
X90200000Y-86238500D01*
X90200000Y-85605000D01*
X90149000Y-85605000D01*
X90081961Y-85585315D01*
X90036206Y-85532511D01*
X90025000Y-85481000D01*
X90025000Y-85070000D01*
X90525000Y-85070000D01*
X90576000Y-85070000D01*
X90643039Y-85089685D01*
X90688794Y-85142489D01*
X90700000Y-85194000D01*
X90700000Y-86112500D01*
X91250000Y-86112500D01*
X91250000Y-85784365D01*
X91249999Y-85784350D01*
X91247100Y-85747510D01*
X91247099Y-85747504D01*
X91201283Y-85589806D01*
X91201282Y-85589803D01*
X91117685Y-85448447D01*
X91117681Y-85448442D01*
X91059953Y-85390715D01*
X91026468Y-85329392D01*
X91031452Y-85259700D01*
X91059955Y-85215349D01*
X91072574Y-85202729D01*
X91161542Y-85058492D01*
X91161547Y-85058481D01*
X91214855Y-84897606D01*
X91224999Y-84798322D01*
X91225000Y-84798309D01*
X91225000Y-84750000D01*
X90525000Y-84750000D01*
X90525000Y-85070000D01*
X90025000Y-85070000D01*
X90025000Y-84250000D01*
X90525000Y-84250000D01*
X91224999Y-84250000D01*
X91224999Y-84201692D01*
X91224998Y-84201677D01*
X91214855Y-84102392D01*
X91161547Y-83941518D01*
X91161542Y-83941507D01*
X91072575Y-83797271D01*
X91072572Y-83797267D01*
X90952732Y-83677427D01*
X90952728Y-83677424D01*
X90808492Y-83588457D01*
X90808481Y-83588452D01*
X90647606Y-83535144D01*
X90548322Y-83525000D01*
X90525000Y-83525000D01*
X90525000Y-84250000D01*
X90025000Y-84250000D01*
X90025000Y-83524999D01*
X90001693Y-83525000D01*
X90001674Y-83525001D01*
X89902392Y-83535144D01*
X89741518Y-83588452D01*
X89741513Y-83588454D01*
X89689097Y-83620786D01*
X89621705Y-83639226D01*
X89555041Y-83618304D01*
X89510271Y-83564662D01*
X89500000Y-83515247D01*
X89500000Y-83141403D01*
X89516613Y-83079403D01*
X89519799Y-83073886D01*
X89550500Y-82959309D01*
X89550500Y-82840691D01*
X89519799Y-82726114D01*
X89516610Y-82720591D01*
X89500000Y-82658595D01*
X89500000Y-82024000D01*
X89519685Y-81956961D01*
X89572489Y-81911206D01*
X89624000Y-81900000D01*
X92425500Y-81900000D01*
X92492539Y-81919685D01*
G37*
%TD.AperFunction*%
%TD*%
%TA.AperFunction,Conductor*%
%TO.N,Net-(D4-K)*%
G36*
X83316177Y-53220185D02*
G01*
X83336819Y-53236819D01*
X83563681Y-53463681D01*
X83597166Y-53525004D01*
X83600000Y-53551362D01*
X83600000Y-55200000D01*
X83623414Y-55223414D01*
X83656899Y-55284737D01*
X83651915Y-55354429D01*
X83636298Y-55382150D01*
X83636475Y-55382259D01*
X83633738Y-55386695D01*
X83633002Y-55388003D01*
X83632683Y-55388405D01*
X83540643Y-55537625D01*
X83540641Y-55537630D01*
X83485494Y-55704052D01*
X83485493Y-55704059D01*
X83475000Y-55806763D01*
X83475000Y-56456750D01*
X84476000Y-56456750D01*
X84543039Y-56476435D01*
X84588794Y-56529239D01*
X84600000Y-56580750D01*
X84600000Y-56706750D01*
X84726000Y-56706750D01*
X84793039Y-56726435D01*
X84838794Y-56779239D01*
X84850000Y-56830750D01*
X84850000Y-58306749D01*
X85024972Y-58306749D01*
X85024986Y-58306748D01*
X85127697Y-58296255D01*
X85294119Y-58241108D01*
X85294130Y-58241103D01*
X85336544Y-58214942D01*
X85403936Y-58196501D01*
X85470600Y-58217423D01*
X85515369Y-58271065D01*
X85524031Y-58340396D01*
X85509029Y-58382478D01*
X85491981Y-58412006D01*
X85491979Y-58412009D01*
X85471500Y-58488439D01*
X85471500Y-59752166D01*
X85451815Y-59819205D01*
X85435181Y-59839847D01*
X85111347Y-60163681D01*
X85050024Y-60197166D01*
X85023666Y-60200000D01*
X84694953Y-60200000D01*
X84627914Y-60180315D01*
X84582159Y-60127511D01*
X84571595Y-60063398D01*
X84574999Y-60030074D01*
X84575000Y-60030059D01*
X84575000Y-59856750D01*
X82675001Y-59856750D01*
X82675001Y-60030075D01*
X82678406Y-60063399D01*
X82665636Y-60132092D01*
X82617755Y-60182976D01*
X82555048Y-60200000D01*
X81724000Y-60200000D01*
X81656961Y-60180315D01*
X81611206Y-60127511D01*
X81600000Y-60076000D01*
X81600000Y-59183427D01*
X82675000Y-59183427D01*
X82675000Y-59356750D01*
X83375000Y-59356750D01*
X83875000Y-59356750D01*
X84574999Y-59356750D01*
X84574999Y-59183442D01*
X84574998Y-59183427D01*
X84564855Y-59084142D01*
X84511547Y-58923268D01*
X84511542Y-58923257D01*
X84422575Y-58779021D01*
X84422572Y-58779017D01*
X84302732Y-58659177D01*
X84302728Y-58659174D01*
X84158492Y-58570207D01*
X84158481Y-58570202D01*
X84081803Y-58544794D01*
X83934038Y-58510398D01*
X83898329Y-58506751D01*
X83898310Y-58506750D01*
X83875000Y-58506750D01*
X83875000Y-59356750D01*
X83375000Y-59356750D01*
X83375000Y-58506749D01*
X83351693Y-58506750D01*
X83351674Y-58506751D01*
X83252392Y-58516894D01*
X83091518Y-58570202D01*
X83091507Y-58570207D01*
X82947271Y-58659174D01*
X82947267Y-58659177D01*
X82827427Y-58779017D01*
X82827424Y-58779021D01*
X82738457Y-58923257D01*
X82738452Y-58923268D01*
X82685144Y-59084143D01*
X82675000Y-59183427D01*
X81600000Y-59183427D01*
X81600000Y-57606736D01*
X83475001Y-57606736D01*
X83485494Y-57709447D01*
X83540641Y-57875869D01*
X83540643Y-57875874D01*
X83632684Y-58025095D01*
X83756654Y-58149065D01*
X83905875Y-58241106D01*
X83905882Y-58241109D01*
X83988104Y-58268354D01*
X84135872Y-58302750D01*
X84175020Y-58306749D01*
X84349999Y-58306749D01*
X84350000Y-58306748D01*
X84350000Y-56956750D01*
X83475001Y-56956750D01*
X83475001Y-57606736D01*
X81600000Y-57606736D01*
X81600000Y-56674239D01*
X81619685Y-56607200D01*
X81672489Y-56561445D01*
X81725981Y-56553430D01*
X81725981Y-56550500D01*
X81865890Y-56550500D01*
X81865892Y-56550500D01*
X81993186Y-56516392D01*
X82107314Y-56450500D01*
X82200500Y-56357314D01*
X82266392Y-56243186D01*
X82300500Y-56115892D01*
X82300500Y-55984108D01*
X82266392Y-55856814D01*
X82200500Y-55742686D01*
X82107314Y-55649500D01*
X82060008Y-55622188D01*
X82027140Y-55603211D01*
X81978925Y-55552643D01*
X81965703Y-55484036D01*
X81991671Y-55419171D01*
X82048586Y-55378644D01*
X82098174Y-55372295D01*
X82600000Y-55372295D01*
X82600001Y-55372295D01*
X82602486Y-55372100D01*
X82760198Y-55326281D01*
X82901552Y-55242685D01*
X82901561Y-55242678D01*
X83017678Y-55126561D01*
X83017685Y-55126552D01*
X83101282Y-54985196D01*
X83101283Y-54985193D01*
X83147099Y-54827495D01*
X83147100Y-54827489D01*
X83149999Y-54790649D01*
X83150000Y-54790634D01*
X83150000Y-54387500D01*
X82600000Y-54387500D01*
X82600000Y-55372295D01*
X82098174Y-55372295D01*
X82098869Y-55372206D01*
X82100000Y-55372294D01*
X82100000Y-54261500D01*
X82119685Y-54194461D01*
X82172489Y-54148706D01*
X82224000Y-54137500D01*
X82350000Y-54137500D01*
X82350000Y-54011500D01*
X82369685Y-53944461D01*
X82422489Y-53898706D01*
X82474000Y-53887500D01*
X83150000Y-53887500D01*
X83150000Y-53484365D01*
X83149999Y-53484350D01*
X83147100Y-53447510D01*
X83147099Y-53447504D01*
X83121414Y-53359095D01*
X83121488Y-53332841D01*
X83117752Y-53306853D01*
X83121586Y-53298456D01*
X83121613Y-53289225D01*
X83135871Y-53267177D01*
X83146777Y-53243297D01*
X83154541Y-53238306D01*
X83159555Y-53230555D01*
X83183470Y-53219716D01*
X83205555Y-53205523D01*
X83219074Y-53203579D01*
X83223194Y-53201712D01*
X83240490Y-53200500D01*
X83249138Y-53200500D01*
X83316177Y-53220185D01*
G37*
%TD.AperFunction*%
%TD*%
M02*
