%TF.GenerationSoftware,KiCad,Pcbnew,9.0.5*%
%TF.CreationDate,2025-11-24T11:18:32-05:00*%
%TF.ProjectId,everframe_board,65766572-6672-4616-9d65-5f626f617264,rev?*%
%TF.SameCoordinates,Original*%
%TF.FileFunction,Drillmap*%
%TF.FilePolarity,Positive*%
%FSLAX45Y45*%
G04 Gerber Fmt 4.5, Leading zero omitted, Abs format (unit mm)*
G04 Created by KiCad (PCBNEW 9.0.5) date 2025-11-24 11:18:32*
%MOMM*%
%LPD*%
G01*
G04 APERTURE LIST*
%ADD10C,0.050000*%
%ADD11C,0.010000*%
%ADD12C,0.200000*%
%ADD13C,0.100000*%
G04 APERTURE END LIST*
D10*
X7500000Y-13900000D02*
G75*
G02*
X7200000Y-13600000I0J300000D01*
G01*
X9400000Y-13600000D02*
G75*
G02*
X9100000Y-13900000I-300000J0D01*
G01*
X7200000Y-13600000D02*
X7200000Y-5200000D01*
X9400000Y-5200000D02*
X9400000Y-13600000D01*
X7200000Y-5200000D02*
G75*
G02*
X7500000Y-4900000I300000J0D01*
G01*
X7500000Y-4900000D02*
X9100000Y-4900000D01*
X9100000Y-13900000D02*
X7500000Y-13900000D01*
X9100000Y-4900000D02*
G75*
G02*
X9400000Y-5200000I0J-300000D01*
G01*
D11*
X7671500Y-13180000D02*
X7671500Y-13200000D01*
X7728500Y-13200000D02*
X7728500Y-13180000D01*
X7671500Y-13180000D02*
G75*
G02*
X7700000Y-13151500I28500J0D01*
G01*
X7700000Y-13151500D02*
G75*
G02*
X7728500Y-13180000I0J-28500D01*
G01*
X7700000Y-13228500D02*
G75*
G02*
X7671500Y-13200000I0J28500D01*
G01*
X7728500Y-13200000D02*
G75*
G02*
X7700000Y-13228500I-28500J0D01*
G01*
D12*
D13*
X7671500Y-12411500D02*
X7728500Y-12468500D01*
X7728500Y-12411500D02*
X7671500Y-12468500D01*
D12*
X7600000Y-5200000D02*
G75*
G02*
X7400000Y-5200000I-100000J0D01*
G01*
X7400000Y-5200000D02*
G75*
G02*
X7600000Y-5200000I100000J0D01*
G01*
X7600000Y-13600000D02*
G75*
G02*
X7400000Y-13600000I-100000J0D01*
G01*
X7400000Y-13600000D02*
G75*
G02*
X7600000Y-13600000I100000J0D01*
G01*
X9200000Y-5200000D02*
G75*
G02*
X9000000Y-5200000I-100000J0D01*
G01*
X9000000Y-5200000D02*
G75*
G02*
X9200000Y-5200000I100000J0D01*
G01*
X9200000Y-13600000D02*
G75*
G02*
X9000000Y-13600000I-100000J0D01*
G01*
X9000000Y-13600000D02*
G75*
G02*
X9200000Y-13600000I100000J0D01*
G01*
X7458277Y-14213984D02*
X7458277Y-14013984D01*
X7458277Y-14013984D02*
X7505896Y-14013984D01*
X7505896Y-14013984D02*
X7534467Y-14023508D01*
X7534467Y-14023508D02*
X7553515Y-14042555D01*
X7553515Y-14042555D02*
X7563039Y-14061603D01*
X7563039Y-14061603D02*
X7572562Y-14099698D01*
X7572562Y-14099698D02*
X7572562Y-14128269D01*
X7572562Y-14128269D02*
X7563039Y-14166365D01*
X7563039Y-14166365D02*
X7553515Y-14185412D01*
X7553515Y-14185412D02*
X7534467Y-14204460D01*
X7534467Y-14204460D02*
X7505896Y-14213984D01*
X7505896Y-14213984D02*
X7458277Y-14213984D01*
X7658277Y-14213984D02*
X7658277Y-14080650D01*
X7658277Y-14118746D02*
X7667801Y-14099698D01*
X7667801Y-14099698D02*
X7677324Y-14090174D01*
X7677324Y-14090174D02*
X7696372Y-14080650D01*
X7696372Y-14080650D02*
X7715420Y-14080650D01*
X7782086Y-14213984D02*
X7782086Y-14080650D01*
X7782086Y-14013984D02*
X7772562Y-14023508D01*
X7772562Y-14023508D02*
X7782086Y-14033031D01*
X7782086Y-14033031D02*
X7791610Y-14023508D01*
X7791610Y-14023508D02*
X7782086Y-14013984D01*
X7782086Y-14013984D02*
X7782086Y-14033031D01*
X7905896Y-14213984D02*
X7886848Y-14204460D01*
X7886848Y-14204460D02*
X7877324Y-14185412D01*
X7877324Y-14185412D02*
X7877324Y-14013984D01*
X8010658Y-14213984D02*
X7991610Y-14204460D01*
X7991610Y-14204460D02*
X7982086Y-14185412D01*
X7982086Y-14185412D02*
X7982086Y-14013984D01*
X8239229Y-14213984D02*
X8239229Y-14013984D01*
X8239229Y-14013984D02*
X8305896Y-14156841D01*
X8305896Y-14156841D02*
X8372562Y-14013984D01*
X8372562Y-14013984D02*
X8372562Y-14213984D01*
X8553515Y-14213984D02*
X8553515Y-14109222D01*
X8553515Y-14109222D02*
X8543991Y-14090174D01*
X8543991Y-14090174D02*
X8524944Y-14080650D01*
X8524944Y-14080650D02*
X8486848Y-14080650D01*
X8486848Y-14080650D02*
X8467801Y-14090174D01*
X8553515Y-14204460D02*
X8534467Y-14213984D01*
X8534467Y-14213984D02*
X8486848Y-14213984D01*
X8486848Y-14213984D02*
X8467801Y-14204460D01*
X8467801Y-14204460D02*
X8458277Y-14185412D01*
X8458277Y-14185412D02*
X8458277Y-14166365D01*
X8458277Y-14166365D02*
X8467801Y-14147317D01*
X8467801Y-14147317D02*
X8486848Y-14137793D01*
X8486848Y-14137793D02*
X8534467Y-14137793D01*
X8534467Y-14137793D02*
X8553515Y-14128269D01*
X8648753Y-14080650D02*
X8648753Y-14280650D01*
X8648753Y-14090174D02*
X8667801Y-14080650D01*
X8667801Y-14080650D02*
X8705896Y-14080650D01*
X8705896Y-14080650D02*
X8724944Y-14090174D01*
X8724944Y-14090174D02*
X8734467Y-14099698D01*
X8734467Y-14099698D02*
X8743991Y-14118746D01*
X8743991Y-14118746D02*
X8743991Y-14175888D01*
X8743991Y-14175888D02*
X8734467Y-14194936D01*
X8734467Y-14194936D02*
X8724944Y-14204460D01*
X8724944Y-14204460D02*
X8705896Y-14213984D01*
X8705896Y-14213984D02*
X8667801Y-14213984D01*
X8667801Y-14213984D02*
X8648753Y-14204460D01*
X8829705Y-14194936D02*
X8839229Y-14204460D01*
X8839229Y-14204460D02*
X8829705Y-14213984D01*
X8829705Y-14213984D02*
X8820182Y-14204460D01*
X8820182Y-14204460D02*
X8829705Y-14194936D01*
X8829705Y-14194936D02*
X8829705Y-14213984D01*
X8829705Y-14090174D02*
X8839229Y-14099698D01*
X8839229Y-14099698D02*
X8829705Y-14109222D01*
X8829705Y-14109222D02*
X8820182Y-14099698D01*
X8820182Y-14099698D02*
X8829705Y-14090174D01*
X8829705Y-14090174D02*
X8829705Y-14109222D01*
D13*
X7140500Y-14514000D02*
X7197500Y-14571000D01*
X7197500Y-14514000D02*
X7140500Y-14571000D01*
D12*
X7496372Y-14433984D02*
X7515420Y-14433984D01*
X7515420Y-14433984D02*
X7534467Y-14443508D01*
X7534467Y-14443508D02*
X7543991Y-14453031D01*
X7543991Y-14453031D02*
X7553515Y-14472079D01*
X7553515Y-14472079D02*
X7563039Y-14510174D01*
X7563039Y-14510174D02*
X7563039Y-14557793D01*
X7563039Y-14557793D02*
X7553515Y-14595888D01*
X7553515Y-14595888D02*
X7543991Y-14614936D01*
X7543991Y-14614936D02*
X7534467Y-14624460D01*
X7534467Y-14624460D02*
X7515420Y-14633984D01*
X7515420Y-14633984D02*
X7496372Y-14633984D01*
X7496372Y-14633984D02*
X7477324Y-14624460D01*
X7477324Y-14624460D02*
X7467801Y-14614936D01*
X7467801Y-14614936D02*
X7458277Y-14595888D01*
X7458277Y-14595888D02*
X7448753Y-14557793D01*
X7448753Y-14557793D02*
X7448753Y-14510174D01*
X7448753Y-14510174D02*
X7458277Y-14472079D01*
X7458277Y-14472079D02*
X7467801Y-14453031D01*
X7467801Y-14453031D02*
X7477324Y-14443508D01*
X7477324Y-14443508D02*
X7496372Y-14433984D01*
X7648753Y-14614936D02*
X7658277Y-14624460D01*
X7658277Y-14624460D02*
X7648753Y-14633984D01*
X7648753Y-14633984D02*
X7639229Y-14624460D01*
X7639229Y-14624460D02*
X7648753Y-14614936D01*
X7648753Y-14614936D02*
X7648753Y-14633984D01*
X7839229Y-14433984D02*
X7743991Y-14433984D01*
X7743991Y-14433984D02*
X7734467Y-14529222D01*
X7734467Y-14529222D02*
X7743991Y-14519698D01*
X7743991Y-14519698D02*
X7763039Y-14510174D01*
X7763039Y-14510174D02*
X7810658Y-14510174D01*
X7810658Y-14510174D02*
X7829705Y-14519698D01*
X7829705Y-14519698D02*
X7839229Y-14529222D01*
X7839229Y-14529222D02*
X7848753Y-14548269D01*
X7848753Y-14548269D02*
X7848753Y-14595888D01*
X7848753Y-14595888D02*
X7839229Y-14614936D01*
X7839229Y-14614936D02*
X7829705Y-14624460D01*
X7829705Y-14624460D02*
X7810658Y-14633984D01*
X7810658Y-14633984D02*
X7763039Y-14633984D01*
X7763039Y-14633984D02*
X7743991Y-14624460D01*
X7743991Y-14624460D02*
X7734467Y-14614936D01*
X7915420Y-14433984D02*
X8048753Y-14433984D01*
X8048753Y-14433984D02*
X7963039Y-14633984D01*
X8163039Y-14433984D02*
X8182086Y-14433984D01*
X8182086Y-14433984D02*
X8201134Y-14443508D01*
X8201134Y-14443508D02*
X8210658Y-14453031D01*
X8210658Y-14453031D02*
X8220182Y-14472079D01*
X8220182Y-14472079D02*
X8229705Y-14510174D01*
X8229705Y-14510174D02*
X8229705Y-14557793D01*
X8229705Y-14557793D02*
X8220182Y-14595888D01*
X8220182Y-14595888D02*
X8210658Y-14614936D01*
X8210658Y-14614936D02*
X8201134Y-14624460D01*
X8201134Y-14624460D02*
X8182086Y-14633984D01*
X8182086Y-14633984D02*
X8163039Y-14633984D01*
X8163039Y-14633984D02*
X8143991Y-14624460D01*
X8143991Y-14624460D02*
X8134467Y-14614936D01*
X8134467Y-14614936D02*
X8124943Y-14595888D01*
X8124943Y-14595888D02*
X8115420Y-14557793D01*
X8115420Y-14557793D02*
X8115420Y-14510174D01*
X8115420Y-14510174D02*
X8124943Y-14472079D01*
X8124943Y-14472079D02*
X8134467Y-14453031D01*
X8134467Y-14453031D02*
X8143991Y-14443508D01*
X8143991Y-14443508D02*
X8163039Y-14433984D01*
X8315420Y-14633984D02*
X8315420Y-14500650D01*
X8315420Y-14519698D02*
X8324943Y-14510174D01*
X8324943Y-14510174D02*
X8343991Y-14500650D01*
X8343991Y-14500650D02*
X8372563Y-14500650D01*
X8372563Y-14500650D02*
X8391610Y-14510174D01*
X8391610Y-14510174D02*
X8401134Y-14529222D01*
X8401134Y-14529222D02*
X8401134Y-14633984D01*
X8401134Y-14529222D02*
X8410658Y-14510174D01*
X8410658Y-14510174D02*
X8429705Y-14500650D01*
X8429705Y-14500650D02*
X8458277Y-14500650D01*
X8458277Y-14500650D02*
X8477325Y-14510174D01*
X8477325Y-14510174D02*
X8486848Y-14529222D01*
X8486848Y-14529222D02*
X8486848Y-14633984D01*
X8582086Y-14633984D02*
X8582086Y-14500650D01*
X8582086Y-14519698D02*
X8591610Y-14510174D01*
X8591610Y-14510174D02*
X8610658Y-14500650D01*
X8610658Y-14500650D02*
X8639229Y-14500650D01*
X8639229Y-14500650D02*
X8658277Y-14510174D01*
X8658277Y-14510174D02*
X8667801Y-14529222D01*
X8667801Y-14529222D02*
X8667801Y-14633984D01*
X8667801Y-14529222D02*
X8677325Y-14510174D01*
X8677325Y-14510174D02*
X8696372Y-14500650D01*
X8696372Y-14500650D02*
X8724944Y-14500650D01*
X8724944Y-14500650D02*
X8743991Y-14510174D01*
X8743991Y-14510174D02*
X8753515Y-14529222D01*
X8753515Y-14529222D02*
X8753515Y-14633984D01*
X9143991Y-14424460D02*
X8972563Y-14681603D01*
X9401134Y-14433984D02*
X9420182Y-14433984D01*
X9420182Y-14433984D02*
X9439229Y-14443508D01*
X9439229Y-14443508D02*
X9448753Y-14453031D01*
X9448753Y-14453031D02*
X9458277Y-14472079D01*
X9458277Y-14472079D02*
X9467801Y-14510174D01*
X9467801Y-14510174D02*
X9467801Y-14557793D01*
X9467801Y-14557793D02*
X9458277Y-14595888D01*
X9458277Y-14595888D02*
X9448753Y-14614936D01*
X9448753Y-14614936D02*
X9439229Y-14624460D01*
X9439229Y-14624460D02*
X9420182Y-14633984D01*
X9420182Y-14633984D02*
X9401134Y-14633984D01*
X9401134Y-14633984D02*
X9382087Y-14624460D01*
X9382087Y-14624460D02*
X9372563Y-14614936D01*
X9372563Y-14614936D02*
X9363039Y-14595888D01*
X9363039Y-14595888D02*
X9353515Y-14557793D01*
X9353515Y-14557793D02*
X9353515Y-14510174D01*
X9353515Y-14510174D02*
X9363039Y-14472079D01*
X9363039Y-14472079D02*
X9372563Y-14453031D01*
X9372563Y-14453031D02*
X9382087Y-14443508D01*
X9382087Y-14443508D02*
X9401134Y-14433984D01*
X9553515Y-14614936D02*
X9563039Y-14624460D01*
X9563039Y-14624460D02*
X9553515Y-14633984D01*
X9553515Y-14633984D02*
X9543991Y-14624460D01*
X9543991Y-14624460D02*
X9553515Y-14614936D01*
X9553515Y-14614936D02*
X9553515Y-14633984D01*
X9686848Y-14433984D02*
X9705896Y-14433984D01*
X9705896Y-14433984D02*
X9724944Y-14443508D01*
X9724944Y-14443508D02*
X9734468Y-14453031D01*
X9734468Y-14453031D02*
X9743991Y-14472079D01*
X9743991Y-14472079D02*
X9753515Y-14510174D01*
X9753515Y-14510174D02*
X9753515Y-14557793D01*
X9753515Y-14557793D02*
X9743991Y-14595888D01*
X9743991Y-14595888D02*
X9734468Y-14614936D01*
X9734468Y-14614936D02*
X9724944Y-14624460D01*
X9724944Y-14624460D02*
X9705896Y-14633984D01*
X9705896Y-14633984D02*
X9686848Y-14633984D01*
X9686848Y-14633984D02*
X9667801Y-14624460D01*
X9667801Y-14624460D02*
X9658277Y-14614936D01*
X9658277Y-14614936D02*
X9648753Y-14595888D01*
X9648753Y-14595888D02*
X9639229Y-14557793D01*
X9639229Y-14557793D02*
X9639229Y-14510174D01*
X9639229Y-14510174D02*
X9648753Y-14472079D01*
X9648753Y-14472079D02*
X9658277Y-14453031D01*
X9658277Y-14453031D02*
X9667801Y-14443508D01*
X9667801Y-14443508D02*
X9686848Y-14433984D01*
X9829706Y-14453031D02*
X9839229Y-14443508D01*
X9839229Y-14443508D02*
X9858277Y-14433984D01*
X9858277Y-14433984D02*
X9905896Y-14433984D01*
X9905896Y-14433984D02*
X9924944Y-14443508D01*
X9924944Y-14443508D02*
X9934468Y-14453031D01*
X9934468Y-14453031D02*
X9943991Y-14472079D01*
X9943991Y-14472079D02*
X9943991Y-14491127D01*
X9943991Y-14491127D02*
X9934468Y-14519698D01*
X9934468Y-14519698D02*
X9820182Y-14633984D01*
X9820182Y-14633984D02*
X9943991Y-14633984D01*
X10020182Y-14453031D02*
X10029706Y-14443508D01*
X10029706Y-14443508D02*
X10048753Y-14433984D01*
X10048753Y-14433984D02*
X10096372Y-14433984D01*
X10096372Y-14433984D02*
X10115420Y-14443508D01*
X10115420Y-14443508D02*
X10124944Y-14453031D01*
X10124944Y-14453031D02*
X10134468Y-14472079D01*
X10134468Y-14472079D02*
X10134468Y-14491127D01*
X10134468Y-14491127D02*
X10124944Y-14519698D01*
X10124944Y-14519698D02*
X10010658Y-14633984D01*
X10010658Y-14633984D02*
X10134468Y-14633984D01*
X10305896Y-14500650D02*
X10305896Y-14633984D01*
X10258277Y-14424460D02*
X10210658Y-14567317D01*
X10210658Y-14567317D02*
X10334468Y-14567317D01*
X10401134Y-14433984D02*
X10401134Y-14472079D01*
X10477325Y-14433984D02*
X10477325Y-14472079D01*
X10772563Y-14710174D02*
X10763039Y-14700650D01*
X10763039Y-14700650D02*
X10743991Y-14672079D01*
X10743991Y-14672079D02*
X10734468Y-14653031D01*
X10734468Y-14653031D02*
X10724944Y-14624460D01*
X10724944Y-14624460D02*
X10715420Y-14576841D01*
X10715420Y-14576841D02*
X10715420Y-14538746D01*
X10715420Y-14538746D02*
X10724944Y-14491127D01*
X10724944Y-14491127D02*
X10734468Y-14462555D01*
X10734468Y-14462555D02*
X10743991Y-14443508D01*
X10743991Y-14443508D02*
X10763039Y-14414936D01*
X10763039Y-14414936D02*
X10772563Y-14405412D01*
X10953515Y-14633984D02*
X10839230Y-14633984D01*
X10896372Y-14633984D02*
X10896372Y-14433984D01*
X10896372Y-14433984D02*
X10877325Y-14462555D01*
X10877325Y-14462555D02*
X10858277Y-14481603D01*
X10858277Y-14481603D02*
X10839230Y-14491127D01*
X11191610Y-14633984D02*
X11191610Y-14433984D01*
X11277325Y-14633984D02*
X11277325Y-14529222D01*
X11277325Y-14529222D02*
X11267801Y-14510174D01*
X11267801Y-14510174D02*
X11248753Y-14500650D01*
X11248753Y-14500650D02*
X11220182Y-14500650D01*
X11220182Y-14500650D02*
X11201134Y-14510174D01*
X11201134Y-14510174D02*
X11191610Y-14519698D01*
X11401134Y-14633984D02*
X11382087Y-14624460D01*
X11382087Y-14624460D02*
X11372563Y-14614936D01*
X11372563Y-14614936D02*
X11363039Y-14595888D01*
X11363039Y-14595888D02*
X11363039Y-14538746D01*
X11363039Y-14538746D02*
X11372563Y-14519698D01*
X11372563Y-14519698D02*
X11382087Y-14510174D01*
X11382087Y-14510174D02*
X11401134Y-14500650D01*
X11401134Y-14500650D02*
X11429706Y-14500650D01*
X11429706Y-14500650D02*
X11448753Y-14510174D01*
X11448753Y-14510174D02*
X11458277Y-14519698D01*
X11458277Y-14519698D02*
X11467801Y-14538746D01*
X11467801Y-14538746D02*
X11467801Y-14595888D01*
X11467801Y-14595888D02*
X11458277Y-14614936D01*
X11458277Y-14614936D02*
X11448753Y-14624460D01*
X11448753Y-14624460D02*
X11429706Y-14633984D01*
X11429706Y-14633984D02*
X11401134Y-14633984D01*
X11582087Y-14633984D02*
X11563039Y-14624460D01*
X11563039Y-14624460D02*
X11553515Y-14605412D01*
X11553515Y-14605412D02*
X11553515Y-14433984D01*
X11734468Y-14624460D02*
X11715420Y-14633984D01*
X11715420Y-14633984D02*
X11677325Y-14633984D01*
X11677325Y-14633984D02*
X11658277Y-14624460D01*
X11658277Y-14624460D02*
X11648753Y-14605412D01*
X11648753Y-14605412D02*
X11648753Y-14529222D01*
X11648753Y-14529222D02*
X11658277Y-14510174D01*
X11658277Y-14510174D02*
X11677325Y-14500650D01*
X11677325Y-14500650D02*
X11715420Y-14500650D01*
X11715420Y-14500650D02*
X11734468Y-14510174D01*
X11734468Y-14510174D02*
X11743991Y-14529222D01*
X11743991Y-14529222D02*
X11743991Y-14548269D01*
X11743991Y-14548269D02*
X11648753Y-14567317D01*
X11810658Y-14710174D02*
X11820182Y-14700650D01*
X11820182Y-14700650D02*
X11839230Y-14672079D01*
X11839230Y-14672079D02*
X11848753Y-14653031D01*
X11848753Y-14653031D02*
X11858277Y-14624460D01*
X11858277Y-14624460D02*
X11867801Y-14576841D01*
X11867801Y-14576841D02*
X11867801Y-14538746D01*
X11867801Y-14538746D02*
X11858277Y-14491127D01*
X11858277Y-14491127D02*
X11848753Y-14462555D01*
X11848753Y-14462555D02*
X11839230Y-14443508D01*
X11839230Y-14443508D02*
X11820182Y-14414936D01*
X11820182Y-14414936D02*
X11810658Y-14405412D01*
X12172563Y-14710174D02*
X12163039Y-14700650D01*
X12163039Y-14700650D02*
X12143991Y-14672079D01*
X12143991Y-14672079D02*
X12134468Y-14653031D01*
X12134468Y-14653031D02*
X12124944Y-14624460D01*
X12124944Y-14624460D02*
X12115420Y-14576841D01*
X12115420Y-14576841D02*
X12115420Y-14538746D01*
X12115420Y-14538746D02*
X12124944Y-14491127D01*
X12124944Y-14491127D02*
X12134468Y-14462555D01*
X12134468Y-14462555D02*
X12143991Y-14443508D01*
X12143991Y-14443508D02*
X12163039Y-14414936D01*
X12163039Y-14414936D02*
X12172563Y-14405412D01*
X12248753Y-14500650D02*
X12248753Y-14633984D01*
X12248753Y-14519698D02*
X12258277Y-14510174D01*
X12258277Y-14510174D02*
X12277325Y-14500650D01*
X12277325Y-14500650D02*
X12305896Y-14500650D01*
X12305896Y-14500650D02*
X12324944Y-14510174D01*
X12324944Y-14510174D02*
X12334468Y-14529222D01*
X12334468Y-14529222D02*
X12334468Y-14633984D01*
X12458277Y-14633984D02*
X12439230Y-14624460D01*
X12439230Y-14624460D02*
X12429706Y-14614936D01*
X12429706Y-14614936D02*
X12420182Y-14595888D01*
X12420182Y-14595888D02*
X12420182Y-14538746D01*
X12420182Y-14538746D02*
X12429706Y-14519698D01*
X12429706Y-14519698D02*
X12439230Y-14510174D01*
X12439230Y-14510174D02*
X12458277Y-14500650D01*
X12458277Y-14500650D02*
X12486849Y-14500650D01*
X12486849Y-14500650D02*
X12505896Y-14510174D01*
X12505896Y-14510174D02*
X12515420Y-14519698D01*
X12515420Y-14519698D02*
X12524944Y-14538746D01*
X12524944Y-14538746D02*
X12524944Y-14595888D01*
X12524944Y-14595888D02*
X12515420Y-14614936D01*
X12515420Y-14614936D02*
X12505896Y-14624460D01*
X12505896Y-14624460D02*
X12486849Y-14633984D01*
X12486849Y-14633984D02*
X12458277Y-14633984D01*
X12582087Y-14500650D02*
X12658277Y-14500650D01*
X12610658Y-14433984D02*
X12610658Y-14605412D01*
X12610658Y-14605412D02*
X12620182Y-14624460D01*
X12620182Y-14624460D02*
X12639230Y-14633984D01*
X12639230Y-14633984D02*
X12658277Y-14633984D01*
X12877325Y-14500650D02*
X12877325Y-14700650D01*
X12877325Y-14510174D02*
X12896372Y-14500650D01*
X12896372Y-14500650D02*
X12934468Y-14500650D01*
X12934468Y-14500650D02*
X12953515Y-14510174D01*
X12953515Y-14510174D02*
X12963039Y-14519698D01*
X12963039Y-14519698D02*
X12972563Y-14538746D01*
X12972563Y-14538746D02*
X12972563Y-14595888D01*
X12972563Y-14595888D02*
X12963039Y-14614936D01*
X12963039Y-14614936D02*
X12953515Y-14624460D01*
X12953515Y-14624460D02*
X12934468Y-14633984D01*
X12934468Y-14633984D02*
X12896372Y-14633984D01*
X12896372Y-14633984D02*
X12877325Y-14624460D01*
X13086849Y-14633984D02*
X13067801Y-14624460D01*
X13067801Y-14624460D02*
X13058277Y-14605412D01*
X13058277Y-14605412D02*
X13058277Y-14433984D01*
X13248753Y-14633984D02*
X13248753Y-14529222D01*
X13248753Y-14529222D02*
X13239230Y-14510174D01*
X13239230Y-14510174D02*
X13220182Y-14500650D01*
X13220182Y-14500650D02*
X13182087Y-14500650D01*
X13182087Y-14500650D02*
X13163039Y-14510174D01*
X13248753Y-14624460D02*
X13229706Y-14633984D01*
X13229706Y-14633984D02*
X13182087Y-14633984D01*
X13182087Y-14633984D02*
X13163039Y-14624460D01*
X13163039Y-14624460D02*
X13153515Y-14605412D01*
X13153515Y-14605412D02*
X13153515Y-14586365D01*
X13153515Y-14586365D02*
X13163039Y-14567317D01*
X13163039Y-14567317D02*
X13182087Y-14557793D01*
X13182087Y-14557793D02*
X13229706Y-14557793D01*
X13229706Y-14557793D02*
X13248753Y-14548269D01*
X13315420Y-14500650D02*
X13391611Y-14500650D01*
X13343992Y-14433984D02*
X13343992Y-14605412D01*
X13343992Y-14605412D02*
X13353515Y-14624460D01*
X13353515Y-14624460D02*
X13372563Y-14633984D01*
X13372563Y-14633984D02*
X13391611Y-14633984D01*
X13534468Y-14624460D02*
X13515420Y-14633984D01*
X13515420Y-14633984D02*
X13477325Y-14633984D01*
X13477325Y-14633984D02*
X13458277Y-14624460D01*
X13458277Y-14624460D02*
X13448753Y-14605412D01*
X13448753Y-14605412D02*
X13448753Y-14529222D01*
X13448753Y-14529222D02*
X13458277Y-14510174D01*
X13458277Y-14510174D02*
X13477325Y-14500650D01*
X13477325Y-14500650D02*
X13515420Y-14500650D01*
X13515420Y-14500650D02*
X13534468Y-14510174D01*
X13534468Y-14510174D02*
X13543992Y-14529222D01*
X13543992Y-14529222D02*
X13543992Y-14548269D01*
X13543992Y-14548269D02*
X13448753Y-14567317D01*
X13715420Y-14633984D02*
X13715420Y-14433984D01*
X13715420Y-14624460D02*
X13696373Y-14633984D01*
X13696373Y-14633984D02*
X13658277Y-14633984D01*
X13658277Y-14633984D02*
X13639230Y-14624460D01*
X13639230Y-14624460D02*
X13629706Y-14614936D01*
X13629706Y-14614936D02*
X13620182Y-14595888D01*
X13620182Y-14595888D02*
X13620182Y-14538746D01*
X13620182Y-14538746D02*
X13629706Y-14519698D01*
X13629706Y-14519698D02*
X13639230Y-14510174D01*
X13639230Y-14510174D02*
X13658277Y-14500650D01*
X13658277Y-14500650D02*
X13696373Y-14500650D01*
X13696373Y-14500650D02*
X13715420Y-14510174D01*
X13791611Y-14710174D02*
X13801134Y-14700650D01*
X13801134Y-14700650D02*
X13820182Y-14672079D01*
X13820182Y-14672079D02*
X13829706Y-14653031D01*
X13829706Y-14653031D02*
X13839230Y-14624460D01*
X13839230Y-14624460D02*
X13848753Y-14576841D01*
X13848753Y-14576841D02*
X13848753Y-14538746D01*
X13848753Y-14538746D02*
X13839230Y-14491127D01*
X13839230Y-14491127D02*
X13829706Y-14462555D01*
X13829706Y-14462555D02*
X13820182Y-14443508D01*
X13820182Y-14443508D02*
X13801134Y-14414936D01*
X13801134Y-14414936D02*
X13791611Y-14405412D01*
X7197500Y-14806500D02*
G75*
G02*
X6997500Y-14806500I-100000J0D01*
G01*
X6997500Y-14806500D02*
G75*
G02*
X7197500Y-14806500I100000J0D01*
G01*
X7448753Y-14717031D02*
X7458277Y-14707508D01*
X7458277Y-14707508D02*
X7477324Y-14697984D01*
X7477324Y-14697984D02*
X7524943Y-14697984D01*
X7524943Y-14697984D02*
X7543991Y-14707508D01*
X7543991Y-14707508D02*
X7553515Y-14717031D01*
X7553515Y-14717031D02*
X7563039Y-14736079D01*
X7563039Y-14736079D02*
X7563039Y-14755127D01*
X7563039Y-14755127D02*
X7553515Y-14783698D01*
X7553515Y-14783698D02*
X7439229Y-14897984D01*
X7439229Y-14897984D02*
X7563039Y-14897984D01*
X7648753Y-14878936D02*
X7658277Y-14888460D01*
X7658277Y-14888460D02*
X7648753Y-14897984D01*
X7648753Y-14897984D02*
X7639229Y-14888460D01*
X7639229Y-14888460D02*
X7648753Y-14878936D01*
X7648753Y-14878936D02*
X7648753Y-14897984D01*
X7782086Y-14697984D02*
X7801134Y-14697984D01*
X7801134Y-14697984D02*
X7820182Y-14707508D01*
X7820182Y-14707508D02*
X7829705Y-14717031D01*
X7829705Y-14717031D02*
X7839229Y-14736079D01*
X7839229Y-14736079D02*
X7848753Y-14774174D01*
X7848753Y-14774174D02*
X7848753Y-14821793D01*
X7848753Y-14821793D02*
X7839229Y-14859888D01*
X7839229Y-14859888D02*
X7829705Y-14878936D01*
X7829705Y-14878936D02*
X7820182Y-14888460D01*
X7820182Y-14888460D02*
X7801134Y-14897984D01*
X7801134Y-14897984D02*
X7782086Y-14897984D01*
X7782086Y-14897984D02*
X7763039Y-14888460D01*
X7763039Y-14888460D02*
X7753515Y-14878936D01*
X7753515Y-14878936D02*
X7743991Y-14859888D01*
X7743991Y-14859888D02*
X7734467Y-14821793D01*
X7734467Y-14821793D02*
X7734467Y-14774174D01*
X7734467Y-14774174D02*
X7743991Y-14736079D01*
X7743991Y-14736079D02*
X7753515Y-14717031D01*
X7753515Y-14717031D02*
X7763039Y-14707508D01*
X7763039Y-14707508D02*
X7782086Y-14697984D01*
X7972562Y-14697984D02*
X7991610Y-14697984D01*
X7991610Y-14697984D02*
X8010658Y-14707508D01*
X8010658Y-14707508D02*
X8020182Y-14717031D01*
X8020182Y-14717031D02*
X8029705Y-14736079D01*
X8029705Y-14736079D02*
X8039229Y-14774174D01*
X8039229Y-14774174D02*
X8039229Y-14821793D01*
X8039229Y-14821793D02*
X8029705Y-14859888D01*
X8029705Y-14859888D02*
X8020182Y-14878936D01*
X8020182Y-14878936D02*
X8010658Y-14888460D01*
X8010658Y-14888460D02*
X7991610Y-14897984D01*
X7991610Y-14897984D02*
X7972562Y-14897984D01*
X7972562Y-14897984D02*
X7953515Y-14888460D01*
X7953515Y-14888460D02*
X7943991Y-14878936D01*
X7943991Y-14878936D02*
X7934467Y-14859888D01*
X7934467Y-14859888D02*
X7924943Y-14821793D01*
X7924943Y-14821793D02*
X7924943Y-14774174D01*
X7924943Y-14774174D02*
X7934467Y-14736079D01*
X7934467Y-14736079D02*
X7943991Y-14717031D01*
X7943991Y-14717031D02*
X7953515Y-14707508D01*
X7953515Y-14707508D02*
X7972562Y-14697984D01*
X8163039Y-14697984D02*
X8182086Y-14697984D01*
X8182086Y-14697984D02*
X8201134Y-14707508D01*
X8201134Y-14707508D02*
X8210658Y-14717031D01*
X8210658Y-14717031D02*
X8220182Y-14736079D01*
X8220182Y-14736079D02*
X8229705Y-14774174D01*
X8229705Y-14774174D02*
X8229705Y-14821793D01*
X8229705Y-14821793D02*
X8220182Y-14859888D01*
X8220182Y-14859888D02*
X8210658Y-14878936D01*
X8210658Y-14878936D02*
X8201134Y-14888460D01*
X8201134Y-14888460D02*
X8182086Y-14897984D01*
X8182086Y-14897984D02*
X8163039Y-14897984D01*
X8163039Y-14897984D02*
X8143991Y-14888460D01*
X8143991Y-14888460D02*
X8134467Y-14878936D01*
X8134467Y-14878936D02*
X8124943Y-14859888D01*
X8124943Y-14859888D02*
X8115420Y-14821793D01*
X8115420Y-14821793D02*
X8115420Y-14774174D01*
X8115420Y-14774174D02*
X8124943Y-14736079D01*
X8124943Y-14736079D02*
X8134467Y-14717031D01*
X8134467Y-14717031D02*
X8143991Y-14707508D01*
X8143991Y-14707508D02*
X8163039Y-14697984D01*
X8315420Y-14897984D02*
X8315420Y-14764650D01*
X8315420Y-14783698D02*
X8324943Y-14774174D01*
X8324943Y-14774174D02*
X8343991Y-14764650D01*
X8343991Y-14764650D02*
X8372563Y-14764650D01*
X8372563Y-14764650D02*
X8391610Y-14774174D01*
X8391610Y-14774174D02*
X8401134Y-14793222D01*
X8401134Y-14793222D02*
X8401134Y-14897984D01*
X8401134Y-14793222D02*
X8410658Y-14774174D01*
X8410658Y-14774174D02*
X8429705Y-14764650D01*
X8429705Y-14764650D02*
X8458277Y-14764650D01*
X8458277Y-14764650D02*
X8477325Y-14774174D01*
X8477325Y-14774174D02*
X8486848Y-14793222D01*
X8486848Y-14793222D02*
X8486848Y-14897984D01*
X8582086Y-14897984D02*
X8582086Y-14764650D01*
X8582086Y-14783698D02*
X8591610Y-14774174D01*
X8591610Y-14774174D02*
X8610658Y-14764650D01*
X8610658Y-14764650D02*
X8639229Y-14764650D01*
X8639229Y-14764650D02*
X8658277Y-14774174D01*
X8658277Y-14774174D02*
X8667801Y-14793222D01*
X8667801Y-14793222D02*
X8667801Y-14897984D01*
X8667801Y-14793222D02*
X8677325Y-14774174D01*
X8677325Y-14774174D02*
X8696372Y-14764650D01*
X8696372Y-14764650D02*
X8724944Y-14764650D01*
X8724944Y-14764650D02*
X8743991Y-14774174D01*
X8743991Y-14774174D02*
X8753515Y-14793222D01*
X8753515Y-14793222D02*
X8753515Y-14897984D01*
X9143991Y-14688460D02*
X8972563Y-14945603D01*
X9401134Y-14697984D02*
X9420182Y-14697984D01*
X9420182Y-14697984D02*
X9439229Y-14707508D01*
X9439229Y-14707508D02*
X9448753Y-14717031D01*
X9448753Y-14717031D02*
X9458277Y-14736079D01*
X9458277Y-14736079D02*
X9467801Y-14774174D01*
X9467801Y-14774174D02*
X9467801Y-14821793D01*
X9467801Y-14821793D02*
X9458277Y-14859888D01*
X9458277Y-14859888D02*
X9448753Y-14878936D01*
X9448753Y-14878936D02*
X9439229Y-14888460D01*
X9439229Y-14888460D02*
X9420182Y-14897984D01*
X9420182Y-14897984D02*
X9401134Y-14897984D01*
X9401134Y-14897984D02*
X9382087Y-14888460D01*
X9382087Y-14888460D02*
X9372563Y-14878936D01*
X9372563Y-14878936D02*
X9363039Y-14859888D01*
X9363039Y-14859888D02*
X9353515Y-14821793D01*
X9353515Y-14821793D02*
X9353515Y-14774174D01*
X9353515Y-14774174D02*
X9363039Y-14736079D01*
X9363039Y-14736079D02*
X9372563Y-14717031D01*
X9372563Y-14717031D02*
X9382087Y-14707508D01*
X9382087Y-14707508D02*
X9401134Y-14697984D01*
X9553515Y-14878936D02*
X9563039Y-14888460D01*
X9563039Y-14888460D02*
X9553515Y-14897984D01*
X9553515Y-14897984D02*
X9543991Y-14888460D01*
X9543991Y-14888460D02*
X9553515Y-14878936D01*
X9553515Y-14878936D02*
X9553515Y-14897984D01*
X9686848Y-14697984D02*
X9705896Y-14697984D01*
X9705896Y-14697984D02*
X9724944Y-14707508D01*
X9724944Y-14707508D02*
X9734468Y-14717031D01*
X9734468Y-14717031D02*
X9743991Y-14736079D01*
X9743991Y-14736079D02*
X9753515Y-14774174D01*
X9753515Y-14774174D02*
X9753515Y-14821793D01*
X9753515Y-14821793D02*
X9743991Y-14859888D01*
X9743991Y-14859888D02*
X9734468Y-14878936D01*
X9734468Y-14878936D02*
X9724944Y-14888460D01*
X9724944Y-14888460D02*
X9705896Y-14897984D01*
X9705896Y-14897984D02*
X9686848Y-14897984D01*
X9686848Y-14897984D02*
X9667801Y-14888460D01*
X9667801Y-14888460D02*
X9658277Y-14878936D01*
X9658277Y-14878936D02*
X9648753Y-14859888D01*
X9648753Y-14859888D02*
X9639229Y-14821793D01*
X9639229Y-14821793D02*
X9639229Y-14774174D01*
X9639229Y-14774174D02*
X9648753Y-14736079D01*
X9648753Y-14736079D02*
X9658277Y-14717031D01*
X9658277Y-14717031D02*
X9667801Y-14707508D01*
X9667801Y-14707508D02*
X9686848Y-14697984D01*
X9820182Y-14697984D02*
X9953515Y-14697984D01*
X9953515Y-14697984D02*
X9867801Y-14897984D01*
X10058277Y-14783698D02*
X10039229Y-14774174D01*
X10039229Y-14774174D02*
X10029706Y-14764650D01*
X10029706Y-14764650D02*
X10020182Y-14745603D01*
X10020182Y-14745603D02*
X10020182Y-14736079D01*
X10020182Y-14736079D02*
X10029706Y-14717031D01*
X10029706Y-14717031D02*
X10039229Y-14707508D01*
X10039229Y-14707508D02*
X10058277Y-14697984D01*
X10058277Y-14697984D02*
X10096372Y-14697984D01*
X10096372Y-14697984D02*
X10115420Y-14707508D01*
X10115420Y-14707508D02*
X10124944Y-14717031D01*
X10124944Y-14717031D02*
X10134468Y-14736079D01*
X10134468Y-14736079D02*
X10134468Y-14745603D01*
X10134468Y-14745603D02*
X10124944Y-14764650D01*
X10124944Y-14764650D02*
X10115420Y-14774174D01*
X10115420Y-14774174D02*
X10096372Y-14783698D01*
X10096372Y-14783698D02*
X10058277Y-14783698D01*
X10058277Y-14783698D02*
X10039229Y-14793222D01*
X10039229Y-14793222D02*
X10029706Y-14802746D01*
X10029706Y-14802746D02*
X10020182Y-14821793D01*
X10020182Y-14821793D02*
X10020182Y-14859888D01*
X10020182Y-14859888D02*
X10029706Y-14878936D01*
X10029706Y-14878936D02*
X10039229Y-14888460D01*
X10039229Y-14888460D02*
X10058277Y-14897984D01*
X10058277Y-14897984D02*
X10096372Y-14897984D01*
X10096372Y-14897984D02*
X10115420Y-14888460D01*
X10115420Y-14888460D02*
X10124944Y-14878936D01*
X10124944Y-14878936D02*
X10134468Y-14859888D01*
X10134468Y-14859888D02*
X10134468Y-14821793D01*
X10134468Y-14821793D02*
X10124944Y-14802746D01*
X10124944Y-14802746D02*
X10115420Y-14793222D01*
X10115420Y-14793222D02*
X10096372Y-14783698D01*
X10201134Y-14697984D02*
X10334468Y-14697984D01*
X10334468Y-14697984D02*
X10248753Y-14897984D01*
X10401134Y-14697984D02*
X10401134Y-14736079D01*
X10477325Y-14697984D02*
X10477325Y-14736079D01*
X10772563Y-14974174D02*
X10763039Y-14964650D01*
X10763039Y-14964650D02*
X10743991Y-14936079D01*
X10743991Y-14936079D02*
X10734468Y-14917031D01*
X10734468Y-14917031D02*
X10724944Y-14888460D01*
X10724944Y-14888460D02*
X10715420Y-14840841D01*
X10715420Y-14840841D02*
X10715420Y-14802746D01*
X10715420Y-14802746D02*
X10724944Y-14755127D01*
X10724944Y-14755127D02*
X10734468Y-14726555D01*
X10734468Y-14726555D02*
X10743991Y-14707508D01*
X10743991Y-14707508D02*
X10763039Y-14678936D01*
X10763039Y-14678936D02*
X10772563Y-14669412D01*
X10934468Y-14764650D02*
X10934468Y-14897984D01*
X10886849Y-14688460D02*
X10839230Y-14831317D01*
X10839230Y-14831317D02*
X10963039Y-14831317D01*
X11191610Y-14897984D02*
X11191610Y-14697984D01*
X11277325Y-14897984D02*
X11277325Y-14793222D01*
X11277325Y-14793222D02*
X11267801Y-14774174D01*
X11267801Y-14774174D02*
X11248753Y-14764650D01*
X11248753Y-14764650D02*
X11220182Y-14764650D01*
X11220182Y-14764650D02*
X11201134Y-14774174D01*
X11201134Y-14774174D02*
X11191610Y-14783698D01*
X11401134Y-14897984D02*
X11382087Y-14888460D01*
X11382087Y-14888460D02*
X11372563Y-14878936D01*
X11372563Y-14878936D02*
X11363039Y-14859888D01*
X11363039Y-14859888D02*
X11363039Y-14802746D01*
X11363039Y-14802746D02*
X11372563Y-14783698D01*
X11372563Y-14783698D02*
X11382087Y-14774174D01*
X11382087Y-14774174D02*
X11401134Y-14764650D01*
X11401134Y-14764650D02*
X11429706Y-14764650D01*
X11429706Y-14764650D02*
X11448753Y-14774174D01*
X11448753Y-14774174D02*
X11458277Y-14783698D01*
X11458277Y-14783698D02*
X11467801Y-14802746D01*
X11467801Y-14802746D02*
X11467801Y-14859888D01*
X11467801Y-14859888D02*
X11458277Y-14878936D01*
X11458277Y-14878936D02*
X11448753Y-14888460D01*
X11448753Y-14888460D02*
X11429706Y-14897984D01*
X11429706Y-14897984D02*
X11401134Y-14897984D01*
X11582087Y-14897984D02*
X11563039Y-14888460D01*
X11563039Y-14888460D02*
X11553515Y-14869412D01*
X11553515Y-14869412D02*
X11553515Y-14697984D01*
X11734468Y-14888460D02*
X11715420Y-14897984D01*
X11715420Y-14897984D02*
X11677325Y-14897984D01*
X11677325Y-14897984D02*
X11658277Y-14888460D01*
X11658277Y-14888460D02*
X11648753Y-14869412D01*
X11648753Y-14869412D02*
X11648753Y-14793222D01*
X11648753Y-14793222D02*
X11658277Y-14774174D01*
X11658277Y-14774174D02*
X11677325Y-14764650D01*
X11677325Y-14764650D02*
X11715420Y-14764650D01*
X11715420Y-14764650D02*
X11734468Y-14774174D01*
X11734468Y-14774174D02*
X11743991Y-14793222D01*
X11743991Y-14793222D02*
X11743991Y-14812269D01*
X11743991Y-14812269D02*
X11648753Y-14831317D01*
X11820182Y-14888460D02*
X11839230Y-14897984D01*
X11839230Y-14897984D02*
X11877325Y-14897984D01*
X11877325Y-14897984D02*
X11896372Y-14888460D01*
X11896372Y-14888460D02*
X11905896Y-14869412D01*
X11905896Y-14869412D02*
X11905896Y-14859888D01*
X11905896Y-14859888D02*
X11896372Y-14840841D01*
X11896372Y-14840841D02*
X11877325Y-14831317D01*
X11877325Y-14831317D02*
X11848753Y-14831317D01*
X11848753Y-14831317D02*
X11829706Y-14821793D01*
X11829706Y-14821793D02*
X11820182Y-14802746D01*
X11820182Y-14802746D02*
X11820182Y-14793222D01*
X11820182Y-14793222D02*
X11829706Y-14774174D01*
X11829706Y-14774174D02*
X11848753Y-14764650D01*
X11848753Y-14764650D02*
X11877325Y-14764650D01*
X11877325Y-14764650D02*
X11896372Y-14774174D01*
X11972563Y-14974174D02*
X11982087Y-14964650D01*
X11982087Y-14964650D02*
X12001134Y-14936079D01*
X12001134Y-14936079D02*
X12010658Y-14917031D01*
X12010658Y-14917031D02*
X12020182Y-14888460D01*
X12020182Y-14888460D02*
X12029706Y-14840841D01*
X12029706Y-14840841D02*
X12029706Y-14802746D01*
X12029706Y-14802746D02*
X12020182Y-14755127D01*
X12020182Y-14755127D02*
X12010658Y-14726555D01*
X12010658Y-14726555D02*
X12001134Y-14707508D01*
X12001134Y-14707508D02*
X11982087Y-14678936D01*
X11982087Y-14678936D02*
X11972563Y-14669412D01*
X12334468Y-14974174D02*
X12324944Y-14964650D01*
X12324944Y-14964650D02*
X12305896Y-14936079D01*
X12305896Y-14936079D02*
X12296372Y-14917031D01*
X12296372Y-14917031D02*
X12286849Y-14888460D01*
X12286849Y-14888460D02*
X12277325Y-14840841D01*
X12277325Y-14840841D02*
X12277325Y-14802746D01*
X12277325Y-14802746D02*
X12286849Y-14755127D01*
X12286849Y-14755127D02*
X12296372Y-14726555D01*
X12296372Y-14726555D02*
X12305896Y-14707508D01*
X12305896Y-14707508D02*
X12324944Y-14678936D01*
X12324944Y-14678936D02*
X12334468Y-14669412D01*
X12410658Y-14764650D02*
X12410658Y-14897984D01*
X12410658Y-14783698D02*
X12420182Y-14774174D01*
X12420182Y-14774174D02*
X12439230Y-14764650D01*
X12439230Y-14764650D02*
X12467801Y-14764650D01*
X12467801Y-14764650D02*
X12486849Y-14774174D01*
X12486849Y-14774174D02*
X12496372Y-14793222D01*
X12496372Y-14793222D02*
X12496372Y-14897984D01*
X12620182Y-14897984D02*
X12601134Y-14888460D01*
X12601134Y-14888460D02*
X12591611Y-14878936D01*
X12591611Y-14878936D02*
X12582087Y-14859888D01*
X12582087Y-14859888D02*
X12582087Y-14802746D01*
X12582087Y-14802746D02*
X12591611Y-14783698D01*
X12591611Y-14783698D02*
X12601134Y-14774174D01*
X12601134Y-14774174D02*
X12620182Y-14764650D01*
X12620182Y-14764650D02*
X12648753Y-14764650D01*
X12648753Y-14764650D02*
X12667801Y-14774174D01*
X12667801Y-14774174D02*
X12677325Y-14783698D01*
X12677325Y-14783698D02*
X12686849Y-14802746D01*
X12686849Y-14802746D02*
X12686849Y-14859888D01*
X12686849Y-14859888D02*
X12677325Y-14878936D01*
X12677325Y-14878936D02*
X12667801Y-14888460D01*
X12667801Y-14888460D02*
X12648753Y-14897984D01*
X12648753Y-14897984D02*
X12620182Y-14897984D01*
X12743992Y-14764650D02*
X12820182Y-14764650D01*
X12772563Y-14697984D02*
X12772563Y-14869412D01*
X12772563Y-14869412D02*
X12782087Y-14888460D01*
X12782087Y-14888460D02*
X12801134Y-14897984D01*
X12801134Y-14897984D02*
X12820182Y-14897984D01*
X13039230Y-14764650D02*
X13039230Y-14964650D01*
X13039230Y-14774174D02*
X13058277Y-14764650D01*
X13058277Y-14764650D02*
X13096373Y-14764650D01*
X13096373Y-14764650D02*
X13115420Y-14774174D01*
X13115420Y-14774174D02*
X13124944Y-14783698D01*
X13124944Y-14783698D02*
X13134468Y-14802746D01*
X13134468Y-14802746D02*
X13134468Y-14859888D01*
X13134468Y-14859888D02*
X13124944Y-14878936D01*
X13124944Y-14878936D02*
X13115420Y-14888460D01*
X13115420Y-14888460D02*
X13096373Y-14897984D01*
X13096373Y-14897984D02*
X13058277Y-14897984D01*
X13058277Y-14897984D02*
X13039230Y-14888460D01*
X13248753Y-14897984D02*
X13229706Y-14888460D01*
X13229706Y-14888460D02*
X13220182Y-14869412D01*
X13220182Y-14869412D02*
X13220182Y-14697984D01*
X13410658Y-14897984D02*
X13410658Y-14793222D01*
X13410658Y-14793222D02*
X13401134Y-14774174D01*
X13401134Y-14774174D02*
X13382087Y-14764650D01*
X13382087Y-14764650D02*
X13343992Y-14764650D01*
X13343992Y-14764650D02*
X13324944Y-14774174D01*
X13410658Y-14888460D02*
X13391611Y-14897984D01*
X13391611Y-14897984D02*
X13343992Y-14897984D01*
X13343992Y-14897984D02*
X13324944Y-14888460D01*
X13324944Y-14888460D02*
X13315420Y-14869412D01*
X13315420Y-14869412D02*
X13315420Y-14850365D01*
X13315420Y-14850365D02*
X13324944Y-14831317D01*
X13324944Y-14831317D02*
X13343992Y-14821793D01*
X13343992Y-14821793D02*
X13391611Y-14821793D01*
X13391611Y-14821793D02*
X13410658Y-14812269D01*
X13477325Y-14764650D02*
X13553515Y-14764650D01*
X13505896Y-14697984D02*
X13505896Y-14869412D01*
X13505896Y-14869412D02*
X13515420Y-14888460D01*
X13515420Y-14888460D02*
X13534468Y-14897984D01*
X13534468Y-14897984D02*
X13553515Y-14897984D01*
X13696373Y-14888460D02*
X13677325Y-14897984D01*
X13677325Y-14897984D02*
X13639230Y-14897984D01*
X13639230Y-14897984D02*
X13620182Y-14888460D01*
X13620182Y-14888460D02*
X13610658Y-14869412D01*
X13610658Y-14869412D02*
X13610658Y-14793222D01*
X13610658Y-14793222D02*
X13620182Y-14774174D01*
X13620182Y-14774174D02*
X13639230Y-14764650D01*
X13639230Y-14764650D02*
X13677325Y-14764650D01*
X13677325Y-14764650D02*
X13696373Y-14774174D01*
X13696373Y-14774174D02*
X13705896Y-14793222D01*
X13705896Y-14793222D02*
X13705896Y-14812269D01*
X13705896Y-14812269D02*
X13610658Y-14831317D01*
X13877325Y-14897984D02*
X13877325Y-14697984D01*
X13877325Y-14888460D02*
X13858277Y-14897984D01*
X13858277Y-14897984D02*
X13820182Y-14897984D01*
X13820182Y-14897984D02*
X13801134Y-14888460D01*
X13801134Y-14888460D02*
X13791611Y-14878936D01*
X13791611Y-14878936D02*
X13782087Y-14859888D01*
X13782087Y-14859888D02*
X13782087Y-14802746D01*
X13782087Y-14802746D02*
X13791611Y-14783698D01*
X13791611Y-14783698D02*
X13801134Y-14774174D01*
X13801134Y-14774174D02*
X13820182Y-14764650D01*
X13820182Y-14764650D02*
X13858277Y-14764650D01*
X13858277Y-14764650D02*
X13877325Y-14774174D01*
X13953515Y-14974174D02*
X13963039Y-14964650D01*
X13963039Y-14964650D02*
X13982087Y-14936079D01*
X13982087Y-14936079D02*
X13991611Y-14917031D01*
X13991611Y-14917031D02*
X14001134Y-14888460D01*
X14001134Y-14888460D02*
X14010658Y-14840841D01*
X14010658Y-14840841D02*
X14010658Y-14802746D01*
X14010658Y-14802746D02*
X14001134Y-14755127D01*
X14001134Y-14755127D02*
X13991611Y-14726555D01*
X13991611Y-14726555D02*
X13982087Y-14707508D01*
X13982087Y-14707508D02*
X13963039Y-14678936D01*
X13963039Y-14678936D02*
X13953515Y-14669412D01*
M02*
