%TF.GenerationSoftware,KiCad,Pcbnew,9.0.5*%
%TF.CreationDate,2025-11-24T11:18:26-05:00*%
%TF.ProjectId,everframe_board,65766572-6672-4616-9d65-5f626f617264,rev?*%
%TF.SameCoordinates,Original*%
%TF.FileFunction,Copper,L3,Inr*%
%TF.FilePolarity,Positive*%
%FSLAX46Y46*%
G04 Gerber Fmt 4.6, Leading zero omitted, Abs format (unit mm)*
G04 Created by KiCad (PCBNEW 9.0.5) date 2025-11-24 11:18:26*
%MOMM*%
%LPD*%
G01*
G04 APERTURE LIST*
G04 Aperture macros list*
%AMRoundRect*
0 Rectangle with rounded corners*
0 $1 Rounding radius*
0 $2 $3 $4 $5 $6 $7 $8 $9 X,Y pos of 4 corners*
0 Add a 4 corners polygon primitive as box body*
4,1,4,$2,$3,$4,$5,$6,$7,$8,$9,$2,$3,0*
0 Add four circle primitives for the rounded corners*
1,1,$1+$1,$2,$3*
1,1,$1+$1,$4,$5*
1,1,$1+$1,$6,$7*
1,1,$1+$1,$8,$9*
0 Add four rect primitives between the rounded corners*
20,1,$1+$1,$2,$3,$4,$5,0*
20,1,$1+$1,$4,$5,$6,$7,0*
20,1,$1+$1,$6,$7,$8,$9,0*
20,1,$1+$1,$8,$9,$2,$3,0*%
G04 Aperture macros list end*
%TA.AperFunction,ComponentPad*%
%ADD10O,1.150000X1.400000*%
%TD*%
%TA.AperFunction,ComponentPad*%
%ADD11RoundRect,0.375000X0.375000X-0.875000X0.375000X0.875000X-0.375000X0.875000X-0.375000X-0.875000X0*%
%TD*%
%TA.AperFunction,ViaPad*%
%ADD12C,0.600000*%
%TD*%
G04 APERTURE END LIST*
D10*
%TO.N,GND*%
%TO.C,J2*%
X79150000Y-125750000D03*
X79150000Y-130550000D03*
X74850000Y-125750000D03*
X74850000Y-130550000D03*
%TD*%
D11*
%TO.N,/esp32-s3/VBAT*%
%TO.C,U1*%
X83132000Y-98445000D03*
%TO.N,GND*%
X85037000Y-98445000D03*
%TD*%
D12*
%TO.N,+3.3V*%
X90400000Y-55700000D03*
X91900000Y-83500000D03*
X80125000Y-79000000D03*
X78704804Y-78744319D03*
X92300000Y-78175000D03*
X91900000Y-86400000D03*
X88300000Y-55000000D03*
X91100000Y-82800000D03*
X78700000Y-80400000D03*
X90300000Y-82800000D03*
X81600000Y-78975000D03*
X80400000Y-52450000D03*
X90800000Y-78200000D03*
X83100000Y-78975000D03*
X91900000Y-85000000D03*
X91900000Y-85700000D03*
X91900000Y-82800000D03*
X83300000Y-52300000D03*
X75839917Y-79229867D03*
X80550000Y-62475000D03*
X86000000Y-52800000D03*
X91900000Y-84300000D03*
X82050000Y-62475000D03*
%TO.N,+5V*%
X91900000Y-89400000D03*
X91900000Y-87800000D03*
X91900000Y-91000000D03*
X91900000Y-88600000D03*
X83500000Y-126000000D03*
X85500000Y-126000000D03*
X91900000Y-90200000D03*
X91700000Y-115325000D03*
X85300000Y-127500000D03*
X91700000Y-114550000D03*
X90400000Y-112000000D03*
X91700000Y-113000000D03*
X91700000Y-113775000D03*
X91700000Y-116100000D03*
%TO.N,+5V_USB*%
X79519392Y-126886368D03*
X83100000Y-129400000D03*
X79100000Y-129000000D03*
X74896025Y-127673597D03*
X74700000Y-129200000D03*
X83700000Y-127500000D03*
%TO.N,/epaper display (page 3)/SCK*%
X77100000Y-87302688D03*
%TO.N,/epaper display (page 3)/GDRC*%
X75700000Y-54600000D03*
X84200000Y-52854174D03*
X74000000Y-61500000D03*
%TO.N,Net-(J2-CC2)*%
X75015136Y-128464682D03*
%TO.N,Net-(J2-CC1)*%
X81500000Y-125825000D03*
X79000000Y-127600000D03*
%TO.N,/epaper display (page 3)/DISP_PWR_EN*%
X84200000Y-91200000D03*
%TO.N,/esp32-s3/ESP32_MOSI*%
X82900000Y-113100000D03*
%TO.N,/esp32-s3/ESP32_MISO*%
X80300000Y-113200000D03*
%TO.N,/esp32-s3/ESP32_SCK*%
X77800000Y-113200000D03*
%TO.N,Net-(R21-Pad1)*%
X80500000Y-117200000D03*
%TO.N,/epaper display (page 3)/RESEC*%
X84900000Y-60800000D03*
%TO.N,/epaper display (page 3)/DC*%
X76200000Y-89000000D03*
%TO.N,/epaper display (page 3)/VSL_LV2*%
X80100000Y-70600000D03*
%TO.N,/epaper display (page 3)/VCP2*%
X76058068Y-81644928D03*
%TO.N,/esp32-s3/ESP32_DC*%
X75300000Y-113200000D03*
%TO.N,/epaper display (page 3)/VCP1*%
X75800000Y-83800000D03*
%TO.N,GND*%
X85500000Y-124100000D03*
X93000000Y-80000000D03*
X75200000Y-81000000D03*
X73000000Y-134000000D03*
X93000000Y-104000000D03*
X93000000Y-90000000D03*
X79000000Y-50000000D03*
X77000000Y-138000000D03*
X73000000Y-60000000D03*
X88650000Y-129625000D03*
X73000000Y-90000000D03*
X73000000Y-116000000D03*
X80116487Y-65920238D03*
X93000000Y-52000000D03*
X87000000Y-138000000D03*
X93000000Y-82000000D03*
X93000000Y-120000000D03*
X81700000Y-80500000D03*
X88700000Y-84500000D03*
X75100000Y-72600000D03*
X93000000Y-128000000D03*
X93000000Y-118000000D03*
X73000000Y-66000000D03*
X73000000Y-118000000D03*
X73000000Y-88000000D03*
X86820000Y-55100000D03*
X93000000Y-88000000D03*
X81000000Y-50000000D03*
X93000000Y-92000000D03*
X73000000Y-84000000D03*
X76009561Y-63668514D03*
X75100000Y-66600000D03*
X93000000Y-122000000D03*
X89500000Y-88600000D03*
X75100000Y-68600000D03*
X81600000Y-77400000D03*
X81000000Y-138000000D03*
X93000000Y-70000000D03*
X93000000Y-98000000D03*
X93000000Y-124000000D03*
X73000000Y-80000000D03*
X75981441Y-65798419D03*
X78484952Y-64550000D03*
X93000000Y-130000000D03*
X87000000Y-50000000D03*
X93000000Y-133000000D03*
X89000000Y-138000000D03*
X93000000Y-94000000D03*
X93000000Y-110000000D03*
X80400000Y-54400000D03*
X73000000Y-132000000D03*
X93000000Y-65000000D03*
X93000000Y-135000000D03*
X75200000Y-78000000D03*
X83100000Y-77400000D03*
X81500000Y-124200000D03*
X90100000Y-68500000D03*
X73000000Y-112000000D03*
X73000000Y-128000000D03*
X73000000Y-130000000D03*
X74600000Y-57800000D03*
X73000000Y-124000000D03*
X73000000Y-54000000D03*
X73000000Y-78000000D03*
X93000000Y-108000000D03*
X93000000Y-102000000D03*
X73000000Y-58000000D03*
X90800000Y-73575000D03*
X83200000Y-83975000D03*
X73000000Y-106000000D03*
X93000000Y-106000000D03*
X83000000Y-50000000D03*
X83000000Y-138000000D03*
X85149997Y-68449998D03*
X86000000Y-129400000D03*
X78682046Y-79594017D03*
X75000000Y-50000000D03*
X87025000Y-88000000D03*
X73000000Y-76000000D03*
X73000000Y-110000000D03*
X73000000Y-102000000D03*
X73000000Y-86000000D03*
X75102136Y-122194199D03*
X73000000Y-114000000D03*
X93000000Y-100000000D03*
X93000000Y-116000000D03*
X75100000Y-70600000D03*
X73000000Y-94000000D03*
X76048699Y-80017385D03*
X73000000Y-64000000D03*
X73000000Y-70000000D03*
X93000000Y-114000000D03*
X83000000Y-71000000D03*
X88700000Y-90500000D03*
X93000000Y-72000000D03*
X83500000Y-124100000D03*
X73000000Y-62000000D03*
X93000000Y-96000000D03*
X73000000Y-120000000D03*
X75100000Y-74600000D03*
X81800000Y-56050000D03*
X91000000Y-138000000D03*
X93000000Y-54000000D03*
X82200000Y-117600000D03*
X89000000Y-50000000D03*
X73000000Y-108000000D03*
X79000000Y-138000000D03*
X73000000Y-72000000D03*
X82975000Y-72500000D03*
X93000000Y-86000000D03*
X73000000Y-98000000D03*
X93000000Y-68000000D03*
X73000000Y-56000000D03*
X75000000Y-138000000D03*
X88000000Y-112000000D03*
X73000000Y-74000000D03*
X73000000Y-104000000D03*
X79500000Y-56000000D03*
X73000000Y-92000000D03*
X89549998Y-66600000D03*
X85000000Y-50000000D03*
X93000000Y-112000000D03*
X93000000Y-60000000D03*
X83400000Y-60900000D03*
X79377473Y-71420357D03*
X80550000Y-60925000D03*
X85000000Y-138000000D03*
X73000000Y-122000000D03*
X93000000Y-56000000D03*
X74600000Y-88100000D03*
X93000000Y-58000000D03*
X73000000Y-126000000D03*
X73000000Y-100000000D03*
X77000000Y-50000000D03*
X73000000Y-68000000D03*
X73000000Y-82000000D03*
X75200000Y-82500000D03*
X78750000Y-93000000D03*
X91000000Y-50000000D03*
X73000000Y-96000000D03*
X93000000Y-84000000D03*
X73000000Y-136000000D03*
X80100000Y-77400000D03*
X73000000Y-52000000D03*
%TO.N,/epaper display (page 3)/VSL_LV*%
X80900000Y-69900000D03*
%TO.N,/epaper display (page 3)/VSH*%
X73600000Y-65400000D03*
%TO.N,/epaper display (page 3)/VGH*%
X88200000Y-72600000D03*
X89100000Y-82900000D03*
X78600000Y-84500000D03*
X88800000Y-76400000D03*
%TO.N,/epaper display (page 3)/VPC*%
X85684236Y-61784648D03*
%TO.N,/epaper display (page 3)/RST_N*%
X87000000Y-92200000D03*
%TO.N,/epaper display (page 3)/GDRH*%
X87221625Y-58487825D03*
X83200000Y-61700000D03*
%TO.N,/epaper display (page 3)/VDDO*%
X75900000Y-77000000D03*
%TO.N,/epaper display (page 3)/VSL*%
X81200000Y-68900000D03*
%TO.N,/epaper display (page 3)/SI0*%
X79474193Y-87068481D03*
%TO.N,/epaper display (page 3)/VSH_LV2*%
X80800000Y-68200000D03*
%TO.N,/epaper display (page 3)/VSH_LV*%
X79819813Y-67976595D03*
%TO.N,/epaper display (page 3)/SI1*%
X78100000Y-86503132D03*
%TO.N,/esp32-s3/VBAT*%
X87500000Y-126800000D03*
X85200000Y-116700000D03*
X86986139Y-127303171D03*
X85900000Y-117400000D03*
X87600001Y-122899999D03*
X87600001Y-121900000D03*
%TO.N,Net-(U1-GPIO1_A0_D0)*%
X86300000Y-113100000D03*
X89900000Y-98300000D03*
X83700000Y-120100000D03*
%TD*%
%TA.AperFunction,Conductor*%
%TO.N,GND*%
G36*
X91003736Y-49500726D02*
G01*
X91293796Y-49518271D01*
X91308659Y-49520076D01*
X91590798Y-49571780D01*
X91605335Y-49575363D01*
X91879172Y-49660695D01*
X91893163Y-49666000D01*
X92154743Y-49783727D01*
X92167989Y-49790680D01*
X92413465Y-49939075D01*
X92425776Y-49947573D01*
X92651573Y-50124473D01*
X92662781Y-50134403D01*
X92865596Y-50337218D01*
X92875526Y-50348426D01*
X92995481Y-50501538D01*
X93052422Y-50574217D01*
X93060928Y-50586540D01*
X93209316Y-50832004D01*
X93216275Y-50845263D01*
X93333997Y-51106831D01*
X93339306Y-51120832D01*
X93424635Y-51394663D01*
X93428219Y-51409201D01*
X93479923Y-51691340D01*
X93481728Y-51706205D01*
X93499274Y-51996263D01*
X93499500Y-52003750D01*
X93499500Y-135996249D01*
X93499274Y-136003736D01*
X93481728Y-136293794D01*
X93479923Y-136308659D01*
X93428219Y-136590798D01*
X93424635Y-136605336D01*
X93339306Y-136879167D01*
X93333997Y-136893168D01*
X93216275Y-137154736D01*
X93209316Y-137167995D01*
X93060928Y-137413459D01*
X93052422Y-137425782D01*
X92875526Y-137651573D01*
X92865596Y-137662781D01*
X92662781Y-137865596D01*
X92651573Y-137875526D01*
X92425782Y-138052422D01*
X92413459Y-138060928D01*
X92167995Y-138209316D01*
X92154736Y-138216275D01*
X91893168Y-138333997D01*
X91879167Y-138339306D01*
X91605336Y-138424635D01*
X91590798Y-138428219D01*
X91308659Y-138479923D01*
X91293794Y-138481728D01*
X91003736Y-138499274D01*
X90996249Y-138499500D01*
X75003751Y-138499500D01*
X74996264Y-138499274D01*
X74706205Y-138481728D01*
X74691340Y-138479923D01*
X74409201Y-138428219D01*
X74394663Y-138424635D01*
X74120832Y-138339306D01*
X74106831Y-138333997D01*
X73845263Y-138216275D01*
X73832004Y-138209316D01*
X73586540Y-138060928D01*
X73574217Y-138052422D01*
X73348426Y-137875526D01*
X73337218Y-137865596D01*
X73134403Y-137662781D01*
X73124473Y-137651573D01*
X72947573Y-137425776D01*
X72939075Y-137413465D01*
X72790680Y-137167989D01*
X72783727Y-137154743D01*
X72666000Y-136893163D01*
X72660693Y-136879167D01*
X72630437Y-136782073D01*
X72575363Y-136605335D01*
X72571780Y-136590798D01*
X72520076Y-136308659D01*
X72518271Y-136293794D01*
X72500726Y-136003736D01*
X72500500Y-135996249D01*
X72500500Y-135905513D01*
X73799500Y-135905513D01*
X73799500Y-136094486D01*
X73829059Y-136281118D01*
X73887454Y-136460836D01*
X73953674Y-136590798D01*
X73973240Y-136629199D01*
X74084310Y-136782073D01*
X74217927Y-136915690D01*
X74370801Y-137026760D01*
X74450347Y-137067290D01*
X74539163Y-137112545D01*
X74539165Y-137112545D01*
X74539168Y-137112547D01*
X74635497Y-137143846D01*
X74718881Y-137170940D01*
X74905514Y-137200500D01*
X74905519Y-137200500D01*
X75094486Y-137200500D01*
X75281118Y-137170940D01*
X75330988Y-137154736D01*
X75460832Y-137112547D01*
X75629199Y-137026760D01*
X75782073Y-136915690D01*
X75915690Y-136782073D01*
X76026760Y-136629199D01*
X76112547Y-136460832D01*
X76170940Y-136281118D01*
X76200500Y-136094486D01*
X76200500Y-135905513D01*
X89799500Y-135905513D01*
X89799500Y-136094486D01*
X89829059Y-136281118D01*
X89887454Y-136460836D01*
X89953674Y-136590798D01*
X89973240Y-136629199D01*
X90084310Y-136782073D01*
X90217927Y-136915690D01*
X90370801Y-137026760D01*
X90450347Y-137067290D01*
X90539163Y-137112545D01*
X90539165Y-137112545D01*
X90539168Y-137112547D01*
X90635497Y-137143846D01*
X90718881Y-137170940D01*
X90905514Y-137200500D01*
X90905519Y-137200500D01*
X91094486Y-137200500D01*
X91281118Y-137170940D01*
X91330988Y-137154736D01*
X91460832Y-137112547D01*
X91629199Y-137026760D01*
X91782073Y-136915690D01*
X91915690Y-136782073D01*
X92026760Y-136629199D01*
X92112547Y-136460832D01*
X92170940Y-136281118D01*
X92200500Y-136094486D01*
X92200500Y-135905513D01*
X92170940Y-135718881D01*
X92112545Y-135539163D01*
X92026759Y-135370800D01*
X91915690Y-135217927D01*
X91782073Y-135084310D01*
X91629199Y-134973240D01*
X91460836Y-134887454D01*
X91281118Y-134829059D01*
X91094486Y-134799500D01*
X91094481Y-134799500D01*
X90905519Y-134799500D01*
X90905514Y-134799500D01*
X90718881Y-134829059D01*
X90539163Y-134887454D01*
X90370800Y-134973240D01*
X90283579Y-135036610D01*
X90217927Y-135084310D01*
X90217925Y-135084312D01*
X90217924Y-135084312D01*
X90084312Y-135217924D01*
X90084312Y-135217925D01*
X90084310Y-135217927D01*
X90036610Y-135283579D01*
X89973240Y-135370800D01*
X89887454Y-135539163D01*
X89829059Y-135718881D01*
X89799500Y-135905513D01*
X76200500Y-135905513D01*
X76170940Y-135718881D01*
X76112545Y-135539163D01*
X76026759Y-135370800D01*
X75915690Y-135217927D01*
X75782073Y-135084310D01*
X75629199Y-134973240D01*
X75460836Y-134887454D01*
X75281118Y-134829059D01*
X75094486Y-134799500D01*
X75094481Y-134799500D01*
X74905519Y-134799500D01*
X74905514Y-134799500D01*
X74718881Y-134829059D01*
X74539163Y-134887454D01*
X74370800Y-134973240D01*
X74283579Y-135036610D01*
X74217927Y-135084310D01*
X74217925Y-135084312D01*
X74217924Y-135084312D01*
X74084312Y-135217924D01*
X74084312Y-135217925D01*
X74084310Y-135217927D01*
X74036610Y-135283579D01*
X73973240Y-135370800D01*
X73887454Y-135539163D01*
X73829059Y-135718881D01*
X73799500Y-135905513D01*
X72500500Y-135905513D01*
X72500500Y-130300000D01*
X73781398Y-130300000D01*
X74547030Y-130300000D01*
X74525000Y-130382213D01*
X74525000Y-130717787D01*
X74547030Y-130800000D01*
X73781398Y-130800000D01*
X73801469Y-130926726D01*
X73853760Y-131087659D01*
X73930578Y-131238423D01*
X74030038Y-131375316D01*
X74030038Y-131375317D01*
X74149682Y-131494961D01*
X74286576Y-131594421D01*
X74437340Y-131671239D01*
X74598273Y-131723530D01*
X74600000Y-131723804D01*
X74600000Y-130884618D01*
X74650446Y-130935064D01*
X74724555Y-130977851D01*
X74807213Y-131000000D01*
X74892787Y-131000000D01*
X74975445Y-130977851D01*
X75049554Y-130935064D01*
X75100000Y-130884618D01*
X75100000Y-131723803D01*
X75101726Y-131723530D01*
X75104496Y-131722630D01*
X76214500Y-131722630D01*
X76214500Y-132077369D01*
X76244684Y-132229114D01*
X76244686Y-132229122D01*
X76303897Y-132372071D01*
X76303902Y-132372080D01*
X76389861Y-132500726D01*
X76389864Y-132500730D01*
X76499269Y-132610135D01*
X76499273Y-132610138D01*
X76627919Y-132696097D01*
X76627925Y-132696100D01*
X76627926Y-132696101D01*
X76770878Y-132755314D01*
X76922630Y-132785499D01*
X76922634Y-132785500D01*
X76922635Y-132785500D01*
X77077366Y-132785500D01*
X77077367Y-132785499D01*
X77229122Y-132755314D01*
X77372074Y-132696101D01*
X77500727Y-132610138D01*
X77610138Y-132500727D01*
X77696101Y-132372074D01*
X77755314Y-132229122D01*
X77785500Y-132077365D01*
X77785500Y-132000000D01*
X77785500Y-131934108D01*
X77785500Y-131734108D01*
X77785500Y-131722635D01*
X77755314Y-131570878D01*
X77696101Y-131427926D01*
X77696100Y-131427925D01*
X77696097Y-131427919D01*
X77610138Y-131299273D01*
X77610135Y-131299269D01*
X77500730Y-131189864D01*
X77500726Y-131189861D01*
X77372080Y-131103902D01*
X77372071Y-131103897D01*
X77229122Y-131044686D01*
X77229114Y-131044684D01*
X77077369Y-131014500D01*
X77077365Y-131014500D01*
X77065892Y-131014500D01*
X77000000Y-131014500D01*
X76922635Y-131014500D01*
X76922630Y-131014500D01*
X76770885Y-131044684D01*
X76770877Y-131044686D01*
X76627928Y-131103897D01*
X76627919Y-131103902D01*
X76499273Y-131189861D01*
X76499269Y-131189864D01*
X76389864Y-131299269D01*
X76389861Y-131299273D01*
X76303902Y-131427919D01*
X76303897Y-131427928D01*
X76244686Y-131570877D01*
X76244684Y-131570885D01*
X76214500Y-131722630D01*
X75104496Y-131722630D01*
X75262659Y-131671239D01*
X75390586Y-131606058D01*
X75413423Y-131594421D01*
X75550316Y-131494961D01*
X75550317Y-131494961D01*
X75669961Y-131375317D01*
X75669961Y-131375316D01*
X75769421Y-131238423D01*
X75846239Y-131087659D01*
X75898530Y-130926726D01*
X75918602Y-130800000D01*
X75152970Y-130800000D01*
X75175000Y-130717787D01*
X75175000Y-130382213D01*
X75152970Y-130300000D01*
X75918602Y-130300000D01*
X78081398Y-130300000D01*
X78847030Y-130300000D01*
X78825000Y-130382213D01*
X78825000Y-130717787D01*
X78847030Y-130800000D01*
X78081398Y-130800000D01*
X78101469Y-130926726D01*
X78153760Y-131087659D01*
X78230578Y-131238423D01*
X78330038Y-131375316D01*
X78330038Y-131375317D01*
X78449682Y-131494961D01*
X78586576Y-131594421D01*
X78737340Y-131671239D01*
X78898273Y-131723530D01*
X78900000Y-131723804D01*
X78900000Y-130884618D01*
X78950446Y-130935064D01*
X79024555Y-130977851D01*
X79107213Y-131000000D01*
X79192787Y-131000000D01*
X79275445Y-130977851D01*
X79349554Y-130935064D01*
X79400000Y-130884618D01*
X79400000Y-131723804D01*
X79401726Y-131723530D01*
X79562659Y-131671239D01*
X79713423Y-131594421D01*
X79850316Y-131494961D01*
X79850317Y-131494961D01*
X79969961Y-131375317D01*
X79969961Y-131375316D01*
X80069421Y-131238423D01*
X80146239Y-131087659D01*
X80198530Y-130926726D01*
X80218602Y-130800000D01*
X79452970Y-130800000D01*
X79475000Y-130717787D01*
X79475000Y-130382213D01*
X79452970Y-130300000D01*
X80218602Y-130300000D01*
X80198530Y-130173273D01*
X80146239Y-130012340D01*
X80069421Y-129861576D01*
X79969961Y-129724683D01*
X79969961Y-129724682D01*
X79850317Y-129605038D01*
X79713423Y-129505578D01*
X79577784Y-129436466D01*
X79577784Y-129436465D01*
X79576891Y-129436011D01*
X79526089Y-129388043D01*
X79512725Y-129334108D01*
X82599500Y-129334108D01*
X82599500Y-129465891D01*
X82633608Y-129593187D01*
X82666554Y-129650250D01*
X82699500Y-129707314D01*
X82792686Y-129800500D01*
X82906814Y-129866392D01*
X83034108Y-129900500D01*
X83034110Y-129900500D01*
X83165890Y-129900500D01*
X83165892Y-129900500D01*
X83293186Y-129866392D01*
X83407314Y-129800500D01*
X83500500Y-129707314D01*
X83566392Y-129593186D01*
X83600500Y-129465892D01*
X83600500Y-129334108D01*
X83566392Y-129206814D01*
X83500500Y-129092686D01*
X83407314Y-128999500D01*
X83350250Y-128966554D01*
X83293187Y-128933608D01*
X83222291Y-128914612D01*
X83165892Y-128899500D01*
X83034108Y-128899500D01*
X82906812Y-128933608D01*
X82792686Y-128999500D01*
X82792683Y-128999502D01*
X82699502Y-129092683D01*
X82699500Y-129092686D01*
X82633608Y-129206812D01*
X82599500Y-129334108D01*
X79512725Y-129334108D01*
X79509285Y-129320224D01*
X79525784Y-129263520D01*
X79566392Y-129193186D01*
X79600500Y-129065892D01*
X79600500Y-128934108D01*
X79566392Y-128806814D01*
X79500500Y-128692686D01*
X79407314Y-128599500D01*
X79350250Y-128566554D01*
X79293187Y-128533608D01*
X79229539Y-128516554D01*
X79165892Y-128499500D01*
X79034108Y-128499500D01*
X78906812Y-128533608D01*
X78792686Y-128599500D01*
X78792683Y-128599502D01*
X78699502Y-128692683D01*
X78699500Y-128692686D01*
X78633608Y-128806812D01*
X78617969Y-128865179D01*
X78599500Y-128934108D01*
X78599500Y-129065892D01*
X78617778Y-129134108D01*
X78633609Y-129193188D01*
X78633609Y-129193189D01*
X78696945Y-129302890D01*
X78713418Y-129370790D01*
X78690565Y-129436817D01*
X78645854Y-129475374D01*
X78586578Y-129505576D01*
X78449683Y-129605038D01*
X78449682Y-129605038D01*
X78330038Y-129724682D01*
X78330038Y-129724683D01*
X78230578Y-129861576D01*
X78153760Y-130012340D01*
X78101469Y-130173273D01*
X78081398Y-130300000D01*
X75918602Y-130300000D01*
X75898530Y-130173273D01*
X75846239Y-130012340D01*
X75769421Y-129861576D01*
X75669961Y-129724683D01*
X75669961Y-129724682D01*
X75550317Y-129605038D01*
X75413423Y-129505578D01*
X75259037Y-129426914D01*
X75208241Y-129378939D01*
X75191446Y-129311118D01*
X75195556Y-129284339D01*
X75200500Y-129265892D01*
X75200500Y-129134108D01*
X75179059Y-129054088D01*
X75180722Y-128984243D01*
X75219884Y-128926380D01*
X75236829Y-128914615D01*
X75322450Y-128865182D01*
X75415636Y-128771996D01*
X75481528Y-128657868D01*
X75515636Y-128530574D01*
X75515636Y-128398790D01*
X75481528Y-128271496D01*
X75415636Y-128157368D01*
X75342815Y-128084547D01*
X75309330Y-128023224D01*
X75314314Y-127953532D01*
X75323105Y-127934871D01*
X75362417Y-127866783D01*
X75396525Y-127739489D01*
X75396525Y-127607705D01*
X75362417Y-127480411D01*
X75296525Y-127366283D01*
X75203339Y-127273097D01*
X75141301Y-127237279D01*
X75089212Y-127207205D01*
X75025564Y-127190151D01*
X74961917Y-127173097D01*
X74830133Y-127173097D01*
X74702837Y-127207205D01*
X74588711Y-127273097D01*
X74588708Y-127273099D01*
X74495527Y-127366280D01*
X74495525Y-127366283D01*
X74429633Y-127480409D01*
X74395525Y-127607705D01*
X74395525Y-127739488D01*
X74429633Y-127866784D01*
X74453035Y-127907316D01*
X74495525Y-127980911D01*
X74495527Y-127980913D01*
X74568345Y-128053731D01*
X74601830Y-128115054D01*
X74596846Y-128184746D01*
X74588052Y-128203411D01*
X74548744Y-128271494D01*
X74514636Y-128398790D01*
X74514636Y-128530574D01*
X74533105Y-128599502D01*
X74536076Y-128610589D01*
X74534413Y-128680439D01*
X74495250Y-128738301D01*
X74478302Y-128750069D01*
X74392686Y-128799500D01*
X74392683Y-128799502D01*
X74299502Y-128892683D01*
X74299500Y-128892686D01*
X74233608Y-129006812D01*
X74217778Y-129065892D01*
X74199500Y-129134108D01*
X74199500Y-129265892D01*
X74210599Y-129307314D01*
X74233608Y-129393186D01*
X74239149Y-129402783D01*
X74255622Y-129470683D01*
X74232770Y-129536710D01*
X74204649Y-129565101D01*
X74149685Y-129605035D01*
X74030038Y-129724682D01*
X74030038Y-129724683D01*
X73930578Y-129861576D01*
X73853760Y-130012340D01*
X73801469Y-130173273D01*
X73781398Y-130300000D01*
X72500500Y-130300000D01*
X72500500Y-125500000D01*
X73781398Y-125500000D01*
X74547030Y-125500000D01*
X74525000Y-125582213D01*
X74525000Y-125917787D01*
X74547030Y-126000000D01*
X73781398Y-126000000D01*
X73801469Y-126126726D01*
X73853760Y-126287659D01*
X73930578Y-126438423D01*
X74030038Y-126575316D01*
X74030038Y-126575317D01*
X74149682Y-126694961D01*
X74286576Y-126794421D01*
X74437340Y-126871239D01*
X74598273Y-126923530D01*
X74600000Y-126923804D01*
X74600000Y-126084618D01*
X74650446Y-126135064D01*
X74724555Y-126177851D01*
X74807213Y-126200000D01*
X74892787Y-126200000D01*
X74975445Y-126177851D01*
X75049554Y-126135064D01*
X75100000Y-126084618D01*
X75100000Y-126923804D01*
X75101726Y-126923530D01*
X75262659Y-126871239D01*
X75413423Y-126794421D01*
X75550316Y-126694961D01*
X75550317Y-126694961D01*
X75669961Y-126575317D01*
X75669961Y-126575316D01*
X75769421Y-126438423D01*
X75846239Y-126287659D01*
X75898530Y-126126726D01*
X75918602Y-126000000D01*
X75152970Y-126000000D01*
X75175000Y-125917787D01*
X75175000Y-125582213D01*
X75152970Y-125500000D01*
X75918602Y-125500000D01*
X78081398Y-125500000D01*
X78847030Y-125500000D01*
X78825000Y-125582213D01*
X78825000Y-125917787D01*
X78847030Y-126000000D01*
X78081398Y-126000000D01*
X78101469Y-126126726D01*
X78153760Y-126287659D01*
X78230578Y-126438423D01*
X78330038Y-126575316D01*
X78330038Y-126575317D01*
X78449682Y-126694961D01*
X78586576Y-126794421D01*
X78737340Y-126871239D01*
X78813150Y-126895872D01*
X78870826Y-126935310D01*
X78898024Y-126999668D01*
X78886109Y-127068515D01*
X78838865Y-127119990D01*
X78814294Y-127130444D01*
X78814318Y-127130500D01*
X78808505Y-127132907D01*
X78806934Y-127133575D01*
X78806889Y-127133587D01*
X78806813Y-127133608D01*
X78692686Y-127199500D01*
X78692683Y-127199502D01*
X78599502Y-127292683D01*
X78599500Y-127292686D01*
X78533608Y-127406812D01*
X78518701Y-127462448D01*
X78499500Y-127534108D01*
X78499500Y-127665892D01*
X78509623Y-127703671D01*
X78533608Y-127793187D01*
X78541766Y-127807316D01*
X78599500Y-127907314D01*
X78692686Y-128000500D01*
X78806814Y-128066392D01*
X78934108Y-128100500D01*
X78934110Y-128100500D01*
X79065890Y-128100500D01*
X79065892Y-128100500D01*
X79193186Y-128066392D01*
X79307314Y-128000500D01*
X79400500Y-127907314D01*
X79466392Y-127793186D01*
X79500500Y-127665892D01*
X79500500Y-127534108D01*
X79500499Y-127534106D01*
X79500283Y-127532462D01*
X79500110Y-127532147D01*
X79500155Y-127531494D01*
X79499439Y-127526052D01*
X79500547Y-127525906D01*
X79502358Y-127500036D01*
X79503122Y-127467860D01*
X79504783Y-127465404D01*
X79504991Y-127462448D01*
X79524236Y-127436657D01*
X79525961Y-127434108D01*
X83199500Y-127434108D01*
X83199500Y-127565891D01*
X83233608Y-127693187D01*
X83260341Y-127739489D01*
X83299500Y-127807314D01*
X83392686Y-127900500D01*
X83506814Y-127966392D01*
X83634108Y-128000500D01*
X83634110Y-128000500D01*
X83765890Y-128000500D01*
X83765892Y-128000500D01*
X83893186Y-127966392D01*
X84007314Y-127900500D01*
X84100500Y-127807314D01*
X84166392Y-127693186D01*
X84200500Y-127565892D01*
X84200500Y-127434108D01*
X84799500Y-127434108D01*
X84799500Y-127565891D01*
X84833608Y-127693187D01*
X84860341Y-127739489D01*
X84899500Y-127807314D01*
X84992686Y-127900500D01*
X85106814Y-127966392D01*
X85234108Y-128000500D01*
X85234110Y-128000500D01*
X85365890Y-128000500D01*
X85365892Y-128000500D01*
X85493186Y-127966392D01*
X85607314Y-127900500D01*
X85700500Y-127807314D01*
X85766392Y-127693186D01*
X85800500Y-127565892D01*
X85800500Y-127434108D01*
X85766392Y-127306814D01*
X85726246Y-127237279D01*
X86485639Y-127237279D01*
X86485639Y-127369062D01*
X86519747Y-127496358D01*
X86541544Y-127534110D01*
X86585639Y-127610485D01*
X86678825Y-127703671D01*
X86792953Y-127769563D01*
X86920247Y-127803671D01*
X86920249Y-127803671D01*
X87052029Y-127803671D01*
X87052031Y-127803671D01*
X87179325Y-127769563D01*
X87293453Y-127703671D01*
X87386639Y-127610485D01*
X87452531Y-127496357D01*
X87481772Y-127387224D01*
X87518135Y-127327567D01*
X87569449Y-127299546D01*
X87693186Y-127266392D01*
X87807314Y-127200500D01*
X87900500Y-127107314D01*
X87966392Y-126993186D01*
X88000500Y-126865892D01*
X88000500Y-126734108D01*
X87966392Y-126606814D01*
X87900500Y-126492686D01*
X87807314Y-126399500D01*
X87750250Y-126366554D01*
X87693187Y-126333608D01*
X87629539Y-126316554D01*
X87565892Y-126299500D01*
X87434108Y-126299500D01*
X87306812Y-126333608D01*
X87192686Y-126399500D01*
X87192683Y-126399502D01*
X87099502Y-126492683D01*
X87099500Y-126492686D01*
X87033608Y-126606814D01*
X87012628Y-126685114D01*
X87004367Y-126715944D01*
X86968002Y-126775604D01*
X86916686Y-126803625D01*
X86885260Y-126812045D01*
X86792953Y-126836779D01*
X86792951Y-126836779D01*
X86792951Y-126836780D01*
X86678825Y-126902671D01*
X86678822Y-126902673D01*
X86585641Y-126995854D01*
X86585639Y-126995857D01*
X86519747Y-127109983D01*
X86485639Y-127237279D01*
X85726246Y-127237279D01*
X85700500Y-127192686D01*
X85607314Y-127099500D01*
X85550250Y-127066554D01*
X85493187Y-127033608D01*
X85429539Y-127016554D01*
X85365892Y-126999500D01*
X85234108Y-126999500D01*
X85106812Y-127033608D01*
X84992686Y-127099500D01*
X84992683Y-127099502D01*
X84899502Y-127192683D01*
X84899500Y-127192686D01*
X84833608Y-127306812D01*
X84799500Y-127434108D01*
X84200500Y-127434108D01*
X84166392Y-127306814D01*
X84100500Y-127192686D01*
X84007314Y-127099500D01*
X83950250Y-127066554D01*
X83893187Y-127033608D01*
X83829539Y-127016554D01*
X83765892Y-126999500D01*
X83634108Y-126999500D01*
X83506812Y-127033608D01*
X83392686Y-127099500D01*
X83392683Y-127099502D01*
X83299502Y-127192683D01*
X83299500Y-127192686D01*
X83233608Y-127306812D01*
X83199500Y-127434108D01*
X79525961Y-127434108D01*
X79542280Y-127409995D01*
X79545541Y-127408108D01*
X79546778Y-127406452D01*
X79557043Y-127401455D01*
X79577730Y-127389491D01*
X79584731Y-127386868D01*
X79585284Y-127386868D01*
X79712578Y-127352760D01*
X79826706Y-127286868D01*
X79919892Y-127193682D01*
X79985784Y-127079554D01*
X80019892Y-126952260D01*
X80019892Y-126820476D01*
X79985784Y-126693182D01*
X79981124Y-126685111D01*
X79964650Y-126617214D01*
X79987500Y-126551186D01*
X79988193Y-126550224D01*
X80069419Y-126438427D01*
X80146239Y-126287659D01*
X80198530Y-126126726D01*
X80218602Y-126000000D01*
X79452970Y-126000000D01*
X79475000Y-125917787D01*
X79475000Y-125759108D01*
X80999500Y-125759108D01*
X80999500Y-125890892D01*
X81011080Y-125934108D01*
X81033608Y-126018187D01*
X81061151Y-126065892D01*
X81099500Y-126132314D01*
X81192686Y-126225500D01*
X81306814Y-126291392D01*
X81434108Y-126325500D01*
X81434110Y-126325500D01*
X81565890Y-126325500D01*
X81565892Y-126325500D01*
X81693186Y-126291392D01*
X81807314Y-126225500D01*
X81900500Y-126132314D01*
X81966392Y-126018186D01*
X81988920Y-125934108D01*
X82999500Y-125934108D01*
X82999500Y-126065891D01*
X83033608Y-126193187D01*
X83066554Y-126250250D01*
X83099500Y-126307314D01*
X83192686Y-126400500D01*
X83306814Y-126466392D01*
X83434108Y-126500500D01*
X83434110Y-126500500D01*
X83565890Y-126500500D01*
X83565892Y-126500500D01*
X83693186Y-126466392D01*
X83807314Y-126400500D01*
X83900500Y-126307314D01*
X83966392Y-126193186D01*
X84000500Y-126065892D01*
X84000500Y-125934108D01*
X84999500Y-125934108D01*
X84999500Y-126065891D01*
X85033608Y-126193187D01*
X85066554Y-126250250D01*
X85099500Y-126307314D01*
X85192686Y-126400500D01*
X85306814Y-126466392D01*
X85434108Y-126500500D01*
X85434110Y-126500500D01*
X85565890Y-126500500D01*
X85565892Y-126500500D01*
X85693186Y-126466392D01*
X85807314Y-126400500D01*
X85900500Y-126307314D01*
X85966392Y-126193186D01*
X86000500Y-126065892D01*
X86000500Y-125934108D01*
X85966392Y-125806814D01*
X85900500Y-125692686D01*
X85807314Y-125599500D01*
X85750250Y-125566554D01*
X85693187Y-125533608D01*
X85629539Y-125516554D01*
X85565892Y-125499500D01*
X85434108Y-125499500D01*
X85306812Y-125533608D01*
X85192686Y-125599500D01*
X85192683Y-125599502D01*
X85099502Y-125692683D01*
X85099500Y-125692686D01*
X85033608Y-125806812D01*
X84999500Y-125934108D01*
X84000500Y-125934108D01*
X83966392Y-125806814D01*
X83900500Y-125692686D01*
X83807314Y-125599500D01*
X83750250Y-125566554D01*
X83693187Y-125533608D01*
X83629539Y-125516554D01*
X83565892Y-125499500D01*
X83434108Y-125499500D01*
X83306812Y-125533608D01*
X83192686Y-125599500D01*
X83192683Y-125599502D01*
X83099502Y-125692683D01*
X83099500Y-125692686D01*
X83033608Y-125806812D01*
X82999500Y-125934108D01*
X81988920Y-125934108D01*
X82000500Y-125890892D01*
X82000500Y-125759108D01*
X81966392Y-125631814D01*
X81900500Y-125517686D01*
X81807314Y-125424500D01*
X81750250Y-125391554D01*
X81693187Y-125358608D01*
X81629539Y-125341554D01*
X81565892Y-125324500D01*
X81434108Y-125324500D01*
X81306812Y-125358608D01*
X81192686Y-125424500D01*
X81192683Y-125424502D01*
X81099502Y-125517683D01*
X81099500Y-125517686D01*
X81033608Y-125631812D01*
X80999500Y-125759108D01*
X79475000Y-125759108D01*
X79475000Y-125582213D01*
X79452970Y-125500000D01*
X80218602Y-125500000D01*
X80198530Y-125373273D01*
X80146239Y-125212340D01*
X80069421Y-125061576D01*
X79969961Y-124924683D01*
X79969961Y-124924682D01*
X79850317Y-124805038D01*
X79713423Y-124705578D01*
X79562661Y-124628760D01*
X79401726Y-124576469D01*
X79400000Y-124576194D01*
X79400000Y-125415382D01*
X79349554Y-125364936D01*
X79275445Y-125322149D01*
X79192787Y-125300000D01*
X79107213Y-125300000D01*
X79024555Y-125322149D01*
X78950446Y-125364936D01*
X78900000Y-125415382D01*
X78900000Y-124576195D01*
X78899999Y-124576194D01*
X78898273Y-124576469D01*
X78737338Y-124628760D01*
X78586576Y-124705578D01*
X78449683Y-124805038D01*
X78449682Y-124805038D01*
X78330038Y-124924682D01*
X78330038Y-124924683D01*
X78230578Y-125061576D01*
X78153760Y-125212340D01*
X78101469Y-125373273D01*
X78081398Y-125500000D01*
X75918602Y-125500000D01*
X75898530Y-125373273D01*
X75846239Y-125212340D01*
X75769421Y-125061576D01*
X75669961Y-124924683D01*
X75669961Y-124924682D01*
X75550317Y-124805038D01*
X75413423Y-124705578D01*
X75262661Y-124628760D01*
X75101726Y-124576469D01*
X75100000Y-124576194D01*
X75100000Y-125415382D01*
X75049554Y-125364936D01*
X74975445Y-125322149D01*
X74892787Y-125300000D01*
X74807213Y-125300000D01*
X74724555Y-125322149D01*
X74650446Y-125364936D01*
X74600000Y-125415382D01*
X74600000Y-124576195D01*
X74599999Y-124576194D01*
X74598273Y-124576469D01*
X74437338Y-124628760D01*
X74286576Y-124705578D01*
X74149683Y-124805038D01*
X74149682Y-124805038D01*
X74030038Y-124924682D01*
X74030038Y-124924683D01*
X73930578Y-125061576D01*
X73853760Y-125212340D01*
X73801469Y-125373273D01*
X73781398Y-125500000D01*
X72500500Y-125500000D01*
X72500500Y-124336083D01*
X76514500Y-124336083D01*
X76514500Y-124463917D01*
X76547586Y-124587396D01*
X76611504Y-124698104D01*
X76701896Y-124788496D01*
X76812604Y-124852414D01*
X76936083Y-124885500D01*
X76936085Y-124885500D01*
X77063915Y-124885500D01*
X77063917Y-124885500D01*
X77187396Y-124852414D01*
X77298104Y-124788496D01*
X77388496Y-124698104D01*
X77452414Y-124587396D01*
X77485500Y-124463917D01*
X77485500Y-124336083D01*
X77452414Y-124212604D01*
X77388496Y-124101896D01*
X77298104Y-124011504D01*
X77187396Y-123947586D01*
X77063917Y-123914500D01*
X76936083Y-123914500D01*
X76812603Y-123947586D01*
X76701896Y-124011504D01*
X76701893Y-124011506D01*
X76611506Y-124101893D01*
X76611504Y-124101896D01*
X76547586Y-124212603D01*
X76547586Y-124212604D01*
X76514500Y-124336083D01*
X72500500Y-124336083D01*
X72500500Y-121834108D01*
X87099501Y-121834108D01*
X87099501Y-121965891D01*
X87133609Y-122093187D01*
X87166555Y-122150250D01*
X87199501Y-122207314D01*
X87292687Y-122300500D01*
X87292689Y-122300501D01*
X87294151Y-122301623D01*
X87295073Y-122302886D01*
X87298434Y-122306247D01*
X87297910Y-122306770D01*
X87335354Y-122358050D01*
X87339509Y-122427796D01*
X87305297Y-122488717D01*
X87294159Y-122498369D01*
X87292688Y-122499497D01*
X87199503Y-122592682D01*
X87199501Y-122592685D01*
X87133609Y-122706811D01*
X87099501Y-122834107D01*
X87099501Y-122965890D01*
X87133609Y-123093186D01*
X87166555Y-123150249D01*
X87199501Y-123207313D01*
X87292687Y-123300499D01*
X87406815Y-123366391D01*
X87534109Y-123400499D01*
X87534111Y-123400499D01*
X87665891Y-123400499D01*
X87665893Y-123400499D01*
X87793187Y-123366391D01*
X87907315Y-123300499D01*
X88000501Y-123207313D01*
X88066393Y-123093185D01*
X88100501Y-122965891D01*
X88100501Y-122834107D01*
X88066393Y-122706813D01*
X88000501Y-122592685D01*
X87907315Y-122499499D01*
X87907312Y-122499497D01*
X87905848Y-122498374D01*
X87904922Y-122497106D01*
X87901568Y-122493752D01*
X87902091Y-122493228D01*
X87864646Y-122441946D01*
X87860492Y-122372200D01*
X87894705Y-122311280D01*
X87905856Y-122301618D01*
X87907303Y-122300506D01*
X87907315Y-122300500D01*
X88000501Y-122207314D01*
X88066393Y-122093186D01*
X88100501Y-121965892D01*
X88100501Y-121834108D01*
X88066393Y-121706814D01*
X88000501Y-121592686D01*
X87907315Y-121499500D01*
X87850251Y-121466554D01*
X87793188Y-121433608D01*
X87729540Y-121416554D01*
X87665893Y-121399500D01*
X87534109Y-121399500D01*
X87406813Y-121433608D01*
X87292687Y-121499500D01*
X87292684Y-121499502D01*
X87199503Y-121592683D01*
X87199501Y-121592686D01*
X87133609Y-121706812D01*
X87099501Y-121834108D01*
X72500500Y-121834108D01*
X72500500Y-120034108D01*
X83199500Y-120034108D01*
X83199500Y-120165891D01*
X83233608Y-120293187D01*
X83266554Y-120350250D01*
X83299500Y-120407314D01*
X83392686Y-120500500D01*
X83506814Y-120566392D01*
X83634108Y-120600500D01*
X83634110Y-120600500D01*
X83765890Y-120600500D01*
X83765892Y-120600500D01*
X83893186Y-120566392D01*
X84007314Y-120500500D01*
X84100500Y-120407314D01*
X84166392Y-120293186D01*
X84200500Y-120165892D01*
X84200500Y-120034108D01*
X84166392Y-119906814D01*
X84100500Y-119792686D01*
X84007314Y-119699500D01*
X83950250Y-119666554D01*
X83893187Y-119633608D01*
X83829539Y-119616554D01*
X83765892Y-119599500D01*
X83634108Y-119599500D01*
X83506812Y-119633608D01*
X83392686Y-119699500D01*
X83392683Y-119699502D01*
X83299502Y-119792683D01*
X83299500Y-119792686D01*
X83233608Y-119906812D01*
X83199500Y-120034108D01*
X72500500Y-120034108D01*
X72500500Y-117134108D01*
X79999500Y-117134108D01*
X79999500Y-117265891D01*
X80033608Y-117393187D01*
X80066554Y-117450250D01*
X80099500Y-117507314D01*
X80192686Y-117600500D01*
X80306814Y-117666392D01*
X80434108Y-117700500D01*
X80434110Y-117700500D01*
X80565890Y-117700500D01*
X80565892Y-117700500D01*
X80693186Y-117666392D01*
X80807314Y-117600500D01*
X80900500Y-117507314D01*
X80966392Y-117393186D01*
X81000500Y-117265892D01*
X81000500Y-117134108D01*
X80966392Y-117006814D01*
X80900500Y-116892686D01*
X80807314Y-116799500D01*
X80693186Y-116733608D01*
X80565892Y-116699500D01*
X80434108Y-116699500D01*
X80306812Y-116733608D01*
X80192686Y-116799500D01*
X80192683Y-116799502D01*
X80099502Y-116892683D01*
X80099500Y-116892686D01*
X80033608Y-117006812D01*
X79999500Y-117134108D01*
X72500500Y-117134108D01*
X72500500Y-116634108D01*
X84699500Y-116634108D01*
X84699500Y-116765891D01*
X84733608Y-116893187D01*
X84737253Y-116899500D01*
X84799500Y-117007314D01*
X84892686Y-117100500D01*
X85006814Y-117166392D01*
X85134108Y-117200500D01*
X85134110Y-117200500D01*
X85274019Y-117200500D01*
X85274019Y-117203600D01*
X85328540Y-117212085D01*
X85380810Y-117258449D01*
X85399716Y-117325712D01*
X85399500Y-117328745D01*
X85399500Y-117334108D01*
X85399500Y-117465892D01*
X85416554Y-117529539D01*
X85433608Y-117593187D01*
X85466554Y-117650250D01*
X85499500Y-117707314D01*
X85592686Y-117800500D01*
X85706814Y-117866392D01*
X85834108Y-117900500D01*
X85834110Y-117900500D01*
X85965890Y-117900500D01*
X85965892Y-117900500D01*
X86093186Y-117866392D01*
X86207314Y-117800500D01*
X86300500Y-117707314D01*
X86366392Y-117593186D01*
X86400500Y-117465892D01*
X86400500Y-117334108D01*
X86366392Y-117206814D01*
X86364536Y-117203600D01*
X86343054Y-117166392D01*
X86300500Y-117092686D01*
X86207314Y-116999500D01*
X86150250Y-116966554D01*
X86093187Y-116933608D01*
X86029539Y-116916554D01*
X85965892Y-116899500D01*
X85834108Y-116899500D01*
X85825981Y-116899500D01*
X85825981Y-116896412D01*
X85771386Y-116887879D01*
X85719146Y-116841481D01*
X85700284Y-116774206D01*
X85700500Y-116771201D01*
X85700500Y-116634110D01*
X85700500Y-116634108D01*
X85666392Y-116506814D01*
X85600500Y-116392686D01*
X85507314Y-116299500D01*
X85450250Y-116266554D01*
X85393187Y-116233608D01*
X85329539Y-116216554D01*
X85265892Y-116199500D01*
X85134108Y-116199500D01*
X85006812Y-116233608D01*
X84892686Y-116299500D01*
X84892683Y-116299502D01*
X84799502Y-116392683D01*
X84799500Y-116392686D01*
X84733608Y-116506812D01*
X84699500Y-116634108D01*
X72500500Y-116634108D01*
X72500500Y-113134108D01*
X74799500Y-113134108D01*
X74799500Y-113265891D01*
X74833608Y-113393187D01*
X74841766Y-113407316D01*
X74899500Y-113507314D01*
X74992686Y-113600500D01*
X75106814Y-113666392D01*
X75234108Y-113700500D01*
X75234110Y-113700500D01*
X75365890Y-113700500D01*
X75365892Y-113700500D01*
X75493186Y-113666392D01*
X75607314Y-113600500D01*
X75700500Y-113507314D01*
X75766392Y-113393186D01*
X75800500Y-113265892D01*
X75800500Y-113134108D01*
X77299500Y-113134108D01*
X77299500Y-113265891D01*
X77333608Y-113393187D01*
X77341766Y-113407316D01*
X77399500Y-113507314D01*
X77492686Y-113600500D01*
X77606814Y-113666392D01*
X77734108Y-113700500D01*
X77734110Y-113700500D01*
X77865890Y-113700500D01*
X77865892Y-113700500D01*
X77993186Y-113666392D01*
X78107314Y-113600500D01*
X78200500Y-113507314D01*
X78266392Y-113393186D01*
X78300500Y-113265892D01*
X78300500Y-113134108D01*
X79799500Y-113134108D01*
X79799500Y-113265891D01*
X79833608Y-113393187D01*
X79841766Y-113407316D01*
X79899500Y-113507314D01*
X79992686Y-113600500D01*
X80106814Y-113666392D01*
X80234108Y-113700500D01*
X80234110Y-113700500D01*
X80365890Y-113700500D01*
X80365892Y-113700500D01*
X80493186Y-113666392D01*
X80607314Y-113600500D01*
X80700500Y-113507314D01*
X80766392Y-113393186D01*
X80800500Y-113265892D01*
X80800500Y-113134108D01*
X80773705Y-113034108D01*
X82399500Y-113034108D01*
X82399500Y-113165891D01*
X82433608Y-113293187D01*
X82454502Y-113329376D01*
X82499500Y-113407314D01*
X82592686Y-113500500D01*
X82706814Y-113566392D01*
X82834108Y-113600500D01*
X82834110Y-113600500D01*
X82965890Y-113600500D01*
X82965892Y-113600500D01*
X83093186Y-113566392D01*
X83207314Y-113500500D01*
X83300500Y-113407314D01*
X83366392Y-113293186D01*
X83400500Y-113165892D01*
X83400500Y-113034108D01*
X85799500Y-113034108D01*
X85799500Y-113165891D01*
X85833608Y-113293187D01*
X85854502Y-113329376D01*
X85899500Y-113407314D01*
X85992686Y-113500500D01*
X86106814Y-113566392D01*
X86234108Y-113600500D01*
X86234110Y-113600500D01*
X86365890Y-113600500D01*
X86365892Y-113600500D01*
X86493186Y-113566392D01*
X86607314Y-113500500D01*
X86700500Y-113407314D01*
X86766392Y-113293186D01*
X86800500Y-113165892D01*
X86800500Y-113034108D01*
X86773705Y-112934108D01*
X91199500Y-112934108D01*
X91199500Y-113065891D01*
X91233608Y-113193187D01*
X91299504Y-113307321D01*
X91303107Y-113312016D01*
X91328300Y-113377186D01*
X91314260Y-113445630D01*
X91303107Y-113462984D01*
X91299504Y-113467678D01*
X91233608Y-113581812D01*
X91199500Y-113709108D01*
X91199500Y-113840891D01*
X91233608Y-113968187D01*
X91299504Y-114082321D01*
X91303107Y-114087016D01*
X91328300Y-114152186D01*
X91314260Y-114220630D01*
X91303107Y-114237984D01*
X91299504Y-114242678D01*
X91233608Y-114356812D01*
X91199500Y-114484108D01*
X91199500Y-114615891D01*
X91233608Y-114743187D01*
X91299504Y-114857321D01*
X91303107Y-114862016D01*
X91328300Y-114927186D01*
X91314260Y-114995630D01*
X91303107Y-115012984D01*
X91299504Y-115017678D01*
X91233608Y-115131812D01*
X91199500Y-115259108D01*
X91199500Y-115390891D01*
X91233608Y-115518187D01*
X91299504Y-115632321D01*
X91303107Y-115637016D01*
X91328300Y-115702186D01*
X91314260Y-115770630D01*
X91303107Y-115787984D01*
X91299504Y-115792678D01*
X91233608Y-115906812D01*
X91199500Y-116034108D01*
X91199500Y-116165891D01*
X91233608Y-116293187D01*
X91266554Y-116350250D01*
X91299500Y-116407314D01*
X91392686Y-116500500D01*
X91506814Y-116566392D01*
X91634108Y-116600500D01*
X91634110Y-116600500D01*
X91765890Y-116600500D01*
X91765892Y-116600500D01*
X91893186Y-116566392D01*
X92007314Y-116500500D01*
X92100500Y-116407314D01*
X92166392Y-116293186D01*
X92200500Y-116165892D01*
X92200500Y-116034108D01*
X92166392Y-115906814D01*
X92100500Y-115792686D01*
X92100494Y-115792680D01*
X92096896Y-115787990D01*
X92071699Y-115722821D01*
X92085735Y-115654376D01*
X92096896Y-115637010D01*
X92100493Y-115632321D01*
X92100500Y-115632314D01*
X92166392Y-115518186D01*
X92200500Y-115390892D01*
X92200500Y-115259108D01*
X92166392Y-115131814D01*
X92100500Y-115017686D01*
X92100494Y-115017680D01*
X92096896Y-115012990D01*
X92071699Y-114947821D01*
X92085735Y-114879376D01*
X92096896Y-114862010D01*
X92100493Y-114857321D01*
X92100500Y-114857314D01*
X92166392Y-114743186D01*
X92200500Y-114615892D01*
X92200500Y-114484108D01*
X92166392Y-114356814D01*
X92100500Y-114242686D01*
X92100494Y-114242680D01*
X92096896Y-114237990D01*
X92071699Y-114172821D01*
X92085735Y-114104376D01*
X92096896Y-114087010D01*
X92100493Y-114082321D01*
X92100500Y-114082314D01*
X92166392Y-113968186D01*
X92200500Y-113840892D01*
X92200500Y-113709108D01*
X92166392Y-113581814D01*
X92100500Y-113467686D01*
X92100494Y-113467680D01*
X92096896Y-113462990D01*
X92071699Y-113397821D01*
X92085735Y-113329376D01*
X92096896Y-113312010D01*
X92100493Y-113307321D01*
X92100500Y-113307314D01*
X92166392Y-113193186D01*
X92200500Y-113065892D01*
X92200500Y-112934108D01*
X92166392Y-112806814D01*
X92100500Y-112692686D01*
X92007314Y-112599500D01*
X91950250Y-112566554D01*
X91893187Y-112533608D01*
X91829539Y-112516554D01*
X91765892Y-112499500D01*
X91634108Y-112499500D01*
X91506812Y-112533608D01*
X91392686Y-112599500D01*
X91392683Y-112599502D01*
X91299502Y-112692683D01*
X91299500Y-112692686D01*
X91233608Y-112806812D01*
X91199500Y-112934108D01*
X86773705Y-112934108D01*
X86766392Y-112906814D01*
X86700500Y-112792686D01*
X86607314Y-112699500D01*
X86550250Y-112666554D01*
X86493187Y-112633608D01*
X86429539Y-112616554D01*
X86365892Y-112599500D01*
X86234108Y-112599500D01*
X86106812Y-112633608D01*
X85992686Y-112699500D01*
X85992683Y-112699502D01*
X85899502Y-112792683D01*
X85899500Y-112792686D01*
X85833608Y-112906812D01*
X85799500Y-113034108D01*
X83400500Y-113034108D01*
X83366392Y-112906814D01*
X83300500Y-112792686D01*
X83207314Y-112699500D01*
X83150250Y-112666554D01*
X83093187Y-112633608D01*
X83029539Y-112616554D01*
X82965892Y-112599500D01*
X82834108Y-112599500D01*
X82706812Y-112633608D01*
X82592686Y-112699500D01*
X82592683Y-112699502D01*
X82499502Y-112792683D01*
X82499500Y-112792686D01*
X82433608Y-112906812D01*
X82399500Y-113034108D01*
X80773705Y-113034108D01*
X80766392Y-113006814D01*
X80700500Y-112892686D01*
X80607314Y-112799500D01*
X80550250Y-112766554D01*
X80493187Y-112733608D01*
X80429539Y-112716554D01*
X80365892Y-112699500D01*
X80234108Y-112699500D01*
X80106812Y-112733608D01*
X79992686Y-112799500D01*
X79992683Y-112799502D01*
X79899502Y-112892683D01*
X79899500Y-112892686D01*
X79833608Y-113006812D01*
X79799500Y-113134108D01*
X78300500Y-113134108D01*
X78266392Y-113006814D01*
X78200500Y-112892686D01*
X78107314Y-112799500D01*
X78050250Y-112766554D01*
X77993187Y-112733608D01*
X77929539Y-112716554D01*
X77865892Y-112699500D01*
X77734108Y-112699500D01*
X77606812Y-112733608D01*
X77492686Y-112799500D01*
X77492683Y-112799502D01*
X77399502Y-112892683D01*
X77399500Y-112892686D01*
X77333608Y-113006812D01*
X77299500Y-113134108D01*
X75800500Y-113134108D01*
X75766392Y-113006814D01*
X75700500Y-112892686D01*
X75607314Y-112799500D01*
X75550250Y-112766554D01*
X75493187Y-112733608D01*
X75429539Y-112716554D01*
X75365892Y-112699500D01*
X75234108Y-112699500D01*
X75106812Y-112733608D01*
X74992686Y-112799500D01*
X74992683Y-112799502D01*
X74899502Y-112892683D01*
X74899500Y-112892686D01*
X74833608Y-113006812D01*
X74799500Y-113134108D01*
X72500500Y-113134108D01*
X72500500Y-111934108D01*
X89899500Y-111934108D01*
X89899500Y-112065891D01*
X89933608Y-112193187D01*
X89966554Y-112250250D01*
X89999500Y-112307314D01*
X90092686Y-112400500D01*
X90206814Y-112466392D01*
X90334108Y-112500500D01*
X90334110Y-112500500D01*
X90465890Y-112500500D01*
X90465892Y-112500500D01*
X90593186Y-112466392D01*
X90707314Y-112400500D01*
X90800500Y-112307314D01*
X90866392Y-112193186D01*
X90900500Y-112065892D01*
X90900500Y-111934108D01*
X90866392Y-111806814D01*
X90800500Y-111692686D01*
X90707314Y-111599500D01*
X90650250Y-111566554D01*
X90593187Y-111533608D01*
X90529539Y-111516554D01*
X90465892Y-111499500D01*
X90334108Y-111499500D01*
X90206812Y-111533608D01*
X90092686Y-111599500D01*
X90092683Y-111599502D01*
X89999502Y-111692683D01*
X89999500Y-111692686D01*
X89933608Y-111806812D01*
X89899500Y-111934108D01*
X72500500Y-111934108D01*
X72500500Y-97532272D01*
X82181500Y-97532272D01*
X82181500Y-99357727D01*
X82192991Y-99445000D01*
X82196313Y-99470236D01*
X82254302Y-99610233D01*
X82346549Y-99730451D01*
X82466767Y-99822698D01*
X82606764Y-99880687D01*
X82719280Y-99895500D01*
X82719287Y-99895500D01*
X83544713Y-99895500D01*
X83544720Y-99895500D01*
X83657236Y-99880687D01*
X83797233Y-99822698D01*
X83797236Y-99822695D01*
X83804268Y-99818636D01*
X83805944Y-99821539D01*
X83856521Y-99801926D01*
X83924981Y-99815892D01*
X83963616Y-99847798D01*
X84039632Y-99942366D01*
X84039633Y-99942367D01*
X84187974Y-100061607D01*
X84187977Y-100061609D01*
X84358476Y-100146168D01*
X84543175Y-100192102D01*
X84585903Y-100195000D01*
X85488097Y-100195000D01*
X85530824Y-100192102D01*
X85715523Y-100146168D01*
X85886022Y-100061609D01*
X85886025Y-100061607D01*
X86034364Y-99942369D01*
X86034372Y-99942360D01*
X86099627Y-99861179D01*
X85456628Y-99218180D01*
X85502925Y-99137993D01*
X85537000Y-99010826D01*
X85537000Y-98591448D01*
X86286999Y-99341448D01*
X86287000Y-99341447D01*
X86287000Y-98234108D01*
X89399500Y-98234108D01*
X89399500Y-98365891D01*
X89433608Y-98493187D01*
X89457227Y-98534095D01*
X89499500Y-98607314D01*
X89592686Y-98700500D01*
X89706814Y-98766392D01*
X89834108Y-98800500D01*
X89834110Y-98800500D01*
X89965890Y-98800500D01*
X89965892Y-98800500D01*
X90093186Y-98766392D01*
X90207314Y-98700500D01*
X90300500Y-98607314D01*
X90366392Y-98493186D01*
X90400500Y-98365892D01*
X90400500Y-98234108D01*
X90366392Y-98106814D01*
X90300500Y-97992686D01*
X90207314Y-97899500D01*
X90150250Y-97866554D01*
X90093187Y-97833608D01*
X90029539Y-97816554D01*
X89965892Y-97799500D01*
X89834108Y-97799500D01*
X89706812Y-97833608D01*
X89592686Y-97899500D01*
X89592683Y-97899502D01*
X89499502Y-97992683D01*
X89499500Y-97992686D01*
X89433608Y-98106812D01*
X89399500Y-98234108D01*
X86287000Y-98234108D01*
X86287000Y-97548552D01*
X86286999Y-97548551D01*
X85537000Y-98298550D01*
X85537000Y-97879174D01*
X85502925Y-97752007D01*
X85456627Y-97671818D01*
X86099627Y-97028819D01*
X86034367Y-96947633D01*
X86034366Y-96947632D01*
X85886025Y-96828392D01*
X85886022Y-96828390D01*
X85715523Y-96743831D01*
X85530824Y-96697897D01*
X85488097Y-96695000D01*
X84585903Y-96695000D01*
X84543175Y-96697897D01*
X84358476Y-96743831D01*
X84187977Y-96828390D01*
X84187974Y-96828392D01*
X84039635Y-96947631D01*
X83963616Y-97042202D01*
X83906272Y-97082120D01*
X83836450Y-97084700D01*
X83805294Y-97069586D01*
X83804268Y-97071364D01*
X83797230Y-97067300D01*
X83704327Y-97028819D01*
X83657236Y-97009313D01*
X83643171Y-97007461D01*
X83544727Y-96994500D01*
X83544720Y-96994500D01*
X82719280Y-96994500D01*
X82719272Y-96994500D01*
X82606764Y-97009313D01*
X82606763Y-97009313D01*
X82466770Y-97067300D01*
X82466767Y-97067301D01*
X82466767Y-97067302D01*
X82447456Y-97082120D01*
X82346549Y-97159549D01*
X82254300Y-97279770D01*
X82196313Y-97419763D01*
X82196313Y-97419764D01*
X82181500Y-97532272D01*
X72500500Y-97532272D01*
X72500500Y-92134108D01*
X86499500Y-92134108D01*
X86499500Y-92265891D01*
X86533608Y-92393187D01*
X86566554Y-92450250D01*
X86599500Y-92507314D01*
X86692686Y-92600500D01*
X86806814Y-92666392D01*
X86934108Y-92700500D01*
X86934110Y-92700500D01*
X87065890Y-92700500D01*
X87065892Y-92700500D01*
X87193186Y-92666392D01*
X87307314Y-92600500D01*
X87400500Y-92507314D01*
X87466392Y-92393186D01*
X87500500Y-92265892D01*
X87500500Y-92134108D01*
X87466392Y-92006814D01*
X87400500Y-91892686D01*
X87307314Y-91799500D01*
X87250250Y-91766554D01*
X87193187Y-91733608D01*
X87129539Y-91716554D01*
X87065892Y-91699500D01*
X86934108Y-91699500D01*
X86806812Y-91733608D01*
X86692686Y-91799500D01*
X86692683Y-91799502D01*
X86599502Y-91892683D01*
X86599500Y-91892686D01*
X86533608Y-92006812D01*
X86499500Y-92134108D01*
X72500500Y-92134108D01*
X72500500Y-91134108D01*
X83699500Y-91134108D01*
X83699500Y-91265892D01*
X83716554Y-91329539D01*
X83733608Y-91393187D01*
X83766554Y-91450250D01*
X83799500Y-91507314D01*
X83892686Y-91600500D01*
X84006814Y-91666392D01*
X84134108Y-91700500D01*
X84134110Y-91700500D01*
X84265890Y-91700500D01*
X84265892Y-91700500D01*
X84393186Y-91666392D01*
X84507314Y-91600500D01*
X84600500Y-91507314D01*
X84666392Y-91393186D01*
X84700500Y-91265892D01*
X84700500Y-91134108D01*
X84666392Y-91006814D01*
X84600500Y-90892686D01*
X84507314Y-90799500D01*
X84450250Y-90766554D01*
X84393187Y-90733608D01*
X84329539Y-90716554D01*
X84265892Y-90699500D01*
X84134108Y-90699500D01*
X84006812Y-90733608D01*
X83892686Y-90799500D01*
X83892683Y-90799502D01*
X83799502Y-90892683D01*
X83799500Y-90892686D01*
X83733608Y-91006812D01*
X83717778Y-91065892D01*
X83699500Y-91134108D01*
X72500500Y-91134108D01*
X72500500Y-88934108D01*
X75699500Y-88934108D01*
X75699500Y-89065892D01*
X75716554Y-89129539D01*
X75733608Y-89193187D01*
X75741475Y-89206812D01*
X75799500Y-89307314D01*
X75892686Y-89400500D01*
X75991521Y-89457563D01*
X76005944Y-89465890D01*
X76006814Y-89466392D01*
X76134108Y-89500500D01*
X76134110Y-89500500D01*
X76265890Y-89500500D01*
X76265892Y-89500500D01*
X76393186Y-89466392D01*
X76507314Y-89400500D01*
X76600500Y-89307314D01*
X76666392Y-89193186D01*
X76700500Y-89065892D01*
X76700500Y-88934108D01*
X76666392Y-88806814D01*
X76600500Y-88692686D01*
X76507314Y-88599500D01*
X76450250Y-88566554D01*
X76393187Y-88533608D01*
X76329539Y-88516554D01*
X76265892Y-88499500D01*
X76134108Y-88499500D01*
X76006812Y-88533608D01*
X75892686Y-88599500D01*
X75892683Y-88599502D01*
X75799502Y-88692683D01*
X75799500Y-88692686D01*
X75733608Y-88806812D01*
X75706680Y-88907313D01*
X75699500Y-88934108D01*
X72500500Y-88934108D01*
X72500500Y-87236796D01*
X76599500Y-87236796D01*
X76599500Y-87368580D01*
X76616554Y-87432227D01*
X76633608Y-87495875D01*
X76656124Y-87534873D01*
X76699500Y-87610002D01*
X76792686Y-87703188D01*
X76906814Y-87769080D01*
X77034108Y-87803188D01*
X77034110Y-87803188D01*
X77165890Y-87803188D01*
X77165892Y-87803188D01*
X77293186Y-87769080D01*
X77353759Y-87734108D01*
X91399500Y-87734108D01*
X91399500Y-87865891D01*
X91433608Y-87993187D01*
X91466554Y-88050250D01*
X91499500Y-88107314D01*
X91499502Y-88107316D01*
X91504505Y-88112319D01*
X91537990Y-88173642D01*
X91533006Y-88243334D01*
X91504505Y-88287681D01*
X91499502Y-88292683D01*
X91499500Y-88292686D01*
X91433608Y-88406812D01*
X91408773Y-88499500D01*
X91399500Y-88534108D01*
X91399500Y-88665892D01*
X91416554Y-88729539D01*
X91433608Y-88793187D01*
X91441475Y-88806812D01*
X91499500Y-88907314D01*
X91499502Y-88907316D01*
X91504505Y-88912319D01*
X91537990Y-88973642D01*
X91533006Y-89043334D01*
X91504505Y-89087681D01*
X91499502Y-89092683D01*
X91499500Y-89092686D01*
X91433608Y-89206812D01*
X91399500Y-89334108D01*
X91399500Y-89465891D01*
X91433608Y-89593187D01*
X91466554Y-89650250D01*
X91499500Y-89707314D01*
X91499502Y-89707316D01*
X91504505Y-89712319D01*
X91537990Y-89773642D01*
X91533006Y-89843334D01*
X91504505Y-89887681D01*
X91499502Y-89892683D01*
X91499500Y-89892686D01*
X91433608Y-90006812D01*
X91399500Y-90134108D01*
X91399500Y-90265891D01*
X91433608Y-90393187D01*
X91466554Y-90450250D01*
X91499500Y-90507314D01*
X91499502Y-90507316D01*
X91504505Y-90512319D01*
X91537990Y-90573642D01*
X91533006Y-90643334D01*
X91504505Y-90687681D01*
X91499502Y-90692683D01*
X91499500Y-90692686D01*
X91433608Y-90806812D01*
X91399500Y-90934108D01*
X91399500Y-91065891D01*
X91433608Y-91193187D01*
X91466554Y-91250250D01*
X91499500Y-91307314D01*
X91592686Y-91400500D01*
X91706814Y-91466392D01*
X91834108Y-91500500D01*
X91834110Y-91500500D01*
X91965890Y-91500500D01*
X91965892Y-91500500D01*
X92093186Y-91466392D01*
X92207314Y-91400500D01*
X92300500Y-91307314D01*
X92366392Y-91193186D01*
X92400500Y-91065892D01*
X92400500Y-90934108D01*
X92366392Y-90806814D01*
X92300500Y-90692686D01*
X92295495Y-90687681D01*
X92262010Y-90626358D01*
X92266994Y-90556666D01*
X92295495Y-90512319D01*
X92300500Y-90507314D01*
X92366392Y-90393186D01*
X92400500Y-90265892D01*
X92400500Y-90134108D01*
X92366392Y-90006814D01*
X92300500Y-89892686D01*
X92295495Y-89887681D01*
X92262010Y-89826358D01*
X92266994Y-89756666D01*
X92295495Y-89712319D01*
X92300500Y-89707314D01*
X92366392Y-89593186D01*
X92400500Y-89465892D01*
X92400500Y-89334108D01*
X92366392Y-89206814D01*
X92300500Y-89092686D01*
X92295495Y-89087681D01*
X92262010Y-89026358D01*
X92266994Y-88956666D01*
X92295495Y-88912319D01*
X92300500Y-88907314D01*
X92366392Y-88793186D01*
X92400500Y-88665892D01*
X92400500Y-88534108D01*
X92366392Y-88406814D01*
X92300500Y-88292686D01*
X92295495Y-88287681D01*
X92262010Y-88226358D01*
X92266994Y-88156666D01*
X92295495Y-88112319D01*
X92300500Y-88107314D01*
X92366392Y-87993186D01*
X92400500Y-87865892D01*
X92400500Y-87734108D01*
X92366392Y-87606814D01*
X92300500Y-87492686D01*
X92207314Y-87399500D01*
X92150250Y-87366554D01*
X92093187Y-87333608D01*
X92029539Y-87316554D01*
X91965892Y-87299500D01*
X91834108Y-87299500D01*
X91706812Y-87333608D01*
X91592686Y-87399500D01*
X91592683Y-87399502D01*
X91499502Y-87492683D01*
X91499500Y-87492686D01*
X91433608Y-87606812D01*
X91399500Y-87734108D01*
X77353759Y-87734108D01*
X77407314Y-87703188D01*
X77500500Y-87610002D01*
X77566392Y-87495874D01*
X77600500Y-87368580D01*
X77600500Y-87236796D01*
X77566392Y-87109502D01*
X77500500Y-86995374D01*
X77407314Y-86902188D01*
X77345312Y-86866391D01*
X77293187Y-86836296D01*
X77196719Y-86810448D01*
X77165892Y-86802188D01*
X77034108Y-86802188D01*
X76906812Y-86836296D01*
X76792686Y-86902188D01*
X76792683Y-86902190D01*
X76699502Y-86995371D01*
X76699500Y-86995374D01*
X76633608Y-87109500D01*
X76599500Y-87236796D01*
X72500500Y-87236796D01*
X72500500Y-86437240D01*
X77599500Y-86437240D01*
X77599500Y-86569024D01*
X77608360Y-86602089D01*
X77633608Y-86696319D01*
X77666554Y-86753382D01*
X77699500Y-86810446D01*
X77792686Y-86903632D01*
X77906814Y-86969524D01*
X78034108Y-87003632D01*
X78034110Y-87003632D01*
X78165890Y-87003632D01*
X78165892Y-87003632D01*
X78169785Y-87002589D01*
X78973693Y-87002589D01*
X78973693Y-87134372D01*
X79007801Y-87261668D01*
X79029644Y-87299500D01*
X79073693Y-87375795D01*
X79166879Y-87468981D01*
X79281007Y-87534873D01*
X79408301Y-87568981D01*
X79408303Y-87568981D01*
X79540083Y-87568981D01*
X79540085Y-87568981D01*
X79667379Y-87534873D01*
X79781507Y-87468981D01*
X79874693Y-87375795D01*
X79940585Y-87261667D01*
X79974693Y-87134373D01*
X79974693Y-87002589D01*
X79940585Y-86875295D01*
X79874693Y-86761167D01*
X79781507Y-86667981D01*
X79724443Y-86635035D01*
X79667380Y-86602089D01*
X79603732Y-86585035D01*
X79540085Y-86567981D01*
X79408301Y-86567981D01*
X79281005Y-86602089D01*
X79166879Y-86667981D01*
X79166876Y-86667983D01*
X79073695Y-86761164D01*
X79073693Y-86761167D01*
X79007801Y-86875293D01*
X78973693Y-87002589D01*
X78169785Y-87002589D01*
X78293186Y-86969524D01*
X78407314Y-86903632D01*
X78500500Y-86810446D01*
X78566392Y-86696318D01*
X78600500Y-86569024D01*
X78600500Y-86437240D01*
X78566392Y-86309946D01*
X78500500Y-86195818D01*
X78407314Y-86102632D01*
X78326372Y-86055900D01*
X78293187Y-86036740D01*
X78229539Y-86019686D01*
X78165892Y-86002632D01*
X78034108Y-86002632D01*
X77906812Y-86036740D01*
X77792686Y-86102632D01*
X77792683Y-86102634D01*
X77699502Y-86195815D01*
X77699500Y-86195818D01*
X77633608Y-86309944D01*
X77627133Y-86334110D01*
X77599500Y-86437240D01*
X72500500Y-86437240D01*
X72500500Y-84434108D01*
X78099500Y-84434108D01*
X78099500Y-84565892D01*
X78105424Y-84588000D01*
X78133608Y-84693187D01*
X78166554Y-84750250D01*
X78199500Y-84807314D01*
X78292686Y-84900500D01*
X78406814Y-84966392D01*
X78534108Y-85000500D01*
X78534110Y-85000500D01*
X78665890Y-85000500D01*
X78665892Y-85000500D01*
X78793186Y-84966392D01*
X78907314Y-84900500D01*
X79000500Y-84807314D01*
X79066392Y-84693186D01*
X79100500Y-84565892D01*
X79100500Y-84434108D01*
X79066392Y-84306814D01*
X79000500Y-84192686D01*
X78907314Y-84099500D01*
X78850250Y-84066554D01*
X78793187Y-84033608D01*
X78729539Y-84016554D01*
X78665892Y-83999500D01*
X78534108Y-83999500D01*
X78406812Y-84033608D01*
X78292686Y-84099500D01*
X78292683Y-84099502D01*
X78199502Y-84192683D01*
X78199500Y-84192686D01*
X78133608Y-84306812D01*
X78117778Y-84365892D01*
X78099500Y-84434108D01*
X72500500Y-84434108D01*
X72500500Y-83734108D01*
X75299500Y-83734108D01*
X75299500Y-83865891D01*
X75333608Y-83993187D01*
X75337253Y-83999500D01*
X75399500Y-84107314D01*
X75492686Y-84200500D01*
X75606814Y-84266392D01*
X75734108Y-84300500D01*
X75734110Y-84300500D01*
X75865890Y-84300500D01*
X75865892Y-84300500D01*
X75993186Y-84266392D01*
X76107314Y-84200500D01*
X76200500Y-84107314D01*
X76266392Y-83993186D01*
X76300500Y-83865892D01*
X76300500Y-83734108D01*
X76266392Y-83606814D01*
X76200500Y-83492686D01*
X76107314Y-83399500D01*
X76049968Y-83366391D01*
X75993187Y-83333608D01*
X75893188Y-83306814D01*
X75865892Y-83299500D01*
X75734108Y-83299500D01*
X75606812Y-83333608D01*
X75492686Y-83399500D01*
X75492683Y-83399502D01*
X75399502Y-83492683D01*
X75399500Y-83492686D01*
X75333608Y-83606812D01*
X75299500Y-83734108D01*
X72500500Y-83734108D01*
X72500500Y-82834108D01*
X88599500Y-82834108D01*
X88599500Y-82965891D01*
X88633608Y-83093187D01*
X88663003Y-83144100D01*
X88699500Y-83207314D01*
X88792686Y-83300500D01*
X88906814Y-83366392D01*
X89034108Y-83400500D01*
X89034110Y-83400500D01*
X89165890Y-83400500D01*
X89165892Y-83400500D01*
X89293186Y-83366392D01*
X89407314Y-83300500D01*
X89500500Y-83207314D01*
X89566392Y-83093186D01*
X89593623Y-82991555D01*
X89629986Y-82931898D01*
X89692833Y-82901368D01*
X89762209Y-82909662D01*
X89816087Y-82954147D01*
X89830490Y-82985686D01*
X89830500Y-82985682D01*
X89830612Y-82985953D01*
X89833171Y-82991556D01*
X89833607Y-82993184D01*
X89833607Y-82993185D01*
X89861456Y-83041421D01*
X89899500Y-83107314D01*
X89992686Y-83200500D01*
X90106814Y-83266392D01*
X90234108Y-83300500D01*
X90234110Y-83300500D01*
X90365890Y-83300500D01*
X90365892Y-83300500D01*
X90493186Y-83266392D01*
X90607314Y-83200500D01*
X90612319Y-83195495D01*
X90673642Y-83162010D01*
X90743334Y-83166994D01*
X90787681Y-83195495D01*
X90792686Y-83200500D01*
X90906814Y-83266392D01*
X91034108Y-83300500D01*
X91034110Y-83300500D01*
X91165888Y-83300500D01*
X91165892Y-83300500D01*
X91248687Y-83278315D01*
X91318531Y-83279978D01*
X91376394Y-83319140D01*
X91403899Y-83383368D01*
X91400554Y-83430173D01*
X91399500Y-83434105D01*
X91399500Y-83565891D01*
X91433608Y-83693187D01*
X91466554Y-83750250D01*
X91499500Y-83807314D01*
X91499502Y-83807316D01*
X91504505Y-83812319D01*
X91537990Y-83873642D01*
X91533006Y-83943334D01*
X91504505Y-83987681D01*
X91499502Y-83992683D01*
X91499500Y-83992686D01*
X91433608Y-84106812D01*
X91433473Y-84107316D01*
X91399500Y-84234108D01*
X91399500Y-84365892D01*
X91417778Y-84434108D01*
X91433609Y-84493188D01*
X91433609Y-84493189D01*
X91488348Y-84588000D01*
X91504821Y-84655900D01*
X91488348Y-84712000D01*
X91433609Y-84806810D01*
X91433609Y-84806811D01*
X91433609Y-84806812D01*
X91433608Y-84806814D01*
X91408506Y-84900497D01*
X91399500Y-84934108D01*
X91399500Y-85065891D01*
X91433609Y-85193188D01*
X91433609Y-85193189D01*
X91488348Y-85288000D01*
X91504821Y-85355900D01*
X91488348Y-85412000D01*
X91433609Y-85506810D01*
X91433609Y-85506811D01*
X91399500Y-85634108D01*
X91399500Y-85765891D01*
X91433609Y-85893188D01*
X91433609Y-85893189D01*
X91488348Y-85988000D01*
X91504821Y-86055900D01*
X91488348Y-86112000D01*
X91433609Y-86206810D01*
X91433609Y-86206811D01*
X91399500Y-86334108D01*
X91399500Y-86465891D01*
X91433608Y-86593187D01*
X91438748Y-86602089D01*
X91499500Y-86707314D01*
X91592686Y-86800500D01*
X91706814Y-86866392D01*
X91834108Y-86900500D01*
X91834110Y-86900500D01*
X91965890Y-86900500D01*
X91965892Y-86900500D01*
X92093186Y-86866392D01*
X92207314Y-86800500D01*
X92300500Y-86707314D01*
X92366392Y-86593186D01*
X92400500Y-86465892D01*
X92400500Y-86334108D01*
X92366392Y-86206814D01*
X92360043Y-86195818D01*
X92354356Y-86185967D01*
X92311650Y-86111999D01*
X92295178Y-86044100D01*
X92311650Y-85988000D01*
X92366392Y-85893186D01*
X92400500Y-85765892D01*
X92400500Y-85634108D01*
X92366392Y-85506814D01*
X92311650Y-85411999D01*
X92295178Y-85344100D01*
X92311650Y-85288000D01*
X92366392Y-85193186D01*
X92400500Y-85065892D01*
X92400500Y-84934108D01*
X92366392Y-84806814D01*
X92311650Y-84711999D01*
X92295178Y-84644100D01*
X92311650Y-84588000D01*
X92366392Y-84493186D01*
X92400500Y-84365892D01*
X92400500Y-84234108D01*
X92366392Y-84106814D01*
X92300500Y-83992686D01*
X92295495Y-83987681D01*
X92262010Y-83926358D01*
X92266994Y-83856666D01*
X92295495Y-83812319D01*
X92300500Y-83807314D01*
X92366392Y-83693186D01*
X92400500Y-83565892D01*
X92400500Y-83434108D01*
X92366392Y-83306814D01*
X92311650Y-83211999D01*
X92295178Y-83144100D01*
X92311650Y-83088000D01*
X92366392Y-82993186D01*
X92400500Y-82865892D01*
X92400500Y-82734108D01*
X92366392Y-82606814D01*
X92300500Y-82492686D01*
X92207314Y-82399500D01*
X92150250Y-82366554D01*
X92093187Y-82333608D01*
X92029539Y-82316554D01*
X91965892Y-82299500D01*
X91834108Y-82299500D01*
X91706812Y-82333608D01*
X91592686Y-82399500D01*
X91592683Y-82399502D01*
X91587681Y-82404505D01*
X91526358Y-82437990D01*
X91456666Y-82433006D01*
X91412319Y-82404505D01*
X91407316Y-82399502D01*
X91407314Y-82399500D01*
X91350250Y-82366554D01*
X91293187Y-82333608D01*
X91229539Y-82316554D01*
X91165892Y-82299500D01*
X91034108Y-82299500D01*
X90906812Y-82333608D01*
X90792686Y-82399500D01*
X90792683Y-82399502D01*
X90787681Y-82404505D01*
X90726358Y-82437990D01*
X90656666Y-82433006D01*
X90612319Y-82404505D01*
X90607316Y-82399502D01*
X90607314Y-82399500D01*
X90550250Y-82366554D01*
X90493187Y-82333608D01*
X90429539Y-82316554D01*
X90365892Y-82299500D01*
X90234108Y-82299500D01*
X90106812Y-82333608D01*
X89992686Y-82399500D01*
X89992683Y-82399502D01*
X89899502Y-82492683D01*
X89899500Y-82492686D01*
X89833609Y-82606812D01*
X89806377Y-82708442D01*
X89770012Y-82768102D01*
X89707164Y-82798631D01*
X89637789Y-82790336D01*
X89583911Y-82745851D01*
X89569509Y-82714313D01*
X89569500Y-82714318D01*
X89569384Y-82714038D01*
X89566827Y-82708439D01*
X89566392Y-82706814D01*
X89500500Y-82592686D01*
X89407314Y-82499500D01*
X89350250Y-82466554D01*
X89293187Y-82433608D01*
X89229539Y-82416554D01*
X89165892Y-82399500D01*
X89034108Y-82399500D01*
X88906812Y-82433608D01*
X88792686Y-82499500D01*
X88792683Y-82499502D01*
X88699502Y-82592683D01*
X88699500Y-82592686D01*
X88633608Y-82706812D01*
X88599500Y-82834108D01*
X72500500Y-82834108D01*
X72500500Y-81579036D01*
X75557568Y-81579036D01*
X75557568Y-81710819D01*
X75591676Y-81838115D01*
X75624622Y-81895178D01*
X75657568Y-81952242D01*
X75750754Y-82045428D01*
X75864882Y-82111320D01*
X75992176Y-82145428D01*
X75992178Y-82145428D01*
X76123958Y-82145428D01*
X76123960Y-82145428D01*
X76251254Y-82111320D01*
X76365382Y-82045428D01*
X76458568Y-81952242D01*
X76524460Y-81838114D01*
X76558568Y-81710820D01*
X76558568Y-81579036D01*
X76524460Y-81451742D01*
X76458568Y-81337614D01*
X76365382Y-81244428D01*
X76308318Y-81211482D01*
X76251255Y-81178536D01*
X76187607Y-81161482D01*
X76123960Y-81144428D01*
X75992176Y-81144428D01*
X75864880Y-81178536D01*
X75750754Y-81244428D01*
X75750751Y-81244430D01*
X75657570Y-81337611D01*
X75657568Y-81337614D01*
X75591676Y-81451740D01*
X75557568Y-81579036D01*
X72500500Y-81579036D01*
X72500500Y-80334108D01*
X78199500Y-80334108D01*
X78199500Y-80465891D01*
X78233608Y-80593187D01*
X78266554Y-80650250D01*
X78299500Y-80707314D01*
X78392686Y-80800500D01*
X78506814Y-80866392D01*
X78634108Y-80900500D01*
X78634110Y-80900500D01*
X78765890Y-80900500D01*
X78765892Y-80900500D01*
X78893186Y-80866392D01*
X79007314Y-80800500D01*
X79100500Y-80707314D01*
X79166392Y-80593186D01*
X79200500Y-80465892D01*
X79200500Y-80334108D01*
X79166392Y-80206814D01*
X79100500Y-80092686D01*
X79007314Y-79999500D01*
X78950250Y-79966554D01*
X78893187Y-79933608D01*
X78829539Y-79916554D01*
X78765892Y-79899500D01*
X78634108Y-79899500D01*
X78506812Y-79933608D01*
X78392686Y-79999500D01*
X78392683Y-79999502D01*
X78299502Y-80092683D01*
X78299500Y-80092686D01*
X78233608Y-80206812D01*
X78199500Y-80334108D01*
X72500500Y-80334108D01*
X72500500Y-79163975D01*
X75339417Y-79163975D01*
X75339417Y-79295758D01*
X75373525Y-79423054D01*
X75384112Y-79441391D01*
X75439417Y-79537181D01*
X75532603Y-79630367D01*
X75646731Y-79696259D01*
X75774025Y-79730367D01*
X75774027Y-79730367D01*
X75905807Y-79730367D01*
X75905809Y-79730367D01*
X76033103Y-79696259D01*
X76147231Y-79630367D01*
X76240417Y-79537181D01*
X76306309Y-79423053D01*
X76340417Y-79295759D01*
X76340417Y-79163975D01*
X76306309Y-79036681D01*
X76240417Y-78922553D01*
X76147231Y-78829367D01*
X76057719Y-78777687D01*
X76057717Y-78777685D01*
X76033106Y-78763476D01*
X76033103Y-78763475D01*
X75905809Y-78729367D01*
X75774025Y-78729367D01*
X75646729Y-78763475D01*
X75532603Y-78829367D01*
X75532600Y-78829369D01*
X75439419Y-78922550D01*
X75439417Y-78922553D01*
X75373525Y-79036679D01*
X75339417Y-79163975D01*
X72500500Y-79163975D01*
X72500500Y-78678427D01*
X78204304Y-78678427D01*
X78204304Y-78810211D01*
X78221358Y-78873858D01*
X78238412Y-78937506D01*
X78271358Y-78994569D01*
X78304304Y-79051633D01*
X78397490Y-79144819D01*
X78511618Y-79210711D01*
X78638912Y-79244819D01*
X78638914Y-79244819D01*
X78770694Y-79244819D01*
X78770696Y-79244819D01*
X78897990Y-79210711D01*
X79012118Y-79144819D01*
X79105304Y-79051633D01*
X79171196Y-78937505D01*
X79172106Y-78934108D01*
X79624500Y-78934108D01*
X79624500Y-79065891D01*
X79658608Y-79193187D01*
X79668726Y-79210711D01*
X79724500Y-79307314D01*
X79817686Y-79400500D01*
X79931814Y-79466392D01*
X80059108Y-79500500D01*
X80059110Y-79500500D01*
X80190890Y-79500500D01*
X80190892Y-79500500D01*
X80318186Y-79466392D01*
X80432314Y-79400500D01*
X80525500Y-79307314D01*
X80591392Y-79193186D01*
X80625500Y-79065892D01*
X80625500Y-78934108D01*
X80618801Y-78909108D01*
X81099500Y-78909108D01*
X81099500Y-79040892D01*
X81106199Y-79065892D01*
X81133608Y-79168187D01*
X81148042Y-79193187D01*
X81199500Y-79282314D01*
X81292686Y-79375500D01*
X81406814Y-79441392D01*
X81534108Y-79475500D01*
X81534110Y-79475500D01*
X81665890Y-79475500D01*
X81665892Y-79475500D01*
X81793186Y-79441392D01*
X81907314Y-79375500D01*
X82000500Y-79282314D01*
X82066392Y-79168186D01*
X82100500Y-79040892D01*
X82100500Y-78909108D01*
X82599500Y-78909108D01*
X82599500Y-79040892D01*
X82606199Y-79065892D01*
X82633608Y-79168187D01*
X82648042Y-79193187D01*
X82699500Y-79282314D01*
X82792686Y-79375500D01*
X82906814Y-79441392D01*
X83034108Y-79475500D01*
X83034110Y-79475500D01*
X83165890Y-79475500D01*
X83165892Y-79475500D01*
X83293186Y-79441392D01*
X83407314Y-79375500D01*
X83500500Y-79282314D01*
X83566392Y-79168186D01*
X83600500Y-79040892D01*
X83600500Y-78909108D01*
X83566392Y-78781814D01*
X83500500Y-78667686D01*
X83407314Y-78574500D01*
X83336487Y-78533608D01*
X83293187Y-78508608D01*
X83229539Y-78491554D01*
X83165892Y-78474500D01*
X83034108Y-78474500D01*
X82906812Y-78508608D01*
X82792686Y-78574500D01*
X82792683Y-78574502D01*
X82699502Y-78667683D01*
X82699500Y-78667686D01*
X82633608Y-78781812D01*
X82603579Y-78893886D01*
X82599500Y-78909108D01*
X82100500Y-78909108D01*
X82066392Y-78781814D01*
X82000500Y-78667686D01*
X81907314Y-78574500D01*
X81836487Y-78533608D01*
X81793187Y-78508608D01*
X81729539Y-78491554D01*
X81665892Y-78474500D01*
X81534108Y-78474500D01*
X81406812Y-78508608D01*
X81292686Y-78574500D01*
X81292683Y-78574502D01*
X81199502Y-78667683D01*
X81199500Y-78667686D01*
X81133608Y-78781812D01*
X81103579Y-78893886D01*
X81099500Y-78909108D01*
X80618801Y-78909108D01*
X80591392Y-78806814D01*
X80525500Y-78692686D01*
X80432314Y-78599500D01*
X80375250Y-78566554D01*
X80318187Y-78533608D01*
X80254539Y-78516554D01*
X80190892Y-78499500D01*
X80059108Y-78499500D01*
X79931812Y-78533608D01*
X79817686Y-78599500D01*
X79817683Y-78599502D01*
X79724502Y-78692683D01*
X79724500Y-78692686D01*
X79658608Y-78806812D01*
X79624500Y-78934108D01*
X79172106Y-78934108D01*
X79205304Y-78810211D01*
X79205304Y-78678427D01*
X79171196Y-78551133D01*
X79105304Y-78437005D01*
X79012118Y-78343819D01*
X78955054Y-78310873D01*
X78897991Y-78277927D01*
X78839455Y-78262242D01*
X78770696Y-78243819D01*
X78638912Y-78243819D01*
X78511616Y-78277927D01*
X78397490Y-78343819D01*
X78397487Y-78343821D01*
X78304306Y-78437002D01*
X78304304Y-78437005D01*
X78238412Y-78551131D01*
X78225184Y-78600500D01*
X78204304Y-78678427D01*
X72500500Y-78678427D01*
X72500500Y-78134108D01*
X90299500Y-78134108D01*
X90299500Y-78265891D01*
X90333608Y-78393187D01*
X90358905Y-78437002D01*
X90399500Y-78507314D01*
X90492686Y-78600500D01*
X90606814Y-78666392D01*
X90734108Y-78700500D01*
X90734110Y-78700500D01*
X90865890Y-78700500D01*
X90865892Y-78700500D01*
X90993186Y-78666392D01*
X91107314Y-78600500D01*
X91200500Y-78507314D01*
X91266392Y-78393186D01*
X91300500Y-78265892D01*
X91300500Y-78134108D01*
X91293801Y-78109108D01*
X91799500Y-78109108D01*
X91799500Y-78240892D01*
X91816554Y-78304539D01*
X91833608Y-78368187D01*
X91848042Y-78393187D01*
X91899500Y-78482314D01*
X91992686Y-78575500D01*
X92106814Y-78641392D01*
X92234108Y-78675500D01*
X92234110Y-78675500D01*
X92365890Y-78675500D01*
X92365892Y-78675500D01*
X92493186Y-78641392D01*
X92607314Y-78575500D01*
X92700500Y-78482314D01*
X92766392Y-78368186D01*
X92800500Y-78240892D01*
X92800500Y-78109108D01*
X92766392Y-77981814D01*
X92700500Y-77867686D01*
X92607314Y-77774500D01*
X92536487Y-77733608D01*
X92493187Y-77708608D01*
X92429539Y-77691554D01*
X92365892Y-77674500D01*
X92234108Y-77674500D01*
X92106812Y-77708608D01*
X91992686Y-77774500D01*
X91992683Y-77774502D01*
X91899502Y-77867683D01*
X91899500Y-77867686D01*
X91833608Y-77981812D01*
X91826909Y-78006814D01*
X91799500Y-78109108D01*
X91293801Y-78109108D01*
X91266392Y-78006814D01*
X91200500Y-77892686D01*
X91107314Y-77799500D01*
X91050250Y-77766554D01*
X90993187Y-77733608D01*
X90929539Y-77716554D01*
X90865892Y-77699500D01*
X90734108Y-77699500D01*
X90606812Y-77733608D01*
X90492686Y-77799500D01*
X90492683Y-77799502D01*
X90399502Y-77892683D01*
X90399500Y-77892686D01*
X90333608Y-78006812D01*
X90299500Y-78134108D01*
X72500500Y-78134108D01*
X72500500Y-76934108D01*
X75399500Y-76934108D01*
X75399500Y-77065891D01*
X75433608Y-77193187D01*
X75466554Y-77250250D01*
X75499500Y-77307314D01*
X75592686Y-77400500D01*
X75706814Y-77466392D01*
X75834108Y-77500500D01*
X75834110Y-77500500D01*
X75965890Y-77500500D01*
X75965892Y-77500500D01*
X76093186Y-77466392D01*
X76207314Y-77400500D01*
X76300500Y-77307314D01*
X76366392Y-77193186D01*
X76400500Y-77065892D01*
X76400500Y-76934108D01*
X76366392Y-76806814D01*
X76300500Y-76692686D01*
X76207314Y-76599500D01*
X76150250Y-76566554D01*
X76093187Y-76533608D01*
X76029539Y-76516554D01*
X75965892Y-76499500D01*
X75834108Y-76499500D01*
X75706812Y-76533608D01*
X75592686Y-76599500D01*
X75592683Y-76599502D01*
X75499502Y-76692683D01*
X75499500Y-76692686D01*
X75433608Y-76806812D01*
X75399500Y-76934108D01*
X72500500Y-76934108D01*
X72500500Y-76334108D01*
X88299500Y-76334108D01*
X88299500Y-76465891D01*
X88333608Y-76593187D01*
X88366554Y-76650250D01*
X88399500Y-76707314D01*
X88492686Y-76800500D01*
X88606814Y-76866392D01*
X88734108Y-76900500D01*
X88734110Y-76900500D01*
X88865890Y-76900500D01*
X88865892Y-76900500D01*
X88993186Y-76866392D01*
X89107314Y-76800500D01*
X89200500Y-76707314D01*
X89266392Y-76593186D01*
X89300500Y-76465892D01*
X89300500Y-76334108D01*
X89266392Y-76206814D01*
X89200500Y-76092686D01*
X89107314Y-75999500D01*
X89050250Y-75966554D01*
X88993187Y-75933608D01*
X88929539Y-75916554D01*
X88865892Y-75899500D01*
X88734108Y-75899500D01*
X88606812Y-75933608D01*
X88492686Y-75999500D01*
X88492683Y-75999502D01*
X88399502Y-76092683D01*
X88399500Y-76092686D01*
X88333608Y-76206812D01*
X88299500Y-76334108D01*
X72500500Y-76334108D01*
X72500500Y-72534108D01*
X87699500Y-72534108D01*
X87699500Y-72665891D01*
X87733608Y-72793187D01*
X87766554Y-72850250D01*
X87799500Y-72907314D01*
X87892686Y-73000500D01*
X88006814Y-73066392D01*
X88134108Y-73100500D01*
X88134110Y-73100500D01*
X88265890Y-73100500D01*
X88265892Y-73100500D01*
X88393186Y-73066392D01*
X88507314Y-73000500D01*
X88600500Y-72907314D01*
X88666392Y-72793186D01*
X88700500Y-72665892D01*
X88700500Y-72534108D01*
X88666392Y-72406814D01*
X88600500Y-72292686D01*
X88507314Y-72199500D01*
X88450250Y-72166554D01*
X88393187Y-72133608D01*
X88329539Y-72116554D01*
X88265892Y-72099500D01*
X88134108Y-72099500D01*
X88006812Y-72133608D01*
X87892686Y-72199500D01*
X87892683Y-72199502D01*
X87799502Y-72292683D01*
X87799500Y-72292686D01*
X87733608Y-72406812D01*
X87699500Y-72534108D01*
X72500500Y-72534108D01*
X72500500Y-67910703D01*
X79319313Y-67910703D01*
X79319313Y-68042486D01*
X79353421Y-68169782D01*
X79386367Y-68226845D01*
X79419313Y-68283909D01*
X79512499Y-68377095D01*
X79626627Y-68442987D01*
X79753921Y-68477095D01*
X79753923Y-68477095D01*
X79885703Y-68477095D01*
X79885705Y-68477095D01*
X80012999Y-68442987D01*
X80127127Y-68377095D01*
X80137873Y-68366348D01*
X80199191Y-68332865D01*
X80268883Y-68337847D01*
X80324818Y-68379717D01*
X80332940Y-68392029D01*
X80333607Y-68393185D01*
X80333608Y-68393186D01*
X80399500Y-68507314D01*
X80492686Y-68600500D01*
X80606814Y-68666392D01*
X80615443Y-68668704D01*
X80675104Y-68705067D01*
X80705635Y-68767914D01*
X80703127Y-68820571D01*
X80699500Y-68834106D01*
X80699500Y-68965891D01*
X80733608Y-69093187D01*
X80766554Y-69150250D01*
X80799500Y-69207314D01*
X80799502Y-69207316D01*
X80806517Y-69214331D01*
X80840002Y-69275654D01*
X80835018Y-69345346D01*
X80793146Y-69401279D01*
X80750931Y-69421786D01*
X80706815Y-69433607D01*
X80706814Y-69433607D01*
X80592686Y-69499500D01*
X80592683Y-69499502D01*
X80499502Y-69592683D01*
X80499500Y-69592686D01*
X80433608Y-69706812D01*
X80399500Y-69834108D01*
X80399500Y-69965894D01*
X80400553Y-69969823D01*
X80400470Y-69973263D01*
X80400561Y-69973948D01*
X80400454Y-69973962D01*
X80398886Y-70039673D01*
X80359719Y-70097533D01*
X80295489Y-70125033D01*
X80248685Y-70121684D01*
X80165892Y-70099500D01*
X80034108Y-70099500D01*
X79906812Y-70133608D01*
X79792686Y-70199500D01*
X79792683Y-70199502D01*
X79699502Y-70292683D01*
X79699500Y-70292686D01*
X79633608Y-70406812D01*
X79599500Y-70534108D01*
X79599500Y-70665891D01*
X79633608Y-70793187D01*
X79666554Y-70850250D01*
X79699500Y-70907314D01*
X79792686Y-71000500D01*
X79906814Y-71066392D01*
X80034108Y-71100500D01*
X80034110Y-71100500D01*
X80165890Y-71100500D01*
X80165892Y-71100500D01*
X80293186Y-71066392D01*
X80407314Y-71000500D01*
X80500500Y-70907314D01*
X80566392Y-70793186D01*
X80600500Y-70665892D01*
X80600500Y-70534108D01*
X80599448Y-70530181D01*
X80599529Y-70526742D01*
X80599439Y-70526052D01*
X80599546Y-70526037D01*
X80601111Y-70460333D01*
X80640274Y-70402471D01*
X80704503Y-70374967D01*
X80751309Y-70378314D01*
X80834108Y-70400500D01*
X80834111Y-70400500D01*
X80965890Y-70400500D01*
X80965892Y-70400500D01*
X81093186Y-70366392D01*
X81207314Y-70300500D01*
X81300500Y-70207314D01*
X81366392Y-70093186D01*
X81400500Y-69965892D01*
X81400500Y-69834108D01*
X81366392Y-69706814D01*
X81300500Y-69592686D01*
X81293482Y-69585668D01*
X81259997Y-69524345D01*
X81264981Y-69454653D01*
X81306853Y-69398720D01*
X81349068Y-69378213D01*
X81393186Y-69366392D01*
X81507314Y-69300500D01*
X81600500Y-69207314D01*
X81666392Y-69093186D01*
X81700500Y-68965892D01*
X81700500Y-68834108D01*
X81666392Y-68706814D01*
X81665383Y-68705067D01*
X81605011Y-68600500D01*
X81600500Y-68592686D01*
X81507314Y-68499500D01*
X81409431Y-68442987D01*
X81393185Y-68433607D01*
X81393186Y-68433607D01*
X81384551Y-68431294D01*
X81324891Y-68394928D01*
X81294363Y-68332080D01*
X81296872Y-68279429D01*
X81300500Y-68265892D01*
X81300500Y-68134108D01*
X81266392Y-68006814D01*
X81200500Y-67892686D01*
X81107314Y-67799500D01*
X81050250Y-67766554D01*
X80993187Y-67733608D01*
X80929539Y-67716554D01*
X80865892Y-67699500D01*
X80734108Y-67699500D01*
X80606812Y-67733608D01*
X80492686Y-67799500D01*
X80481938Y-67810248D01*
X80420613Y-67843731D01*
X80350922Y-67838744D01*
X80294990Y-67796871D01*
X80286872Y-67784564D01*
X80257452Y-67733608D01*
X80220313Y-67669281D01*
X80127127Y-67576095D01*
X80070063Y-67543149D01*
X80013000Y-67510203D01*
X79949352Y-67493149D01*
X79885705Y-67476095D01*
X79753921Y-67476095D01*
X79626625Y-67510203D01*
X79512499Y-67576095D01*
X79512496Y-67576097D01*
X79419315Y-67669278D01*
X79419313Y-67669281D01*
X79353421Y-67783407D01*
X79319313Y-67910703D01*
X72500500Y-67910703D01*
X72500500Y-65334108D01*
X73099500Y-65334108D01*
X73099500Y-65465891D01*
X73133608Y-65593187D01*
X73166554Y-65650250D01*
X73199500Y-65707314D01*
X73292686Y-65800500D01*
X73406814Y-65866392D01*
X73534108Y-65900500D01*
X73534110Y-65900500D01*
X73665890Y-65900500D01*
X73665892Y-65900500D01*
X73793186Y-65866392D01*
X73907314Y-65800500D01*
X74000500Y-65707314D01*
X74066392Y-65593186D01*
X74100500Y-65465892D01*
X74100500Y-65334108D01*
X74066392Y-65206814D01*
X74000500Y-65092686D01*
X73907314Y-64999500D01*
X73850250Y-64966554D01*
X73793187Y-64933608D01*
X73729539Y-64916554D01*
X73665892Y-64899500D01*
X73534108Y-64899500D01*
X73406812Y-64933608D01*
X73292686Y-64999500D01*
X73292683Y-64999502D01*
X73199502Y-65092683D01*
X73199500Y-65092686D01*
X73133608Y-65206812D01*
X73099500Y-65334108D01*
X72500500Y-65334108D01*
X72500500Y-62409108D01*
X80049500Y-62409108D01*
X80049500Y-62540891D01*
X80083608Y-62668187D01*
X80116554Y-62725250D01*
X80149500Y-62782314D01*
X80242686Y-62875500D01*
X80356814Y-62941392D01*
X80484108Y-62975500D01*
X80484110Y-62975500D01*
X80615890Y-62975500D01*
X80615892Y-62975500D01*
X80743186Y-62941392D01*
X80857314Y-62875500D01*
X80950500Y-62782314D01*
X81016392Y-62668186D01*
X81050500Y-62540892D01*
X81050500Y-62409108D01*
X81549500Y-62409108D01*
X81549500Y-62540891D01*
X81583608Y-62668187D01*
X81616554Y-62725250D01*
X81649500Y-62782314D01*
X81742686Y-62875500D01*
X81856814Y-62941392D01*
X81984108Y-62975500D01*
X81984110Y-62975500D01*
X82115890Y-62975500D01*
X82115892Y-62975500D01*
X82243186Y-62941392D01*
X82357314Y-62875500D01*
X82450500Y-62782314D01*
X82516392Y-62668186D01*
X82550500Y-62540892D01*
X82550500Y-62409108D01*
X82516392Y-62281814D01*
X82450500Y-62167686D01*
X82357314Y-62074500D01*
X82300250Y-62041554D01*
X82243187Y-62008608D01*
X82179539Y-61991554D01*
X82115892Y-61974500D01*
X81984108Y-61974500D01*
X81856812Y-62008608D01*
X81742686Y-62074500D01*
X81742683Y-62074502D01*
X81649502Y-62167683D01*
X81649500Y-62167686D01*
X81583608Y-62281812D01*
X81549500Y-62409108D01*
X81050500Y-62409108D01*
X81016392Y-62281814D01*
X80950500Y-62167686D01*
X80857314Y-62074500D01*
X80800250Y-62041554D01*
X80743187Y-62008608D01*
X80679539Y-61991554D01*
X80615892Y-61974500D01*
X80484108Y-61974500D01*
X80356812Y-62008608D01*
X80242686Y-62074500D01*
X80242683Y-62074502D01*
X80149502Y-62167683D01*
X80149500Y-62167686D01*
X80083608Y-62281812D01*
X80049500Y-62409108D01*
X72500500Y-62409108D01*
X72500500Y-61434108D01*
X73499500Y-61434108D01*
X73499500Y-61565892D01*
X73516554Y-61629539D01*
X73533608Y-61693187D01*
X73548371Y-61718756D01*
X73599500Y-61807314D01*
X73692686Y-61900500D01*
X73806814Y-61966392D01*
X73934108Y-62000500D01*
X73934110Y-62000500D01*
X74065890Y-62000500D01*
X74065892Y-62000500D01*
X74193186Y-61966392D01*
X74307314Y-61900500D01*
X74400500Y-61807314D01*
X74466392Y-61693186D01*
X74482222Y-61634108D01*
X82699500Y-61634108D01*
X82699500Y-61765892D01*
X82716554Y-61829539D01*
X82733608Y-61893187D01*
X82766554Y-61950250D01*
X82799500Y-62007314D01*
X82892686Y-62100500D01*
X83006814Y-62166392D01*
X83134108Y-62200500D01*
X83134110Y-62200500D01*
X83265890Y-62200500D01*
X83265892Y-62200500D01*
X83393186Y-62166392D01*
X83507314Y-62100500D01*
X83600500Y-62007314D01*
X83666392Y-61893186D01*
X83700500Y-61765892D01*
X83700500Y-61718756D01*
X85183736Y-61718756D01*
X85183736Y-61850539D01*
X85217844Y-61977835D01*
X85234864Y-62007314D01*
X85283736Y-62091962D01*
X85376922Y-62185148D01*
X85491050Y-62251040D01*
X85618344Y-62285148D01*
X85618346Y-62285148D01*
X85750126Y-62285148D01*
X85750128Y-62285148D01*
X85877422Y-62251040D01*
X85991550Y-62185148D01*
X86084736Y-62091962D01*
X86150628Y-61977834D01*
X86184736Y-61850540D01*
X86184736Y-61718756D01*
X86150628Y-61591462D01*
X86084736Y-61477334D01*
X85991550Y-61384148D01*
X85934486Y-61351202D01*
X85877423Y-61318256D01*
X85807423Y-61299500D01*
X85750128Y-61284148D01*
X85618344Y-61284148D01*
X85491048Y-61318256D01*
X85376922Y-61384148D01*
X85376919Y-61384150D01*
X85283738Y-61477331D01*
X85283736Y-61477334D01*
X85217844Y-61591460D01*
X85183736Y-61718756D01*
X83700500Y-61718756D01*
X83700500Y-61634108D01*
X83666392Y-61506814D01*
X83600500Y-61392686D01*
X83507314Y-61299500D01*
X83449968Y-61266391D01*
X83393187Y-61233608D01*
X83329539Y-61216554D01*
X83265892Y-61199500D01*
X83134108Y-61199500D01*
X83006812Y-61233608D01*
X82892686Y-61299500D01*
X82892683Y-61299502D01*
X82799502Y-61392683D01*
X82799500Y-61392686D01*
X82733608Y-61506812D01*
X82717778Y-61565892D01*
X82699500Y-61634108D01*
X74482222Y-61634108D01*
X74500500Y-61565892D01*
X74500500Y-61434108D01*
X74466392Y-61306814D01*
X74400500Y-61192686D01*
X74307314Y-61099500D01*
X74250250Y-61066554D01*
X74193187Y-61033608D01*
X74129539Y-61016554D01*
X74065892Y-60999500D01*
X73934108Y-60999500D01*
X73806812Y-61033608D01*
X73692686Y-61099500D01*
X73692683Y-61099502D01*
X73599502Y-61192683D01*
X73599500Y-61192686D01*
X73533608Y-61306812D01*
X73512886Y-61384150D01*
X73499500Y-61434108D01*
X72500500Y-61434108D01*
X72500500Y-60734108D01*
X84399500Y-60734108D01*
X84399500Y-60865891D01*
X84433608Y-60993187D01*
X84437253Y-60999500D01*
X84499500Y-61107314D01*
X84592686Y-61200500D01*
X84706814Y-61266392D01*
X84834108Y-61300500D01*
X84834110Y-61300500D01*
X84965890Y-61300500D01*
X84965892Y-61300500D01*
X85093186Y-61266392D01*
X85207314Y-61200500D01*
X85300500Y-61107314D01*
X85366392Y-60993186D01*
X85400500Y-60865892D01*
X85400500Y-60734108D01*
X85366392Y-60606814D01*
X85300500Y-60492686D01*
X85207314Y-60399500D01*
X85150250Y-60366554D01*
X85093187Y-60333608D01*
X85029539Y-60316554D01*
X84965892Y-60299500D01*
X84834108Y-60299500D01*
X84706812Y-60333608D01*
X84592686Y-60399500D01*
X84592683Y-60399502D01*
X84499502Y-60492683D01*
X84499500Y-60492686D01*
X84433608Y-60606812D01*
X84399500Y-60734108D01*
X72500500Y-60734108D01*
X72500500Y-58421933D01*
X86721125Y-58421933D01*
X86721125Y-58553716D01*
X86755233Y-58681012D01*
X86788179Y-58738075D01*
X86821125Y-58795139D01*
X86914311Y-58888325D01*
X87028439Y-58954217D01*
X87155733Y-58988325D01*
X87155735Y-58988325D01*
X87287515Y-58988325D01*
X87287517Y-58988325D01*
X87414811Y-58954217D01*
X87528939Y-58888325D01*
X87622125Y-58795139D01*
X87688017Y-58681011D01*
X87722125Y-58553717D01*
X87722125Y-58421933D01*
X87688017Y-58294639D01*
X87622125Y-58180511D01*
X87528939Y-58087325D01*
X87471875Y-58054379D01*
X87414812Y-58021433D01*
X87351164Y-58004379D01*
X87287517Y-57987325D01*
X87155733Y-57987325D01*
X87028437Y-58021433D01*
X86914311Y-58087325D01*
X86914308Y-58087327D01*
X86821127Y-58180508D01*
X86821125Y-58180511D01*
X86755233Y-58294637D01*
X86721125Y-58421933D01*
X72500500Y-58421933D01*
X72500500Y-55634108D01*
X89899500Y-55634108D01*
X89899500Y-55765891D01*
X89933608Y-55893187D01*
X89966554Y-55950250D01*
X89999500Y-56007314D01*
X90092686Y-56100500D01*
X90206814Y-56166392D01*
X90334108Y-56200500D01*
X90334110Y-56200500D01*
X90465890Y-56200500D01*
X90465892Y-56200500D01*
X90593186Y-56166392D01*
X90707314Y-56100500D01*
X90800500Y-56007314D01*
X90866392Y-55893186D01*
X90900500Y-55765892D01*
X90900500Y-55634108D01*
X90866392Y-55506814D01*
X90800500Y-55392686D01*
X90707314Y-55299500D01*
X90650250Y-55266554D01*
X90593187Y-55233608D01*
X90529539Y-55216554D01*
X90465892Y-55199500D01*
X90334108Y-55199500D01*
X90206812Y-55233608D01*
X90092686Y-55299500D01*
X90092683Y-55299502D01*
X89999502Y-55392683D01*
X89999500Y-55392686D01*
X89933608Y-55506812D01*
X89899500Y-55634108D01*
X72500500Y-55634108D01*
X72500500Y-54534108D01*
X75199500Y-54534108D01*
X75199500Y-54665892D01*
X75216554Y-54729539D01*
X75233608Y-54793187D01*
X75241475Y-54806812D01*
X75299500Y-54907314D01*
X75392686Y-55000500D01*
X75491521Y-55057563D01*
X75505944Y-55065890D01*
X75506814Y-55066392D01*
X75634108Y-55100500D01*
X75634110Y-55100500D01*
X75765890Y-55100500D01*
X75765892Y-55100500D01*
X75893186Y-55066392D01*
X76007314Y-55000500D01*
X76073706Y-54934108D01*
X87799500Y-54934108D01*
X87799500Y-55065891D01*
X87833608Y-55193187D01*
X87837253Y-55199500D01*
X87899500Y-55307314D01*
X87992686Y-55400500D01*
X88106814Y-55466392D01*
X88234108Y-55500500D01*
X88234110Y-55500500D01*
X88365890Y-55500500D01*
X88365892Y-55500500D01*
X88493186Y-55466392D01*
X88607314Y-55400500D01*
X88700500Y-55307314D01*
X88766392Y-55193186D01*
X88800500Y-55065892D01*
X88800500Y-54934108D01*
X88766392Y-54806814D01*
X88700500Y-54692686D01*
X88607314Y-54599500D01*
X88550250Y-54566554D01*
X88493187Y-54533608D01*
X88429539Y-54516554D01*
X88365892Y-54499500D01*
X88234108Y-54499500D01*
X88106812Y-54533608D01*
X87992686Y-54599500D01*
X87992683Y-54599502D01*
X87899502Y-54692683D01*
X87899500Y-54692686D01*
X87833608Y-54806812D01*
X87799500Y-54934108D01*
X76073706Y-54934108D01*
X76100500Y-54907314D01*
X76113023Y-54885622D01*
X76125520Y-54863980D01*
X76166390Y-54793189D01*
X76166392Y-54793186D01*
X76200500Y-54665892D01*
X76200500Y-54534108D01*
X76166392Y-54406814D01*
X76100500Y-54292686D01*
X76007314Y-54199500D01*
X75950250Y-54166554D01*
X75893187Y-54133608D01*
X75829539Y-54116554D01*
X75765892Y-54099500D01*
X75634108Y-54099500D01*
X75506812Y-54133608D01*
X75392686Y-54199500D01*
X75392683Y-54199502D01*
X75299502Y-54292683D01*
X75299500Y-54292686D01*
X75233608Y-54406812D01*
X75208773Y-54499500D01*
X75199500Y-54534108D01*
X72500500Y-54534108D01*
X72500500Y-52003750D01*
X72500726Y-51996264D01*
X72500943Y-51992683D01*
X72506216Y-51905513D01*
X73799500Y-51905513D01*
X73799500Y-52094486D01*
X73829059Y-52281118D01*
X73887454Y-52460836D01*
X73962089Y-52607314D01*
X73973240Y-52629199D01*
X74084310Y-52782073D01*
X74217927Y-52915690D01*
X74370801Y-53026760D01*
X74411231Y-53047360D01*
X74539163Y-53112545D01*
X74539165Y-53112545D01*
X74539168Y-53112547D01*
X74635497Y-53143846D01*
X74718881Y-53170940D01*
X74905514Y-53200500D01*
X74905519Y-53200500D01*
X75094486Y-53200500D01*
X75281118Y-53170940D01*
X75310211Y-53161487D01*
X75460832Y-53112547D01*
X75629199Y-53026760D01*
X75782073Y-52915690D01*
X75915690Y-52782073D01*
X76026760Y-52629199D01*
X76112547Y-52460832D01*
X76137476Y-52384108D01*
X79899500Y-52384108D01*
X79899500Y-52515891D01*
X79933608Y-52643187D01*
X79943886Y-52660988D01*
X79999500Y-52757314D01*
X80092686Y-52850500D01*
X80206814Y-52916392D01*
X80334108Y-52950500D01*
X80334110Y-52950500D01*
X80465890Y-52950500D01*
X80465892Y-52950500D01*
X80593186Y-52916392D01*
X80707314Y-52850500D01*
X80800500Y-52757314D01*
X80866392Y-52643186D01*
X80900500Y-52515892D01*
X80900500Y-52384108D01*
X80866392Y-52256814D01*
X80853283Y-52234108D01*
X82799500Y-52234108D01*
X82799500Y-52365892D01*
X82805366Y-52387783D01*
X82833608Y-52493187D01*
X82846717Y-52515892D01*
X82899500Y-52607314D01*
X82992686Y-52700500D01*
X83106814Y-52766392D01*
X83234108Y-52800500D01*
X83234110Y-52800500D01*
X83365890Y-52800500D01*
X83365892Y-52800500D01*
X83493186Y-52766392D01*
X83513499Y-52754663D01*
X83581399Y-52738191D01*
X83647426Y-52761043D01*
X83690617Y-52815964D01*
X83699500Y-52862051D01*
X83699500Y-52920066D01*
X83707655Y-52950500D01*
X83733608Y-53047361D01*
X83766554Y-53104424D01*
X83799500Y-53161488D01*
X83892686Y-53254674D01*
X84006814Y-53320566D01*
X84134108Y-53354674D01*
X84134110Y-53354674D01*
X84265890Y-53354674D01*
X84265892Y-53354674D01*
X84393186Y-53320566D01*
X84507314Y-53254674D01*
X84600500Y-53161488D01*
X84666392Y-53047360D01*
X84700500Y-52920066D01*
X84700500Y-52788282D01*
X84685984Y-52734108D01*
X85499500Y-52734108D01*
X85499500Y-52865892D01*
X85514016Y-52920066D01*
X85533608Y-52993187D01*
X85552991Y-53026759D01*
X85599500Y-53107314D01*
X85692686Y-53200500D01*
X85806814Y-53266392D01*
X85934108Y-53300500D01*
X85934110Y-53300500D01*
X86065890Y-53300500D01*
X86065892Y-53300500D01*
X86193186Y-53266392D01*
X86307314Y-53200500D01*
X86400500Y-53107314D01*
X86466392Y-52993186D01*
X86500500Y-52865892D01*
X86500500Y-52734108D01*
X86466392Y-52606814D01*
X86400500Y-52492686D01*
X86307314Y-52399500D01*
X86249102Y-52365891D01*
X86193187Y-52333608D01*
X86129539Y-52316554D01*
X86065892Y-52299500D01*
X85934108Y-52299500D01*
X85806812Y-52333608D01*
X85692686Y-52399500D01*
X85692683Y-52399502D01*
X85599502Y-52492683D01*
X85599500Y-52492686D01*
X85533608Y-52606812D01*
X85519092Y-52660988D01*
X85499500Y-52734108D01*
X84685984Y-52734108D01*
X84666392Y-52660988D01*
X84600500Y-52546860D01*
X84507314Y-52453674D01*
X84442028Y-52415981D01*
X84393187Y-52387782D01*
X84329539Y-52370728D01*
X84265892Y-52353674D01*
X84134108Y-52353674D01*
X84006814Y-52387782D01*
X84006813Y-52387782D01*
X84006811Y-52387783D01*
X84006808Y-52387784D01*
X83986498Y-52399510D01*
X83918598Y-52415981D01*
X83852571Y-52393128D01*
X83809382Y-52338206D01*
X83800500Y-52292122D01*
X83800500Y-52234110D01*
X83800500Y-52234108D01*
X83766392Y-52106814D01*
X83700500Y-51992686D01*
X83613327Y-51905513D01*
X89799500Y-51905513D01*
X89799500Y-52094486D01*
X89829059Y-52281118D01*
X89887454Y-52460836D01*
X89962089Y-52607314D01*
X89973240Y-52629199D01*
X90084310Y-52782073D01*
X90217927Y-52915690D01*
X90370801Y-53026760D01*
X90411231Y-53047360D01*
X90539163Y-53112545D01*
X90539165Y-53112545D01*
X90539168Y-53112547D01*
X90635497Y-53143846D01*
X90718881Y-53170940D01*
X90905514Y-53200500D01*
X90905519Y-53200500D01*
X91094486Y-53200500D01*
X91281118Y-53170940D01*
X91310211Y-53161487D01*
X91460832Y-53112547D01*
X91629199Y-53026760D01*
X91782073Y-52915690D01*
X91915690Y-52782073D01*
X92026760Y-52629199D01*
X92112547Y-52460832D01*
X92170940Y-52281118D01*
X92178386Y-52234108D01*
X92200500Y-52094486D01*
X92200500Y-51905513D01*
X92170940Y-51718881D01*
X92112545Y-51539163D01*
X92067290Y-51450347D01*
X92026760Y-51370801D01*
X91915690Y-51217927D01*
X91782073Y-51084310D01*
X91629199Y-50973240D01*
X91460836Y-50887454D01*
X91281118Y-50829059D01*
X91094486Y-50799500D01*
X91094481Y-50799500D01*
X90905519Y-50799500D01*
X90905514Y-50799500D01*
X90718881Y-50829059D01*
X90539163Y-50887454D01*
X90370800Y-50973240D01*
X90283579Y-51036610D01*
X90217927Y-51084310D01*
X90217925Y-51084312D01*
X90217924Y-51084312D01*
X90084312Y-51217924D01*
X90084312Y-51217925D01*
X90084310Y-51217927D01*
X90036610Y-51283579D01*
X89973240Y-51370800D01*
X89887454Y-51539163D01*
X89829059Y-51718881D01*
X89799500Y-51905513D01*
X83613327Y-51905513D01*
X83607314Y-51899500D01*
X83550250Y-51866554D01*
X83493187Y-51833608D01*
X83429539Y-51816554D01*
X83365892Y-51799500D01*
X83234108Y-51799500D01*
X83106812Y-51833608D01*
X82992686Y-51899500D01*
X82992683Y-51899502D01*
X82899502Y-51992683D01*
X82899500Y-51992686D01*
X82833608Y-52106812D01*
X82823997Y-52142683D01*
X82799500Y-52234108D01*
X80853283Y-52234108D01*
X80800500Y-52142686D01*
X80707314Y-52049500D01*
X80615107Y-51996264D01*
X80593187Y-51983608D01*
X80529539Y-51966554D01*
X80465892Y-51949500D01*
X80334108Y-51949500D01*
X80206812Y-51983608D01*
X80092686Y-52049500D01*
X80092683Y-52049502D01*
X79999502Y-52142683D01*
X79999500Y-52142686D01*
X79933608Y-52256812D01*
X79899500Y-52384108D01*
X76137476Y-52384108D01*
X76143395Y-52365892D01*
X76152568Y-52337662D01*
X76152568Y-52337661D01*
X76170939Y-52281122D01*
X76170939Y-52281121D01*
X76170940Y-52281118D01*
X76186169Y-52184963D01*
X76200500Y-52094486D01*
X76200500Y-51905513D01*
X76170940Y-51718881D01*
X76112545Y-51539163D01*
X76067290Y-51450347D01*
X76026760Y-51370801D01*
X75915690Y-51217927D01*
X75782073Y-51084310D01*
X75629199Y-50973240D01*
X75460836Y-50887454D01*
X75281118Y-50829059D01*
X75094486Y-50799500D01*
X75094481Y-50799500D01*
X74905519Y-50799500D01*
X74905514Y-50799500D01*
X74718881Y-50829059D01*
X74539163Y-50887454D01*
X74370800Y-50973240D01*
X74283579Y-51036610D01*
X74217927Y-51084310D01*
X74217925Y-51084312D01*
X74217924Y-51084312D01*
X74084312Y-51217924D01*
X74084312Y-51217925D01*
X74084310Y-51217927D01*
X74036610Y-51283579D01*
X73973240Y-51370800D01*
X73887454Y-51539163D01*
X73829059Y-51718881D01*
X73799500Y-51905513D01*
X72506216Y-51905513D01*
X72518271Y-51706201D01*
X72520076Y-51691340D01*
X72571780Y-51409201D01*
X72575364Y-51394663D01*
X72582800Y-51370800D01*
X72660696Y-51120822D01*
X72665998Y-51106841D01*
X72783731Y-50845249D01*
X72790676Y-50832016D01*
X72939080Y-50586526D01*
X72947567Y-50574230D01*
X73124480Y-50348417D01*
X73134395Y-50337226D01*
X73337226Y-50134395D01*
X73348417Y-50124480D01*
X73574230Y-49947567D01*
X73586526Y-49939080D01*
X73832016Y-49790676D01*
X73845249Y-49783731D01*
X74106841Y-49665998D01*
X74120822Y-49660696D01*
X74394668Y-49575362D01*
X74409197Y-49571780D01*
X74691344Y-49520075D01*
X74706201Y-49518271D01*
X74996264Y-49500726D01*
X75003751Y-49500500D01*
X75065892Y-49500500D01*
X90934108Y-49500500D01*
X90996249Y-49500500D01*
X91003736Y-49500726D01*
G37*
%TD.AperFunction*%
%TD*%
M02*
